G04 #@! TF.GenerationSoftware,KiCad,Pcbnew,(5.0.2)-1*
G04 #@! TF.CreationDate,2019-01-31T22:52:24+01:00*
G04 #@! TF.ProjectId,v3,76332e6b-6963-4616-945f-706362585858,rev?*
G04 #@! TF.SameCoordinates,Original*
G04 #@! TF.FileFunction,Legend,Bot*
G04 #@! TF.FilePolarity,Positive*
%FSLAX46Y46*%
G04 Gerber Fmt 4.6, Leading zero omitted, Abs format (unit mm)*
G04 Created by KiCad (PCBNEW (5.0.2)-1) date 31/01/2019 22:52:24*
%MOMM*%
%LPD*%
G01*
G04 APERTURE LIST*
%ADD10C,0.010000*%
G04 APERTURE END LIST*
D10*
G04 #@! TO.C,G\002A\002A\002A*
G36*
X86618000Y-59249333D02*
X103297333Y-59249333D01*
X103297333Y-50867333D01*
X101096000Y-50867333D01*
X101096000Y-52899333D01*
X99064000Y-52899333D01*
X99064000Y-55016000D01*
X101096000Y-55016000D01*
X101096000Y-57048000D01*
X96947333Y-57048000D01*
X96947333Y-52899333D01*
X94915333Y-52899333D01*
X94915333Y-57048000D01*
X92886344Y-57048000D01*
X92863672Y-54994833D01*
X92841000Y-52941667D01*
X91803833Y-52917894D01*
X90766667Y-52894121D01*
X90766667Y-57048000D01*
X88734667Y-57048000D01*
X88734667Y-50867333D01*
X101096000Y-50867333D01*
X103297333Y-50867333D01*
X103297333Y-48750667D01*
X86618000Y-48750667D01*
X86618000Y-59249333D01*
X86618000Y-59249333D01*
G37*
X86618000Y-59249333D02*
X103297333Y-59249333D01*
X103297333Y-50867333D01*
X101096000Y-50867333D01*
X101096000Y-52899333D01*
X99064000Y-52899333D01*
X99064000Y-55016000D01*
X101096000Y-55016000D01*
X101096000Y-57048000D01*
X96947333Y-57048000D01*
X96947333Y-52899333D01*
X94915333Y-52899333D01*
X94915333Y-57048000D01*
X92886344Y-57048000D01*
X92863672Y-54994833D01*
X92841000Y-52941667D01*
X91803833Y-52917894D01*
X90766667Y-52894121D01*
X90766667Y-57048000D01*
X88734667Y-57048000D01*
X88734667Y-50867333D01*
X101096000Y-50867333D01*
X103297333Y-50867333D01*
X103297333Y-48750667D01*
X86618000Y-48750667D01*
X86618000Y-59249333D01*
G04 #@! TD*
M02*
