G04 #@! TF.GenerationSoftware,KiCad,Pcbnew,(5.0.2)-1*
G04 #@! TF.CreationDate,2019-01-31T22:52:24+01:00*
G04 #@! TF.ProjectId,v3,76332e6b-6963-4616-945f-706362585858,rev?*
G04 #@! TF.SameCoordinates,Original*
G04 #@! TF.FileFunction,Copper,L2,Bot*
G04 #@! TF.FilePolarity,Positive*
%FSLAX46Y46*%
G04 Gerber Fmt 4.6, Leading zero omitted, Abs format (unit mm)*
G04 Created by KiCad (PCBNEW (5.0.2)-1) date 31/01/2019 22:52:24*
%MOMM*%
%LPD*%
G01*
G04 APERTURE LIST*
G04 #@! TA.AperFunction,NonConductor*
%ADD10C,0.300000*%
G04 #@! TD*
G04 #@! TA.AperFunction,ComponentPad*
%ADD11C,1.800000*%
G04 #@! TD*
G04 #@! TA.AperFunction,ComponentPad*
%ADD12O,1.501140X2.199640*%
G04 #@! TD*
G04 #@! TA.AperFunction,ComponentPad*
%ADD13O,2.199640X1.501140*%
G04 #@! TD*
G04 #@! TA.AperFunction,ComponentPad*
%ADD14R,1.600000X1.600000*%
G04 #@! TD*
G04 #@! TA.AperFunction,ComponentPad*
%ADD15C,1.600000*%
G04 #@! TD*
G04 #@! TA.AperFunction,ComponentPad*
%ADD16O,1.700000X1.700000*%
G04 #@! TD*
G04 #@! TA.AperFunction,ComponentPad*
%ADD17R,1.700000X1.700000*%
G04 #@! TD*
G04 #@! TA.AperFunction,ComponentPad*
%ADD18R,1.520000X1.520000*%
G04 #@! TD*
G04 #@! TA.AperFunction,ComponentPad*
%ADD19C,1.520000*%
G04 #@! TD*
G04 #@! TA.AperFunction,ComponentPad*
%ADD20O,1.600000X1.600000*%
G04 #@! TD*
G04 #@! TA.AperFunction,ComponentPad*
%ADD21O,1.800000X1.800000*%
G04 #@! TD*
G04 #@! TA.AperFunction,ComponentPad*
%ADD22R,1.800000X1.800000*%
G04 #@! TD*
G04 #@! TA.AperFunction,ComponentPad*
%ADD23O,2.000000X2.600000*%
G04 #@! TD*
G04 #@! TA.AperFunction,ComponentPad*
%ADD24R,2.000000X2.600000*%
G04 #@! TD*
G04 #@! TA.AperFunction,ComponentPad*
%ADD25C,2.000000*%
G04 #@! TD*
G04 #@! TA.AperFunction,ComponentPad*
%ADD26O,2.200000X3.500000*%
G04 #@! TD*
G04 #@! TA.AperFunction,ComponentPad*
%ADD27O,1.500000X2.500000*%
G04 #@! TD*
G04 #@! TA.AperFunction,ComponentPad*
%ADD28R,1.500000X2.500000*%
G04 #@! TD*
G04 #@! TA.AperFunction,ViaPad*
%ADD29C,0.800000*%
G04 #@! TD*
G04 #@! TA.AperFunction,Conductor*
%ADD30C,0.250000*%
G04 #@! TD*
G04 #@! TA.AperFunction,Conductor*
%ADD31C,1.500000*%
G04 #@! TD*
G04 #@! TA.AperFunction,Conductor*
%ADD32C,0.254000*%
G04 #@! TD*
G04 APERTURE END LIST*
D10*
X101103142Y-47922571D02*
X101103142Y-46422571D01*
X100246000Y-47922571D01*
X100246000Y-46422571D01*
X99531714Y-46422571D02*
X99531714Y-47636857D01*
X99460285Y-47779714D01*
X99388857Y-47851142D01*
X99246000Y-47922571D01*
X98960285Y-47922571D01*
X98817428Y-47851142D01*
X98746000Y-47779714D01*
X98674571Y-47636857D01*
X98674571Y-46422571D01*
X97960285Y-47922571D02*
X97960285Y-46422571D01*
X97460285Y-47494000D01*
X96960285Y-46422571D01*
X96960285Y-47922571D01*
X96246000Y-47136857D02*
X95746000Y-47136857D01*
X95531714Y-47922571D02*
X96246000Y-47922571D01*
X96246000Y-46422571D01*
X95531714Y-46422571D01*
X94031714Y-47922571D02*
X94531714Y-47208285D01*
X94888857Y-47922571D02*
X94888857Y-46422571D01*
X94317428Y-46422571D01*
X94174571Y-46494000D01*
X94103142Y-46565428D01*
X94031714Y-46708285D01*
X94031714Y-46922571D01*
X94103142Y-47065428D01*
X94174571Y-47136857D01*
X94317428Y-47208285D01*
X94888857Y-47208285D01*
X93103142Y-46422571D02*
X92817428Y-46422571D01*
X92674571Y-46494000D01*
X92531714Y-46636857D01*
X92460285Y-46922571D01*
X92460285Y-47422571D01*
X92531714Y-47708285D01*
X92674571Y-47851142D01*
X92817428Y-47922571D01*
X93103142Y-47922571D01*
X93246000Y-47851142D01*
X93388857Y-47708285D01*
X93460285Y-47422571D01*
X93460285Y-46922571D01*
X93388857Y-46636857D01*
X93246000Y-46494000D01*
X93103142Y-46422571D01*
X91317428Y-47136857D02*
X91103142Y-47208285D01*
X91031714Y-47279714D01*
X90960285Y-47422571D01*
X90960285Y-47636857D01*
X91031714Y-47779714D01*
X91103142Y-47851142D01*
X91246000Y-47922571D01*
X91817428Y-47922571D01*
X91817428Y-46422571D01*
X91317428Y-46422571D01*
X91174571Y-46494000D01*
X91103142Y-46565428D01*
X91031714Y-46708285D01*
X91031714Y-46851142D01*
X91103142Y-46994000D01*
X91174571Y-47065428D01*
X91317428Y-47136857D01*
X91817428Y-47136857D01*
X90317428Y-47922571D02*
X90317428Y-46422571D01*
X89674571Y-47851142D02*
X89460285Y-47922571D01*
X89103142Y-47922571D01*
X88960285Y-47851142D01*
X88888857Y-47779714D01*
X88817428Y-47636857D01*
X88817428Y-47494000D01*
X88888857Y-47351142D01*
X88960285Y-47279714D01*
X89103142Y-47208285D01*
X89388857Y-47136857D01*
X89531714Y-47065428D01*
X89603142Y-46994000D01*
X89674571Y-46851142D01*
X89674571Y-46708285D01*
X89603142Y-46565428D01*
X89531714Y-46494000D01*
X89388857Y-46422571D01*
X89031714Y-46422571D01*
X88817428Y-46494000D01*
D11*
G04 #@! TO.P,PCB101,1*
G04 #@! TO.N,/AlimArduino*
X122750000Y-98000000D03*
G04 #@! TO.P,PCB101,2*
G04 #@! TO.N,-BATT*
X122750000Y-95000000D03*
G04 #@! TO.P,PCB101,3*
G04 #@! TO.N,/IN1_HBridge*
X119250000Y-90000000D03*
G04 #@! TO.P,PCB101,4*
G04 #@! TO.N,/IN2_HBridge*
X119250000Y-87000000D03*
G04 #@! TO.P,PCB101,5*
G04 #@! TO.N,/IN3_HBridge*
X119250000Y-83750000D03*
G04 #@! TO.P,PCB101,6*
G04 #@! TO.N,/IN4_HBridge*
X119250000Y-80750000D03*
G04 #@! TO.P,PCB101,7*
G04 #@! TO.N,/MotorLeftN*
X104750000Y-90000000D03*
G04 #@! TO.P,PCB101,8*
G04 #@! TO.N,/MotorLeftP*
X104750000Y-87000000D03*
G04 #@! TO.P,PCB101,9*
G04 #@! TO.N,/MotorRightN*
X104750000Y-83750000D03*
G04 #@! TO.P,PCB101,10*
G04 #@! TO.N,/MotorRightP*
X104750000Y-80750000D03*
G04 #@! TD*
D12*
G04 #@! TO.P,IC101,28*
G04 #@! TO.N,/interface1*
X72920000Y-93080000D03*
G04 #@! TO.P,IC101,27*
G04 #@! TO.N,/distanceSensor3*
X70380000Y-93080000D03*
G04 #@! TO.P,IC101,1*
G04 #@! TO.N,/TX*
X91970000Y-80380000D03*
G04 #@! TO.P,IC101,2*
G04 #@! TO.N,/RX*
X89430000Y-80380000D03*
G04 #@! TO.P,IC101,3*
G04 #@! TO.N,/Reset*
X86890000Y-80380000D03*
G04 #@! TO.P,IC101,4*
G04 #@! TO.N,-BATT*
X84350000Y-80380000D03*
G04 #@! TO.P,IC101,5*
G04 #@! TO.N,/CoderLeftA*
X81810000Y-80380000D03*
G04 #@! TO.P,IC101,6*
G04 #@! TO.N,/CoderRightA*
X79270000Y-80380000D03*
G04 #@! TO.P,IC101,7*
G04 #@! TO.N,/arduinoGroundSensorEmitter*
X76730000Y-80380000D03*
G04 #@! TO.P,IC101,8*
G04 #@! TO.N,/IN1_HBridge*
X74190000Y-80380000D03*
G04 #@! TO.P,IC101,9*
G04 #@! TO.N,/IN3_HBridge*
X71650000Y-80380000D03*
G04 #@! TO.P,IC101,10*
G04 #@! TO.N,/CoderLeftB*
X69110000Y-80380000D03*
G04 #@! TO.P,IC101,11*
G04 #@! TO.N,/CoderRightB*
X66570000Y-80380000D03*
G04 #@! TO.P,IC101,12*
G04 #@! TO.N,/TOF3_XSHUT_CTRL*
X64030000Y-80380000D03*
G04 #@! TO.P,IC101,13*
G04 #@! TO.N,/IN2_HBridge*
X64030000Y-95620000D03*
G04 #@! TO.P,IC101,14*
G04 #@! TO.N,/IN4_HBridge*
X66570000Y-95620000D03*
G04 #@! TO.P,IC101,15*
G04 #@! TO.N,/TOF2_XSHUT_CTRL*
X69110000Y-95620000D03*
G04 #@! TO.P,IC101,16*
G04 #@! TO.N,/Led1*
X71650000Y-95620000D03*
G04 #@! TO.P,IC101,17*
G04 #@! TO.N,/groundSensor1*
X74190000Y-95620000D03*
G04 #@! TO.P,IC101,18*
G04 #@! TO.N,/groundSensor2*
X76730000Y-95620000D03*
G04 #@! TO.P,IC101,19*
G04 #@! TO.N,/distanceSensor1*
X79270000Y-95620000D03*
G04 #@! TO.P,IC101,20*
G04 #@! TO.N,/distanceSensor2*
X81810000Y-95620000D03*
G04 #@! TO.P,IC101,21*
G04 #@! TO.N,Net-(IC101-Pad21)*
X84350000Y-95620000D03*
G04 #@! TO.P,IC101,22*
G04 #@! TO.N,/Reset*
X86890000Y-95620000D03*
G04 #@! TO.P,IC101,23*
G04 #@! TO.N,-BATT*
X89430000Y-95620000D03*
G04 #@! TO.P,IC101,24*
G04 #@! TO.N,/AlimArduino*
X91970000Y-95620000D03*
G04 #@! TO.P,IC101,25*
G04 #@! TO.N,/TOF_SDA*
X80540000Y-93080000D03*
G04 #@! TO.P,IC101,26*
G04 #@! TO.N,/TOF_SCL*
X83080000Y-93080000D03*
D13*
G04 #@! TO.P,IC101,27*
G04 #@! TO.N,/distanceSensor3*
X64030000Y-93080000D03*
G04 #@! TO.P,IC101,28*
G04 #@! TO.N,/interface1*
X64030000Y-90540000D03*
G04 #@! TO.P,IC101,29*
G04 #@! TO.N,-BATT*
X64030000Y-88000000D03*
G04 #@! TD*
D14*
G04 #@! TO.P,C101,1*
G04 #@! TO.N,/AlimArduino*
X116000000Y-104000000D03*
D15*
G04 #@! TO.P,C101,2*
G04 #@! TO.N,-BATT*
X118500000Y-104000000D03*
G04 #@! TD*
G04 #@! TO.P,C102,2*
G04 #@! TO.N,-BATT*
X112500000Y-104000000D03*
D14*
G04 #@! TO.P,C102,1*
G04 #@! TO.N,/5V*
X110000000Y-104000000D03*
G04 #@! TD*
D16*
G04 #@! TO.P,J104,4*
G04 #@! TO.N,/TX*
X65024000Y-109728000D03*
G04 #@! TO.P,J104,3*
G04 #@! TO.N,/Led2*
X65024000Y-112268000D03*
G04 #@! TO.P,J104,2*
G04 #@! TO.N,/RX*
X62484000Y-109728000D03*
D17*
G04 #@! TO.P,J104,1*
G04 #@! TO.N,/Button2*
X62484000Y-112268000D03*
G04 #@! TD*
D16*
G04 #@! TO.P,J106,3*
G04 #@! TO.N,/arduinoGroundSensorEmitter*
X56080000Y-103000000D03*
G04 #@! TO.P,J106,2*
G04 #@! TO.N,/groundSensorEmitter*
X53540000Y-103000000D03*
D17*
G04 #@! TO.P,J106,1*
G04 #@! TO.N,/5V*
X51000000Y-103000000D03*
G04 #@! TD*
D18*
G04 #@! TO.P,Q101,1*
G04 #@! TO.N,-BATT*
X56000000Y-99000000D03*
D19*
G04 #@! TO.P,Q101,3*
G04 #@! TO.N,/TOF2_XSHUT*
X56000000Y-93920000D03*
G04 #@! TO.P,Q101,2*
G04 #@! TO.N,Net-(Q101-Pad2)*
X56000000Y-96460000D03*
G04 #@! TD*
G04 #@! TO.P,Q102,2*
G04 #@! TO.N,Net-(Q102-Pad2)*
X131064000Y-92456000D03*
G04 #@! TO.P,Q102,3*
G04 #@! TO.N,/TOF3_XSHUT*
X131064000Y-94996000D03*
D18*
G04 #@! TO.P,Q102,1*
G04 #@! TO.N,-BATT*
X131064000Y-89916000D03*
G04 #@! TD*
D20*
G04 #@! TO.P,R101,2*
G04 #@! TO.N,/Reset*
X77724000Y-88392000D03*
D15*
G04 #@! TO.P,R101,1*
G04 #@! TO.N,/5V*
X67564000Y-88392000D03*
G04 #@! TD*
D20*
G04 #@! TO.P,R102,2*
G04 #@! TO.N,/Button2*
X56000000Y-80840000D03*
D15*
G04 #@! TO.P,R102,1*
G04 #@! TO.N,/5V*
X56000000Y-91000000D03*
G04 #@! TD*
G04 #@! TO.P,R103,1*
G04 #@! TO.N,/5V*
X60000000Y-91000000D03*
D20*
G04 #@! TO.P,R103,2*
G04 #@! TO.N,/Button1*
X60000000Y-80840000D03*
G04 #@! TD*
G04 #@! TO.P,R104,2*
G04 #@! TO.N,/TOF_SCL*
X82840000Y-88000000D03*
D15*
G04 #@! TO.P,R104,1*
G04 #@! TO.N,/5V*
X93000000Y-88000000D03*
G04 #@! TD*
G04 #@! TO.P,R105,1*
G04 #@! TO.N,/5V*
X91000000Y-85000000D03*
D20*
G04 #@! TO.P,R105,2*
G04 #@! TO.N,/TOF_SDA*
X80840000Y-85000000D03*
G04 #@! TD*
G04 #@! TO.P,R106,2*
G04 #@! TO.N,/TOF2_XSHUT_CTRL*
X74160000Y-85000000D03*
D15*
G04 #@! TO.P,R106,1*
G04 #@! TO.N,Net-(Q101-Pad2)*
X64000000Y-85000000D03*
G04 #@! TD*
G04 #@! TO.P,R107,1*
G04 #@! TO.N,Net-(LED1-Pad2)*
X81000000Y-111000000D03*
D20*
G04 #@! TO.P,R107,2*
G04 #@! TO.N,/Led1*
X81000000Y-100840000D03*
G04 #@! TD*
G04 #@! TO.P,R108,2*
G04 #@! TO.N,/Led2*
X78000000Y-111160000D03*
D15*
G04 #@! TO.P,R108,1*
G04 #@! TO.N,Net-(LED2-Pad2)*
X78000000Y-101000000D03*
G04 #@! TD*
G04 #@! TO.P,R109,1*
G04 #@! TO.N,Net-(Q102-Pad2)*
X125000000Y-113000000D03*
D20*
G04 #@! TO.P,R109,2*
G04 #@! TO.N,/TOF3_XSHUT_CTRL*
X125000000Y-102840000D03*
G04 #@! TD*
D15*
G04 #@! TO.P,R116,1*
G04 #@! TO.N,Net-(5V_1-Pad1)*
X95000000Y-109000000D03*
D20*
G04 #@! TO.P,R116,2*
G04 #@! TO.N,-BATT*
X105160000Y-109000000D03*
G04 #@! TD*
G04 #@! TO.P,R117,2*
G04 #@! TO.N,-BATT*
X71628000Y-114808000D03*
D15*
G04 #@! TO.P,R117,1*
G04 #@! TO.N,Net-(POWER_1-Pad1)*
X81788000Y-114808000D03*
G04 #@! TD*
D21*
G04 #@! TO.P,U101,3*
G04 #@! TO.N,/5V*
X112920000Y-111000000D03*
G04 #@! TO.P,U101,2*
G04 #@! TO.N,-BATT*
X115460000Y-111000000D03*
D22*
G04 #@! TO.P,U101,1*
G04 #@! TO.N,/AlimArduino*
X118000000Y-111000000D03*
G04 #@! TD*
D11*
G04 #@! TO.P,5V_1,2*
G04 #@! TO.N,/5V*
X87540000Y-109000000D03*
D22*
G04 #@! TO.P,5V_1,1*
G04 #@! TO.N,Net-(5V_1-Pad1)*
X85000000Y-109000000D03*
G04 #@! TD*
D23*
G04 #@! TO.P,BATT1,2*
G04 #@! TO.N,-BATT*
X132540000Y-85000000D03*
D24*
G04 #@! TO.P,BATT1,1*
G04 #@! TO.N,+BATT*
X130000000Y-85000000D03*
G04 #@! TD*
D25*
G04 #@! TO.P,BUTT1,1*
G04 #@! TO.N,/Button1*
X58000000Y-77000000D03*
G04 #@! TO.P,BUTT1,2*
G04 #@! TO.N,-BATT*
X58000000Y-72500000D03*
G04 #@! TO.P,BUTT1,1*
G04 #@! TO.N,/Button1*
X64500000Y-77000000D03*
G04 #@! TO.P,BUTT1,2*
G04 #@! TO.N,-BATT*
X64500000Y-72500000D03*
G04 #@! TD*
G04 #@! TO.P,BUTT2,2*
G04 #@! TO.N,-BATT*
X55000000Y-72500000D03*
G04 #@! TO.P,BUTT2,1*
G04 #@! TO.N,/Button2*
X55000000Y-77000000D03*
G04 #@! TO.P,BUTT2,2*
G04 #@! TO.N,-BATT*
X48500000Y-72500000D03*
G04 #@! TO.P,BUTT2,1*
G04 #@! TO.N,/Button2*
X48500000Y-77000000D03*
G04 #@! TD*
D16*
G04 #@! TO.P,ext1,6*
G04 #@! TO.N,-BATT*
X119380000Y-73406000D03*
G04 #@! TO.P,ext1,5*
X119380000Y-75946000D03*
G04 #@! TO.P,ext1,4*
G04 #@! TO.N,+BATT*
X116840000Y-73406000D03*
G04 #@! TO.P,ext1,3*
G04 #@! TO.N,/TX*
X116840000Y-75946000D03*
G04 #@! TO.P,ext1,2*
G04 #@! TO.N,+BATT*
X114300000Y-73406000D03*
D17*
G04 #@! TO.P,ext1,1*
G04 #@! TO.N,/RX*
X114300000Y-75946000D03*
G04 #@! TD*
D22*
G04 #@! TO.P,LED1,1*
G04 #@! TO.N,-BATT*
X72136000Y-108712000D03*
D11*
G04 #@! TO.P,LED1,2*
G04 #@! TO.N,Net-(LED1-Pad2)*
X74676000Y-108712000D03*
G04 #@! TD*
G04 #@! TO.P,LED2,2*
G04 #@! TO.N,Net-(LED2-Pad2)*
X74676000Y-102108000D03*
D22*
G04 #@! TO.P,LED2,1*
G04 #@! TO.N,-BATT*
X72136000Y-102108000D03*
G04 #@! TD*
D23*
G04 #@! TO.P,MOT_L_1,6*
G04 #@! TO.N,/MotorLeftN*
X109700000Y-74000000D03*
G04 #@! TO.P,MOT_L_1,5*
G04 #@! TO.N,/5V*
X107160000Y-74000000D03*
G04 #@! TO.P,MOT_L_1,4*
G04 #@! TO.N,/CoderLeftB*
X104620000Y-74000000D03*
G04 #@! TO.P,MOT_L_1,3*
G04 #@! TO.N,/CoderLeftA*
X102080000Y-74000000D03*
G04 #@! TO.P,MOT_L_1,2*
G04 #@! TO.N,-BATT*
X99540000Y-74000000D03*
D24*
G04 #@! TO.P,MOT_L_1,1*
G04 #@! TO.N,/MotorLeftP*
X97000000Y-74000000D03*
G04 #@! TD*
G04 #@! TO.P,MOT_R_1,1*
G04 #@! TO.N,/MotorRightP*
X80300000Y-74000000D03*
D23*
G04 #@! TO.P,MOT_R_1,2*
G04 #@! TO.N,-BATT*
X82840000Y-74000000D03*
G04 #@! TO.P,MOT_R_1,3*
G04 #@! TO.N,/CoderRightA*
X85380000Y-74000000D03*
G04 #@! TO.P,MOT_R_1,4*
G04 #@! TO.N,/CoderRightB*
X87920000Y-74000000D03*
G04 #@! TO.P,MOT_R_1,5*
G04 #@! TO.N,/5V*
X90460000Y-74000000D03*
G04 #@! TO.P,MOT_R_1,6*
G04 #@! TO.N,/MotorRightN*
X93000000Y-74000000D03*
G04 #@! TD*
D22*
G04 #@! TO.P,POWER_1,1*
G04 #@! TO.N,Net-(POWER_1-Pad1)*
X85000000Y-102000000D03*
D11*
G04 #@! TO.P,POWER_1,2*
G04 #@! TO.N,/AlimArduino*
X87540000Y-102000000D03*
G04 #@! TD*
D26*
G04 #@! TO.P,PWR_1,*
G04 #@! TO.N,*
X132400000Y-74000000D03*
X140600000Y-74000000D03*
D27*
G04 #@! TO.P,PWR_1,3*
G04 #@! TO.N,N/C*
X134500000Y-74000000D03*
G04 #@! TO.P,PWR_1,2*
G04 #@! TO.N,/AlimArduino*
X136500000Y-74000000D03*
D28*
G04 #@! TO.P,PWR_1,1*
G04 #@! TO.N,+BATT*
X138500000Y-74000000D03*
G04 #@! TD*
D17*
G04 #@! TO.P,QTR_1,1*
G04 #@! TO.N,/groundSensor2*
X139000000Y-107000000D03*
D16*
G04 #@! TO.P,QTR_1,2*
G04 #@! TO.N,/groundSensorEmitter*
X136460000Y-107000000D03*
G04 #@! TO.P,QTR_1,3*
G04 #@! TO.N,-BATT*
X133920000Y-107000000D03*
G04 #@! TD*
G04 #@! TO.P,QTR_2,3*
G04 #@! TO.N,-BATT*
X50920000Y-107000000D03*
G04 #@! TO.P,QTR_2,2*
G04 #@! TO.N,/groundSensorEmitter*
X53460000Y-107000000D03*
D17*
G04 #@! TO.P,QTR_2,1*
G04 #@! TO.N,/groundSensor1*
X56000000Y-107000000D03*
G04 #@! TD*
D16*
G04 #@! TO.P,SHARP1,3*
G04 #@! TO.N,-BATT*
X121920000Y-117000000D03*
G04 #@! TO.P,SHARP1,2*
G04 #@! TO.N,/5V*
X124460000Y-117000000D03*
D17*
G04 #@! TO.P,SHARP1,1*
G04 #@! TO.N,/distanceSensor1*
X127000000Y-117000000D03*
G04 #@! TD*
G04 #@! TO.P,SHARP2,1*
G04 #@! TO.N,/distanceSensor2*
X91000000Y-117000000D03*
D16*
G04 #@! TO.P,SHARP2,2*
G04 #@! TO.N,/5V*
X88460000Y-117000000D03*
G04 #@! TO.P,SHARP2,3*
G04 #@! TO.N,-BATT*
X85920000Y-117000000D03*
G04 #@! TD*
G04 #@! TO.P,SHARP3,3*
G04 #@! TO.N,-BATT*
X62484000Y-117000000D03*
G04 #@! TO.P,SHARP3,2*
G04 #@! TO.N,/5V*
X65024000Y-117000000D03*
D17*
G04 #@! TO.P,SHARP3,1*
G04 #@! TO.N,/distanceSensor3*
X67564000Y-117000000D03*
G04 #@! TD*
D16*
G04 #@! TO.P,VL53_1,7*
G04 #@! TO.N,/TOF1_GPIO1*
X106080000Y-113000000D03*
G04 #@! TO.P,VL53_1,6*
G04 #@! TO.N,/TOF1_XSHUT*
X103540000Y-113000000D03*
G04 #@! TO.P,VL53_1,5*
G04 #@! TO.N,/TOF_SCL*
X101000000Y-113000000D03*
G04 #@! TO.P,VL53_1,4*
G04 #@! TO.N,/TOF_SDA*
X98460000Y-113000000D03*
G04 #@! TO.P,VL53_1,3*
G04 #@! TO.N,-BATT*
X95920000Y-113000000D03*
G04 #@! TO.P,VL53_1,2*
G04 #@! TO.N,/5V*
X93380000Y-113000000D03*
D17*
G04 #@! TO.P,VL53_1,1*
G04 #@! TO.N,/TOF1_VDD*
X90840000Y-113000000D03*
G04 #@! TD*
D16*
G04 #@! TO.P,VL53_2,7*
G04 #@! TO.N,/TOF2_GPIO1*
X51000000Y-97240000D03*
G04 #@! TO.P,VL53_2,6*
G04 #@! TO.N,/TOF2_XSHUT*
X51000000Y-94700000D03*
G04 #@! TO.P,VL53_2,5*
G04 #@! TO.N,/TOF_SCL*
X51000000Y-92160000D03*
G04 #@! TO.P,VL53_2,4*
G04 #@! TO.N,/TOF_SDA*
X51000000Y-89620000D03*
G04 #@! TO.P,VL53_2,3*
G04 #@! TO.N,-BATT*
X51000000Y-87080000D03*
G04 #@! TO.P,VL53_2,2*
G04 #@! TO.N,/5V*
X51000000Y-84540000D03*
D17*
G04 #@! TO.P,VL53_2,1*
G04 #@! TO.N,/TOF2_VDD*
X51000000Y-82000000D03*
G04 #@! TD*
G04 #@! TO.P,VL53_3,1*
G04 #@! TO.N,/TOF3_VDD*
X139000000Y-98000000D03*
D16*
G04 #@! TO.P,VL53_3,2*
G04 #@! TO.N,/5V*
X139000000Y-95460000D03*
G04 #@! TO.P,VL53_3,3*
G04 #@! TO.N,-BATT*
X139000000Y-92920000D03*
G04 #@! TO.P,VL53_3,4*
G04 #@! TO.N,/TOF_SDA*
X139000000Y-90380000D03*
G04 #@! TO.P,VL53_3,5*
G04 #@! TO.N,/TOF_SCL*
X139000000Y-87840000D03*
G04 #@! TO.P,VL53_3,6*
G04 #@! TO.N,/TOF3_XSHUT*
X139000000Y-85300000D03*
G04 #@! TO.P,VL53_3,7*
G04 #@! TO.N,Net-(VL53_3-Pad7)*
X139000000Y-82760000D03*
G04 #@! TD*
D17*
G04 #@! TO.P,interface1,1*
G04 #@! TO.N,/Button1*
X123190000Y-73406000D03*
D16*
G04 #@! TO.P,interface1,2*
G04 #@! TO.N,/interface1*
X125730000Y-73406000D03*
G04 #@! TO.P,interface1,3*
G04 #@! TO.N,/IR_start*
X128270000Y-73406000D03*
G04 #@! TD*
G04 #@! TO.P,MicroStart1,3*
G04 #@! TO.N,/5V*
X128270000Y-75946000D03*
G04 #@! TO.P,MicroStart1,2*
G04 #@! TO.N,-BATT*
X125730000Y-75946000D03*
D17*
G04 #@! TO.P,MicroStart1,1*
G04 #@! TO.N,/IR_start*
X123190000Y-75946000D03*
G04 #@! TD*
D25*
G04 #@! TO.P,reset1,1*
G04 #@! TO.N,/Reset*
X67500000Y-77000000D03*
G04 #@! TO.P,reset1,2*
G04 #@! TO.N,-BATT*
X67500000Y-72500000D03*
G04 #@! TO.P,reset1,1*
G04 #@! TO.N,/Reset*
X74000000Y-77000000D03*
G04 #@! TO.P,reset1,2*
G04 #@! TO.N,-BATT*
X74000000Y-72500000D03*
G04 #@! TD*
D29*
G04 #@! TO.N,/5V*
X97028000Y-84836000D03*
X94996000Y-92964000D03*
X101092000Y-82296000D03*
G04 #@! TO.N,/TX*
X64008000Y-108204000D03*
X60705062Y-106923756D03*
G04 #@! TO.N,/Reset*
X86360000Y-88392000D03*
G04 #@! TO.N,/TOF2_XSHUT_CTRL*
X74168000Y-91948000D03*
G04 #@! TO.N,/groundSensor1*
X67564000Y-106172000D03*
G04 #@! TO.N,/groundSensor2*
X128016000Y-103632000D03*
G04 #@! TO.N,/TOF_SCL*
X100076000Y-109220000D03*
X83312000Y-98044000D03*
G04 #@! TO.N,-BATT*
X77216000Y-75692000D03*
X68072000Y-98044000D03*
X111760000Y-116840000D03*
X57404000Y-87884000D03*
X61468000Y-96774000D03*
X76200000Y-89133009D03*
X79756000Y-87884000D03*
X89154000Y-88392000D03*
G04 #@! TO.N,/arduinoGroundSensorEmitter*
X59219000Y-103124000D03*
G04 #@! TO.N,/TOF3_XSHUT_CTRL*
X117348000Y-91440000D03*
G04 #@! TO.N,Net-(Q101-Pad2)*
X61472653Y-94492653D03*
G04 #@! TD*
D30*
G04 #@! TO.N,/5V*
X91164000Y-84836000D02*
X91000000Y-85000000D01*
X97028000Y-84836000D02*
X91164000Y-84836000D01*
X56000000Y-91000000D02*
X60000000Y-91000000D01*
X66764001Y-89191999D02*
X67564000Y-88392000D01*
X66491580Y-89464420D02*
X66764001Y-89191999D01*
X61535580Y-89464420D02*
X66491580Y-89464420D01*
X60000000Y-91000000D02*
X61535580Y-89464420D01*
D31*
X112920000Y-111000000D02*
X108096000Y-115824000D01*
X93380000Y-114716000D02*
X93380000Y-113000000D01*
X94488000Y-115824000D02*
X93380000Y-114716000D01*
X110000000Y-104000000D02*
X106032000Y-104000000D01*
X106032000Y-104000000D02*
X94996000Y-92964000D01*
X91833991Y-84950009D02*
X97028000Y-84950009D01*
X91784000Y-85000000D02*
X91833991Y-84950009D01*
X91000000Y-85000000D02*
X91784000Y-85000000D01*
X107160000Y-75212000D02*
X107160000Y-74000000D01*
X101092000Y-81280000D02*
X107160000Y-75212000D01*
X101092000Y-82296000D02*
X101092000Y-81280000D01*
D30*
X92200001Y-88799999D02*
X93000000Y-88000000D01*
X91141991Y-89858009D02*
X92200001Y-88799999D01*
X69030009Y-89858009D02*
X91141991Y-89858009D01*
X67564000Y-88392000D02*
X69030009Y-89858009D01*
X65024000Y-118202081D02*
X65532000Y-118710081D01*
X86749919Y-118710081D02*
X88460000Y-117000000D01*
X65532000Y-118710081D02*
X86749919Y-118710081D01*
D31*
X88460000Y-118202081D02*
X89129919Y-118872000D01*
X88460000Y-117000000D02*
X88460000Y-118202081D01*
X94488000Y-118872000D02*
X97536000Y-115824000D01*
X89129919Y-118872000D02*
X94488000Y-118872000D01*
X108096000Y-115824000D02*
X97536000Y-115824000D01*
X97536000Y-115824000D02*
X94488000Y-115824000D01*
X65024000Y-118202081D02*
X65024000Y-117000000D01*
X65693919Y-118872000D02*
X65024000Y-118202081D01*
X89129919Y-118872000D02*
X65693919Y-118872000D01*
D30*
X141732000Y-92728000D02*
X139000000Y-95460000D01*
X141732000Y-86360000D02*
X141732000Y-92728000D01*
X139307001Y-83935001D02*
X141732000Y-86360000D01*
X138440589Y-83935001D02*
X139307001Y-83935001D01*
X135750589Y-86625001D02*
X138440589Y-83935001D01*
X112798999Y-79524999D02*
X121180999Y-79524999D01*
X107160000Y-73700000D02*
X108935010Y-71924990D01*
X121180999Y-79524999D02*
X128281001Y-86625001D01*
X108935010Y-71924990D02*
X110236000Y-71924990D01*
X110236000Y-71924990D02*
X111025010Y-72714000D01*
X111025010Y-72714000D02*
X111025010Y-77751010D01*
X107160000Y-74000000D02*
X107160000Y-73700000D01*
X111025010Y-77751010D02*
X112798999Y-79524999D01*
X128270000Y-75946000D02*
X134874000Y-82550000D01*
X134354999Y-86625001D02*
X134874000Y-86106000D01*
X134112000Y-86625001D02*
X134354999Y-86625001D01*
X134874000Y-86106000D02*
X134874000Y-86625001D01*
X134874000Y-82550000D02*
X134874000Y-86106000D01*
X134112000Y-86625001D02*
X134874000Y-86625001D01*
X128281001Y-86625001D02*
X134112000Y-86625001D01*
X135382000Y-86614000D02*
X134874000Y-86106000D01*
X135382000Y-86625001D02*
X135382000Y-86614000D01*
X135382000Y-86625001D02*
X135750589Y-86625001D01*
X134874000Y-86625001D02*
X135382000Y-86625001D01*
G04 #@! TO.N,/Button1*
X120058000Y-71374000D02*
X122090000Y-73406000D01*
X122090000Y-73406000D02*
X123190000Y-73406000D01*
X66294000Y-75206000D02*
X70247001Y-75206000D01*
X64500000Y-77000000D02*
X66294000Y-75206000D01*
X70247001Y-75206000D02*
X71031001Y-74422000D01*
X71031001Y-74422000D02*
X74838181Y-74422000D01*
X74838181Y-74422000D02*
X77886181Y-71374000D01*
X77886181Y-71374000D02*
X120058000Y-71374000D01*
G04 #@! TO.N,/TX*
X64008000Y-108204000D02*
X62727756Y-106923756D01*
X62727756Y-106923756D02*
X60705062Y-106923756D01*
G04 #@! TO.N,/Reset*
X77724000Y-88392000D02*
X78740000Y-89408000D01*
X78740000Y-89408000D02*
X82582998Y-89408000D01*
X85344000Y-89408000D02*
X86360000Y-88392000D01*
X83820000Y-89408000D02*
X85344000Y-89408000D01*
X82582998Y-89408000D02*
X83820000Y-89408000D01*
X66500001Y-77999999D02*
X67500000Y-77000000D01*
X66272001Y-77999999D02*
X66500001Y-77999999D01*
X77724000Y-88392000D02*
X70104000Y-88392000D01*
X62484000Y-80772000D02*
X62484000Y-79248000D01*
X70104000Y-88392000D02*
X62484000Y-80772000D01*
X62484000Y-79248000D02*
X62992000Y-78740000D01*
X62992000Y-78740000D02*
X65532000Y-78740000D01*
X65532000Y-78740000D02*
X66272001Y-77999999D01*
X74000000Y-77000000D02*
X75476000Y-77000000D01*
X75476000Y-77000000D02*
X77805580Y-79329580D01*
X77805580Y-79329580D02*
X77805580Y-81869580D01*
X77805580Y-81869580D02*
X78740000Y-82804000D01*
X78740000Y-82804000D02*
X86360000Y-82804000D01*
X86890000Y-82274000D02*
X86890000Y-80380000D01*
X86360000Y-82804000D02*
X86890000Y-82274000D01*
G04 #@! TO.N,/CoderLeftA*
X81810000Y-81729820D02*
X82376180Y-82296000D01*
X81810000Y-80380000D02*
X81810000Y-81729820D01*
X82376180Y-82296000D02*
X84836000Y-82296000D01*
X85814420Y-81317580D02*
X85814420Y-79285580D01*
X84836000Y-82296000D02*
X85814420Y-81317580D01*
X86144830Y-78955170D02*
X99352830Y-78955170D01*
X85814420Y-79285580D02*
X86144830Y-78955170D01*
X102080000Y-76228000D02*
X102080000Y-74000000D01*
X99352830Y-78955170D02*
X102080000Y-76228000D01*
G04 #@! TO.N,/CoderRightA*
X79300000Y-80380000D02*
X79270000Y-80380000D01*
X85380000Y-74000000D02*
X85380000Y-74300000D01*
X85380000Y-74300000D02*
X84328000Y-75352000D01*
X84328000Y-75352000D02*
X84328000Y-76200000D01*
X81788000Y-78740000D02*
X80940000Y-78740000D01*
X84328000Y-76200000D02*
X81788000Y-78740000D01*
X80940000Y-78740000D02*
X79300000Y-80380000D01*
G04 #@! TO.N,/groundSensorEmitter*
X53540000Y-106920000D02*
X53460000Y-107000000D01*
X53540000Y-103000000D02*
X53540000Y-106920000D01*
G04 #@! TO.N,/IN1_HBridge*
X121000000Y-90000000D02*
X119250000Y-90000000D01*
X122000000Y-89000000D02*
X121000000Y-90000000D01*
X122000000Y-84000000D02*
X122000000Y-89000000D01*
X103632000Y-82524999D02*
X120524999Y-82524999D01*
X74190000Y-80380000D02*
X74190000Y-80729250D01*
X74190000Y-80729250D02*
X76772750Y-83312000D01*
X76772750Y-83312000D02*
X98680410Y-83312000D01*
X98680410Y-83312000D02*
X99188410Y-83820000D01*
X120524999Y-82524999D02*
X122000000Y-84000000D01*
X99188410Y-83820000D02*
X102336999Y-83820000D01*
X102336999Y-83820000D02*
X103632000Y-82524999D01*
G04 #@! TO.N,/IN3_HBridge*
X117656000Y-85344000D02*
X119250000Y-83750000D01*
X100076000Y-85344000D02*
X117656000Y-85344000D01*
X98606999Y-83874999D02*
X100076000Y-85344000D01*
X74795749Y-83874999D02*
X98606999Y-83874999D01*
X71650000Y-80380000D02*
X71650000Y-80729250D01*
X71650000Y-80729250D02*
X74795749Y-83874999D01*
G04 #@! TO.N,/CoderLeftB*
X104620000Y-72450000D02*
X104094980Y-71924980D01*
X104620000Y-74000000D02*
X104620000Y-72450000D01*
X104094980Y-71924980D02*
X77971611Y-71924980D01*
X77971611Y-71924980D02*
X74966591Y-74930000D01*
X74966591Y-74930000D02*
X72158000Y-74930000D01*
X69110000Y-77978000D02*
X69110000Y-80380000D01*
X72158000Y-74930000D02*
X69110000Y-77978000D01*
G04 #@! TO.N,/CoderRightB*
X79040008Y-72374990D02*
X86594990Y-72374990D01*
X87920000Y-73700000D02*
X87920000Y-74000000D01*
X76708000Y-73825001D02*
X77589997Y-73825001D01*
X72390000Y-75438000D02*
X75095001Y-75438000D01*
X77589997Y-73825001D02*
X79040008Y-72374990D01*
X75095001Y-75438000D02*
X76708000Y-73825001D01*
X66570000Y-80380000D02*
X66570000Y-80729250D01*
X66570000Y-80729250D02*
X67645580Y-81804830D01*
X86594990Y-72374990D02*
X87920000Y-73700000D01*
X67645580Y-81804830D02*
X70087170Y-81804830D01*
X70087170Y-81804830D02*
X70574420Y-81317580D01*
X70574420Y-81317580D02*
X70574420Y-77253580D01*
X70574420Y-77253580D02*
X72390000Y-75438000D01*
G04 #@! TO.N,/IN2_HBridge*
X64030000Y-95270750D02*
X65320750Y-93980000D01*
X64030000Y-95620000D02*
X64030000Y-95270750D01*
X65320750Y-93980000D02*
X66040000Y-93260750D01*
X66040000Y-91948000D02*
X67564000Y-90424000D01*
X66040000Y-93260750D02*
X66040000Y-91948000D01*
X67564000Y-90424000D02*
X90932000Y-90424000D01*
X99188410Y-90424000D02*
X100204410Y-91440000D01*
X90932000Y-90424000D02*
X99188410Y-90424000D01*
X100204410Y-91440000D02*
X101220410Y-92456000D01*
X101220410Y-92456000D02*
X117856000Y-92456000D01*
X117856000Y-92456000D02*
X118364000Y-91948000D01*
X118364000Y-90927002D02*
X117348000Y-89911002D01*
X118364000Y-91948000D02*
X118364000Y-90927002D01*
X117348000Y-88902000D02*
X119250000Y-87000000D01*
X117348000Y-89911002D02*
X117348000Y-88902000D01*
G04 #@! TO.N,/IN4_HBridge*
X120149999Y-81649999D02*
X119250000Y-80750000D01*
X120286409Y-81649999D02*
X120149999Y-81649999D01*
X122936000Y-84299590D02*
X120286409Y-81649999D01*
X122936000Y-91382020D02*
X122936000Y-84299590D01*
X66570000Y-95620000D02*
X66570000Y-92942000D01*
X68522009Y-90989991D02*
X97085991Y-90989991D01*
X97085991Y-90989991D02*
X99060000Y-92964000D01*
X99060000Y-92964000D02*
X121354020Y-92964000D01*
X66570000Y-92942000D02*
X68522009Y-90989991D01*
X121354020Y-92964000D02*
X122936000Y-91382020D01*
G04 #@! TO.N,/TOF2_XSHUT_CTRL*
X69779651Y-95620000D02*
X71326476Y-94073175D01*
X69110000Y-95620000D02*
X69779651Y-95620000D01*
X71326476Y-94073175D02*
X72042826Y-94073175D01*
X72042826Y-94073175D02*
X72474481Y-94504830D01*
X72474481Y-94504830D02*
X73365519Y-94504830D01*
X74168000Y-93702349D02*
X74168000Y-91948000D01*
X73365519Y-94504830D02*
X74168000Y-93702349D01*
G04 #@! TO.N,/groundSensor1*
X60383816Y-106172000D02*
X67564000Y-106172000D01*
X56000000Y-107000000D02*
X59555816Y-107000000D01*
X59555816Y-107000000D02*
X60383816Y-106172000D01*
G04 #@! TO.N,/groundSensor2*
X76730000Y-94270180D02*
X76730000Y-95620000D01*
X76708000Y-94248180D02*
X76730000Y-94270180D01*
X76708000Y-91948000D02*
X76708000Y-94248180D01*
X98854999Y-93774999D02*
X96520000Y-91440000D01*
X96520000Y-91440000D02*
X77216000Y-91440000D01*
X77216000Y-91440000D02*
X76708000Y-91948000D01*
X114808000Y-93774999D02*
X121617001Y-100584000D01*
X114808000Y-93774999D02*
X98854999Y-93774999D01*
X127000000Y-100584000D02*
X128016000Y-101600000D01*
X121617001Y-100584000D02*
X127000000Y-100584000D01*
X128016000Y-101600000D02*
X128016000Y-103632000D01*
G04 #@! TO.N,/TOF_SDA*
X80540000Y-94429820D02*
X80540000Y-93080000D01*
X80540000Y-96288000D02*
X80540000Y-94429820D01*
X81296830Y-97044830D02*
X80540000Y-96288000D01*
X85825828Y-97044830D02*
X81296830Y-97044830D01*
X98460000Y-109679002D02*
X85825828Y-97044830D01*
X98460000Y-113000000D02*
X98460000Y-109679002D01*
X80247170Y-97044830D02*
X81263170Y-97044830D01*
X80540000Y-96752000D02*
X80264000Y-97028000D01*
X80540000Y-96288000D02*
X80540000Y-96752000D01*
X80247170Y-97044830D02*
X80264000Y-97028000D01*
X80264000Y-97028000D02*
X80772000Y-96520000D01*
X79231170Y-97044830D02*
X79248000Y-97044830D01*
X79248000Y-97044830D02*
X80247170Y-97044830D01*
X76200000Y-100076000D02*
X79231170Y-97044830D01*
X70612000Y-100076000D02*
X76200000Y-100076000D01*
X69596000Y-101092000D02*
X70612000Y-100076000D01*
X68072000Y-104648000D02*
X69596000Y-103124000D01*
X51000000Y-89620000D02*
X53340000Y-91960000D01*
X61468000Y-104648000D02*
X68072000Y-104648000D01*
X53340000Y-91960000D02*
X53340000Y-98552000D01*
X53340000Y-98552000D02*
X54873001Y-100085001D01*
X60960000Y-104140000D02*
X61468000Y-104648000D01*
X54873001Y-100085001D02*
X59445001Y-100085001D01*
X69596000Y-103124000D02*
X69596000Y-101092000D01*
X59445001Y-100085001D02*
X60960000Y-101600000D01*
X60960000Y-101600000D02*
X60960000Y-104140000D01*
X137797919Y-90380000D02*
X139000000Y-90380000D01*
X136652000Y-91525919D02*
X137797919Y-90380000D01*
X103764000Y-107696000D02*
X125476000Y-107696000D01*
X98460000Y-113000000D02*
X103764000Y-107696000D01*
X125476000Y-107696000D02*
X128016000Y-105156000D01*
X128016000Y-105156000D02*
X134620000Y-105156000D01*
X134620000Y-105156000D02*
X136652000Y-103124000D01*
X136652000Y-103124000D02*
X136652000Y-91525919D01*
G04 #@! TO.N,/TOF_SCL*
X87965580Y-97109580D02*
X100076000Y-109220000D01*
X87965580Y-94825231D02*
X87965580Y-97109580D01*
X83080000Y-93080000D02*
X86220349Y-93080000D01*
X86220349Y-93080000D02*
X87965580Y-94825231D01*
X79290998Y-98044000D02*
X83312000Y-98044000D01*
X76509999Y-100824999D02*
X79290998Y-98044000D01*
X70104000Y-103632000D02*
X70104000Y-101840999D01*
X68580000Y-105156000D02*
X70104000Y-103632000D01*
X59944000Y-104648000D02*
X60452000Y-105156000D01*
X51000000Y-92160000D02*
X52324000Y-93484000D01*
X52324000Y-93484000D02*
X52324000Y-98552000D01*
X52324000Y-98552000D02*
X54596999Y-100824999D01*
X71120000Y-100824999D02*
X76509999Y-100824999D01*
X54596999Y-100824999D02*
X58824999Y-100824999D01*
X58824999Y-100824999D02*
X59944000Y-101944000D01*
X70104000Y-101840999D02*
X71120000Y-100824999D01*
X60452000Y-105156000D02*
X68580000Y-105156000D01*
X59944000Y-101944000D02*
X59944000Y-104648000D01*
X140716000Y-89556000D02*
X139000000Y-87840000D01*
X140716000Y-90932000D02*
X140716000Y-89556000D01*
X137871001Y-91744999D02*
X139903001Y-91744999D01*
X137668000Y-91948000D02*
X137871001Y-91744999D01*
X137668000Y-103124000D02*
X137668000Y-91948000D01*
X102748000Y-111252000D02*
X110854998Y-111252000D01*
X135128000Y-105664000D02*
X137668000Y-103124000D01*
X101000000Y-113000000D02*
X102748000Y-111252000D01*
X110854998Y-111252000D02*
X113394998Y-108712000D01*
X113394998Y-108712000D02*
X126068998Y-108712000D01*
X126068998Y-108712000D02*
X129116998Y-105664000D01*
X139903001Y-91744999D02*
X140716000Y-90932000D01*
X129116998Y-105664000D02*
X135128000Y-105664000D01*
D31*
G04 #@! TO.N,-BATT*
X84350000Y-77780180D02*
X84914180Y-77216000D01*
X84350000Y-80380000D02*
X84350000Y-77780180D01*
X99540000Y-76800000D02*
X99540000Y-74000000D01*
X99124000Y-77216000D02*
X99540000Y-76800000D01*
X84914180Y-77216000D02*
X99124000Y-77216000D01*
X82840000Y-75470002D02*
X81602002Y-76708000D01*
X82840000Y-74000000D02*
X82840000Y-75470002D01*
X81602002Y-76708000D02*
X78232000Y-76708000D01*
X78232000Y-76708000D02*
X77216000Y-75692000D01*
D30*
X115460000Y-113140000D02*
X115460000Y-111000000D01*
X111760000Y-116840000D02*
X115460000Y-113140000D01*
D31*
X131112000Y-80772000D02*
X124206000Y-80772000D01*
X132540000Y-85000000D02*
X132540000Y-82200000D01*
X132540000Y-82200000D02*
X131112000Y-80772000D01*
X123884081Y-78994000D02*
X122428000Y-78994000D01*
X125730000Y-77148081D02*
X123884081Y-78994000D01*
X125730000Y-75946000D02*
X125730000Y-77148081D01*
X124206000Y-80772000D02*
X122428000Y-78994000D01*
X122428000Y-78994000D02*
X119380000Y-75946000D01*
D30*
X51861999Y-87929999D02*
X51849999Y-87929999D01*
X54873001Y-95005001D02*
X53848000Y-93980000D01*
X58918999Y-95005001D02*
X54873001Y-95005001D01*
X59944000Y-93980000D02*
X58918999Y-95005001D01*
X60452000Y-93980000D02*
X59944000Y-93980000D01*
X51849999Y-87929999D02*
X51000000Y-87080000D01*
X63500000Y-98044000D02*
X62484000Y-97028000D01*
X53848000Y-89916000D02*
X51861999Y-87929999D01*
X53848000Y-93980000D02*
X53848000Y-89916000D01*
X62484000Y-97028000D02*
X62484000Y-93980000D01*
X62484000Y-93980000D02*
X62271652Y-93767652D01*
X62271652Y-93767652D02*
X60664348Y-93767652D01*
X68072000Y-98044000D02*
X63500000Y-98044000D01*
X60664348Y-93767652D02*
X60452000Y-93980000D01*
X127003012Y-70400010D02*
X122978010Y-70400010D01*
X126579999Y-75096001D02*
X127380997Y-75096001D01*
X125730000Y-75946000D02*
X126579999Y-75096001D01*
X127380997Y-75096001D02*
X127895997Y-74581001D01*
X127895997Y-74581001D02*
X128834001Y-74581001D01*
X128834001Y-74581001D02*
X129445001Y-73970001D01*
X129445001Y-72841999D02*
X127003012Y-70400010D01*
X129445001Y-73970001D02*
X129445001Y-72841999D01*
X122978010Y-70400010D02*
X120142000Y-67564000D01*
X120142000Y-67564000D02*
X119634000Y-67564000D01*
X64030000Y-88000000D02*
X57520000Y-88000000D01*
X57520000Y-88000000D02*
X57404000Y-87884000D01*
X62738000Y-98044000D02*
X63500000Y-98044000D01*
X61468000Y-96774000D02*
X62738000Y-98044000D01*
X64030000Y-88000000D02*
X65416000Y-88000000D01*
X69970011Y-89133009D02*
X76200000Y-89133009D01*
X68104001Y-87266999D02*
X69970011Y-89133009D01*
X65416000Y-88000000D02*
X66149001Y-87266999D01*
X66149001Y-87266999D02*
X68104001Y-87266999D01*
X87636999Y-86874999D02*
X89154000Y-88392000D01*
X79756000Y-87884000D02*
X80765001Y-86874999D01*
X80765001Y-86874999D02*
X87636999Y-86874999D01*
G04 #@! TO.N,/arduinoGroundSensorEmitter*
X56204000Y-103124000D02*
X56080000Y-103000000D01*
X59219000Y-103124000D02*
X56204000Y-103124000D01*
G04 #@! TO.N,/TOF3_XSHUT_CTRL*
X64030000Y-80729250D02*
X64030000Y-80380000D01*
X69425751Y-86125001D02*
X64030000Y-80729250D01*
X97809001Y-86125001D02*
X69425751Y-86125001D01*
X103124000Y-91440000D02*
X97809001Y-86125001D01*
X116840000Y-91440000D02*
X117348000Y-91440000D01*
X116840000Y-91440000D02*
X103124000Y-91440000D01*
G04 #@! TO.N,Net-(Q101-Pad2)*
X61472653Y-94492653D02*
X60461306Y-95504000D01*
X56759999Y-95700001D02*
X56000000Y-96460000D01*
X56956000Y-95504000D02*
X56759999Y-95700001D01*
X60461306Y-95504000D02*
X56956000Y-95504000D01*
G04 #@! TO.N,/TOF3_XSHUT*
X137797919Y-85300000D02*
X139000000Y-85300000D01*
X137712000Y-85300000D02*
X137797919Y-85300000D01*
X135636000Y-87376000D02*
X137712000Y-85300000D01*
X135636000Y-94488000D02*
X135636000Y-87376000D01*
X131064000Y-94996000D02*
X135128000Y-94996000D01*
X135128000Y-94996000D02*
X135636000Y-94488000D01*
G04 #@! TO.N,/interface1*
X70700999Y-73825001D02*
X74764999Y-73825001D01*
X70358000Y-74168000D02*
X70700999Y-73825001D01*
X65370998Y-74168000D02*
X70358000Y-74168000D01*
X61214000Y-78324998D02*
X65370998Y-74168000D01*
X61214000Y-82042000D02*
X61214000Y-78324998D01*
X62680180Y-90540000D02*
X61018180Y-92202000D01*
X74764999Y-73825001D02*
X77724000Y-70866000D01*
X64030000Y-90540000D02*
X62680180Y-90540000D01*
X61018180Y-92202000D02*
X55536998Y-92202000D01*
X55536998Y-92202000D02*
X54874999Y-91540001D01*
X54874999Y-91540001D02*
X54874999Y-88381001D01*
X54874999Y-88381001D02*
X61214000Y-82042000D01*
X125730000Y-73406000D02*
X123952000Y-71628000D01*
X121412000Y-71628000D02*
X120650000Y-70866000D01*
X123952000Y-71628000D02*
X121412000Y-71628000D01*
X77724000Y-70866000D02*
X120650000Y-70866000D01*
G04 #@! TO.N,/IR_start*
X127420001Y-74255999D02*
X128270000Y-73406000D01*
X127094999Y-74581001D02*
X127420001Y-74255999D01*
X123454999Y-74581001D02*
X127094999Y-74581001D01*
X123190000Y-74846000D02*
X123454999Y-74581001D01*
X123190000Y-75946000D02*
X123190000Y-74846000D01*
G04 #@! TD*
D32*
G04 #@! TO.N,-BATT*
G36*
X132478514Y-106643108D02*
X132599181Y-106873000D01*
X133793000Y-106873000D01*
X133793000Y-106853000D01*
X134047000Y-106853000D01*
X134047000Y-106873000D01*
X134067000Y-106873000D01*
X134067000Y-107127000D01*
X134047000Y-107127000D01*
X134047000Y-107147000D01*
X133793000Y-107147000D01*
X133793000Y-107127000D01*
X132599181Y-107127000D01*
X132478514Y-107356892D01*
X132724817Y-107881358D01*
X133153076Y-108271645D01*
X133197392Y-108290000D01*
X132069926Y-108290000D01*
X132000000Y-108276091D01*
X131930075Y-108290000D01*
X131930074Y-108290000D01*
X131722972Y-108331195D01*
X131488119Y-108488119D01*
X131331195Y-108722972D01*
X131276091Y-109000000D01*
X131290001Y-109069931D01*
X131290000Y-119290000D01*
X96028685Y-119290000D01*
X97961793Y-117356892D01*
X120478514Y-117356892D01*
X120724817Y-117881358D01*
X121153076Y-118271645D01*
X121563110Y-118441476D01*
X121793000Y-118320155D01*
X121793000Y-117127000D01*
X120599181Y-117127000D01*
X120478514Y-117356892D01*
X97961793Y-117356892D01*
X98109686Y-117209000D01*
X107959593Y-117209000D01*
X108096000Y-117236133D01*
X108232407Y-117209000D01*
X108636400Y-117128641D01*
X109094529Y-116822529D01*
X109171799Y-116706886D01*
X109235577Y-116643108D01*
X120478514Y-116643108D01*
X120599181Y-116873000D01*
X121793000Y-116873000D01*
X121793000Y-115679845D01*
X122047000Y-115679845D01*
X122047000Y-116873000D01*
X122067000Y-116873000D01*
X122067000Y-117127000D01*
X122047000Y-117127000D01*
X122047000Y-118320155D01*
X122276890Y-118441476D01*
X122686924Y-118271645D01*
X123115183Y-117881358D01*
X123176157Y-117751522D01*
X123389375Y-118070625D01*
X123880582Y-118398839D01*
X124313744Y-118485000D01*
X124606256Y-118485000D01*
X125039418Y-118398839D01*
X125530625Y-118070625D01*
X125542816Y-118052381D01*
X125551843Y-118097765D01*
X125692191Y-118307809D01*
X125902235Y-118448157D01*
X126150000Y-118497440D01*
X127850000Y-118497440D01*
X128097765Y-118448157D01*
X128307809Y-118307809D01*
X128448157Y-118097765D01*
X128497440Y-117850000D01*
X128497440Y-116150000D01*
X128448157Y-115902235D01*
X128307809Y-115692191D01*
X128097765Y-115551843D01*
X127850000Y-115502560D01*
X126150000Y-115502560D01*
X125902235Y-115551843D01*
X125692191Y-115692191D01*
X125551843Y-115902235D01*
X125542816Y-115947619D01*
X125530625Y-115929375D01*
X125039418Y-115601161D01*
X124606256Y-115515000D01*
X124313744Y-115515000D01*
X123880582Y-115601161D01*
X123389375Y-115929375D01*
X123176157Y-116248478D01*
X123115183Y-116118642D01*
X122686924Y-115728355D01*
X122276890Y-115558524D01*
X122047000Y-115679845D01*
X121793000Y-115679845D01*
X121563110Y-115558524D01*
X121153076Y-115728355D01*
X120724817Y-116118642D01*
X120478514Y-116643108D01*
X109235577Y-116643108D01*
X113164124Y-112714561D01*
X123565000Y-112714561D01*
X123565000Y-113285439D01*
X123783466Y-113812862D01*
X124187138Y-114216534D01*
X124714561Y-114435000D01*
X125285439Y-114435000D01*
X125812862Y-114216534D01*
X126216534Y-113812862D01*
X126435000Y-113285439D01*
X126435000Y-112714561D01*
X126216534Y-112187138D01*
X125812862Y-111783466D01*
X125285439Y-111565000D01*
X124714561Y-111565000D01*
X124187138Y-111783466D01*
X123783466Y-112187138D01*
X123565000Y-112714561D01*
X113164124Y-112714561D01*
X113411349Y-112467337D01*
X113518927Y-112445938D01*
X114026673Y-112106673D01*
X114197624Y-111850826D01*
X114552424Y-112237966D01*
X115095258Y-112491046D01*
X115333000Y-112370997D01*
X115333000Y-111127000D01*
X115313000Y-111127000D01*
X115313000Y-110873000D01*
X115333000Y-110873000D01*
X115333000Y-110853000D01*
X115587000Y-110853000D01*
X115587000Y-110873000D01*
X115607000Y-110873000D01*
X115607000Y-111127000D01*
X115587000Y-111127000D01*
X115587000Y-112370997D01*
X115824742Y-112491046D01*
X116367576Y-112237966D01*
X116492641Y-112101502D01*
X116501843Y-112147765D01*
X116642191Y-112357809D01*
X116852235Y-112498157D01*
X117100000Y-112547440D01*
X118900000Y-112547440D01*
X119147765Y-112498157D01*
X119357809Y-112357809D01*
X119498157Y-112147765D01*
X119547440Y-111900000D01*
X119547440Y-110100000D01*
X119498157Y-109852235D01*
X119357809Y-109642191D01*
X119147765Y-109501843D01*
X118997733Y-109472000D01*
X125994151Y-109472000D01*
X126068998Y-109486888D01*
X126143845Y-109472000D01*
X126143850Y-109472000D01*
X126365535Y-109427904D01*
X126616927Y-109259929D01*
X126659329Y-109196470D01*
X129431800Y-106424000D01*
X132581413Y-106424000D01*
X132478514Y-106643108D01*
X132478514Y-106643108D01*
G37*
X132478514Y-106643108D02*
X132599181Y-106873000D01*
X133793000Y-106873000D01*
X133793000Y-106853000D01*
X134047000Y-106853000D01*
X134047000Y-106873000D01*
X134067000Y-106873000D01*
X134067000Y-107127000D01*
X134047000Y-107127000D01*
X134047000Y-107147000D01*
X133793000Y-107147000D01*
X133793000Y-107127000D01*
X132599181Y-107127000D01*
X132478514Y-107356892D01*
X132724817Y-107881358D01*
X133153076Y-108271645D01*
X133197392Y-108290000D01*
X132069926Y-108290000D01*
X132000000Y-108276091D01*
X131930075Y-108290000D01*
X131930074Y-108290000D01*
X131722972Y-108331195D01*
X131488119Y-108488119D01*
X131331195Y-108722972D01*
X131276091Y-109000000D01*
X131290001Y-109069931D01*
X131290000Y-119290000D01*
X96028685Y-119290000D01*
X97961793Y-117356892D01*
X120478514Y-117356892D01*
X120724817Y-117881358D01*
X121153076Y-118271645D01*
X121563110Y-118441476D01*
X121793000Y-118320155D01*
X121793000Y-117127000D01*
X120599181Y-117127000D01*
X120478514Y-117356892D01*
X97961793Y-117356892D01*
X98109686Y-117209000D01*
X107959593Y-117209000D01*
X108096000Y-117236133D01*
X108232407Y-117209000D01*
X108636400Y-117128641D01*
X109094529Y-116822529D01*
X109171799Y-116706886D01*
X109235577Y-116643108D01*
X120478514Y-116643108D01*
X120599181Y-116873000D01*
X121793000Y-116873000D01*
X121793000Y-115679845D01*
X122047000Y-115679845D01*
X122047000Y-116873000D01*
X122067000Y-116873000D01*
X122067000Y-117127000D01*
X122047000Y-117127000D01*
X122047000Y-118320155D01*
X122276890Y-118441476D01*
X122686924Y-118271645D01*
X123115183Y-117881358D01*
X123176157Y-117751522D01*
X123389375Y-118070625D01*
X123880582Y-118398839D01*
X124313744Y-118485000D01*
X124606256Y-118485000D01*
X125039418Y-118398839D01*
X125530625Y-118070625D01*
X125542816Y-118052381D01*
X125551843Y-118097765D01*
X125692191Y-118307809D01*
X125902235Y-118448157D01*
X126150000Y-118497440D01*
X127850000Y-118497440D01*
X128097765Y-118448157D01*
X128307809Y-118307809D01*
X128448157Y-118097765D01*
X128497440Y-117850000D01*
X128497440Y-116150000D01*
X128448157Y-115902235D01*
X128307809Y-115692191D01*
X128097765Y-115551843D01*
X127850000Y-115502560D01*
X126150000Y-115502560D01*
X125902235Y-115551843D01*
X125692191Y-115692191D01*
X125551843Y-115902235D01*
X125542816Y-115947619D01*
X125530625Y-115929375D01*
X125039418Y-115601161D01*
X124606256Y-115515000D01*
X124313744Y-115515000D01*
X123880582Y-115601161D01*
X123389375Y-115929375D01*
X123176157Y-116248478D01*
X123115183Y-116118642D01*
X122686924Y-115728355D01*
X122276890Y-115558524D01*
X122047000Y-115679845D01*
X121793000Y-115679845D01*
X121563110Y-115558524D01*
X121153076Y-115728355D01*
X120724817Y-116118642D01*
X120478514Y-116643108D01*
X109235577Y-116643108D01*
X113164124Y-112714561D01*
X123565000Y-112714561D01*
X123565000Y-113285439D01*
X123783466Y-113812862D01*
X124187138Y-114216534D01*
X124714561Y-114435000D01*
X125285439Y-114435000D01*
X125812862Y-114216534D01*
X126216534Y-113812862D01*
X126435000Y-113285439D01*
X126435000Y-112714561D01*
X126216534Y-112187138D01*
X125812862Y-111783466D01*
X125285439Y-111565000D01*
X124714561Y-111565000D01*
X124187138Y-111783466D01*
X123783466Y-112187138D01*
X123565000Y-112714561D01*
X113164124Y-112714561D01*
X113411349Y-112467337D01*
X113518927Y-112445938D01*
X114026673Y-112106673D01*
X114197624Y-111850826D01*
X114552424Y-112237966D01*
X115095258Y-112491046D01*
X115333000Y-112370997D01*
X115333000Y-111127000D01*
X115313000Y-111127000D01*
X115313000Y-110873000D01*
X115333000Y-110873000D01*
X115333000Y-110853000D01*
X115587000Y-110853000D01*
X115587000Y-110873000D01*
X115607000Y-110873000D01*
X115607000Y-111127000D01*
X115587000Y-111127000D01*
X115587000Y-112370997D01*
X115824742Y-112491046D01*
X116367576Y-112237966D01*
X116492641Y-112101502D01*
X116501843Y-112147765D01*
X116642191Y-112357809D01*
X116852235Y-112498157D01*
X117100000Y-112547440D01*
X118900000Y-112547440D01*
X119147765Y-112498157D01*
X119357809Y-112357809D01*
X119498157Y-112147765D01*
X119547440Y-111900000D01*
X119547440Y-110100000D01*
X119498157Y-109852235D01*
X119357809Y-109642191D01*
X119147765Y-109501843D01*
X118997733Y-109472000D01*
X125994151Y-109472000D01*
X126068998Y-109486888D01*
X126143845Y-109472000D01*
X126143850Y-109472000D01*
X126365535Y-109427904D01*
X126616927Y-109259929D01*
X126659329Y-109196470D01*
X129431800Y-106424000D01*
X132581413Y-106424000D01*
X132478514Y-106643108D01*
G36*
X88401619Y-100695423D02*
X87845330Y-100465000D01*
X87234670Y-100465000D01*
X86670493Y-100698690D01*
X86501275Y-100867908D01*
X86498157Y-100852235D01*
X86357809Y-100642191D01*
X86147765Y-100501843D01*
X85900000Y-100452560D01*
X84100000Y-100452560D01*
X83852235Y-100501843D01*
X83642191Y-100642191D01*
X83501843Y-100852235D01*
X83452560Y-101100000D01*
X83452560Y-102900000D01*
X83501843Y-103147765D01*
X83642191Y-103357809D01*
X83852235Y-103498157D01*
X84100000Y-103547440D01*
X85900000Y-103547440D01*
X86147765Y-103498157D01*
X86357809Y-103357809D01*
X86498157Y-103147765D01*
X86501275Y-103132092D01*
X86670493Y-103301310D01*
X87234670Y-103535000D01*
X87845330Y-103535000D01*
X88409507Y-103301310D01*
X88841310Y-102869507D01*
X89075000Y-102305330D01*
X89075000Y-101694670D01*
X88844577Y-101138381D01*
X95271195Y-107565000D01*
X94714561Y-107565000D01*
X94187138Y-107783466D01*
X93783466Y-108187138D01*
X93565000Y-108714561D01*
X93565000Y-109285439D01*
X93783466Y-109812862D01*
X94187138Y-110216534D01*
X94714561Y-110435000D01*
X95285439Y-110435000D01*
X95812862Y-110216534D01*
X96216534Y-109812862D01*
X96435000Y-109285439D01*
X96435000Y-108728805D01*
X97700001Y-109993806D01*
X97700000Y-111721822D01*
X97389375Y-111929375D01*
X97176157Y-112248478D01*
X97115183Y-112118642D01*
X96686924Y-111728355D01*
X96276890Y-111558524D01*
X96047000Y-111679845D01*
X96047000Y-112873000D01*
X96067000Y-112873000D01*
X96067000Y-113127000D01*
X96047000Y-113127000D01*
X96047000Y-113147000D01*
X95793000Y-113147000D01*
X95793000Y-113127000D01*
X95773000Y-113127000D01*
X95773000Y-112873000D01*
X95793000Y-112873000D01*
X95793000Y-111679845D01*
X95563110Y-111558524D01*
X95153076Y-111728355D01*
X94724817Y-112118642D01*
X94663843Y-112248478D01*
X94450625Y-111929375D01*
X93959418Y-111601161D01*
X93526256Y-111515000D01*
X93233744Y-111515000D01*
X92800582Y-111601161D01*
X92309375Y-111929375D01*
X92297184Y-111947619D01*
X92288157Y-111902235D01*
X92147809Y-111692191D01*
X91937765Y-111551843D01*
X91690000Y-111502560D01*
X89990000Y-111502560D01*
X89742235Y-111551843D01*
X89532191Y-111692191D01*
X89391843Y-111902235D01*
X89342560Y-112150000D01*
X89342560Y-113850000D01*
X89391843Y-114097765D01*
X89532191Y-114307809D01*
X89742235Y-114448157D01*
X89990000Y-114497440D01*
X91690000Y-114497440D01*
X91937765Y-114448157D01*
X91995000Y-114409913D01*
X91995000Y-114579593D01*
X91967867Y-114716000D01*
X91995000Y-114852406D01*
X92075359Y-115256399D01*
X92381471Y-115714528D01*
X92497112Y-115791797D01*
X93412202Y-116706888D01*
X93489471Y-116822529D01*
X93605111Y-116899797D01*
X93947600Y-117128641D01*
X94218741Y-117182574D01*
X93914315Y-117487000D01*
X92497440Y-117487000D01*
X92497440Y-116150000D01*
X92448157Y-115902235D01*
X92307809Y-115692191D01*
X92097765Y-115551843D01*
X91850000Y-115502560D01*
X90150000Y-115502560D01*
X89902235Y-115551843D01*
X89692191Y-115692191D01*
X89551843Y-115902235D01*
X89542816Y-115947619D01*
X89530625Y-115929375D01*
X89039418Y-115601161D01*
X88606256Y-115515000D01*
X88313744Y-115515000D01*
X87880582Y-115601161D01*
X87389375Y-115929375D01*
X87176157Y-116248478D01*
X87115183Y-116118642D01*
X86686924Y-115728355D01*
X86276890Y-115558524D01*
X86047000Y-115679845D01*
X86047000Y-116873000D01*
X86067000Y-116873000D01*
X86067000Y-117127000D01*
X86047000Y-117127000D01*
X86047000Y-117147000D01*
X85793000Y-117147000D01*
X85793000Y-117127000D01*
X84599181Y-117127000D01*
X84478514Y-117356892D01*
X84539616Y-117487000D01*
X69061440Y-117487000D01*
X69061440Y-116643108D01*
X84478514Y-116643108D01*
X84599181Y-116873000D01*
X85793000Y-116873000D01*
X85793000Y-115679845D01*
X85563110Y-115558524D01*
X85153076Y-115728355D01*
X84724817Y-116118642D01*
X84478514Y-116643108D01*
X69061440Y-116643108D01*
X69061440Y-116150000D01*
X69012157Y-115902235D01*
X68871809Y-115692191D01*
X68661765Y-115551843D01*
X68414000Y-115502560D01*
X66714000Y-115502560D01*
X66466235Y-115551843D01*
X66256191Y-115692191D01*
X66115843Y-115902235D01*
X66106816Y-115947619D01*
X66094625Y-115929375D01*
X65603418Y-115601161D01*
X65170256Y-115515000D01*
X64877744Y-115515000D01*
X64444582Y-115601161D01*
X63953375Y-115929375D01*
X63740157Y-116248478D01*
X63679183Y-116118642D01*
X63250924Y-115728355D01*
X62840890Y-115558524D01*
X62611000Y-115679845D01*
X62611000Y-116873000D01*
X62631000Y-116873000D01*
X62631000Y-117127000D01*
X62611000Y-117127000D01*
X62611000Y-118320155D01*
X62840890Y-118441476D01*
X63250924Y-118271645D01*
X63639000Y-117917978D01*
X63639000Y-118065674D01*
X63611867Y-118202081D01*
X63653930Y-118413544D01*
X63719359Y-118742480D01*
X64025471Y-119200609D01*
X64141112Y-119277878D01*
X64153234Y-119290000D01*
X58710000Y-119290000D01*
X58710000Y-117356892D01*
X61042514Y-117356892D01*
X61288817Y-117881358D01*
X61717076Y-118271645D01*
X62127110Y-118441476D01*
X62357000Y-118320155D01*
X62357000Y-117127000D01*
X61163181Y-117127000D01*
X61042514Y-117356892D01*
X58710000Y-117356892D01*
X58710000Y-116643108D01*
X61042514Y-116643108D01*
X61163181Y-116873000D01*
X62357000Y-116873000D01*
X62357000Y-115679845D01*
X62127110Y-115558524D01*
X61717076Y-115728355D01*
X61288817Y-116118642D01*
X61042514Y-116643108D01*
X58710000Y-116643108D01*
X58710000Y-115157039D01*
X70236096Y-115157039D01*
X70396959Y-115545423D01*
X70772866Y-115960389D01*
X71278959Y-116199914D01*
X71501000Y-116078629D01*
X71501000Y-114935000D01*
X71755000Y-114935000D01*
X71755000Y-116078629D01*
X71977041Y-116199914D01*
X72483134Y-115960389D01*
X72859041Y-115545423D01*
X73019904Y-115157039D01*
X72897915Y-114935000D01*
X71755000Y-114935000D01*
X71501000Y-114935000D01*
X70358085Y-114935000D01*
X70236096Y-115157039D01*
X58710000Y-115157039D01*
X58710000Y-114458961D01*
X70236096Y-114458961D01*
X70358085Y-114681000D01*
X71501000Y-114681000D01*
X71501000Y-113537371D01*
X71755000Y-113537371D01*
X71755000Y-114681000D01*
X72897915Y-114681000D01*
X72984961Y-114522561D01*
X80353000Y-114522561D01*
X80353000Y-115093439D01*
X80571466Y-115620862D01*
X80975138Y-116024534D01*
X81502561Y-116243000D01*
X82073439Y-116243000D01*
X82600862Y-116024534D01*
X83004534Y-115620862D01*
X83223000Y-115093439D01*
X83223000Y-114522561D01*
X83004534Y-113995138D01*
X82600862Y-113591466D01*
X82073439Y-113373000D01*
X81502561Y-113373000D01*
X80975138Y-113591466D01*
X80571466Y-113995138D01*
X80353000Y-114522561D01*
X72984961Y-114522561D01*
X73019904Y-114458961D01*
X72859041Y-114070577D01*
X72483134Y-113655611D01*
X71977041Y-113416086D01*
X71755000Y-113537371D01*
X71501000Y-113537371D01*
X71278959Y-113416086D01*
X70772866Y-113655611D01*
X70396959Y-114070577D01*
X70236096Y-114458961D01*
X58710000Y-114458961D01*
X58710000Y-109069925D01*
X58723909Y-109000000D01*
X58668805Y-108722972D01*
X58511881Y-108488119D01*
X58277028Y-108331195D01*
X58069926Y-108290000D01*
X58069925Y-108290000D01*
X58000000Y-108276091D01*
X57930074Y-108290000D01*
X57319709Y-108290000D01*
X57448157Y-108097765D01*
X57497440Y-107850000D01*
X57497440Y-107760000D01*
X59480969Y-107760000D01*
X59555816Y-107774888D01*
X59630663Y-107760000D01*
X59630668Y-107760000D01*
X59852353Y-107715904D01*
X59960942Y-107643347D01*
X60118782Y-107801187D01*
X60499188Y-107958756D01*
X60910936Y-107958756D01*
X61291342Y-107801187D01*
X61408773Y-107683756D01*
X62412955Y-107683756D01*
X62973000Y-108243802D01*
X62973000Y-108311176D01*
X62630256Y-108243000D01*
X62337744Y-108243000D01*
X61904582Y-108329161D01*
X61413375Y-108657375D01*
X61085161Y-109148582D01*
X60969908Y-109728000D01*
X61085161Y-110307418D01*
X61413375Y-110798625D01*
X61431619Y-110810816D01*
X61386235Y-110819843D01*
X61176191Y-110960191D01*
X61035843Y-111170235D01*
X60986560Y-111418000D01*
X60986560Y-113118000D01*
X61035843Y-113365765D01*
X61176191Y-113575809D01*
X61386235Y-113716157D01*
X61634000Y-113765440D01*
X63334000Y-113765440D01*
X63581765Y-113716157D01*
X63791809Y-113575809D01*
X63932157Y-113365765D01*
X63941184Y-113320381D01*
X63953375Y-113338625D01*
X64444582Y-113666839D01*
X64877744Y-113753000D01*
X65170256Y-113753000D01*
X65603418Y-113666839D01*
X66094625Y-113338625D01*
X66422839Y-112847418D01*
X66538092Y-112268000D01*
X66422839Y-111688582D01*
X66094625Y-111197375D01*
X66038690Y-111160000D01*
X76536887Y-111160000D01*
X76648260Y-111719909D01*
X76965423Y-112194577D01*
X77440091Y-112511740D01*
X77858667Y-112595000D01*
X78141333Y-112595000D01*
X78559909Y-112511740D01*
X79034577Y-112194577D01*
X79351740Y-111719909D01*
X79463113Y-111160000D01*
X79374510Y-110714561D01*
X79565000Y-110714561D01*
X79565000Y-111285439D01*
X79783466Y-111812862D01*
X80187138Y-112216534D01*
X80714561Y-112435000D01*
X81285439Y-112435000D01*
X81812862Y-112216534D01*
X82216534Y-111812862D01*
X82435000Y-111285439D01*
X82435000Y-110714561D01*
X82216534Y-110187138D01*
X81812862Y-109783466D01*
X81285439Y-109565000D01*
X80714561Y-109565000D01*
X80187138Y-109783466D01*
X79783466Y-110187138D01*
X79565000Y-110714561D01*
X79374510Y-110714561D01*
X79351740Y-110600091D01*
X79034577Y-110125423D01*
X78559909Y-109808260D01*
X78141333Y-109725000D01*
X77858667Y-109725000D01*
X77440091Y-109808260D01*
X76965423Y-110125423D01*
X76648260Y-110600091D01*
X76536887Y-111160000D01*
X66038690Y-111160000D01*
X65796239Y-110998000D01*
X66094625Y-110798625D01*
X66422839Y-110307418D01*
X66538092Y-109728000D01*
X66422839Y-109148582D01*
X66322057Y-108997750D01*
X70601000Y-108997750D01*
X70601000Y-109738310D01*
X70697673Y-109971699D01*
X70876302Y-110150327D01*
X71109691Y-110247000D01*
X71850250Y-110247000D01*
X72009000Y-110088250D01*
X72009000Y-108839000D01*
X70759750Y-108839000D01*
X70601000Y-108997750D01*
X66322057Y-108997750D01*
X66094625Y-108657375D01*
X65603418Y-108329161D01*
X65170256Y-108243000D01*
X65043000Y-108243000D01*
X65043000Y-107998126D01*
X64913586Y-107685690D01*
X70601000Y-107685690D01*
X70601000Y-108426250D01*
X70759750Y-108585000D01*
X72009000Y-108585000D01*
X72009000Y-107335750D01*
X72263000Y-107335750D01*
X72263000Y-108585000D01*
X72283000Y-108585000D01*
X72283000Y-108839000D01*
X72263000Y-108839000D01*
X72263000Y-110088250D01*
X72421750Y-110247000D01*
X73162309Y-110247000D01*
X73395698Y-110150327D01*
X73574327Y-109971699D01*
X73630139Y-109836956D01*
X73806493Y-110013310D01*
X74370670Y-110247000D01*
X74981330Y-110247000D01*
X75545507Y-110013310D01*
X75977310Y-109581507D01*
X76211000Y-109017330D01*
X76211000Y-108406670D01*
X76083973Y-108100000D01*
X83452560Y-108100000D01*
X83452560Y-109900000D01*
X83501843Y-110147765D01*
X83642191Y-110357809D01*
X83852235Y-110498157D01*
X84100000Y-110547440D01*
X85900000Y-110547440D01*
X86147765Y-110498157D01*
X86357809Y-110357809D01*
X86498157Y-110147765D01*
X86501275Y-110132092D01*
X86670493Y-110301310D01*
X87234670Y-110535000D01*
X87845330Y-110535000D01*
X88409507Y-110301310D01*
X88841310Y-109869507D01*
X89075000Y-109305330D01*
X89075000Y-108694670D01*
X88841310Y-108130493D01*
X88409507Y-107698690D01*
X87845330Y-107465000D01*
X87234670Y-107465000D01*
X86670493Y-107698690D01*
X86501275Y-107867908D01*
X86498157Y-107852235D01*
X86357809Y-107642191D01*
X86147765Y-107501843D01*
X85900000Y-107452560D01*
X84100000Y-107452560D01*
X83852235Y-107501843D01*
X83642191Y-107642191D01*
X83501843Y-107852235D01*
X83452560Y-108100000D01*
X76083973Y-108100000D01*
X75977310Y-107842493D01*
X75545507Y-107410690D01*
X74981330Y-107177000D01*
X74370670Y-107177000D01*
X73806493Y-107410690D01*
X73630139Y-107587044D01*
X73574327Y-107452301D01*
X73395698Y-107273673D01*
X73162309Y-107177000D01*
X72421750Y-107177000D01*
X72263000Y-107335750D01*
X72009000Y-107335750D01*
X71850250Y-107177000D01*
X71109691Y-107177000D01*
X70876302Y-107273673D01*
X70697673Y-107452301D01*
X70601000Y-107685690D01*
X64913586Y-107685690D01*
X64885431Y-107617720D01*
X64594280Y-107326569D01*
X64213874Y-107169000D01*
X64047802Y-107169000D01*
X63810802Y-106932000D01*
X66860289Y-106932000D01*
X66977720Y-107049431D01*
X67358126Y-107207000D01*
X67769874Y-107207000D01*
X68150280Y-107049431D01*
X68441431Y-106758280D01*
X68599000Y-106377874D01*
X68599000Y-105966126D01*
X68584069Y-105930079D01*
X68654847Y-105916000D01*
X68654852Y-105916000D01*
X68876537Y-105871904D01*
X69127929Y-105703929D01*
X69170331Y-105640470D01*
X70588476Y-104222327D01*
X70651929Y-104179929D01*
X70694327Y-104116476D01*
X70694329Y-104116474D01*
X70819903Y-103928538D01*
X70819904Y-103928537D01*
X70864000Y-103706852D01*
X70864000Y-103706848D01*
X70878888Y-103632001D01*
X70864000Y-103557154D01*
X70864000Y-103534025D01*
X70876302Y-103546327D01*
X71109691Y-103643000D01*
X71850250Y-103643000D01*
X72009000Y-103484250D01*
X72009000Y-102235000D01*
X71989000Y-102235000D01*
X71989000Y-101981000D01*
X72009000Y-101981000D01*
X72009000Y-101961000D01*
X72263000Y-101961000D01*
X72263000Y-101981000D01*
X72283000Y-101981000D01*
X72283000Y-102235000D01*
X72263000Y-102235000D01*
X72263000Y-103484250D01*
X72421750Y-103643000D01*
X73162309Y-103643000D01*
X73395698Y-103546327D01*
X73574327Y-103367699D01*
X73630139Y-103232956D01*
X73806493Y-103409310D01*
X74370670Y-103643000D01*
X74981330Y-103643000D01*
X75545507Y-103409310D01*
X75977310Y-102977507D01*
X76211000Y-102413330D01*
X76211000Y-101802670D01*
X76120838Y-101584999D01*
X76435152Y-101584999D01*
X76509999Y-101599887D01*
X76584846Y-101584999D01*
X76584851Y-101584999D01*
X76681148Y-101565844D01*
X76783466Y-101812862D01*
X77187138Y-102216534D01*
X77714561Y-102435000D01*
X78285439Y-102435000D01*
X78812862Y-102216534D01*
X79216534Y-101812862D01*
X79435000Y-101285439D01*
X79435000Y-100840000D01*
X79536887Y-100840000D01*
X79648260Y-101399909D01*
X79965423Y-101874577D01*
X80440091Y-102191740D01*
X80858667Y-102275000D01*
X81141333Y-102275000D01*
X81559909Y-102191740D01*
X82034577Y-101874577D01*
X82351740Y-101399909D01*
X82463113Y-100840000D01*
X82351740Y-100280091D01*
X82034577Y-99805423D01*
X81559909Y-99488260D01*
X81141333Y-99405000D01*
X80858667Y-99405000D01*
X80440091Y-99488260D01*
X79965423Y-99805423D01*
X79648260Y-100280091D01*
X79536887Y-100840000D01*
X79435000Y-100840000D01*
X79435000Y-100714561D01*
X79216534Y-100187138D01*
X78812862Y-99783466D01*
X78680967Y-99728833D01*
X79605800Y-98804000D01*
X82608289Y-98804000D01*
X82725720Y-98921431D01*
X83106126Y-99079000D01*
X83517874Y-99079000D01*
X83898280Y-98921431D01*
X84189431Y-98630280D01*
X84347000Y-98249874D01*
X84347000Y-97838126D01*
X84333208Y-97804830D01*
X85511027Y-97804830D01*
X88401619Y-100695423D01*
X88401619Y-100695423D01*
G37*
X88401619Y-100695423D02*
X87845330Y-100465000D01*
X87234670Y-100465000D01*
X86670493Y-100698690D01*
X86501275Y-100867908D01*
X86498157Y-100852235D01*
X86357809Y-100642191D01*
X86147765Y-100501843D01*
X85900000Y-100452560D01*
X84100000Y-100452560D01*
X83852235Y-100501843D01*
X83642191Y-100642191D01*
X83501843Y-100852235D01*
X83452560Y-101100000D01*
X83452560Y-102900000D01*
X83501843Y-103147765D01*
X83642191Y-103357809D01*
X83852235Y-103498157D01*
X84100000Y-103547440D01*
X85900000Y-103547440D01*
X86147765Y-103498157D01*
X86357809Y-103357809D01*
X86498157Y-103147765D01*
X86501275Y-103132092D01*
X86670493Y-103301310D01*
X87234670Y-103535000D01*
X87845330Y-103535000D01*
X88409507Y-103301310D01*
X88841310Y-102869507D01*
X89075000Y-102305330D01*
X89075000Y-101694670D01*
X88844577Y-101138381D01*
X95271195Y-107565000D01*
X94714561Y-107565000D01*
X94187138Y-107783466D01*
X93783466Y-108187138D01*
X93565000Y-108714561D01*
X93565000Y-109285439D01*
X93783466Y-109812862D01*
X94187138Y-110216534D01*
X94714561Y-110435000D01*
X95285439Y-110435000D01*
X95812862Y-110216534D01*
X96216534Y-109812862D01*
X96435000Y-109285439D01*
X96435000Y-108728805D01*
X97700001Y-109993806D01*
X97700000Y-111721822D01*
X97389375Y-111929375D01*
X97176157Y-112248478D01*
X97115183Y-112118642D01*
X96686924Y-111728355D01*
X96276890Y-111558524D01*
X96047000Y-111679845D01*
X96047000Y-112873000D01*
X96067000Y-112873000D01*
X96067000Y-113127000D01*
X96047000Y-113127000D01*
X96047000Y-113147000D01*
X95793000Y-113147000D01*
X95793000Y-113127000D01*
X95773000Y-113127000D01*
X95773000Y-112873000D01*
X95793000Y-112873000D01*
X95793000Y-111679845D01*
X95563110Y-111558524D01*
X95153076Y-111728355D01*
X94724817Y-112118642D01*
X94663843Y-112248478D01*
X94450625Y-111929375D01*
X93959418Y-111601161D01*
X93526256Y-111515000D01*
X93233744Y-111515000D01*
X92800582Y-111601161D01*
X92309375Y-111929375D01*
X92297184Y-111947619D01*
X92288157Y-111902235D01*
X92147809Y-111692191D01*
X91937765Y-111551843D01*
X91690000Y-111502560D01*
X89990000Y-111502560D01*
X89742235Y-111551843D01*
X89532191Y-111692191D01*
X89391843Y-111902235D01*
X89342560Y-112150000D01*
X89342560Y-113850000D01*
X89391843Y-114097765D01*
X89532191Y-114307809D01*
X89742235Y-114448157D01*
X89990000Y-114497440D01*
X91690000Y-114497440D01*
X91937765Y-114448157D01*
X91995000Y-114409913D01*
X91995000Y-114579593D01*
X91967867Y-114716000D01*
X91995000Y-114852406D01*
X92075359Y-115256399D01*
X92381471Y-115714528D01*
X92497112Y-115791797D01*
X93412202Y-116706888D01*
X93489471Y-116822529D01*
X93605111Y-116899797D01*
X93947600Y-117128641D01*
X94218741Y-117182574D01*
X93914315Y-117487000D01*
X92497440Y-117487000D01*
X92497440Y-116150000D01*
X92448157Y-115902235D01*
X92307809Y-115692191D01*
X92097765Y-115551843D01*
X91850000Y-115502560D01*
X90150000Y-115502560D01*
X89902235Y-115551843D01*
X89692191Y-115692191D01*
X89551843Y-115902235D01*
X89542816Y-115947619D01*
X89530625Y-115929375D01*
X89039418Y-115601161D01*
X88606256Y-115515000D01*
X88313744Y-115515000D01*
X87880582Y-115601161D01*
X87389375Y-115929375D01*
X87176157Y-116248478D01*
X87115183Y-116118642D01*
X86686924Y-115728355D01*
X86276890Y-115558524D01*
X86047000Y-115679845D01*
X86047000Y-116873000D01*
X86067000Y-116873000D01*
X86067000Y-117127000D01*
X86047000Y-117127000D01*
X86047000Y-117147000D01*
X85793000Y-117147000D01*
X85793000Y-117127000D01*
X84599181Y-117127000D01*
X84478514Y-117356892D01*
X84539616Y-117487000D01*
X69061440Y-117487000D01*
X69061440Y-116643108D01*
X84478514Y-116643108D01*
X84599181Y-116873000D01*
X85793000Y-116873000D01*
X85793000Y-115679845D01*
X85563110Y-115558524D01*
X85153076Y-115728355D01*
X84724817Y-116118642D01*
X84478514Y-116643108D01*
X69061440Y-116643108D01*
X69061440Y-116150000D01*
X69012157Y-115902235D01*
X68871809Y-115692191D01*
X68661765Y-115551843D01*
X68414000Y-115502560D01*
X66714000Y-115502560D01*
X66466235Y-115551843D01*
X66256191Y-115692191D01*
X66115843Y-115902235D01*
X66106816Y-115947619D01*
X66094625Y-115929375D01*
X65603418Y-115601161D01*
X65170256Y-115515000D01*
X64877744Y-115515000D01*
X64444582Y-115601161D01*
X63953375Y-115929375D01*
X63740157Y-116248478D01*
X63679183Y-116118642D01*
X63250924Y-115728355D01*
X62840890Y-115558524D01*
X62611000Y-115679845D01*
X62611000Y-116873000D01*
X62631000Y-116873000D01*
X62631000Y-117127000D01*
X62611000Y-117127000D01*
X62611000Y-118320155D01*
X62840890Y-118441476D01*
X63250924Y-118271645D01*
X63639000Y-117917978D01*
X63639000Y-118065674D01*
X63611867Y-118202081D01*
X63653930Y-118413544D01*
X63719359Y-118742480D01*
X64025471Y-119200609D01*
X64141112Y-119277878D01*
X64153234Y-119290000D01*
X58710000Y-119290000D01*
X58710000Y-117356892D01*
X61042514Y-117356892D01*
X61288817Y-117881358D01*
X61717076Y-118271645D01*
X62127110Y-118441476D01*
X62357000Y-118320155D01*
X62357000Y-117127000D01*
X61163181Y-117127000D01*
X61042514Y-117356892D01*
X58710000Y-117356892D01*
X58710000Y-116643108D01*
X61042514Y-116643108D01*
X61163181Y-116873000D01*
X62357000Y-116873000D01*
X62357000Y-115679845D01*
X62127110Y-115558524D01*
X61717076Y-115728355D01*
X61288817Y-116118642D01*
X61042514Y-116643108D01*
X58710000Y-116643108D01*
X58710000Y-115157039D01*
X70236096Y-115157039D01*
X70396959Y-115545423D01*
X70772866Y-115960389D01*
X71278959Y-116199914D01*
X71501000Y-116078629D01*
X71501000Y-114935000D01*
X71755000Y-114935000D01*
X71755000Y-116078629D01*
X71977041Y-116199914D01*
X72483134Y-115960389D01*
X72859041Y-115545423D01*
X73019904Y-115157039D01*
X72897915Y-114935000D01*
X71755000Y-114935000D01*
X71501000Y-114935000D01*
X70358085Y-114935000D01*
X70236096Y-115157039D01*
X58710000Y-115157039D01*
X58710000Y-114458961D01*
X70236096Y-114458961D01*
X70358085Y-114681000D01*
X71501000Y-114681000D01*
X71501000Y-113537371D01*
X71755000Y-113537371D01*
X71755000Y-114681000D01*
X72897915Y-114681000D01*
X72984961Y-114522561D01*
X80353000Y-114522561D01*
X80353000Y-115093439D01*
X80571466Y-115620862D01*
X80975138Y-116024534D01*
X81502561Y-116243000D01*
X82073439Y-116243000D01*
X82600862Y-116024534D01*
X83004534Y-115620862D01*
X83223000Y-115093439D01*
X83223000Y-114522561D01*
X83004534Y-113995138D01*
X82600862Y-113591466D01*
X82073439Y-113373000D01*
X81502561Y-113373000D01*
X80975138Y-113591466D01*
X80571466Y-113995138D01*
X80353000Y-114522561D01*
X72984961Y-114522561D01*
X73019904Y-114458961D01*
X72859041Y-114070577D01*
X72483134Y-113655611D01*
X71977041Y-113416086D01*
X71755000Y-113537371D01*
X71501000Y-113537371D01*
X71278959Y-113416086D01*
X70772866Y-113655611D01*
X70396959Y-114070577D01*
X70236096Y-114458961D01*
X58710000Y-114458961D01*
X58710000Y-109069925D01*
X58723909Y-109000000D01*
X58668805Y-108722972D01*
X58511881Y-108488119D01*
X58277028Y-108331195D01*
X58069926Y-108290000D01*
X58069925Y-108290000D01*
X58000000Y-108276091D01*
X57930074Y-108290000D01*
X57319709Y-108290000D01*
X57448157Y-108097765D01*
X57497440Y-107850000D01*
X57497440Y-107760000D01*
X59480969Y-107760000D01*
X59555816Y-107774888D01*
X59630663Y-107760000D01*
X59630668Y-107760000D01*
X59852353Y-107715904D01*
X59960942Y-107643347D01*
X60118782Y-107801187D01*
X60499188Y-107958756D01*
X60910936Y-107958756D01*
X61291342Y-107801187D01*
X61408773Y-107683756D01*
X62412955Y-107683756D01*
X62973000Y-108243802D01*
X62973000Y-108311176D01*
X62630256Y-108243000D01*
X62337744Y-108243000D01*
X61904582Y-108329161D01*
X61413375Y-108657375D01*
X61085161Y-109148582D01*
X60969908Y-109728000D01*
X61085161Y-110307418D01*
X61413375Y-110798625D01*
X61431619Y-110810816D01*
X61386235Y-110819843D01*
X61176191Y-110960191D01*
X61035843Y-111170235D01*
X60986560Y-111418000D01*
X60986560Y-113118000D01*
X61035843Y-113365765D01*
X61176191Y-113575809D01*
X61386235Y-113716157D01*
X61634000Y-113765440D01*
X63334000Y-113765440D01*
X63581765Y-113716157D01*
X63791809Y-113575809D01*
X63932157Y-113365765D01*
X63941184Y-113320381D01*
X63953375Y-113338625D01*
X64444582Y-113666839D01*
X64877744Y-113753000D01*
X65170256Y-113753000D01*
X65603418Y-113666839D01*
X66094625Y-113338625D01*
X66422839Y-112847418D01*
X66538092Y-112268000D01*
X66422839Y-111688582D01*
X66094625Y-111197375D01*
X66038690Y-111160000D01*
X76536887Y-111160000D01*
X76648260Y-111719909D01*
X76965423Y-112194577D01*
X77440091Y-112511740D01*
X77858667Y-112595000D01*
X78141333Y-112595000D01*
X78559909Y-112511740D01*
X79034577Y-112194577D01*
X79351740Y-111719909D01*
X79463113Y-111160000D01*
X79374510Y-110714561D01*
X79565000Y-110714561D01*
X79565000Y-111285439D01*
X79783466Y-111812862D01*
X80187138Y-112216534D01*
X80714561Y-112435000D01*
X81285439Y-112435000D01*
X81812862Y-112216534D01*
X82216534Y-111812862D01*
X82435000Y-111285439D01*
X82435000Y-110714561D01*
X82216534Y-110187138D01*
X81812862Y-109783466D01*
X81285439Y-109565000D01*
X80714561Y-109565000D01*
X80187138Y-109783466D01*
X79783466Y-110187138D01*
X79565000Y-110714561D01*
X79374510Y-110714561D01*
X79351740Y-110600091D01*
X79034577Y-110125423D01*
X78559909Y-109808260D01*
X78141333Y-109725000D01*
X77858667Y-109725000D01*
X77440091Y-109808260D01*
X76965423Y-110125423D01*
X76648260Y-110600091D01*
X76536887Y-111160000D01*
X66038690Y-111160000D01*
X65796239Y-110998000D01*
X66094625Y-110798625D01*
X66422839Y-110307418D01*
X66538092Y-109728000D01*
X66422839Y-109148582D01*
X66322057Y-108997750D01*
X70601000Y-108997750D01*
X70601000Y-109738310D01*
X70697673Y-109971699D01*
X70876302Y-110150327D01*
X71109691Y-110247000D01*
X71850250Y-110247000D01*
X72009000Y-110088250D01*
X72009000Y-108839000D01*
X70759750Y-108839000D01*
X70601000Y-108997750D01*
X66322057Y-108997750D01*
X66094625Y-108657375D01*
X65603418Y-108329161D01*
X65170256Y-108243000D01*
X65043000Y-108243000D01*
X65043000Y-107998126D01*
X64913586Y-107685690D01*
X70601000Y-107685690D01*
X70601000Y-108426250D01*
X70759750Y-108585000D01*
X72009000Y-108585000D01*
X72009000Y-107335750D01*
X72263000Y-107335750D01*
X72263000Y-108585000D01*
X72283000Y-108585000D01*
X72283000Y-108839000D01*
X72263000Y-108839000D01*
X72263000Y-110088250D01*
X72421750Y-110247000D01*
X73162309Y-110247000D01*
X73395698Y-110150327D01*
X73574327Y-109971699D01*
X73630139Y-109836956D01*
X73806493Y-110013310D01*
X74370670Y-110247000D01*
X74981330Y-110247000D01*
X75545507Y-110013310D01*
X75977310Y-109581507D01*
X76211000Y-109017330D01*
X76211000Y-108406670D01*
X76083973Y-108100000D01*
X83452560Y-108100000D01*
X83452560Y-109900000D01*
X83501843Y-110147765D01*
X83642191Y-110357809D01*
X83852235Y-110498157D01*
X84100000Y-110547440D01*
X85900000Y-110547440D01*
X86147765Y-110498157D01*
X86357809Y-110357809D01*
X86498157Y-110147765D01*
X86501275Y-110132092D01*
X86670493Y-110301310D01*
X87234670Y-110535000D01*
X87845330Y-110535000D01*
X88409507Y-110301310D01*
X88841310Y-109869507D01*
X89075000Y-109305330D01*
X89075000Y-108694670D01*
X88841310Y-108130493D01*
X88409507Y-107698690D01*
X87845330Y-107465000D01*
X87234670Y-107465000D01*
X86670493Y-107698690D01*
X86501275Y-107867908D01*
X86498157Y-107852235D01*
X86357809Y-107642191D01*
X86147765Y-107501843D01*
X85900000Y-107452560D01*
X84100000Y-107452560D01*
X83852235Y-107501843D01*
X83642191Y-107642191D01*
X83501843Y-107852235D01*
X83452560Y-108100000D01*
X76083973Y-108100000D01*
X75977310Y-107842493D01*
X75545507Y-107410690D01*
X74981330Y-107177000D01*
X74370670Y-107177000D01*
X73806493Y-107410690D01*
X73630139Y-107587044D01*
X73574327Y-107452301D01*
X73395698Y-107273673D01*
X73162309Y-107177000D01*
X72421750Y-107177000D01*
X72263000Y-107335750D01*
X72009000Y-107335750D01*
X71850250Y-107177000D01*
X71109691Y-107177000D01*
X70876302Y-107273673D01*
X70697673Y-107452301D01*
X70601000Y-107685690D01*
X64913586Y-107685690D01*
X64885431Y-107617720D01*
X64594280Y-107326569D01*
X64213874Y-107169000D01*
X64047802Y-107169000D01*
X63810802Y-106932000D01*
X66860289Y-106932000D01*
X66977720Y-107049431D01*
X67358126Y-107207000D01*
X67769874Y-107207000D01*
X68150280Y-107049431D01*
X68441431Y-106758280D01*
X68599000Y-106377874D01*
X68599000Y-105966126D01*
X68584069Y-105930079D01*
X68654847Y-105916000D01*
X68654852Y-105916000D01*
X68876537Y-105871904D01*
X69127929Y-105703929D01*
X69170331Y-105640470D01*
X70588476Y-104222327D01*
X70651929Y-104179929D01*
X70694327Y-104116476D01*
X70694329Y-104116474D01*
X70819903Y-103928538D01*
X70819904Y-103928537D01*
X70864000Y-103706852D01*
X70864000Y-103706848D01*
X70878888Y-103632001D01*
X70864000Y-103557154D01*
X70864000Y-103534025D01*
X70876302Y-103546327D01*
X71109691Y-103643000D01*
X71850250Y-103643000D01*
X72009000Y-103484250D01*
X72009000Y-102235000D01*
X71989000Y-102235000D01*
X71989000Y-101981000D01*
X72009000Y-101981000D01*
X72009000Y-101961000D01*
X72263000Y-101961000D01*
X72263000Y-101981000D01*
X72283000Y-101981000D01*
X72283000Y-102235000D01*
X72263000Y-102235000D01*
X72263000Y-103484250D01*
X72421750Y-103643000D01*
X73162309Y-103643000D01*
X73395698Y-103546327D01*
X73574327Y-103367699D01*
X73630139Y-103232956D01*
X73806493Y-103409310D01*
X74370670Y-103643000D01*
X74981330Y-103643000D01*
X75545507Y-103409310D01*
X75977310Y-102977507D01*
X76211000Y-102413330D01*
X76211000Y-101802670D01*
X76120838Y-101584999D01*
X76435152Y-101584999D01*
X76509999Y-101599887D01*
X76584846Y-101584999D01*
X76584851Y-101584999D01*
X76681148Y-101565844D01*
X76783466Y-101812862D01*
X77187138Y-102216534D01*
X77714561Y-102435000D01*
X78285439Y-102435000D01*
X78812862Y-102216534D01*
X79216534Y-101812862D01*
X79435000Y-101285439D01*
X79435000Y-100840000D01*
X79536887Y-100840000D01*
X79648260Y-101399909D01*
X79965423Y-101874577D01*
X80440091Y-102191740D01*
X80858667Y-102275000D01*
X81141333Y-102275000D01*
X81559909Y-102191740D01*
X82034577Y-101874577D01*
X82351740Y-101399909D01*
X82463113Y-100840000D01*
X82351740Y-100280091D01*
X82034577Y-99805423D01*
X81559909Y-99488260D01*
X81141333Y-99405000D01*
X80858667Y-99405000D01*
X80440091Y-99488260D01*
X79965423Y-99805423D01*
X79648260Y-100280091D01*
X79536887Y-100840000D01*
X79435000Y-100840000D01*
X79435000Y-100714561D01*
X79216534Y-100187138D01*
X78812862Y-99783466D01*
X78680967Y-99728833D01*
X79605800Y-98804000D01*
X82608289Y-98804000D01*
X82725720Y-98921431D01*
X83106126Y-99079000D01*
X83517874Y-99079000D01*
X83898280Y-98921431D01*
X84189431Y-98630280D01*
X84347000Y-98249874D01*
X84347000Y-97838126D01*
X84333208Y-97804830D01*
X85511027Y-97804830D01*
X88401619Y-100695423D01*
G36*
X110540197Y-110492000D02*
X102822846Y-110492000D01*
X102747999Y-110477112D01*
X102673152Y-110492000D01*
X102673148Y-110492000D01*
X102451463Y-110536096D01*
X102451461Y-110536097D01*
X102451462Y-110536097D01*
X102263526Y-110661671D01*
X102263524Y-110661673D01*
X102200071Y-110704071D01*
X102157673Y-110767524D01*
X101366407Y-111558791D01*
X101146256Y-111515000D01*
X101019801Y-111515000D01*
X103185762Y-109349039D01*
X103768096Y-109349039D01*
X103928959Y-109737423D01*
X104304866Y-110152389D01*
X104810959Y-110391914D01*
X105033000Y-110270629D01*
X105033000Y-109127000D01*
X105287000Y-109127000D01*
X105287000Y-110270629D01*
X105509041Y-110391914D01*
X106015134Y-110152389D01*
X106391041Y-109737423D01*
X106551904Y-109349039D01*
X106429915Y-109127000D01*
X105287000Y-109127000D01*
X105033000Y-109127000D01*
X103890085Y-109127000D01*
X103768096Y-109349039D01*
X103185762Y-109349039D01*
X103809138Y-108725664D01*
X103890085Y-108873000D01*
X105033000Y-108873000D01*
X105033000Y-108853000D01*
X105287000Y-108853000D01*
X105287000Y-108873000D01*
X106429915Y-108873000D01*
X106551904Y-108650961D01*
X106471154Y-108456000D01*
X112576195Y-108456000D01*
X110540197Y-110492000D01*
X110540197Y-110492000D01*
G37*
X110540197Y-110492000D02*
X102822846Y-110492000D01*
X102747999Y-110477112D01*
X102673152Y-110492000D01*
X102673148Y-110492000D01*
X102451463Y-110536096D01*
X102451461Y-110536097D01*
X102451462Y-110536097D01*
X102263526Y-110661671D01*
X102263524Y-110661673D01*
X102200071Y-110704071D01*
X102157673Y-110767524D01*
X101366407Y-111558791D01*
X101146256Y-111515000D01*
X101019801Y-111515000D01*
X103185762Y-109349039D01*
X103768096Y-109349039D01*
X103928959Y-109737423D01*
X104304866Y-110152389D01*
X104810959Y-110391914D01*
X105033000Y-110270629D01*
X105033000Y-109127000D01*
X105287000Y-109127000D01*
X105287000Y-110270629D01*
X105509041Y-110391914D01*
X106015134Y-110152389D01*
X106391041Y-109737423D01*
X106551904Y-109349039D01*
X106429915Y-109127000D01*
X105287000Y-109127000D01*
X105033000Y-109127000D01*
X103890085Y-109127000D01*
X103768096Y-109349039D01*
X103185762Y-109349039D01*
X103809138Y-108725664D01*
X103890085Y-108873000D01*
X105033000Y-108873000D01*
X105033000Y-108853000D01*
X105287000Y-108853000D01*
X105287000Y-108873000D01*
X106429915Y-108873000D01*
X106551904Y-108650961D01*
X106471154Y-108456000D01*
X112576195Y-108456000D01*
X110540197Y-110492000D01*
G36*
X93691359Y-92423601D02*
X93583867Y-92964000D01*
X93691359Y-93504399D01*
X93920203Y-93846888D01*
X104956202Y-104882888D01*
X105033471Y-104998529D01*
X105328901Y-105195929D01*
X105491600Y-105304641D01*
X106032000Y-105412133D01*
X106168407Y-105385000D01*
X108932544Y-105385000D01*
X108952235Y-105398157D01*
X109200000Y-105447440D01*
X110800000Y-105447440D01*
X111047765Y-105398157D01*
X111257809Y-105257809D01*
X111398157Y-105047765D01*
X111406117Y-105007745D01*
X111671861Y-105007745D01*
X111745995Y-105253864D01*
X112283223Y-105446965D01*
X112853454Y-105419778D01*
X113254005Y-105253864D01*
X113328139Y-105007745D01*
X112500000Y-104179605D01*
X111671861Y-105007745D01*
X111406117Y-105007745D01*
X111444693Y-104813813D01*
X111492255Y-104828139D01*
X112320395Y-104000000D01*
X112679605Y-104000000D01*
X113507745Y-104828139D01*
X113753864Y-104754005D01*
X113946965Y-104216777D01*
X113919778Y-103646546D01*
X113753864Y-103245995D01*
X113601165Y-103200000D01*
X114552560Y-103200000D01*
X114552560Y-104800000D01*
X114601843Y-105047765D01*
X114742191Y-105257809D01*
X114952235Y-105398157D01*
X115200000Y-105447440D01*
X116800000Y-105447440D01*
X117047765Y-105398157D01*
X117257809Y-105257809D01*
X117398157Y-105047765D01*
X117406117Y-105007745D01*
X117671861Y-105007745D01*
X117745995Y-105253864D01*
X118283223Y-105446965D01*
X118853454Y-105419778D01*
X119254005Y-105253864D01*
X119328139Y-105007745D01*
X118500000Y-104179605D01*
X117671861Y-105007745D01*
X117406117Y-105007745D01*
X117444693Y-104813813D01*
X117492255Y-104828139D01*
X118320395Y-104000000D01*
X118679605Y-104000000D01*
X119507745Y-104828139D01*
X119753864Y-104754005D01*
X119946965Y-104216777D01*
X119919778Y-103646546D01*
X119753864Y-103245995D01*
X119507745Y-103171861D01*
X118679605Y-104000000D01*
X118320395Y-104000000D01*
X117492255Y-103171861D01*
X117444693Y-103186187D01*
X117406118Y-102992255D01*
X117671861Y-102992255D01*
X118500000Y-103820395D01*
X119328139Y-102992255D01*
X119282278Y-102840000D01*
X123536887Y-102840000D01*
X123648260Y-103399909D01*
X123965423Y-103874577D01*
X124440091Y-104191740D01*
X124858667Y-104275000D01*
X125141333Y-104275000D01*
X125559909Y-104191740D01*
X126034577Y-103874577D01*
X126351740Y-103399909D01*
X126463113Y-102840000D01*
X126351740Y-102280091D01*
X126034577Y-101805423D01*
X125559909Y-101488260D01*
X125141333Y-101405000D01*
X124858667Y-101405000D01*
X124440091Y-101488260D01*
X123965423Y-101805423D01*
X123648260Y-102280091D01*
X123536887Y-102840000D01*
X119282278Y-102840000D01*
X119254005Y-102746136D01*
X118716777Y-102553035D01*
X118146546Y-102580222D01*
X117745995Y-102746136D01*
X117671861Y-102992255D01*
X117406118Y-102992255D01*
X117398157Y-102952235D01*
X117257809Y-102742191D01*
X117047765Y-102601843D01*
X116800000Y-102552560D01*
X115200000Y-102552560D01*
X114952235Y-102601843D01*
X114742191Y-102742191D01*
X114601843Y-102952235D01*
X114552560Y-103200000D01*
X113601165Y-103200000D01*
X113507745Y-103171861D01*
X112679605Y-104000000D01*
X112320395Y-104000000D01*
X111492255Y-103171861D01*
X111444693Y-103186187D01*
X111406118Y-102992255D01*
X111671861Y-102992255D01*
X112500000Y-103820395D01*
X113328139Y-102992255D01*
X113254005Y-102746136D01*
X112716777Y-102553035D01*
X112146546Y-102580222D01*
X111745995Y-102746136D01*
X111671861Y-102992255D01*
X111406118Y-102992255D01*
X111398157Y-102952235D01*
X111257809Y-102742191D01*
X111047765Y-102601843D01*
X110800000Y-102552560D01*
X109200000Y-102552560D01*
X108952235Y-102601843D01*
X108932544Y-102615000D01*
X106605686Y-102615000D01*
X98326789Y-94336104D01*
X98558462Y-94490903D01*
X98780147Y-94534999D01*
X98780151Y-94534999D01*
X98854998Y-94549887D01*
X98929845Y-94534999D01*
X114493199Y-94534999D01*
X121026671Y-101068472D01*
X121069072Y-101131929D01*
X121320464Y-101299904D01*
X121542149Y-101344000D01*
X121542153Y-101344000D01*
X121617001Y-101358888D01*
X121691849Y-101344000D01*
X126685199Y-101344000D01*
X127256000Y-101914802D01*
X127256001Y-102928288D01*
X127138569Y-103045720D01*
X126981000Y-103426126D01*
X126981000Y-103837874D01*
X127138569Y-104218280D01*
X127429720Y-104509431D01*
X127544526Y-104556985D01*
X127531526Y-104565671D01*
X127531524Y-104565673D01*
X127468071Y-104608071D01*
X127425673Y-104671524D01*
X125161199Y-106936000D01*
X103838848Y-106936000D01*
X103764000Y-106921112D01*
X103689152Y-106936000D01*
X103689148Y-106936000D01*
X103515605Y-106970520D01*
X103467462Y-106980096D01*
X103363696Y-107049431D01*
X103216071Y-107148071D01*
X103173671Y-107211527D01*
X101111000Y-109274198D01*
X101111000Y-109014126D01*
X100953431Y-108633720D01*
X100662280Y-108342569D01*
X100281874Y-108185000D01*
X100115802Y-108185000D01*
X95415802Y-103485000D01*
X95494297Y-103485000D01*
X96407639Y-103106681D01*
X97106681Y-102407639D01*
X97485000Y-101494297D01*
X97485000Y-100505703D01*
X97106681Y-99592361D01*
X96407639Y-98893319D01*
X95494297Y-98515000D01*
X94505703Y-98515000D01*
X93592361Y-98893319D01*
X92893319Y-99592361D01*
X92515000Y-100505703D01*
X92515000Y-100584199D01*
X89186797Y-97255995D01*
X89303000Y-97189479D01*
X89303000Y-95747000D01*
X89283000Y-95747000D01*
X89283000Y-95493000D01*
X89303000Y-95493000D01*
X89303000Y-94050521D01*
X89557000Y-94050521D01*
X89557000Y-95493000D01*
X89577000Y-95493000D01*
X89577000Y-95747000D01*
X89557000Y-95747000D01*
X89557000Y-97189479D01*
X89771275Y-97312133D01*
X89842903Y-97297950D01*
X90319944Y-97038798D01*
X90661499Y-96616817D01*
X90684455Y-96539254D01*
X90971060Y-96968189D01*
X91429378Y-97274428D01*
X91970000Y-97381964D01*
X92510621Y-97274428D01*
X92968939Y-96968190D01*
X93275178Y-96509872D01*
X93355570Y-96105713D01*
X93355570Y-95134288D01*
X93275178Y-94730128D01*
X92968940Y-94271810D01*
X92510622Y-93965572D01*
X91970000Y-93858036D01*
X91429379Y-93965572D01*
X90971061Y-94271810D01*
X90684455Y-94700745D01*
X90661499Y-94623183D01*
X90319944Y-94201202D01*
X89842903Y-93942050D01*
X89771275Y-93927867D01*
X89557000Y-94050521D01*
X89303000Y-94050521D01*
X89088725Y-93927867D01*
X89017097Y-93942050D01*
X88540056Y-94201202D01*
X88490762Y-94262103D01*
X88450056Y-94234904D01*
X86810680Y-92595530D01*
X86768278Y-92532071D01*
X86516886Y-92364096D01*
X86295201Y-92320000D01*
X86295196Y-92320000D01*
X86220349Y-92305112D01*
X86145502Y-92320000D01*
X84411011Y-92320000D01*
X84387142Y-92200000D01*
X93840765Y-92200000D01*
X93691359Y-92423601D01*
X93691359Y-92423601D01*
G37*
X93691359Y-92423601D02*
X93583867Y-92964000D01*
X93691359Y-93504399D01*
X93920203Y-93846888D01*
X104956202Y-104882888D01*
X105033471Y-104998529D01*
X105328901Y-105195929D01*
X105491600Y-105304641D01*
X106032000Y-105412133D01*
X106168407Y-105385000D01*
X108932544Y-105385000D01*
X108952235Y-105398157D01*
X109200000Y-105447440D01*
X110800000Y-105447440D01*
X111047765Y-105398157D01*
X111257809Y-105257809D01*
X111398157Y-105047765D01*
X111406117Y-105007745D01*
X111671861Y-105007745D01*
X111745995Y-105253864D01*
X112283223Y-105446965D01*
X112853454Y-105419778D01*
X113254005Y-105253864D01*
X113328139Y-105007745D01*
X112500000Y-104179605D01*
X111671861Y-105007745D01*
X111406117Y-105007745D01*
X111444693Y-104813813D01*
X111492255Y-104828139D01*
X112320395Y-104000000D01*
X112679605Y-104000000D01*
X113507745Y-104828139D01*
X113753864Y-104754005D01*
X113946965Y-104216777D01*
X113919778Y-103646546D01*
X113753864Y-103245995D01*
X113601165Y-103200000D01*
X114552560Y-103200000D01*
X114552560Y-104800000D01*
X114601843Y-105047765D01*
X114742191Y-105257809D01*
X114952235Y-105398157D01*
X115200000Y-105447440D01*
X116800000Y-105447440D01*
X117047765Y-105398157D01*
X117257809Y-105257809D01*
X117398157Y-105047765D01*
X117406117Y-105007745D01*
X117671861Y-105007745D01*
X117745995Y-105253864D01*
X118283223Y-105446965D01*
X118853454Y-105419778D01*
X119254005Y-105253864D01*
X119328139Y-105007745D01*
X118500000Y-104179605D01*
X117671861Y-105007745D01*
X117406117Y-105007745D01*
X117444693Y-104813813D01*
X117492255Y-104828139D01*
X118320395Y-104000000D01*
X118679605Y-104000000D01*
X119507745Y-104828139D01*
X119753864Y-104754005D01*
X119946965Y-104216777D01*
X119919778Y-103646546D01*
X119753864Y-103245995D01*
X119507745Y-103171861D01*
X118679605Y-104000000D01*
X118320395Y-104000000D01*
X117492255Y-103171861D01*
X117444693Y-103186187D01*
X117406118Y-102992255D01*
X117671861Y-102992255D01*
X118500000Y-103820395D01*
X119328139Y-102992255D01*
X119282278Y-102840000D01*
X123536887Y-102840000D01*
X123648260Y-103399909D01*
X123965423Y-103874577D01*
X124440091Y-104191740D01*
X124858667Y-104275000D01*
X125141333Y-104275000D01*
X125559909Y-104191740D01*
X126034577Y-103874577D01*
X126351740Y-103399909D01*
X126463113Y-102840000D01*
X126351740Y-102280091D01*
X126034577Y-101805423D01*
X125559909Y-101488260D01*
X125141333Y-101405000D01*
X124858667Y-101405000D01*
X124440091Y-101488260D01*
X123965423Y-101805423D01*
X123648260Y-102280091D01*
X123536887Y-102840000D01*
X119282278Y-102840000D01*
X119254005Y-102746136D01*
X118716777Y-102553035D01*
X118146546Y-102580222D01*
X117745995Y-102746136D01*
X117671861Y-102992255D01*
X117406118Y-102992255D01*
X117398157Y-102952235D01*
X117257809Y-102742191D01*
X117047765Y-102601843D01*
X116800000Y-102552560D01*
X115200000Y-102552560D01*
X114952235Y-102601843D01*
X114742191Y-102742191D01*
X114601843Y-102952235D01*
X114552560Y-103200000D01*
X113601165Y-103200000D01*
X113507745Y-103171861D01*
X112679605Y-104000000D01*
X112320395Y-104000000D01*
X111492255Y-103171861D01*
X111444693Y-103186187D01*
X111406118Y-102992255D01*
X111671861Y-102992255D01*
X112500000Y-103820395D01*
X113328139Y-102992255D01*
X113254005Y-102746136D01*
X112716777Y-102553035D01*
X112146546Y-102580222D01*
X111745995Y-102746136D01*
X111671861Y-102992255D01*
X111406118Y-102992255D01*
X111398157Y-102952235D01*
X111257809Y-102742191D01*
X111047765Y-102601843D01*
X110800000Y-102552560D01*
X109200000Y-102552560D01*
X108952235Y-102601843D01*
X108932544Y-102615000D01*
X106605686Y-102615000D01*
X98326789Y-94336104D01*
X98558462Y-94490903D01*
X98780147Y-94534999D01*
X98780151Y-94534999D01*
X98854998Y-94549887D01*
X98929845Y-94534999D01*
X114493199Y-94534999D01*
X121026671Y-101068472D01*
X121069072Y-101131929D01*
X121320464Y-101299904D01*
X121542149Y-101344000D01*
X121542153Y-101344000D01*
X121617001Y-101358888D01*
X121691849Y-101344000D01*
X126685199Y-101344000D01*
X127256000Y-101914802D01*
X127256001Y-102928288D01*
X127138569Y-103045720D01*
X126981000Y-103426126D01*
X126981000Y-103837874D01*
X127138569Y-104218280D01*
X127429720Y-104509431D01*
X127544526Y-104556985D01*
X127531526Y-104565671D01*
X127531524Y-104565673D01*
X127468071Y-104608071D01*
X127425673Y-104671524D01*
X125161199Y-106936000D01*
X103838848Y-106936000D01*
X103764000Y-106921112D01*
X103689152Y-106936000D01*
X103689148Y-106936000D01*
X103515605Y-106970520D01*
X103467462Y-106980096D01*
X103363696Y-107049431D01*
X103216071Y-107148071D01*
X103173671Y-107211527D01*
X101111000Y-109274198D01*
X101111000Y-109014126D01*
X100953431Y-108633720D01*
X100662280Y-108342569D01*
X100281874Y-108185000D01*
X100115802Y-108185000D01*
X95415802Y-103485000D01*
X95494297Y-103485000D01*
X96407639Y-103106681D01*
X97106681Y-102407639D01*
X97485000Y-101494297D01*
X97485000Y-100505703D01*
X97106681Y-99592361D01*
X96407639Y-98893319D01*
X95494297Y-98515000D01*
X94505703Y-98515000D01*
X93592361Y-98893319D01*
X92893319Y-99592361D01*
X92515000Y-100505703D01*
X92515000Y-100584199D01*
X89186797Y-97255995D01*
X89303000Y-97189479D01*
X89303000Y-95747000D01*
X89283000Y-95747000D01*
X89283000Y-95493000D01*
X89303000Y-95493000D01*
X89303000Y-94050521D01*
X89557000Y-94050521D01*
X89557000Y-95493000D01*
X89577000Y-95493000D01*
X89577000Y-95747000D01*
X89557000Y-95747000D01*
X89557000Y-97189479D01*
X89771275Y-97312133D01*
X89842903Y-97297950D01*
X90319944Y-97038798D01*
X90661499Y-96616817D01*
X90684455Y-96539254D01*
X90971060Y-96968189D01*
X91429378Y-97274428D01*
X91970000Y-97381964D01*
X92510621Y-97274428D01*
X92968939Y-96968190D01*
X93275178Y-96509872D01*
X93355570Y-96105713D01*
X93355570Y-95134288D01*
X93275178Y-94730128D01*
X92968940Y-94271810D01*
X92510622Y-93965572D01*
X91970000Y-93858036D01*
X91429379Y-93965572D01*
X90971061Y-94271810D01*
X90684455Y-94700745D01*
X90661499Y-94623183D01*
X90319944Y-94201202D01*
X89842903Y-93942050D01*
X89771275Y-93927867D01*
X89557000Y-94050521D01*
X89303000Y-94050521D01*
X89088725Y-93927867D01*
X89017097Y-93942050D01*
X88540056Y-94201202D01*
X88490762Y-94262103D01*
X88450056Y-94234904D01*
X86810680Y-92595530D01*
X86768278Y-92532071D01*
X86516886Y-92364096D01*
X86295201Y-92320000D01*
X86295196Y-92320000D01*
X86220349Y-92305112D01*
X86145502Y-92320000D01*
X84411011Y-92320000D01*
X84387142Y-92200000D01*
X93840765Y-92200000D01*
X93691359Y-92423601D01*
G36*
X124290001Y-69930069D02*
X124276091Y-70000000D01*
X124331195Y-70277028D01*
X124488119Y-70511881D01*
X124722972Y-70668805D01*
X124930074Y-70710000D01*
X124930075Y-70710000D01*
X125000000Y-70723909D01*
X125069926Y-70710000D01*
X142290001Y-70710000D01*
X142290001Y-72952894D01*
X142234334Y-72673037D01*
X141850865Y-72099135D01*
X141276963Y-71715666D01*
X140600000Y-71581010D01*
X139923038Y-71715666D01*
X139349136Y-72099135D01*
X139335486Y-72119564D01*
X139250000Y-72102560D01*
X137750000Y-72102560D01*
X137502235Y-72151843D01*
X137292191Y-72292191D01*
X137259204Y-72341559D01*
X137040400Y-72195359D01*
X136500000Y-72087867D01*
X135959601Y-72195359D01*
X135501472Y-72501471D01*
X135500000Y-72503673D01*
X135498529Y-72501471D01*
X135040400Y-72195359D01*
X134500000Y-72087867D01*
X133959601Y-72195359D01*
X133790609Y-72308276D01*
X133650865Y-72099135D01*
X133076963Y-71715666D01*
X132400000Y-71581010D01*
X131723038Y-71715666D01*
X131149136Y-72099135D01*
X130765667Y-72673037D01*
X130665000Y-73179120D01*
X130665000Y-74820879D01*
X130765666Y-75326962D01*
X131149135Y-75900865D01*
X131723037Y-76284334D01*
X132400000Y-76418990D01*
X133076962Y-76284334D01*
X133650865Y-75900865D01*
X133790608Y-75691724D01*
X133959600Y-75804641D01*
X134500000Y-75912133D01*
X135040399Y-75804641D01*
X135498528Y-75498529D01*
X135500000Y-75496326D01*
X135501471Y-75498528D01*
X135959600Y-75804641D01*
X136500000Y-75912133D01*
X137040399Y-75804641D01*
X137259204Y-75658440D01*
X137292191Y-75707809D01*
X137502235Y-75848157D01*
X137750000Y-75897440D01*
X139250000Y-75897440D01*
X139335485Y-75880436D01*
X139349135Y-75900865D01*
X139923037Y-76284334D01*
X140600000Y-76418990D01*
X141276962Y-76284334D01*
X141850865Y-75900865D01*
X142234334Y-75326963D01*
X142290001Y-75047106D01*
X142290001Y-85827144D01*
X142279929Y-85812071D01*
X142216476Y-85769673D01*
X140153458Y-83706657D01*
X140398839Y-83339418D01*
X140514092Y-82760000D01*
X140398839Y-82180582D01*
X140070625Y-81689375D01*
X139579418Y-81361161D01*
X139146256Y-81275000D01*
X138853744Y-81275000D01*
X138420582Y-81361161D01*
X137929375Y-81689375D01*
X137601161Y-82180582D01*
X137485908Y-82760000D01*
X137601161Y-83339418D01*
X137745440Y-83555347D01*
X135634000Y-85666789D01*
X135634000Y-82624846D01*
X135648888Y-82549999D01*
X135634000Y-82475152D01*
X135634000Y-82475148D01*
X135589904Y-82253463D01*
X135510396Y-82134471D01*
X135464329Y-82065526D01*
X135464327Y-82065524D01*
X135421929Y-82002071D01*
X135358476Y-81959673D01*
X129711209Y-76312408D01*
X129784092Y-75946000D01*
X129668839Y-75366582D01*
X129340625Y-74875375D01*
X129042239Y-74676000D01*
X129340625Y-74476625D01*
X129668839Y-73985418D01*
X129784092Y-73406000D01*
X129668839Y-72826582D01*
X129340625Y-72335375D01*
X128849418Y-72007161D01*
X128416256Y-71921000D01*
X128123744Y-71921000D01*
X127690582Y-72007161D01*
X127199375Y-72335375D01*
X127000000Y-72633761D01*
X126800625Y-72335375D01*
X126309418Y-72007161D01*
X125876256Y-71921000D01*
X125583744Y-71921000D01*
X125363592Y-71964791D01*
X124542331Y-71143530D01*
X124499929Y-71080071D01*
X124248537Y-70912096D01*
X124026852Y-70868000D01*
X124026847Y-70868000D01*
X123952000Y-70853112D01*
X123877153Y-70868000D01*
X121726802Y-70868000D01*
X121240331Y-70381530D01*
X121197929Y-70318071D01*
X120946537Y-70150096D01*
X120724852Y-70106000D01*
X120724847Y-70106000D01*
X120650000Y-70091112D01*
X120575153Y-70106000D01*
X77798846Y-70106000D01*
X77723999Y-70091112D01*
X77649152Y-70106000D01*
X77649148Y-70106000D01*
X77427463Y-70150096D01*
X77427461Y-70150097D01*
X77427462Y-70150097D01*
X77239526Y-70275671D01*
X77239524Y-70275673D01*
X77176071Y-70318071D01*
X77133673Y-70381524D01*
X75557069Y-71958129D01*
X75419387Y-71625736D01*
X75152532Y-71527073D01*
X74179605Y-72500000D01*
X74193748Y-72514143D01*
X74014143Y-72693748D01*
X74000000Y-72679605D01*
X73985858Y-72693748D01*
X73806253Y-72514143D01*
X73820395Y-72500000D01*
X72847468Y-71527073D01*
X72580613Y-71625736D01*
X72354092Y-72235461D01*
X72378144Y-72885460D01*
X72452512Y-73065001D01*
X70775847Y-73065001D01*
X70700999Y-73050113D01*
X70626151Y-73065001D01*
X70626147Y-73065001D01*
X70452604Y-73099521D01*
X70404461Y-73109097D01*
X70365710Y-73134990D01*
X70153070Y-73277072D01*
X70110668Y-73340531D01*
X70043199Y-73408000D01*
X68828141Y-73408000D01*
X68919387Y-73374264D01*
X69145908Y-72764539D01*
X69121856Y-72114540D01*
X68919387Y-71625736D01*
X68652532Y-71527073D01*
X67679605Y-72500000D01*
X67693748Y-72514143D01*
X67514143Y-72693748D01*
X67500000Y-72679605D01*
X67485858Y-72693748D01*
X67306253Y-72514143D01*
X67320395Y-72500000D01*
X66347468Y-71527073D01*
X66080613Y-71625736D01*
X66004381Y-71830930D01*
X65919387Y-71625736D01*
X65652532Y-71527073D01*
X64679605Y-72500000D01*
X64693748Y-72514143D01*
X64514143Y-72693748D01*
X64500000Y-72679605D01*
X63527073Y-73652532D01*
X63625736Y-73919387D01*
X64235461Y-74145908D01*
X64321471Y-74142725D01*
X60729528Y-77734669D01*
X60666072Y-77777069D01*
X60623672Y-77840525D01*
X60623671Y-77840526D01*
X60498097Y-78028461D01*
X60439112Y-78324998D01*
X60454001Y-78399850D01*
X60454001Y-79467194D01*
X60141333Y-79405000D01*
X59858667Y-79405000D01*
X59440091Y-79488260D01*
X58965423Y-79805423D01*
X58648260Y-80280091D01*
X58536887Y-80840000D01*
X58648260Y-81399909D01*
X58965423Y-81874577D01*
X59440091Y-82191740D01*
X59858667Y-82275000D01*
X59906198Y-82275000D01*
X54390527Y-87790672D01*
X54327071Y-87833072D01*
X54159096Y-88084464D01*
X54119120Y-88285439D01*
X54100111Y-88381001D01*
X54115000Y-88455853D01*
X54114999Y-91465154D01*
X54100111Y-91540001D01*
X54114999Y-91614848D01*
X54114999Y-91614852D01*
X54159095Y-91836537D01*
X54327070Y-92087930D01*
X54390529Y-92130332D01*
X54946669Y-92686473D01*
X54989069Y-92749929D01*
X55113860Y-92833312D01*
X54817376Y-93129796D01*
X54605000Y-93642517D01*
X54605000Y-94197483D01*
X54817376Y-94710204D01*
X55209796Y-95102624D01*
X55420740Y-95190000D01*
X55209796Y-95277376D01*
X54817376Y-95669796D01*
X54605000Y-96182517D01*
X54605000Y-96737483D01*
X54817376Y-97250204D01*
X55172172Y-97605000D01*
X55113691Y-97605000D01*
X54880302Y-97701673D01*
X54701673Y-97880301D01*
X54605000Y-98113690D01*
X54605000Y-98714250D01*
X54763748Y-98872998D01*
X54735800Y-98872998D01*
X54100000Y-98237199D01*
X54100000Y-92034848D01*
X54114888Y-91960000D01*
X54100000Y-91885152D01*
X54100000Y-91885148D01*
X54062064Y-91694430D01*
X54055904Y-91663462D01*
X53930329Y-91475527D01*
X53887929Y-91412071D01*
X53824473Y-91369671D01*
X52441209Y-89986408D01*
X52514092Y-89620000D01*
X52398839Y-89040582D01*
X52070625Y-88549375D01*
X51751522Y-88336157D01*
X51881358Y-88275183D01*
X52271645Y-87846924D01*
X52441476Y-87436890D01*
X52320155Y-87207000D01*
X51127000Y-87207000D01*
X51127000Y-87227000D01*
X50873000Y-87227000D01*
X50873000Y-87207000D01*
X49679845Y-87207000D01*
X49558524Y-87436890D01*
X49728355Y-87846924D01*
X50118642Y-88275183D01*
X50248478Y-88336157D01*
X49929375Y-88549375D01*
X49601161Y-89040582D01*
X49485908Y-89620000D01*
X49601161Y-90199418D01*
X49929375Y-90690625D01*
X50227761Y-90890000D01*
X49929375Y-91089375D01*
X49601161Y-91580582D01*
X49485908Y-92160000D01*
X49601161Y-92739418D01*
X49929375Y-93230625D01*
X50227761Y-93430000D01*
X49929375Y-93629375D01*
X49601161Y-94120582D01*
X49485908Y-94700000D01*
X49601161Y-95279418D01*
X49929375Y-95770625D01*
X50227761Y-95970000D01*
X49929375Y-96169375D01*
X49601161Y-96660582D01*
X49485908Y-97240000D01*
X49601161Y-97819418D01*
X49929375Y-98310625D01*
X50420582Y-98638839D01*
X50853744Y-98725000D01*
X51146256Y-98725000D01*
X51566881Y-98641333D01*
X51608097Y-98848537D01*
X51776072Y-99099929D01*
X51839528Y-99142329D01*
X54006669Y-101309471D01*
X54049070Y-101372928D01*
X54300462Y-101540903D01*
X54522147Y-101584999D01*
X54522151Y-101584999D01*
X54596998Y-101599887D01*
X54671845Y-101584999D01*
X55581834Y-101584999D01*
X55500582Y-101601161D01*
X55009375Y-101929375D01*
X54810000Y-102227761D01*
X54610625Y-101929375D01*
X54119418Y-101601161D01*
X53686256Y-101515000D01*
X53393744Y-101515000D01*
X52960582Y-101601161D01*
X52469375Y-101929375D01*
X52457184Y-101947619D01*
X52448157Y-101902235D01*
X52307809Y-101692191D01*
X52097765Y-101551843D01*
X51850000Y-101502560D01*
X50150000Y-101502560D01*
X49902235Y-101551843D01*
X49692191Y-101692191D01*
X49551843Y-101902235D01*
X49502560Y-102150000D01*
X49502560Y-103850000D01*
X49551843Y-104097765D01*
X49692191Y-104307809D01*
X49902235Y-104448157D01*
X50150000Y-104497440D01*
X51850000Y-104497440D01*
X52097765Y-104448157D01*
X52307809Y-104307809D01*
X52448157Y-104097765D01*
X52457184Y-104052381D01*
X52469375Y-104070625D01*
X52780000Y-104278178D01*
X52780001Y-105668367D01*
X52389375Y-105929375D01*
X52176157Y-106248478D01*
X52115183Y-106118642D01*
X51686924Y-105728355D01*
X51276890Y-105558524D01*
X51047000Y-105679845D01*
X51047000Y-106873000D01*
X51067000Y-106873000D01*
X51067000Y-107127000D01*
X51047000Y-107127000D01*
X51047000Y-107147000D01*
X50793000Y-107147000D01*
X50793000Y-107127000D01*
X49599181Y-107127000D01*
X49478514Y-107356892D01*
X49724817Y-107881358D01*
X50153076Y-108271645D01*
X50197392Y-108290000D01*
X47710000Y-108290000D01*
X47710000Y-106643108D01*
X49478514Y-106643108D01*
X49599181Y-106873000D01*
X50793000Y-106873000D01*
X50793000Y-105679845D01*
X50563110Y-105558524D01*
X50153076Y-105728355D01*
X49724817Y-106118642D01*
X49478514Y-106643108D01*
X47710000Y-106643108D01*
X47710000Y-84540000D01*
X49485908Y-84540000D01*
X49601161Y-85119418D01*
X49929375Y-85610625D01*
X50248478Y-85823843D01*
X50118642Y-85884817D01*
X49728355Y-86313076D01*
X49558524Y-86723110D01*
X49679845Y-86953000D01*
X50873000Y-86953000D01*
X50873000Y-86933000D01*
X51127000Y-86933000D01*
X51127000Y-86953000D01*
X52320155Y-86953000D01*
X52441476Y-86723110D01*
X52271645Y-86313076D01*
X51881358Y-85884817D01*
X51751522Y-85823843D01*
X52070625Y-85610625D01*
X52398839Y-85119418D01*
X52514092Y-84540000D01*
X52398839Y-83960582D01*
X52070625Y-83469375D01*
X52052381Y-83457184D01*
X52097765Y-83448157D01*
X52307809Y-83307809D01*
X52448157Y-83097765D01*
X52497440Y-82850000D01*
X52497440Y-81150000D01*
X52448157Y-80902235D01*
X52406573Y-80840000D01*
X54536887Y-80840000D01*
X54648260Y-81399909D01*
X54965423Y-81874577D01*
X55440091Y-82191740D01*
X55858667Y-82275000D01*
X56141333Y-82275000D01*
X56559909Y-82191740D01*
X57034577Y-81874577D01*
X57351740Y-81399909D01*
X57463113Y-80840000D01*
X57351740Y-80280091D01*
X57034577Y-79805423D01*
X56559909Y-79488260D01*
X56141333Y-79405000D01*
X55858667Y-79405000D01*
X55440091Y-79488260D01*
X54965423Y-79805423D01*
X54648260Y-80280091D01*
X54536887Y-80840000D01*
X52406573Y-80840000D01*
X52307809Y-80692191D01*
X52097765Y-80551843D01*
X51850000Y-80502560D01*
X50150000Y-80502560D01*
X49902235Y-80551843D01*
X49692191Y-80692191D01*
X49551843Y-80902235D01*
X49502560Y-81150000D01*
X49502560Y-82850000D01*
X49551843Y-83097765D01*
X49692191Y-83307809D01*
X49902235Y-83448157D01*
X49947619Y-83457184D01*
X49929375Y-83469375D01*
X49601161Y-83960582D01*
X49485908Y-84540000D01*
X47710000Y-84540000D01*
X47710000Y-78442482D01*
X48174778Y-78635000D01*
X48825222Y-78635000D01*
X49426153Y-78386086D01*
X49886086Y-77926153D01*
X50135000Y-77325222D01*
X50135000Y-76674778D01*
X53365000Y-76674778D01*
X53365000Y-77325222D01*
X53613914Y-77926153D01*
X54073847Y-78386086D01*
X54674778Y-78635000D01*
X55325222Y-78635000D01*
X55926153Y-78386086D01*
X56386086Y-77926153D01*
X56500000Y-77651141D01*
X56613914Y-77926153D01*
X57073847Y-78386086D01*
X57674778Y-78635000D01*
X58325222Y-78635000D01*
X58926153Y-78386086D01*
X59386086Y-77926153D01*
X59635000Y-77325222D01*
X59635000Y-76674778D01*
X59386086Y-76073847D01*
X58926153Y-75613914D01*
X58325222Y-75365000D01*
X57674778Y-75365000D01*
X57073847Y-75613914D01*
X56613914Y-76073847D01*
X56500000Y-76348859D01*
X56386086Y-76073847D01*
X55926153Y-75613914D01*
X55325222Y-75365000D01*
X54674778Y-75365000D01*
X54073847Y-75613914D01*
X53613914Y-76073847D01*
X53365000Y-76674778D01*
X50135000Y-76674778D01*
X49886086Y-76073847D01*
X49426153Y-75613914D01*
X48825222Y-75365000D01*
X48174778Y-75365000D01*
X47710000Y-75557518D01*
X47710000Y-73950692D01*
X48235461Y-74145908D01*
X48885460Y-74121856D01*
X49374264Y-73919387D01*
X49472927Y-73652532D01*
X54027073Y-73652532D01*
X54125736Y-73919387D01*
X54735461Y-74145908D01*
X55385460Y-74121856D01*
X55874264Y-73919387D01*
X55972927Y-73652532D01*
X57027073Y-73652532D01*
X57125736Y-73919387D01*
X57735461Y-74145908D01*
X58385460Y-74121856D01*
X58874264Y-73919387D01*
X58972927Y-73652532D01*
X58000000Y-72679605D01*
X57027073Y-73652532D01*
X55972927Y-73652532D01*
X55000000Y-72679605D01*
X54027073Y-73652532D01*
X49472927Y-73652532D01*
X48500000Y-72679605D01*
X48485858Y-72693748D01*
X48306253Y-72514143D01*
X48320395Y-72500000D01*
X48679605Y-72500000D01*
X49652532Y-73472927D01*
X49919387Y-73374264D01*
X50145908Y-72764539D01*
X50126331Y-72235461D01*
X53354092Y-72235461D01*
X53378144Y-72885460D01*
X53580613Y-73374264D01*
X53847468Y-73472927D01*
X54820395Y-72500000D01*
X55179605Y-72500000D01*
X56152532Y-73472927D01*
X56419387Y-73374264D01*
X56495619Y-73169070D01*
X56580613Y-73374264D01*
X56847468Y-73472927D01*
X57820395Y-72500000D01*
X58179605Y-72500000D01*
X59152532Y-73472927D01*
X59419387Y-73374264D01*
X59645908Y-72764539D01*
X59626331Y-72235461D01*
X62854092Y-72235461D01*
X62878144Y-72885460D01*
X63080613Y-73374264D01*
X63347468Y-73472927D01*
X64320395Y-72500000D01*
X63347468Y-71527073D01*
X63080613Y-71625736D01*
X62854092Y-72235461D01*
X59626331Y-72235461D01*
X59621856Y-72114540D01*
X59419387Y-71625736D01*
X59152532Y-71527073D01*
X58179605Y-72500000D01*
X57820395Y-72500000D01*
X56847468Y-71527073D01*
X56580613Y-71625736D01*
X56504381Y-71830930D01*
X56419387Y-71625736D01*
X56152532Y-71527073D01*
X55179605Y-72500000D01*
X54820395Y-72500000D01*
X53847468Y-71527073D01*
X53580613Y-71625736D01*
X53354092Y-72235461D01*
X50126331Y-72235461D01*
X50121856Y-72114540D01*
X49919387Y-71625736D01*
X49652532Y-71527073D01*
X48679605Y-72500000D01*
X48320395Y-72500000D01*
X48306253Y-72485858D01*
X48485858Y-72306253D01*
X48500000Y-72320395D01*
X49472927Y-71347468D01*
X54027073Y-71347468D01*
X55000000Y-72320395D01*
X55972927Y-71347468D01*
X57027073Y-71347468D01*
X58000000Y-72320395D01*
X58972927Y-71347468D01*
X63527073Y-71347468D01*
X64500000Y-72320395D01*
X65472927Y-71347468D01*
X66527073Y-71347468D01*
X67500000Y-72320395D01*
X68472927Y-71347468D01*
X73027073Y-71347468D01*
X74000000Y-72320395D01*
X74972927Y-71347468D01*
X74874264Y-71080613D01*
X74264539Y-70854092D01*
X73614540Y-70878144D01*
X73125736Y-71080613D01*
X73027073Y-71347468D01*
X68472927Y-71347468D01*
X68374264Y-71080613D01*
X67764539Y-70854092D01*
X67114540Y-70878144D01*
X66625736Y-71080613D01*
X66527073Y-71347468D01*
X65472927Y-71347468D01*
X65374264Y-71080613D01*
X64764539Y-70854092D01*
X64114540Y-70878144D01*
X63625736Y-71080613D01*
X63527073Y-71347468D01*
X58972927Y-71347468D01*
X58874264Y-71080613D01*
X58264539Y-70854092D01*
X57614540Y-70878144D01*
X57125736Y-71080613D01*
X57027073Y-71347468D01*
X55972927Y-71347468D01*
X55874264Y-71080613D01*
X55264539Y-70854092D01*
X54614540Y-70878144D01*
X54125736Y-71080613D01*
X54027073Y-71347468D01*
X49472927Y-71347468D01*
X49374264Y-71080613D01*
X48764539Y-70854092D01*
X48114540Y-70878144D01*
X47710000Y-71045710D01*
X47710000Y-70710000D01*
X64930074Y-70710000D01*
X65000000Y-70723909D01*
X65069925Y-70710000D01*
X65069926Y-70710000D01*
X65277028Y-70668805D01*
X65511881Y-70511881D01*
X65668805Y-70277028D01*
X65723909Y-70000000D01*
X65710000Y-69930074D01*
X65710000Y-62505703D01*
X68515000Y-62505703D01*
X68515000Y-63494297D01*
X68893319Y-64407639D01*
X69592361Y-65106681D01*
X70505703Y-65485000D01*
X71494297Y-65485000D01*
X72407639Y-65106681D01*
X73106681Y-64407639D01*
X73480275Y-63505703D01*
X87515000Y-63505703D01*
X87515000Y-64494297D01*
X87893319Y-65407639D01*
X88592361Y-66106681D01*
X89505703Y-66485000D01*
X90494297Y-66485000D01*
X91407639Y-66106681D01*
X92106681Y-65407639D01*
X92485000Y-64494297D01*
X92485000Y-63505703D01*
X97515000Y-63505703D01*
X97515000Y-64494297D01*
X97893319Y-65407639D01*
X98592361Y-66106681D01*
X99505703Y-66485000D01*
X100494297Y-66485000D01*
X101407639Y-66106681D01*
X102106681Y-65407639D01*
X102485000Y-64494297D01*
X102485000Y-63505703D01*
X102106681Y-62592361D01*
X102020023Y-62505703D01*
X116515000Y-62505703D01*
X116515000Y-63494297D01*
X116893319Y-64407639D01*
X117592361Y-65106681D01*
X118505703Y-65485000D01*
X119494297Y-65485000D01*
X120407639Y-65106681D01*
X121106681Y-64407639D01*
X121485000Y-63494297D01*
X121485000Y-62505703D01*
X121106681Y-61592361D01*
X120407639Y-60893319D01*
X119494297Y-60515000D01*
X118505703Y-60515000D01*
X117592361Y-60893319D01*
X116893319Y-61592361D01*
X116515000Y-62505703D01*
X102020023Y-62505703D01*
X101407639Y-61893319D01*
X100494297Y-61515000D01*
X99505703Y-61515000D01*
X98592361Y-61893319D01*
X97893319Y-62592361D01*
X97515000Y-63505703D01*
X92485000Y-63505703D01*
X92106681Y-62592361D01*
X91407639Y-61893319D01*
X90494297Y-61515000D01*
X89505703Y-61515000D01*
X88592361Y-61893319D01*
X87893319Y-62592361D01*
X87515000Y-63505703D01*
X73480275Y-63505703D01*
X73485000Y-63494297D01*
X73485000Y-62505703D01*
X73106681Y-61592361D01*
X72407639Y-60893319D01*
X71494297Y-60515000D01*
X70505703Y-60515000D01*
X69592361Y-60893319D01*
X68893319Y-61592361D01*
X68515000Y-62505703D01*
X65710000Y-62505703D01*
X65710000Y-45454000D01*
X87746715Y-45454000D01*
X87746715Y-49274000D01*
X102245286Y-49274000D01*
X102245286Y-45454000D01*
X87746715Y-45454000D01*
X65710000Y-45454000D01*
X65710000Y-40505703D01*
X68515000Y-40505703D01*
X68515000Y-41494297D01*
X68893319Y-42407639D01*
X69592361Y-43106681D01*
X70505703Y-43485000D01*
X71494297Y-43485000D01*
X72407639Y-43106681D01*
X73106681Y-42407639D01*
X73485000Y-41494297D01*
X73485000Y-40505703D01*
X73106681Y-39592361D01*
X72407639Y-38893319D01*
X71494297Y-38515000D01*
X70505703Y-38515000D01*
X69592361Y-38893319D01*
X68893319Y-39592361D01*
X68515000Y-40505703D01*
X65710000Y-40505703D01*
X65710000Y-38505703D01*
X87515000Y-38505703D01*
X87515000Y-39494297D01*
X87893319Y-40407639D01*
X88592361Y-41106681D01*
X89505703Y-41485000D01*
X90494297Y-41485000D01*
X91407639Y-41106681D01*
X92106681Y-40407639D01*
X92485000Y-39494297D01*
X92485000Y-38505703D01*
X97515000Y-38505703D01*
X97515000Y-39494297D01*
X97893319Y-40407639D01*
X98592361Y-41106681D01*
X99505703Y-41485000D01*
X100494297Y-41485000D01*
X101407639Y-41106681D01*
X102008617Y-40505703D01*
X116515000Y-40505703D01*
X116515000Y-41494297D01*
X116893319Y-42407639D01*
X117592361Y-43106681D01*
X118505703Y-43485000D01*
X119494297Y-43485000D01*
X120407639Y-43106681D01*
X121106681Y-42407639D01*
X121485000Y-41494297D01*
X121485000Y-40505703D01*
X121106681Y-39592361D01*
X120407639Y-38893319D01*
X119494297Y-38515000D01*
X118505703Y-38515000D01*
X117592361Y-38893319D01*
X116893319Y-39592361D01*
X116515000Y-40505703D01*
X102008617Y-40505703D01*
X102106681Y-40407639D01*
X102485000Y-39494297D01*
X102485000Y-38505703D01*
X102106681Y-37592361D01*
X101407639Y-36893319D01*
X100494297Y-36515000D01*
X99505703Y-36515000D01*
X98592361Y-36893319D01*
X97893319Y-37592361D01*
X97515000Y-38505703D01*
X92485000Y-38505703D01*
X92106681Y-37592361D01*
X91407639Y-36893319D01*
X90494297Y-36515000D01*
X89505703Y-36515000D01*
X88592361Y-36893319D01*
X87893319Y-37592361D01*
X87515000Y-38505703D01*
X65710000Y-38505703D01*
X65710000Y-35710000D01*
X124290000Y-35710000D01*
X124290001Y-69930069D01*
X124290001Y-69930069D01*
G37*
X124290001Y-69930069D02*
X124276091Y-70000000D01*
X124331195Y-70277028D01*
X124488119Y-70511881D01*
X124722972Y-70668805D01*
X124930074Y-70710000D01*
X124930075Y-70710000D01*
X125000000Y-70723909D01*
X125069926Y-70710000D01*
X142290001Y-70710000D01*
X142290001Y-72952894D01*
X142234334Y-72673037D01*
X141850865Y-72099135D01*
X141276963Y-71715666D01*
X140600000Y-71581010D01*
X139923038Y-71715666D01*
X139349136Y-72099135D01*
X139335486Y-72119564D01*
X139250000Y-72102560D01*
X137750000Y-72102560D01*
X137502235Y-72151843D01*
X137292191Y-72292191D01*
X137259204Y-72341559D01*
X137040400Y-72195359D01*
X136500000Y-72087867D01*
X135959601Y-72195359D01*
X135501472Y-72501471D01*
X135500000Y-72503673D01*
X135498529Y-72501471D01*
X135040400Y-72195359D01*
X134500000Y-72087867D01*
X133959601Y-72195359D01*
X133790609Y-72308276D01*
X133650865Y-72099135D01*
X133076963Y-71715666D01*
X132400000Y-71581010D01*
X131723038Y-71715666D01*
X131149136Y-72099135D01*
X130765667Y-72673037D01*
X130665000Y-73179120D01*
X130665000Y-74820879D01*
X130765666Y-75326962D01*
X131149135Y-75900865D01*
X131723037Y-76284334D01*
X132400000Y-76418990D01*
X133076962Y-76284334D01*
X133650865Y-75900865D01*
X133790608Y-75691724D01*
X133959600Y-75804641D01*
X134500000Y-75912133D01*
X135040399Y-75804641D01*
X135498528Y-75498529D01*
X135500000Y-75496326D01*
X135501471Y-75498528D01*
X135959600Y-75804641D01*
X136500000Y-75912133D01*
X137040399Y-75804641D01*
X137259204Y-75658440D01*
X137292191Y-75707809D01*
X137502235Y-75848157D01*
X137750000Y-75897440D01*
X139250000Y-75897440D01*
X139335485Y-75880436D01*
X139349135Y-75900865D01*
X139923037Y-76284334D01*
X140600000Y-76418990D01*
X141276962Y-76284334D01*
X141850865Y-75900865D01*
X142234334Y-75326963D01*
X142290001Y-75047106D01*
X142290001Y-85827144D01*
X142279929Y-85812071D01*
X142216476Y-85769673D01*
X140153458Y-83706657D01*
X140398839Y-83339418D01*
X140514092Y-82760000D01*
X140398839Y-82180582D01*
X140070625Y-81689375D01*
X139579418Y-81361161D01*
X139146256Y-81275000D01*
X138853744Y-81275000D01*
X138420582Y-81361161D01*
X137929375Y-81689375D01*
X137601161Y-82180582D01*
X137485908Y-82760000D01*
X137601161Y-83339418D01*
X137745440Y-83555347D01*
X135634000Y-85666789D01*
X135634000Y-82624846D01*
X135648888Y-82549999D01*
X135634000Y-82475152D01*
X135634000Y-82475148D01*
X135589904Y-82253463D01*
X135510396Y-82134471D01*
X135464329Y-82065526D01*
X135464327Y-82065524D01*
X135421929Y-82002071D01*
X135358476Y-81959673D01*
X129711209Y-76312408D01*
X129784092Y-75946000D01*
X129668839Y-75366582D01*
X129340625Y-74875375D01*
X129042239Y-74676000D01*
X129340625Y-74476625D01*
X129668839Y-73985418D01*
X129784092Y-73406000D01*
X129668839Y-72826582D01*
X129340625Y-72335375D01*
X128849418Y-72007161D01*
X128416256Y-71921000D01*
X128123744Y-71921000D01*
X127690582Y-72007161D01*
X127199375Y-72335375D01*
X127000000Y-72633761D01*
X126800625Y-72335375D01*
X126309418Y-72007161D01*
X125876256Y-71921000D01*
X125583744Y-71921000D01*
X125363592Y-71964791D01*
X124542331Y-71143530D01*
X124499929Y-71080071D01*
X124248537Y-70912096D01*
X124026852Y-70868000D01*
X124026847Y-70868000D01*
X123952000Y-70853112D01*
X123877153Y-70868000D01*
X121726802Y-70868000D01*
X121240331Y-70381530D01*
X121197929Y-70318071D01*
X120946537Y-70150096D01*
X120724852Y-70106000D01*
X120724847Y-70106000D01*
X120650000Y-70091112D01*
X120575153Y-70106000D01*
X77798846Y-70106000D01*
X77723999Y-70091112D01*
X77649152Y-70106000D01*
X77649148Y-70106000D01*
X77427463Y-70150096D01*
X77427461Y-70150097D01*
X77427462Y-70150097D01*
X77239526Y-70275671D01*
X77239524Y-70275673D01*
X77176071Y-70318071D01*
X77133673Y-70381524D01*
X75557069Y-71958129D01*
X75419387Y-71625736D01*
X75152532Y-71527073D01*
X74179605Y-72500000D01*
X74193748Y-72514143D01*
X74014143Y-72693748D01*
X74000000Y-72679605D01*
X73985858Y-72693748D01*
X73806253Y-72514143D01*
X73820395Y-72500000D01*
X72847468Y-71527073D01*
X72580613Y-71625736D01*
X72354092Y-72235461D01*
X72378144Y-72885460D01*
X72452512Y-73065001D01*
X70775847Y-73065001D01*
X70700999Y-73050113D01*
X70626151Y-73065001D01*
X70626147Y-73065001D01*
X70452604Y-73099521D01*
X70404461Y-73109097D01*
X70365710Y-73134990D01*
X70153070Y-73277072D01*
X70110668Y-73340531D01*
X70043199Y-73408000D01*
X68828141Y-73408000D01*
X68919387Y-73374264D01*
X69145908Y-72764539D01*
X69121856Y-72114540D01*
X68919387Y-71625736D01*
X68652532Y-71527073D01*
X67679605Y-72500000D01*
X67693748Y-72514143D01*
X67514143Y-72693748D01*
X67500000Y-72679605D01*
X67485858Y-72693748D01*
X67306253Y-72514143D01*
X67320395Y-72500000D01*
X66347468Y-71527073D01*
X66080613Y-71625736D01*
X66004381Y-71830930D01*
X65919387Y-71625736D01*
X65652532Y-71527073D01*
X64679605Y-72500000D01*
X64693748Y-72514143D01*
X64514143Y-72693748D01*
X64500000Y-72679605D01*
X63527073Y-73652532D01*
X63625736Y-73919387D01*
X64235461Y-74145908D01*
X64321471Y-74142725D01*
X60729528Y-77734669D01*
X60666072Y-77777069D01*
X60623672Y-77840525D01*
X60623671Y-77840526D01*
X60498097Y-78028461D01*
X60439112Y-78324998D01*
X60454001Y-78399850D01*
X60454001Y-79467194D01*
X60141333Y-79405000D01*
X59858667Y-79405000D01*
X59440091Y-79488260D01*
X58965423Y-79805423D01*
X58648260Y-80280091D01*
X58536887Y-80840000D01*
X58648260Y-81399909D01*
X58965423Y-81874577D01*
X59440091Y-82191740D01*
X59858667Y-82275000D01*
X59906198Y-82275000D01*
X54390527Y-87790672D01*
X54327071Y-87833072D01*
X54159096Y-88084464D01*
X54119120Y-88285439D01*
X54100111Y-88381001D01*
X54115000Y-88455853D01*
X54114999Y-91465154D01*
X54100111Y-91540001D01*
X54114999Y-91614848D01*
X54114999Y-91614852D01*
X54159095Y-91836537D01*
X54327070Y-92087930D01*
X54390529Y-92130332D01*
X54946669Y-92686473D01*
X54989069Y-92749929D01*
X55113860Y-92833312D01*
X54817376Y-93129796D01*
X54605000Y-93642517D01*
X54605000Y-94197483D01*
X54817376Y-94710204D01*
X55209796Y-95102624D01*
X55420740Y-95190000D01*
X55209796Y-95277376D01*
X54817376Y-95669796D01*
X54605000Y-96182517D01*
X54605000Y-96737483D01*
X54817376Y-97250204D01*
X55172172Y-97605000D01*
X55113691Y-97605000D01*
X54880302Y-97701673D01*
X54701673Y-97880301D01*
X54605000Y-98113690D01*
X54605000Y-98714250D01*
X54763748Y-98872998D01*
X54735800Y-98872998D01*
X54100000Y-98237199D01*
X54100000Y-92034848D01*
X54114888Y-91960000D01*
X54100000Y-91885152D01*
X54100000Y-91885148D01*
X54062064Y-91694430D01*
X54055904Y-91663462D01*
X53930329Y-91475527D01*
X53887929Y-91412071D01*
X53824473Y-91369671D01*
X52441209Y-89986408D01*
X52514092Y-89620000D01*
X52398839Y-89040582D01*
X52070625Y-88549375D01*
X51751522Y-88336157D01*
X51881358Y-88275183D01*
X52271645Y-87846924D01*
X52441476Y-87436890D01*
X52320155Y-87207000D01*
X51127000Y-87207000D01*
X51127000Y-87227000D01*
X50873000Y-87227000D01*
X50873000Y-87207000D01*
X49679845Y-87207000D01*
X49558524Y-87436890D01*
X49728355Y-87846924D01*
X50118642Y-88275183D01*
X50248478Y-88336157D01*
X49929375Y-88549375D01*
X49601161Y-89040582D01*
X49485908Y-89620000D01*
X49601161Y-90199418D01*
X49929375Y-90690625D01*
X50227761Y-90890000D01*
X49929375Y-91089375D01*
X49601161Y-91580582D01*
X49485908Y-92160000D01*
X49601161Y-92739418D01*
X49929375Y-93230625D01*
X50227761Y-93430000D01*
X49929375Y-93629375D01*
X49601161Y-94120582D01*
X49485908Y-94700000D01*
X49601161Y-95279418D01*
X49929375Y-95770625D01*
X50227761Y-95970000D01*
X49929375Y-96169375D01*
X49601161Y-96660582D01*
X49485908Y-97240000D01*
X49601161Y-97819418D01*
X49929375Y-98310625D01*
X50420582Y-98638839D01*
X50853744Y-98725000D01*
X51146256Y-98725000D01*
X51566881Y-98641333D01*
X51608097Y-98848537D01*
X51776072Y-99099929D01*
X51839528Y-99142329D01*
X54006669Y-101309471D01*
X54049070Y-101372928D01*
X54300462Y-101540903D01*
X54522147Y-101584999D01*
X54522151Y-101584999D01*
X54596998Y-101599887D01*
X54671845Y-101584999D01*
X55581834Y-101584999D01*
X55500582Y-101601161D01*
X55009375Y-101929375D01*
X54810000Y-102227761D01*
X54610625Y-101929375D01*
X54119418Y-101601161D01*
X53686256Y-101515000D01*
X53393744Y-101515000D01*
X52960582Y-101601161D01*
X52469375Y-101929375D01*
X52457184Y-101947619D01*
X52448157Y-101902235D01*
X52307809Y-101692191D01*
X52097765Y-101551843D01*
X51850000Y-101502560D01*
X50150000Y-101502560D01*
X49902235Y-101551843D01*
X49692191Y-101692191D01*
X49551843Y-101902235D01*
X49502560Y-102150000D01*
X49502560Y-103850000D01*
X49551843Y-104097765D01*
X49692191Y-104307809D01*
X49902235Y-104448157D01*
X50150000Y-104497440D01*
X51850000Y-104497440D01*
X52097765Y-104448157D01*
X52307809Y-104307809D01*
X52448157Y-104097765D01*
X52457184Y-104052381D01*
X52469375Y-104070625D01*
X52780000Y-104278178D01*
X52780001Y-105668367D01*
X52389375Y-105929375D01*
X52176157Y-106248478D01*
X52115183Y-106118642D01*
X51686924Y-105728355D01*
X51276890Y-105558524D01*
X51047000Y-105679845D01*
X51047000Y-106873000D01*
X51067000Y-106873000D01*
X51067000Y-107127000D01*
X51047000Y-107127000D01*
X51047000Y-107147000D01*
X50793000Y-107147000D01*
X50793000Y-107127000D01*
X49599181Y-107127000D01*
X49478514Y-107356892D01*
X49724817Y-107881358D01*
X50153076Y-108271645D01*
X50197392Y-108290000D01*
X47710000Y-108290000D01*
X47710000Y-106643108D01*
X49478514Y-106643108D01*
X49599181Y-106873000D01*
X50793000Y-106873000D01*
X50793000Y-105679845D01*
X50563110Y-105558524D01*
X50153076Y-105728355D01*
X49724817Y-106118642D01*
X49478514Y-106643108D01*
X47710000Y-106643108D01*
X47710000Y-84540000D01*
X49485908Y-84540000D01*
X49601161Y-85119418D01*
X49929375Y-85610625D01*
X50248478Y-85823843D01*
X50118642Y-85884817D01*
X49728355Y-86313076D01*
X49558524Y-86723110D01*
X49679845Y-86953000D01*
X50873000Y-86953000D01*
X50873000Y-86933000D01*
X51127000Y-86933000D01*
X51127000Y-86953000D01*
X52320155Y-86953000D01*
X52441476Y-86723110D01*
X52271645Y-86313076D01*
X51881358Y-85884817D01*
X51751522Y-85823843D01*
X52070625Y-85610625D01*
X52398839Y-85119418D01*
X52514092Y-84540000D01*
X52398839Y-83960582D01*
X52070625Y-83469375D01*
X52052381Y-83457184D01*
X52097765Y-83448157D01*
X52307809Y-83307809D01*
X52448157Y-83097765D01*
X52497440Y-82850000D01*
X52497440Y-81150000D01*
X52448157Y-80902235D01*
X52406573Y-80840000D01*
X54536887Y-80840000D01*
X54648260Y-81399909D01*
X54965423Y-81874577D01*
X55440091Y-82191740D01*
X55858667Y-82275000D01*
X56141333Y-82275000D01*
X56559909Y-82191740D01*
X57034577Y-81874577D01*
X57351740Y-81399909D01*
X57463113Y-80840000D01*
X57351740Y-80280091D01*
X57034577Y-79805423D01*
X56559909Y-79488260D01*
X56141333Y-79405000D01*
X55858667Y-79405000D01*
X55440091Y-79488260D01*
X54965423Y-79805423D01*
X54648260Y-80280091D01*
X54536887Y-80840000D01*
X52406573Y-80840000D01*
X52307809Y-80692191D01*
X52097765Y-80551843D01*
X51850000Y-80502560D01*
X50150000Y-80502560D01*
X49902235Y-80551843D01*
X49692191Y-80692191D01*
X49551843Y-80902235D01*
X49502560Y-81150000D01*
X49502560Y-82850000D01*
X49551843Y-83097765D01*
X49692191Y-83307809D01*
X49902235Y-83448157D01*
X49947619Y-83457184D01*
X49929375Y-83469375D01*
X49601161Y-83960582D01*
X49485908Y-84540000D01*
X47710000Y-84540000D01*
X47710000Y-78442482D01*
X48174778Y-78635000D01*
X48825222Y-78635000D01*
X49426153Y-78386086D01*
X49886086Y-77926153D01*
X50135000Y-77325222D01*
X50135000Y-76674778D01*
X53365000Y-76674778D01*
X53365000Y-77325222D01*
X53613914Y-77926153D01*
X54073847Y-78386086D01*
X54674778Y-78635000D01*
X55325222Y-78635000D01*
X55926153Y-78386086D01*
X56386086Y-77926153D01*
X56500000Y-77651141D01*
X56613914Y-77926153D01*
X57073847Y-78386086D01*
X57674778Y-78635000D01*
X58325222Y-78635000D01*
X58926153Y-78386086D01*
X59386086Y-77926153D01*
X59635000Y-77325222D01*
X59635000Y-76674778D01*
X59386086Y-76073847D01*
X58926153Y-75613914D01*
X58325222Y-75365000D01*
X57674778Y-75365000D01*
X57073847Y-75613914D01*
X56613914Y-76073847D01*
X56500000Y-76348859D01*
X56386086Y-76073847D01*
X55926153Y-75613914D01*
X55325222Y-75365000D01*
X54674778Y-75365000D01*
X54073847Y-75613914D01*
X53613914Y-76073847D01*
X53365000Y-76674778D01*
X50135000Y-76674778D01*
X49886086Y-76073847D01*
X49426153Y-75613914D01*
X48825222Y-75365000D01*
X48174778Y-75365000D01*
X47710000Y-75557518D01*
X47710000Y-73950692D01*
X48235461Y-74145908D01*
X48885460Y-74121856D01*
X49374264Y-73919387D01*
X49472927Y-73652532D01*
X54027073Y-73652532D01*
X54125736Y-73919387D01*
X54735461Y-74145908D01*
X55385460Y-74121856D01*
X55874264Y-73919387D01*
X55972927Y-73652532D01*
X57027073Y-73652532D01*
X57125736Y-73919387D01*
X57735461Y-74145908D01*
X58385460Y-74121856D01*
X58874264Y-73919387D01*
X58972927Y-73652532D01*
X58000000Y-72679605D01*
X57027073Y-73652532D01*
X55972927Y-73652532D01*
X55000000Y-72679605D01*
X54027073Y-73652532D01*
X49472927Y-73652532D01*
X48500000Y-72679605D01*
X48485858Y-72693748D01*
X48306253Y-72514143D01*
X48320395Y-72500000D01*
X48679605Y-72500000D01*
X49652532Y-73472927D01*
X49919387Y-73374264D01*
X50145908Y-72764539D01*
X50126331Y-72235461D01*
X53354092Y-72235461D01*
X53378144Y-72885460D01*
X53580613Y-73374264D01*
X53847468Y-73472927D01*
X54820395Y-72500000D01*
X55179605Y-72500000D01*
X56152532Y-73472927D01*
X56419387Y-73374264D01*
X56495619Y-73169070D01*
X56580613Y-73374264D01*
X56847468Y-73472927D01*
X57820395Y-72500000D01*
X58179605Y-72500000D01*
X59152532Y-73472927D01*
X59419387Y-73374264D01*
X59645908Y-72764539D01*
X59626331Y-72235461D01*
X62854092Y-72235461D01*
X62878144Y-72885460D01*
X63080613Y-73374264D01*
X63347468Y-73472927D01*
X64320395Y-72500000D01*
X63347468Y-71527073D01*
X63080613Y-71625736D01*
X62854092Y-72235461D01*
X59626331Y-72235461D01*
X59621856Y-72114540D01*
X59419387Y-71625736D01*
X59152532Y-71527073D01*
X58179605Y-72500000D01*
X57820395Y-72500000D01*
X56847468Y-71527073D01*
X56580613Y-71625736D01*
X56504381Y-71830930D01*
X56419387Y-71625736D01*
X56152532Y-71527073D01*
X55179605Y-72500000D01*
X54820395Y-72500000D01*
X53847468Y-71527073D01*
X53580613Y-71625736D01*
X53354092Y-72235461D01*
X50126331Y-72235461D01*
X50121856Y-72114540D01*
X49919387Y-71625736D01*
X49652532Y-71527073D01*
X48679605Y-72500000D01*
X48320395Y-72500000D01*
X48306253Y-72485858D01*
X48485858Y-72306253D01*
X48500000Y-72320395D01*
X49472927Y-71347468D01*
X54027073Y-71347468D01*
X55000000Y-72320395D01*
X55972927Y-71347468D01*
X57027073Y-71347468D01*
X58000000Y-72320395D01*
X58972927Y-71347468D01*
X63527073Y-71347468D01*
X64500000Y-72320395D01*
X65472927Y-71347468D01*
X66527073Y-71347468D01*
X67500000Y-72320395D01*
X68472927Y-71347468D01*
X73027073Y-71347468D01*
X74000000Y-72320395D01*
X74972927Y-71347468D01*
X74874264Y-71080613D01*
X74264539Y-70854092D01*
X73614540Y-70878144D01*
X73125736Y-71080613D01*
X73027073Y-71347468D01*
X68472927Y-71347468D01*
X68374264Y-71080613D01*
X67764539Y-70854092D01*
X67114540Y-70878144D01*
X66625736Y-71080613D01*
X66527073Y-71347468D01*
X65472927Y-71347468D01*
X65374264Y-71080613D01*
X64764539Y-70854092D01*
X64114540Y-70878144D01*
X63625736Y-71080613D01*
X63527073Y-71347468D01*
X58972927Y-71347468D01*
X58874264Y-71080613D01*
X58264539Y-70854092D01*
X57614540Y-70878144D01*
X57125736Y-71080613D01*
X57027073Y-71347468D01*
X55972927Y-71347468D01*
X55874264Y-71080613D01*
X55264539Y-70854092D01*
X54614540Y-70878144D01*
X54125736Y-71080613D01*
X54027073Y-71347468D01*
X49472927Y-71347468D01*
X49374264Y-71080613D01*
X48764539Y-70854092D01*
X48114540Y-70878144D01*
X47710000Y-71045710D01*
X47710000Y-70710000D01*
X64930074Y-70710000D01*
X65000000Y-70723909D01*
X65069925Y-70710000D01*
X65069926Y-70710000D01*
X65277028Y-70668805D01*
X65511881Y-70511881D01*
X65668805Y-70277028D01*
X65723909Y-70000000D01*
X65710000Y-69930074D01*
X65710000Y-62505703D01*
X68515000Y-62505703D01*
X68515000Y-63494297D01*
X68893319Y-64407639D01*
X69592361Y-65106681D01*
X70505703Y-65485000D01*
X71494297Y-65485000D01*
X72407639Y-65106681D01*
X73106681Y-64407639D01*
X73480275Y-63505703D01*
X87515000Y-63505703D01*
X87515000Y-64494297D01*
X87893319Y-65407639D01*
X88592361Y-66106681D01*
X89505703Y-66485000D01*
X90494297Y-66485000D01*
X91407639Y-66106681D01*
X92106681Y-65407639D01*
X92485000Y-64494297D01*
X92485000Y-63505703D01*
X97515000Y-63505703D01*
X97515000Y-64494297D01*
X97893319Y-65407639D01*
X98592361Y-66106681D01*
X99505703Y-66485000D01*
X100494297Y-66485000D01*
X101407639Y-66106681D01*
X102106681Y-65407639D01*
X102485000Y-64494297D01*
X102485000Y-63505703D01*
X102106681Y-62592361D01*
X102020023Y-62505703D01*
X116515000Y-62505703D01*
X116515000Y-63494297D01*
X116893319Y-64407639D01*
X117592361Y-65106681D01*
X118505703Y-65485000D01*
X119494297Y-65485000D01*
X120407639Y-65106681D01*
X121106681Y-64407639D01*
X121485000Y-63494297D01*
X121485000Y-62505703D01*
X121106681Y-61592361D01*
X120407639Y-60893319D01*
X119494297Y-60515000D01*
X118505703Y-60515000D01*
X117592361Y-60893319D01*
X116893319Y-61592361D01*
X116515000Y-62505703D01*
X102020023Y-62505703D01*
X101407639Y-61893319D01*
X100494297Y-61515000D01*
X99505703Y-61515000D01*
X98592361Y-61893319D01*
X97893319Y-62592361D01*
X97515000Y-63505703D01*
X92485000Y-63505703D01*
X92106681Y-62592361D01*
X91407639Y-61893319D01*
X90494297Y-61515000D01*
X89505703Y-61515000D01*
X88592361Y-61893319D01*
X87893319Y-62592361D01*
X87515000Y-63505703D01*
X73480275Y-63505703D01*
X73485000Y-63494297D01*
X73485000Y-62505703D01*
X73106681Y-61592361D01*
X72407639Y-60893319D01*
X71494297Y-60515000D01*
X70505703Y-60515000D01*
X69592361Y-60893319D01*
X68893319Y-61592361D01*
X68515000Y-62505703D01*
X65710000Y-62505703D01*
X65710000Y-45454000D01*
X87746715Y-45454000D01*
X87746715Y-49274000D01*
X102245286Y-49274000D01*
X102245286Y-45454000D01*
X87746715Y-45454000D01*
X65710000Y-45454000D01*
X65710000Y-40505703D01*
X68515000Y-40505703D01*
X68515000Y-41494297D01*
X68893319Y-42407639D01*
X69592361Y-43106681D01*
X70505703Y-43485000D01*
X71494297Y-43485000D01*
X72407639Y-43106681D01*
X73106681Y-42407639D01*
X73485000Y-41494297D01*
X73485000Y-40505703D01*
X73106681Y-39592361D01*
X72407639Y-38893319D01*
X71494297Y-38515000D01*
X70505703Y-38515000D01*
X69592361Y-38893319D01*
X68893319Y-39592361D01*
X68515000Y-40505703D01*
X65710000Y-40505703D01*
X65710000Y-38505703D01*
X87515000Y-38505703D01*
X87515000Y-39494297D01*
X87893319Y-40407639D01*
X88592361Y-41106681D01*
X89505703Y-41485000D01*
X90494297Y-41485000D01*
X91407639Y-41106681D01*
X92106681Y-40407639D01*
X92485000Y-39494297D01*
X92485000Y-38505703D01*
X97515000Y-38505703D01*
X97515000Y-39494297D01*
X97893319Y-40407639D01*
X98592361Y-41106681D01*
X99505703Y-41485000D01*
X100494297Y-41485000D01*
X101407639Y-41106681D01*
X102008617Y-40505703D01*
X116515000Y-40505703D01*
X116515000Y-41494297D01*
X116893319Y-42407639D01*
X117592361Y-43106681D01*
X118505703Y-43485000D01*
X119494297Y-43485000D01*
X120407639Y-43106681D01*
X121106681Y-42407639D01*
X121485000Y-41494297D01*
X121485000Y-40505703D01*
X121106681Y-39592361D01*
X120407639Y-38893319D01*
X119494297Y-38515000D01*
X118505703Y-38515000D01*
X117592361Y-38893319D01*
X116893319Y-39592361D01*
X116515000Y-40505703D01*
X102008617Y-40505703D01*
X102106681Y-40407639D01*
X102485000Y-39494297D01*
X102485000Y-38505703D01*
X102106681Y-37592361D01*
X101407639Y-36893319D01*
X100494297Y-36515000D01*
X99505703Y-36515000D01*
X98592361Y-36893319D01*
X97893319Y-37592361D01*
X97515000Y-38505703D01*
X92485000Y-38505703D01*
X92106681Y-37592361D01*
X91407639Y-36893319D01*
X90494297Y-36515000D01*
X89505703Y-36515000D01*
X88592361Y-36893319D01*
X87893319Y-37592361D01*
X87515000Y-38505703D01*
X65710000Y-38505703D01*
X65710000Y-35710000D01*
X124290000Y-35710000D01*
X124290001Y-69930069D01*
G36*
X127690672Y-87109474D02*
X127733072Y-87172930D01*
X127984464Y-87340905D01*
X128206149Y-87385001D01*
X128206153Y-87385001D01*
X128281000Y-87399889D01*
X128355847Y-87385001D01*
X134280152Y-87385001D01*
X134354999Y-87399889D01*
X134429846Y-87385001D01*
X134799148Y-87385001D01*
X134865529Y-87398205D01*
X134876001Y-87450852D01*
X134876000Y-94173198D01*
X134813198Y-94236000D01*
X132259135Y-94236000D01*
X132246624Y-94205796D01*
X131854204Y-93813376D01*
X131643260Y-93726000D01*
X131854204Y-93638624D01*
X132246624Y-93246204D01*
X132459000Y-92733483D01*
X132459000Y-92178517D01*
X132246624Y-91665796D01*
X131891828Y-91311000D01*
X131950309Y-91311000D01*
X132183698Y-91214327D01*
X132362327Y-91035699D01*
X132459000Y-90802310D01*
X132459000Y-90201750D01*
X132300250Y-90043000D01*
X131191000Y-90043000D01*
X131191000Y-90063000D01*
X130937000Y-90063000D01*
X130937000Y-90043000D01*
X129827750Y-90043000D01*
X129669000Y-90201750D01*
X129669000Y-90802310D01*
X129765673Y-91035699D01*
X129944302Y-91214327D01*
X130177691Y-91311000D01*
X130236172Y-91311000D01*
X129881376Y-91665796D01*
X129669000Y-92178517D01*
X129669000Y-92733483D01*
X129881376Y-93246204D01*
X130273796Y-93638624D01*
X130484740Y-93726000D01*
X130273796Y-93813376D01*
X129881376Y-94205796D01*
X129669000Y-94718517D01*
X129669000Y-95273483D01*
X129881376Y-95786204D01*
X130273796Y-96178624D01*
X130786517Y-96391000D01*
X131341483Y-96391000D01*
X131854204Y-96178624D01*
X132246624Y-95786204D01*
X132259135Y-95756000D01*
X135053153Y-95756000D01*
X135128000Y-95770888D01*
X135202847Y-95756000D01*
X135202852Y-95756000D01*
X135424537Y-95711904D01*
X135675929Y-95543929D01*
X135718330Y-95480471D01*
X135892001Y-95306801D01*
X135892000Y-102809198D01*
X134305199Y-104396000D01*
X128715711Y-104396000D01*
X128893431Y-104218280D01*
X129051000Y-103837874D01*
X129051000Y-103426126D01*
X128893431Y-103045720D01*
X128776000Y-102928289D01*
X128776000Y-101674847D01*
X128790888Y-101600000D01*
X128776000Y-101525153D01*
X128776000Y-101525148D01*
X128731904Y-101303463D01*
X128563929Y-101052071D01*
X128500473Y-101009671D01*
X127996505Y-100505703D01*
X129515000Y-100505703D01*
X129515000Y-101494297D01*
X129893319Y-102407639D01*
X130592361Y-103106681D01*
X131505703Y-103485000D01*
X132494297Y-103485000D01*
X133407639Y-103106681D01*
X134106681Y-102407639D01*
X134485000Y-101494297D01*
X134485000Y-100505703D01*
X134106681Y-99592361D01*
X133407639Y-98893319D01*
X132494297Y-98515000D01*
X131505703Y-98515000D01*
X130592361Y-98893319D01*
X129893319Y-99592361D01*
X129515000Y-100505703D01*
X127996505Y-100505703D01*
X127590331Y-100099530D01*
X127547929Y-100036071D01*
X127296537Y-99868096D01*
X127074852Y-99824000D01*
X127074847Y-99824000D01*
X127000000Y-99809112D01*
X126925153Y-99824000D01*
X121931803Y-99824000D01*
X119802473Y-97694670D01*
X121215000Y-97694670D01*
X121215000Y-98305330D01*
X121448690Y-98869507D01*
X121880493Y-99301310D01*
X122444670Y-99535000D01*
X123055330Y-99535000D01*
X123619507Y-99301310D01*
X124051310Y-98869507D01*
X124285000Y-98305330D01*
X124285000Y-97694670D01*
X124051310Y-97130493D01*
X123619507Y-96698690D01*
X123154799Y-96506201D01*
X123564148Y-96336643D01*
X123650554Y-96080159D01*
X122750000Y-95179605D01*
X121849446Y-96080159D01*
X121935852Y-96336643D01*
X122370575Y-96495691D01*
X121880493Y-96698690D01*
X121448690Y-97130493D01*
X121215000Y-97694670D01*
X119802473Y-97694670D01*
X116867139Y-94759336D01*
X121203542Y-94759336D01*
X121229161Y-95369460D01*
X121413357Y-95814148D01*
X121669841Y-95900554D01*
X122570395Y-95000000D01*
X122929605Y-95000000D01*
X123830159Y-95900554D01*
X124086643Y-95814148D01*
X124296458Y-95240664D01*
X124270839Y-94630540D01*
X124086643Y-94185852D01*
X123830159Y-94099446D01*
X122929605Y-95000000D01*
X122570395Y-95000000D01*
X121669841Y-94099446D01*
X121413357Y-94185852D01*
X121203542Y-94759336D01*
X116867139Y-94759336D01*
X116027644Y-93919841D01*
X121849446Y-93919841D01*
X122750000Y-94820395D01*
X123650554Y-93919841D01*
X123564148Y-93663357D01*
X122990664Y-93453542D01*
X122380540Y-93479161D01*
X121935852Y-93663357D01*
X121849446Y-93919841D01*
X116027644Y-93919841D01*
X115831802Y-93724000D01*
X121279173Y-93724000D01*
X121354020Y-93738888D01*
X121428867Y-93724000D01*
X121428872Y-93724000D01*
X121650557Y-93679904D01*
X121901949Y-93511929D01*
X121944351Y-93448470D01*
X123420473Y-91972349D01*
X123483929Y-91929949D01*
X123651904Y-91678557D01*
X123696000Y-91456872D01*
X123696000Y-91456868D01*
X123710888Y-91382020D01*
X123696000Y-91307172D01*
X123696000Y-89029690D01*
X129669000Y-89029690D01*
X129669000Y-89630250D01*
X129827750Y-89789000D01*
X130937000Y-89789000D01*
X130937000Y-88679750D01*
X131191000Y-88679750D01*
X131191000Y-89789000D01*
X132300250Y-89789000D01*
X132459000Y-89630250D01*
X132459000Y-89029690D01*
X132362327Y-88796301D01*
X132183698Y-88617673D01*
X131950309Y-88521000D01*
X131349750Y-88521000D01*
X131191000Y-88679750D01*
X130937000Y-88679750D01*
X130778250Y-88521000D01*
X130177691Y-88521000D01*
X129944302Y-88617673D01*
X129765673Y-88796301D01*
X129669000Y-89029690D01*
X123696000Y-89029690D01*
X123696000Y-84374438D01*
X123710888Y-84299590D01*
X123696000Y-84224742D01*
X123696000Y-84224738D01*
X123651904Y-84003053D01*
X123483929Y-83751661D01*
X123420473Y-83709261D01*
X120876740Y-81165529D01*
X120834338Y-81102070D01*
X120780532Y-81066118D01*
X120785000Y-81055330D01*
X120785000Y-80444670D01*
X120718862Y-80284999D01*
X120866198Y-80284999D01*
X127690672Y-87109474D01*
X127690672Y-87109474D01*
G37*
X127690672Y-87109474D02*
X127733072Y-87172930D01*
X127984464Y-87340905D01*
X128206149Y-87385001D01*
X128206153Y-87385001D01*
X128281000Y-87399889D01*
X128355847Y-87385001D01*
X134280152Y-87385001D01*
X134354999Y-87399889D01*
X134429846Y-87385001D01*
X134799148Y-87385001D01*
X134865529Y-87398205D01*
X134876001Y-87450852D01*
X134876000Y-94173198D01*
X134813198Y-94236000D01*
X132259135Y-94236000D01*
X132246624Y-94205796D01*
X131854204Y-93813376D01*
X131643260Y-93726000D01*
X131854204Y-93638624D01*
X132246624Y-93246204D01*
X132459000Y-92733483D01*
X132459000Y-92178517D01*
X132246624Y-91665796D01*
X131891828Y-91311000D01*
X131950309Y-91311000D01*
X132183698Y-91214327D01*
X132362327Y-91035699D01*
X132459000Y-90802310D01*
X132459000Y-90201750D01*
X132300250Y-90043000D01*
X131191000Y-90043000D01*
X131191000Y-90063000D01*
X130937000Y-90063000D01*
X130937000Y-90043000D01*
X129827750Y-90043000D01*
X129669000Y-90201750D01*
X129669000Y-90802310D01*
X129765673Y-91035699D01*
X129944302Y-91214327D01*
X130177691Y-91311000D01*
X130236172Y-91311000D01*
X129881376Y-91665796D01*
X129669000Y-92178517D01*
X129669000Y-92733483D01*
X129881376Y-93246204D01*
X130273796Y-93638624D01*
X130484740Y-93726000D01*
X130273796Y-93813376D01*
X129881376Y-94205796D01*
X129669000Y-94718517D01*
X129669000Y-95273483D01*
X129881376Y-95786204D01*
X130273796Y-96178624D01*
X130786517Y-96391000D01*
X131341483Y-96391000D01*
X131854204Y-96178624D01*
X132246624Y-95786204D01*
X132259135Y-95756000D01*
X135053153Y-95756000D01*
X135128000Y-95770888D01*
X135202847Y-95756000D01*
X135202852Y-95756000D01*
X135424537Y-95711904D01*
X135675929Y-95543929D01*
X135718330Y-95480471D01*
X135892001Y-95306801D01*
X135892000Y-102809198D01*
X134305199Y-104396000D01*
X128715711Y-104396000D01*
X128893431Y-104218280D01*
X129051000Y-103837874D01*
X129051000Y-103426126D01*
X128893431Y-103045720D01*
X128776000Y-102928289D01*
X128776000Y-101674847D01*
X128790888Y-101600000D01*
X128776000Y-101525153D01*
X128776000Y-101525148D01*
X128731904Y-101303463D01*
X128563929Y-101052071D01*
X128500473Y-101009671D01*
X127996505Y-100505703D01*
X129515000Y-100505703D01*
X129515000Y-101494297D01*
X129893319Y-102407639D01*
X130592361Y-103106681D01*
X131505703Y-103485000D01*
X132494297Y-103485000D01*
X133407639Y-103106681D01*
X134106681Y-102407639D01*
X134485000Y-101494297D01*
X134485000Y-100505703D01*
X134106681Y-99592361D01*
X133407639Y-98893319D01*
X132494297Y-98515000D01*
X131505703Y-98515000D01*
X130592361Y-98893319D01*
X129893319Y-99592361D01*
X129515000Y-100505703D01*
X127996505Y-100505703D01*
X127590331Y-100099530D01*
X127547929Y-100036071D01*
X127296537Y-99868096D01*
X127074852Y-99824000D01*
X127074847Y-99824000D01*
X127000000Y-99809112D01*
X126925153Y-99824000D01*
X121931803Y-99824000D01*
X119802473Y-97694670D01*
X121215000Y-97694670D01*
X121215000Y-98305330D01*
X121448690Y-98869507D01*
X121880493Y-99301310D01*
X122444670Y-99535000D01*
X123055330Y-99535000D01*
X123619507Y-99301310D01*
X124051310Y-98869507D01*
X124285000Y-98305330D01*
X124285000Y-97694670D01*
X124051310Y-97130493D01*
X123619507Y-96698690D01*
X123154799Y-96506201D01*
X123564148Y-96336643D01*
X123650554Y-96080159D01*
X122750000Y-95179605D01*
X121849446Y-96080159D01*
X121935852Y-96336643D01*
X122370575Y-96495691D01*
X121880493Y-96698690D01*
X121448690Y-97130493D01*
X121215000Y-97694670D01*
X119802473Y-97694670D01*
X116867139Y-94759336D01*
X121203542Y-94759336D01*
X121229161Y-95369460D01*
X121413357Y-95814148D01*
X121669841Y-95900554D01*
X122570395Y-95000000D01*
X122929605Y-95000000D01*
X123830159Y-95900554D01*
X124086643Y-95814148D01*
X124296458Y-95240664D01*
X124270839Y-94630540D01*
X124086643Y-94185852D01*
X123830159Y-94099446D01*
X122929605Y-95000000D01*
X122570395Y-95000000D01*
X121669841Y-94099446D01*
X121413357Y-94185852D01*
X121203542Y-94759336D01*
X116867139Y-94759336D01*
X116027644Y-93919841D01*
X121849446Y-93919841D01*
X122750000Y-94820395D01*
X123650554Y-93919841D01*
X123564148Y-93663357D01*
X122990664Y-93453542D01*
X122380540Y-93479161D01*
X121935852Y-93663357D01*
X121849446Y-93919841D01*
X116027644Y-93919841D01*
X115831802Y-93724000D01*
X121279173Y-93724000D01*
X121354020Y-93738888D01*
X121428867Y-93724000D01*
X121428872Y-93724000D01*
X121650557Y-93679904D01*
X121901949Y-93511929D01*
X121944351Y-93448470D01*
X123420473Y-91972349D01*
X123483929Y-91929949D01*
X123651904Y-91678557D01*
X123696000Y-91456872D01*
X123696000Y-91456868D01*
X123710888Y-91382020D01*
X123696000Y-91307172D01*
X123696000Y-89029690D01*
X129669000Y-89029690D01*
X129669000Y-89630250D01*
X129827750Y-89789000D01*
X130937000Y-89789000D01*
X130937000Y-88679750D01*
X131191000Y-88679750D01*
X131191000Y-89789000D01*
X132300250Y-89789000D01*
X132459000Y-89630250D01*
X132459000Y-89029690D01*
X132362327Y-88796301D01*
X132183698Y-88617673D01*
X131950309Y-88521000D01*
X131349750Y-88521000D01*
X131191000Y-88679750D01*
X130937000Y-88679750D01*
X130778250Y-88521000D01*
X130177691Y-88521000D01*
X129944302Y-88617673D01*
X129765673Y-88796301D01*
X129669000Y-89029690D01*
X123696000Y-89029690D01*
X123696000Y-84374438D01*
X123710888Y-84299590D01*
X123696000Y-84224742D01*
X123696000Y-84224738D01*
X123651904Y-84003053D01*
X123483929Y-83751661D01*
X123420473Y-83709261D01*
X120876740Y-81165529D01*
X120834338Y-81102070D01*
X120780532Y-81066118D01*
X120785000Y-81055330D01*
X120785000Y-80444670D01*
X120718862Y-80284999D01*
X120866198Y-80284999D01*
X127690672Y-87109474D01*
G36*
X63087480Y-91810000D02*
X62681810Y-92081060D01*
X62375572Y-92539378D01*
X62268036Y-93080000D01*
X62375572Y-93620622D01*
X62681810Y-94078940D01*
X63012356Y-94299804D01*
X62724822Y-94730128D01*
X62644430Y-95134287D01*
X62644430Y-96105712D01*
X62724822Y-96509871D01*
X63031060Y-96968189D01*
X63489378Y-97274428D01*
X64030000Y-97381964D01*
X64570621Y-97274428D01*
X65028939Y-96968190D01*
X65300000Y-96562519D01*
X65571060Y-96968189D01*
X66029378Y-97274428D01*
X66570000Y-97381964D01*
X67110621Y-97274428D01*
X67568939Y-96968190D01*
X67840000Y-96562519D01*
X68111060Y-96968189D01*
X68569378Y-97274428D01*
X69110000Y-97381964D01*
X69650621Y-97274428D01*
X70108939Y-96968190D01*
X70380000Y-96562519D01*
X70651060Y-96968189D01*
X71109378Y-97274428D01*
X71650000Y-97381964D01*
X72190621Y-97274428D01*
X72648939Y-96968190D01*
X72920000Y-96562519D01*
X73191060Y-96968189D01*
X73649378Y-97274428D01*
X74190000Y-97381964D01*
X74730621Y-97274428D01*
X75188939Y-96968190D01*
X75460000Y-96562519D01*
X75731060Y-96968189D01*
X76189378Y-97274428D01*
X76730000Y-97381964D01*
X77270621Y-97274428D01*
X77728939Y-96968190D01*
X78000000Y-96562519D01*
X78255819Y-96945379D01*
X75885199Y-99316000D01*
X70686847Y-99316000D01*
X70612000Y-99301112D01*
X70537153Y-99316000D01*
X70537148Y-99316000D01*
X70315463Y-99360096D01*
X70064071Y-99528071D01*
X70021671Y-99591527D01*
X69111528Y-100501671D01*
X69048072Y-100544071D01*
X69005672Y-100607527D01*
X69005671Y-100607528D01*
X68880097Y-100795463D01*
X68821112Y-101092000D01*
X68836001Y-101166852D01*
X68836000Y-102809197D01*
X67757199Y-103888000D01*
X61782802Y-103888000D01*
X61720000Y-103825198D01*
X61720000Y-101989210D01*
X61893319Y-102407639D01*
X62592361Y-103106681D01*
X63505703Y-103485000D01*
X64494297Y-103485000D01*
X65407639Y-103106681D01*
X66106681Y-102407639D01*
X66485000Y-101494297D01*
X66485000Y-100505703D01*
X66106681Y-99592361D01*
X65407639Y-98893319D01*
X64494297Y-98515000D01*
X63505703Y-98515000D01*
X62592361Y-98893319D01*
X61893319Y-99592361D01*
X61515000Y-100505703D01*
X61515000Y-101062653D01*
X61507929Y-101052071D01*
X61444473Y-101009671D01*
X60035332Y-99600531D01*
X59992930Y-99537072D01*
X59741538Y-99369097D01*
X59519853Y-99325001D01*
X59519848Y-99325001D01*
X59445001Y-99310113D01*
X59370154Y-99325001D01*
X57395000Y-99325001D01*
X57395000Y-99285750D01*
X57236250Y-99127000D01*
X56127000Y-99127000D01*
X56127000Y-99147000D01*
X55873000Y-99147000D01*
X55873000Y-99127000D01*
X55853000Y-99127000D01*
X55853000Y-98873000D01*
X55873000Y-98873000D01*
X55873000Y-98853000D01*
X56127000Y-98853000D01*
X56127000Y-98873000D01*
X57236250Y-98873000D01*
X57395000Y-98714250D01*
X57395000Y-98113690D01*
X57298327Y-97880301D01*
X57119698Y-97701673D01*
X56886309Y-97605000D01*
X56827828Y-97605000D01*
X57182624Y-97250204D01*
X57395000Y-96737483D01*
X57395000Y-96264000D01*
X60386459Y-96264000D01*
X60461306Y-96278888D01*
X60536153Y-96264000D01*
X60536158Y-96264000D01*
X60757843Y-96219904D01*
X61009235Y-96051929D01*
X61051637Y-95988470D01*
X61512455Y-95527653D01*
X61678527Y-95527653D01*
X62058933Y-95370084D01*
X62350084Y-95078933D01*
X62507653Y-94698527D01*
X62507653Y-94286779D01*
X62350084Y-93906373D01*
X62058933Y-93615222D01*
X61678527Y-93457653D01*
X61266779Y-93457653D01*
X60886373Y-93615222D01*
X60595222Y-93906373D01*
X60437653Y-94286779D01*
X60437653Y-94452851D01*
X60146505Y-94744000D01*
X57148828Y-94744000D01*
X57182624Y-94710204D01*
X57395000Y-94197483D01*
X57395000Y-93642517D01*
X57182624Y-93129796D01*
X57014828Y-92962000D01*
X60943333Y-92962000D01*
X61018180Y-92976888D01*
X61093027Y-92962000D01*
X61093032Y-92962000D01*
X61314717Y-92917904D01*
X61566109Y-92749929D01*
X61608511Y-92686470D01*
X62726309Y-91568673D01*
X63087480Y-91810000D01*
X63087480Y-91810000D01*
G37*
X63087480Y-91810000D02*
X62681810Y-92081060D01*
X62375572Y-92539378D01*
X62268036Y-93080000D01*
X62375572Y-93620622D01*
X62681810Y-94078940D01*
X63012356Y-94299804D01*
X62724822Y-94730128D01*
X62644430Y-95134287D01*
X62644430Y-96105712D01*
X62724822Y-96509871D01*
X63031060Y-96968189D01*
X63489378Y-97274428D01*
X64030000Y-97381964D01*
X64570621Y-97274428D01*
X65028939Y-96968190D01*
X65300000Y-96562519D01*
X65571060Y-96968189D01*
X66029378Y-97274428D01*
X66570000Y-97381964D01*
X67110621Y-97274428D01*
X67568939Y-96968190D01*
X67840000Y-96562519D01*
X68111060Y-96968189D01*
X68569378Y-97274428D01*
X69110000Y-97381964D01*
X69650621Y-97274428D01*
X70108939Y-96968190D01*
X70380000Y-96562519D01*
X70651060Y-96968189D01*
X71109378Y-97274428D01*
X71650000Y-97381964D01*
X72190621Y-97274428D01*
X72648939Y-96968190D01*
X72920000Y-96562519D01*
X73191060Y-96968189D01*
X73649378Y-97274428D01*
X74190000Y-97381964D01*
X74730621Y-97274428D01*
X75188939Y-96968190D01*
X75460000Y-96562519D01*
X75731060Y-96968189D01*
X76189378Y-97274428D01*
X76730000Y-97381964D01*
X77270621Y-97274428D01*
X77728939Y-96968190D01*
X78000000Y-96562519D01*
X78255819Y-96945379D01*
X75885199Y-99316000D01*
X70686847Y-99316000D01*
X70612000Y-99301112D01*
X70537153Y-99316000D01*
X70537148Y-99316000D01*
X70315463Y-99360096D01*
X70064071Y-99528071D01*
X70021671Y-99591527D01*
X69111528Y-100501671D01*
X69048072Y-100544071D01*
X69005672Y-100607527D01*
X69005671Y-100607528D01*
X68880097Y-100795463D01*
X68821112Y-101092000D01*
X68836001Y-101166852D01*
X68836000Y-102809197D01*
X67757199Y-103888000D01*
X61782802Y-103888000D01*
X61720000Y-103825198D01*
X61720000Y-101989210D01*
X61893319Y-102407639D01*
X62592361Y-103106681D01*
X63505703Y-103485000D01*
X64494297Y-103485000D01*
X65407639Y-103106681D01*
X66106681Y-102407639D01*
X66485000Y-101494297D01*
X66485000Y-100505703D01*
X66106681Y-99592361D01*
X65407639Y-98893319D01*
X64494297Y-98515000D01*
X63505703Y-98515000D01*
X62592361Y-98893319D01*
X61893319Y-99592361D01*
X61515000Y-100505703D01*
X61515000Y-101062653D01*
X61507929Y-101052071D01*
X61444473Y-101009671D01*
X60035332Y-99600531D01*
X59992930Y-99537072D01*
X59741538Y-99369097D01*
X59519853Y-99325001D01*
X59519848Y-99325001D01*
X59445001Y-99310113D01*
X59370154Y-99325001D01*
X57395000Y-99325001D01*
X57395000Y-99285750D01*
X57236250Y-99127000D01*
X56127000Y-99127000D01*
X56127000Y-99147000D01*
X55873000Y-99147000D01*
X55873000Y-99127000D01*
X55853000Y-99127000D01*
X55853000Y-98873000D01*
X55873000Y-98873000D01*
X55873000Y-98853000D01*
X56127000Y-98853000D01*
X56127000Y-98873000D01*
X57236250Y-98873000D01*
X57395000Y-98714250D01*
X57395000Y-98113690D01*
X57298327Y-97880301D01*
X57119698Y-97701673D01*
X56886309Y-97605000D01*
X56827828Y-97605000D01*
X57182624Y-97250204D01*
X57395000Y-96737483D01*
X57395000Y-96264000D01*
X60386459Y-96264000D01*
X60461306Y-96278888D01*
X60536153Y-96264000D01*
X60536158Y-96264000D01*
X60757843Y-96219904D01*
X61009235Y-96051929D01*
X61051637Y-95988470D01*
X61512455Y-95527653D01*
X61678527Y-95527653D01*
X62058933Y-95370084D01*
X62350084Y-95078933D01*
X62507653Y-94698527D01*
X62507653Y-94286779D01*
X62350084Y-93906373D01*
X62058933Y-93615222D01*
X61678527Y-93457653D01*
X61266779Y-93457653D01*
X60886373Y-93615222D01*
X60595222Y-93906373D01*
X60437653Y-94286779D01*
X60437653Y-94452851D01*
X60146505Y-94744000D01*
X57148828Y-94744000D01*
X57182624Y-94710204D01*
X57395000Y-94197483D01*
X57395000Y-93642517D01*
X57182624Y-93129796D01*
X57014828Y-92962000D01*
X60943333Y-92962000D01*
X61018180Y-92976888D01*
X61093027Y-92962000D01*
X61093032Y-92962000D01*
X61314717Y-92917904D01*
X61566109Y-92749929D01*
X61608511Y-92686470D01*
X62726309Y-91568673D01*
X63087480Y-91810000D01*
G36*
X139127000Y-92793000D02*
X139147000Y-92793000D01*
X139147000Y-93047000D01*
X139127000Y-93047000D01*
X139127000Y-93067000D01*
X138873000Y-93067000D01*
X138873000Y-93047000D01*
X138853000Y-93047000D01*
X138853000Y-92793000D01*
X138873000Y-92793000D01*
X138873000Y-92773000D01*
X139127000Y-92773000D01*
X139127000Y-92793000D01*
X139127000Y-92793000D01*
G37*
X139127000Y-92793000D02*
X139147000Y-92793000D01*
X139147000Y-93047000D01*
X139127000Y-93047000D01*
X139127000Y-93067000D01*
X138873000Y-93067000D01*
X138873000Y-93047000D01*
X138853000Y-93047000D01*
X138853000Y-92793000D01*
X138873000Y-92793000D01*
X138873000Y-92773000D01*
X139127000Y-92773000D01*
X139127000Y-92793000D01*
G36*
X61999530Y-81362331D02*
X64202198Y-83565000D01*
X63714561Y-83565000D01*
X63187138Y-83783466D01*
X62783466Y-84187138D01*
X62565000Y-84714561D01*
X62565000Y-85285439D01*
X62783466Y-85812862D01*
X63187138Y-86216534D01*
X63714561Y-86435000D01*
X64285439Y-86435000D01*
X64812862Y-86216534D01*
X65216534Y-85812862D01*
X65435000Y-85285439D01*
X65435000Y-84797802D01*
X67594198Y-86957000D01*
X67278561Y-86957000D01*
X66751138Y-87175466D01*
X66347466Y-87579138D01*
X66129000Y-88106561D01*
X66129000Y-88677439D01*
X66140176Y-88704420D01*
X65549584Y-88704420D01*
X65707950Y-88412903D01*
X65722133Y-88341275D01*
X65599479Y-88127000D01*
X64157000Y-88127000D01*
X64157000Y-88147000D01*
X63903000Y-88147000D01*
X63903000Y-88127000D01*
X62460521Y-88127000D01*
X62337867Y-88341275D01*
X62352050Y-88412903D01*
X62510416Y-88704420D01*
X61610426Y-88704420D01*
X61535579Y-88689532D01*
X61460732Y-88704420D01*
X61460728Y-88704420D01*
X61239043Y-88748516D01*
X60987651Y-88916491D01*
X60945251Y-88979947D01*
X60338302Y-89586897D01*
X60285439Y-89565000D01*
X59714561Y-89565000D01*
X59187138Y-89783466D01*
X58783466Y-90187138D01*
X58761570Y-90240000D01*
X57238430Y-90240000D01*
X57216534Y-90187138D01*
X56812862Y-89783466D01*
X56285439Y-89565000D01*
X55714561Y-89565000D01*
X55634999Y-89597956D01*
X55634999Y-88695802D01*
X56672076Y-87658725D01*
X62337867Y-87658725D01*
X62460521Y-87873000D01*
X63903000Y-87873000D01*
X63903000Y-86614430D01*
X64157000Y-86614430D01*
X64157000Y-87873000D01*
X65599479Y-87873000D01*
X65722133Y-87658725D01*
X65707950Y-87587097D01*
X65448798Y-87110056D01*
X65026817Y-86768501D01*
X64506250Y-86614430D01*
X64157000Y-86614430D01*
X63903000Y-86614430D01*
X63553750Y-86614430D01*
X63033183Y-86768501D01*
X62611202Y-87110056D01*
X62352050Y-87587097D01*
X62337867Y-87658725D01*
X56672076Y-87658725D01*
X61698473Y-82632329D01*
X61761929Y-82589929D01*
X61929904Y-82338537D01*
X61974000Y-82116852D01*
X61974000Y-82116848D01*
X61988888Y-82042001D01*
X61974000Y-81967154D01*
X61974000Y-81345272D01*
X61999530Y-81362331D01*
X61999530Y-81362331D01*
G37*
X61999530Y-81362331D02*
X64202198Y-83565000D01*
X63714561Y-83565000D01*
X63187138Y-83783466D01*
X62783466Y-84187138D01*
X62565000Y-84714561D01*
X62565000Y-85285439D01*
X62783466Y-85812862D01*
X63187138Y-86216534D01*
X63714561Y-86435000D01*
X64285439Y-86435000D01*
X64812862Y-86216534D01*
X65216534Y-85812862D01*
X65435000Y-85285439D01*
X65435000Y-84797802D01*
X67594198Y-86957000D01*
X67278561Y-86957000D01*
X66751138Y-87175466D01*
X66347466Y-87579138D01*
X66129000Y-88106561D01*
X66129000Y-88677439D01*
X66140176Y-88704420D01*
X65549584Y-88704420D01*
X65707950Y-88412903D01*
X65722133Y-88341275D01*
X65599479Y-88127000D01*
X64157000Y-88127000D01*
X64157000Y-88147000D01*
X63903000Y-88147000D01*
X63903000Y-88127000D01*
X62460521Y-88127000D01*
X62337867Y-88341275D01*
X62352050Y-88412903D01*
X62510416Y-88704420D01*
X61610426Y-88704420D01*
X61535579Y-88689532D01*
X61460732Y-88704420D01*
X61460728Y-88704420D01*
X61239043Y-88748516D01*
X60987651Y-88916491D01*
X60945251Y-88979947D01*
X60338302Y-89586897D01*
X60285439Y-89565000D01*
X59714561Y-89565000D01*
X59187138Y-89783466D01*
X58783466Y-90187138D01*
X58761570Y-90240000D01*
X57238430Y-90240000D01*
X57216534Y-90187138D01*
X56812862Y-89783466D01*
X56285439Y-89565000D01*
X55714561Y-89565000D01*
X55634999Y-89597956D01*
X55634999Y-88695802D01*
X56672076Y-87658725D01*
X62337867Y-87658725D01*
X62460521Y-87873000D01*
X63903000Y-87873000D01*
X63903000Y-86614430D01*
X64157000Y-86614430D01*
X64157000Y-87873000D01*
X65599479Y-87873000D01*
X65722133Y-87658725D01*
X65707950Y-87587097D01*
X65448798Y-87110056D01*
X65026817Y-86768501D01*
X64506250Y-86614430D01*
X64157000Y-86614430D01*
X63903000Y-86614430D01*
X63553750Y-86614430D01*
X63033183Y-86768501D01*
X62611202Y-87110056D01*
X62352050Y-87587097D01*
X62337867Y-87658725D01*
X56672076Y-87658725D01*
X61698473Y-82632329D01*
X61761929Y-82589929D01*
X61929904Y-82338537D01*
X61974000Y-82116852D01*
X61974000Y-82116848D01*
X61988888Y-82042001D01*
X61974000Y-81967154D01*
X61974000Y-81345272D01*
X61999530Y-81362331D01*
G36*
X91783466Y-87187138D02*
X91565000Y-87714561D01*
X91565000Y-88285439D01*
X91586896Y-88338302D01*
X90827190Y-89098009D01*
X87117702Y-89098009D01*
X87237431Y-88978280D01*
X87395000Y-88597874D01*
X87395000Y-88186126D01*
X87237431Y-87805720D01*
X86946280Y-87514569D01*
X86565874Y-87357000D01*
X86154126Y-87357000D01*
X85773720Y-87514569D01*
X85482569Y-87805720D01*
X85325000Y-88186126D01*
X85325000Y-88352198D01*
X85029199Y-88648000D01*
X84132879Y-88648000D01*
X84191740Y-88559909D01*
X84303113Y-88000000D01*
X84191740Y-87440091D01*
X83874577Y-86965423D01*
X83754217Y-86885001D01*
X92085603Y-86885001D01*
X91783466Y-87187138D01*
X91783466Y-87187138D01*
G37*
X91783466Y-87187138D02*
X91565000Y-87714561D01*
X91565000Y-88285439D01*
X91586896Y-88338302D01*
X90827190Y-89098009D01*
X87117702Y-89098009D01*
X87237431Y-88978280D01*
X87395000Y-88597874D01*
X87395000Y-88186126D01*
X87237431Y-87805720D01*
X86946280Y-87514569D01*
X86565874Y-87357000D01*
X86154126Y-87357000D01*
X85773720Y-87514569D01*
X85482569Y-87805720D01*
X85325000Y-88186126D01*
X85325000Y-88352198D01*
X85029199Y-88648000D01*
X84132879Y-88648000D01*
X84191740Y-88559909D01*
X84303113Y-88000000D01*
X84191740Y-87440091D01*
X83874577Y-86965423D01*
X83754217Y-86885001D01*
X92085603Y-86885001D01*
X91783466Y-87187138D01*
G36*
X69513673Y-88876476D02*
X69556071Y-88939929D01*
X69619524Y-88982327D01*
X69619526Y-88982329D01*
X69744902Y-89066102D01*
X69792654Y-89098009D01*
X69344811Y-89098009D01*
X68977103Y-88730302D01*
X68999000Y-88677439D01*
X68999000Y-88361803D01*
X69513673Y-88876476D01*
X69513673Y-88876476D01*
G37*
X69513673Y-88876476D02*
X69556071Y-88939929D01*
X69619524Y-88982327D01*
X69619526Y-88982329D01*
X69744902Y-89066102D01*
X69792654Y-89098009D01*
X69344811Y-89098009D01*
X68977103Y-88730302D01*
X68999000Y-88677439D01*
X68999000Y-88361803D01*
X69513673Y-88876476D01*
G36*
X81805423Y-86965423D02*
X81488260Y-87440091D01*
X81376887Y-88000000D01*
X81488260Y-88559909D01*
X81547121Y-88648000D01*
X79136191Y-88648000D01*
X79187113Y-88392000D01*
X79075740Y-87832091D01*
X78758577Y-87357423D01*
X78283909Y-87040260D01*
X77865333Y-86957000D01*
X77582667Y-86957000D01*
X77164091Y-87040260D01*
X76689423Y-87357423D01*
X76505957Y-87632000D01*
X70418803Y-87632000D01*
X69671804Y-86885001D01*
X81925783Y-86885001D01*
X81805423Y-86965423D01*
X81805423Y-86965423D01*
G37*
X81805423Y-86965423D02*
X81488260Y-87440091D01*
X81376887Y-88000000D01*
X81488260Y-88559909D01*
X81547121Y-88648000D01*
X79136191Y-88648000D01*
X79187113Y-88392000D01*
X79075740Y-87832091D01*
X78758577Y-87357423D01*
X78283909Y-87040260D01*
X77865333Y-86957000D01*
X77582667Y-86957000D01*
X77164091Y-87040260D01*
X76689423Y-87357423D01*
X76505957Y-87632000D01*
X70418803Y-87632000D01*
X69671804Y-86885001D01*
X81925783Y-86885001D01*
X81805423Y-86965423D01*
G36*
X113229375Y-72335375D02*
X112901161Y-72826582D01*
X112785908Y-73406000D01*
X112901161Y-73985418D01*
X113229375Y-74476625D01*
X113247619Y-74488816D01*
X113202235Y-74497843D01*
X112992191Y-74638191D01*
X112851843Y-74848235D01*
X112802560Y-75096000D01*
X112802560Y-76796000D01*
X112851843Y-77043765D01*
X112992191Y-77253809D01*
X113202235Y-77394157D01*
X113450000Y-77443440D01*
X115150000Y-77443440D01*
X115397765Y-77394157D01*
X115607809Y-77253809D01*
X115748157Y-77043765D01*
X115757184Y-76998381D01*
X115769375Y-77016625D01*
X116260582Y-77344839D01*
X116693744Y-77431000D01*
X116986256Y-77431000D01*
X117419418Y-77344839D01*
X117910625Y-77016625D01*
X118123843Y-76697522D01*
X118184817Y-76827358D01*
X118613076Y-77217645D01*
X119023110Y-77387476D01*
X119253000Y-77266155D01*
X119253000Y-76073000D01*
X119507000Y-76073000D01*
X119507000Y-77266155D01*
X119736890Y-77387476D01*
X120146924Y-77217645D01*
X120575183Y-76827358D01*
X120821486Y-76302892D01*
X120700819Y-76073000D01*
X119507000Y-76073000D01*
X119253000Y-76073000D01*
X119233000Y-76073000D01*
X119233000Y-75819000D01*
X119253000Y-75819000D01*
X119253000Y-73533000D01*
X119507000Y-73533000D01*
X119507000Y-75819000D01*
X120700819Y-75819000D01*
X120821486Y-75589108D01*
X120575183Y-75064642D01*
X120148729Y-74676000D01*
X120575183Y-74287358D01*
X120821486Y-73762892D01*
X120700819Y-73533000D01*
X119507000Y-73533000D01*
X119253000Y-73533000D01*
X119233000Y-73533000D01*
X119233000Y-73279000D01*
X119253000Y-73279000D01*
X119253000Y-73259000D01*
X119507000Y-73259000D01*
X119507000Y-73279000D01*
X120700819Y-73279000D01*
X120765317Y-73156119D01*
X121499671Y-73890473D01*
X121542071Y-73953929D01*
X121692560Y-74054483D01*
X121692560Y-74256000D01*
X121741843Y-74503765D01*
X121856928Y-74676000D01*
X121741843Y-74848235D01*
X121692560Y-75096000D01*
X121692560Y-76796000D01*
X121741843Y-77043765D01*
X121882191Y-77253809D01*
X122092235Y-77394157D01*
X122340000Y-77443440D01*
X124040000Y-77443440D01*
X124287765Y-77394157D01*
X124497809Y-77253809D01*
X124638157Y-77043765D01*
X124658739Y-76940292D01*
X124963076Y-77217645D01*
X125373110Y-77387476D01*
X125603000Y-77266155D01*
X125603000Y-76073000D01*
X125583000Y-76073000D01*
X125583000Y-75819000D01*
X125603000Y-75819000D01*
X125603000Y-75799000D01*
X125857000Y-75799000D01*
X125857000Y-75819000D01*
X125877000Y-75819000D01*
X125877000Y-76073000D01*
X125857000Y-76073000D01*
X125857000Y-77266155D01*
X126086890Y-77387476D01*
X126496924Y-77217645D01*
X126925183Y-76827358D01*
X126986157Y-76697522D01*
X127199375Y-77016625D01*
X127690582Y-77344839D01*
X128123744Y-77431000D01*
X128416256Y-77431000D01*
X128636408Y-77387209D01*
X134114000Y-82864803D01*
X134114001Y-84355865D01*
X134001942Y-83956980D01*
X133606317Y-83454078D01*
X133048355Y-83140856D01*
X132920434Y-83109876D01*
X132667000Y-83229223D01*
X132667000Y-84873000D01*
X132687000Y-84873000D01*
X132687000Y-85127000D01*
X132667000Y-85127000D01*
X132667000Y-85147000D01*
X132413000Y-85147000D01*
X132413000Y-85127000D01*
X132393000Y-85127000D01*
X132393000Y-84873000D01*
X132413000Y-84873000D01*
X132413000Y-83229223D01*
X132159566Y-83109876D01*
X132031645Y-83140856D01*
X131565099Y-83402760D01*
X131457809Y-83242191D01*
X131247765Y-83101843D01*
X131000000Y-83052560D01*
X129000000Y-83052560D01*
X128752235Y-83101843D01*
X128542191Y-83242191D01*
X128401843Y-83452235D01*
X128352560Y-83700000D01*
X128352560Y-85621758D01*
X121771330Y-79040529D01*
X121728928Y-78977070D01*
X121477536Y-78809095D01*
X121255851Y-78764999D01*
X121255846Y-78764999D01*
X121180999Y-78750111D01*
X121106152Y-78764999D01*
X113113802Y-78764999D01*
X111785010Y-77436209D01*
X111785010Y-72788848D01*
X111799898Y-72714000D01*
X111785010Y-72639152D01*
X111785010Y-72639148D01*
X111740914Y-72417463D01*
X111572939Y-72166071D01*
X111524941Y-72134000D01*
X113530754Y-72134000D01*
X113229375Y-72335375D01*
X113229375Y-72335375D01*
G37*
X113229375Y-72335375D02*
X112901161Y-72826582D01*
X112785908Y-73406000D01*
X112901161Y-73985418D01*
X113229375Y-74476625D01*
X113247619Y-74488816D01*
X113202235Y-74497843D01*
X112992191Y-74638191D01*
X112851843Y-74848235D01*
X112802560Y-75096000D01*
X112802560Y-76796000D01*
X112851843Y-77043765D01*
X112992191Y-77253809D01*
X113202235Y-77394157D01*
X113450000Y-77443440D01*
X115150000Y-77443440D01*
X115397765Y-77394157D01*
X115607809Y-77253809D01*
X115748157Y-77043765D01*
X115757184Y-76998381D01*
X115769375Y-77016625D01*
X116260582Y-77344839D01*
X116693744Y-77431000D01*
X116986256Y-77431000D01*
X117419418Y-77344839D01*
X117910625Y-77016625D01*
X118123843Y-76697522D01*
X118184817Y-76827358D01*
X118613076Y-77217645D01*
X119023110Y-77387476D01*
X119253000Y-77266155D01*
X119253000Y-76073000D01*
X119507000Y-76073000D01*
X119507000Y-77266155D01*
X119736890Y-77387476D01*
X120146924Y-77217645D01*
X120575183Y-76827358D01*
X120821486Y-76302892D01*
X120700819Y-76073000D01*
X119507000Y-76073000D01*
X119253000Y-76073000D01*
X119233000Y-76073000D01*
X119233000Y-75819000D01*
X119253000Y-75819000D01*
X119253000Y-73533000D01*
X119507000Y-73533000D01*
X119507000Y-75819000D01*
X120700819Y-75819000D01*
X120821486Y-75589108D01*
X120575183Y-75064642D01*
X120148729Y-74676000D01*
X120575183Y-74287358D01*
X120821486Y-73762892D01*
X120700819Y-73533000D01*
X119507000Y-73533000D01*
X119253000Y-73533000D01*
X119233000Y-73533000D01*
X119233000Y-73279000D01*
X119253000Y-73279000D01*
X119253000Y-73259000D01*
X119507000Y-73259000D01*
X119507000Y-73279000D01*
X120700819Y-73279000D01*
X120765317Y-73156119D01*
X121499671Y-73890473D01*
X121542071Y-73953929D01*
X121692560Y-74054483D01*
X121692560Y-74256000D01*
X121741843Y-74503765D01*
X121856928Y-74676000D01*
X121741843Y-74848235D01*
X121692560Y-75096000D01*
X121692560Y-76796000D01*
X121741843Y-77043765D01*
X121882191Y-77253809D01*
X122092235Y-77394157D01*
X122340000Y-77443440D01*
X124040000Y-77443440D01*
X124287765Y-77394157D01*
X124497809Y-77253809D01*
X124638157Y-77043765D01*
X124658739Y-76940292D01*
X124963076Y-77217645D01*
X125373110Y-77387476D01*
X125603000Y-77266155D01*
X125603000Y-76073000D01*
X125583000Y-76073000D01*
X125583000Y-75819000D01*
X125603000Y-75819000D01*
X125603000Y-75799000D01*
X125857000Y-75799000D01*
X125857000Y-75819000D01*
X125877000Y-75819000D01*
X125877000Y-76073000D01*
X125857000Y-76073000D01*
X125857000Y-77266155D01*
X126086890Y-77387476D01*
X126496924Y-77217645D01*
X126925183Y-76827358D01*
X126986157Y-76697522D01*
X127199375Y-77016625D01*
X127690582Y-77344839D01*
X128123744Y-77431000D01*
X128416256Y-77431000D01*
X128636408Y-77387209D01*
X134114000Y-82864803D01*
X134114001Y-84355865D01*
X134001942Y-83956980D01*
X133606317Y-83454078D01*
X133048355Y-83140856D01*
X132920434Y-83109876D01*
X132667000Y-83229223D01*
X132667000Y-84873000D01*
X132687000Y-84873000D01*
X132687000Y-85127000D01*
X132667000Y-85127000D01*
X132667000Y-85147000D01*
X132413000Y-85147000D01*
X132413000Y-85127000D01*
X132393000Y-85127000D01*
X132393000Y-84873000D01*
X132413000Y-84873000D01*
X132413000Y-83229223D01*
X132159566Y-83109876D01*
X132031645Y-83140856D01*
X131565099Y-83402760D01*
X131457809Y-83242191D01*
X131247765Y-83101843D01*
X131000000Y-83052560D01*
X129000000Y-83052560D01*
X128752235Y-83101843D01*
X128542191Y-83242191D01*
X128401843Y-83452235D01*
X128352560Y-83700000D01*
X128352560Y-85621758D01*
X121771330Y-79040529D01*
X121728928Y-78977070D01*
X121477536Y-78809095D01*
X121255851Y-78764999D01*
X121255846Y-78764999D01*
X121180999Y-78750111D01*
X121106152Y-78764999D01*
X113113802Y-78764999D01*
X111785010Y-77436209D01*
X111785010Y-72788848D01*
X111799898Y-72714000D01*
X111785010Y-72639152D01*
X111785010Y-72639148D01*
X111740914Y-72417463D01*
X111572939Y-72166071D01*
X111524941Y-72134000D01*
X113530754Y-72134000D01*
X113229375Y-72335375D01*
G36*
X95352560Y-72700000D02*
X95352560Y-75300000D01*
X95401843Y-75547765D01*
X95542191Y-75757809D01*
X95752235Y-75898157D01*
X96000000Y-75947440D01*
X98000000Y-75947440D01*
X98247765Y-75898157D01*
X98457809Y-75757809D01*
X98565099Y-75597240D01*
X99031645Y-75859144D01*
X99159566Y-75890124D01*
X99413000Y-75770777D01*
X99413000Y-74127000D01*
X99393000Y-74127000D01*
X99393000Y-73873000D01*
X99413000Y-73873000D01*
X99413000Y-73853000D01*
X99667000Y-73853000D01*
X99667000Y-73873000D01*
X99687000Y-73873000D01*
X99687000Y-74127000D01*
X99667000Y-74127000D01*
X99667000Y-75770777D01*
X99920434Y-75890124D01*
X100048355Y-75859144D01*
X100606317Y-75545922D01*
X100790048Y-75312371D01*
X100901231Y-75478769D01*
X101320000Y-75758581D01*
X101320000Y-75913198D01*
X99038029Y-78195170D01*
X86219676Y-78195170D01*
X86144829Y-78180282D01*
X86069982Y-78195170D01*
X86069978Y-78195170D01*
X85848293Y-78239266D01*
X85596901Y-78407241D01*
X85554501Y-78470698D01*
X85329947Y-78695251D01*
X85266492Y-78737651D01*
X85224092Y-78801107D01*
X85224091Y-78801108D01*
X85149830Y-78912248D01*
X84762903Y-78702050D01*
X84691275Y-78687867D01*
X84477000Y-78810521D01*
X84477000Y-80253000D01*
X84497000Y-80253000D01*
X84497000Y-80507000D01*
X84477000Y-80507000D01*
X84477000Y-80527000D01*
X84223000Y-80527000D01*
X84223000Y-80507000D01*
X84203000Y-80507000D01*
X84203000Y-80253000D01*
X84223000Y-80253000D01*
X84223000Y-78810521D01*
X84008725Y-78687867D01*
X83937097Y-78702050D01*
X83460056Y-78961202D01*
X83118501Y-79383183D01*
X83095545Y-79460745D01*
X82808940Y-79031810D01*
X82666300Y-78936501D01*
X84812476Y-76790327D01*
X84875929Y-76747929D01*
X84918327Y-76684476D01*
X84918329Y-76684474D01*
X85025195Y-76524537D01*
X85043904Y-76496537D01*
X85088000Y-76274852D01*
X85088000Y-76274848D01*
X85102888Y-76200001D01*
X85088000Y-76125154D01*
X85088000Y-75908949D01*
X85380000Y-75967031D01*
X86017945Y-75840136D01*
X86558769Y-75478769D01*
X86650000Y-75342232D01*
X86741231Y-75478769D01*
X87282056Y-75840136D01*
X87920000Y-75967031D01*
X88557945Y-75840136D01*
X89098769Y-75478769D01*
X89190000Y-75342232D01*
X89281231Y-75478769D01*
X89822056Y-75840136D01*
X90460000Y-75967031D01*
X91097945Y-75840136D01*
X91638769Y-75478769D01*
X91730000Y-75342232D01*
X91821231Y-75478769D01*
X92362056Y-75840136D01*
X93000000Y-75967031D01*
X93637945Y-75840136D01*
X94178769Y-75478769D01*
X94540136Y-74937945D01*
X94635000Y-74461030D01*
X94635000Y-73538969D01*
X94540136Y-73062055D01*
X94288183Y-72684980D01*
X95355548Y-72684980D01*
X95352560Y-72700000D01*
X95352560Y-72700000D01*
G37*
X95352560Y-72700000D02*
X95352560Y-75300000D01*
X95401843Y-75547765D01*
X95542191Y-75757809D01*
X95752235Y-75898157D01*
X96000000Y-75947440D01*
X98000000Y-75947440D01*
X98247765Y-75898157D01*
X98457809Y-75757809D01*
X98565099Y-75597240D01*
X99031645Y-75859144D01*
X99159566Y-75890124D01*
X99413000Y-75770777D01*
X99413000Y-74127000D01*
X99393000Y-74127000D01*
X99393000Y-73873000D01*
X99413000Y-73873000D01*
X99413000Y-73853000D01*
X99667000Y-73853000D01*
X99667000Y-73873000D01*
X99687000Y-73873000D01*
X99687000Y-74127000D01*
X99667000Y-74127000D01*
X99667000Y-75770777D01*
X99920434Y-75890124D01*
X100048355Y-75859144D01*
X100606317Y-75545922D01*
X100790048Y-75312371D01*
X100901231Y-75478769D01*
X101320000Y-75758581D01*
X101320000Y-75913198D01*
X99038029Y-78195170D01*
X86219676Y-78195170D01*
X86144829Y-78180282D01*
X86069982Y-78195170D01*
X86069978Y-78195170D01*
X85848293Y-78239266D01*
X85596901Y-78407241D01*
X85554501Y-78470698D01*
X85329947Y-78695251D01*
X85266492Y-78737651D01*
X85224092Y-78801107D01*
X85224091Y-78801108D01*
X85149830Y-78912248D01*
X84762903Y-78702050D01*
X84691275Y-78687867D01*
X84477000Y-78810521D01*
X84477000Y-80253000D01*
X84497000Y-80253000D01*
X84497000Y-80507000D01*
X84477000Y-80507000D01*
X84477000Y-80527000D01*
X84223000Y-80527000D01*
X84223000Y-80507000D01*
X84203000Y-80507000D01*
X84203000Y-80253000D01*
X84223000Y-80253000D01*
X84223000Y-78810521D01*
X84008725Y-78687867D01*
X83937097Y-78702050D01*
X83460056Y-78961202D01*
X83118501Y-79383183D01*
X83095545Y-79460745D01*
X82808940Y-79031810D01*
X82666300Y-78936501D01*
X84812476Y-76790327D01*
X84875929Y-76747929D01*
X84918327Y-76684476D01*
X84918329Y-76684474D01*
X85025195Y-76524537D01*
X85043904Y-76496537D01*
X85088000Y-76274852D01*
X85088000Y-76274848D01*
X85102888Y-76200001D01*
X85088000Y-76125154D01*
X85088000Y-75908949D01*
X85380000Y-75967031D01*
X86017945Y-75840136D01*
X86558769Y-75478769D01*
X86650000Y-75342232D01*
X86741231Y-75478769D01*
X87282056Y-75840136D01*
X87920000Y-75967031D01*
X88557945Y-75840136D01*
X89098769Y-75478769D01*
X89190000Y-75342232D01*
X89281231Y-75478769D01*
X89822056Y-75840136D01*
X90460000Y-75967031D01*
X91097945Y-75840136D01*
X91638769Y-75478769D01*
X91730000Y-75342232D01*
X91821231Y-75478769D01*
X92362056Y-75840136D01*
X93000000Y-75967031D01*
X93637945Y-75840136D01*
X94178769Y-75478769D01*
X94540136Y-74937945D01*
X94635000Y-74461030D01*
X94635000Y-73538969D01*
X94540136Y-73062055D01*
X94288183Y-72684980D01*
X95355548Y-72684980D01*
X95352560Y-72700000D01*
G36*
X78652560Y-75300000D02*
X78701843Y-75547765D01*
X78842191Y-75757809D01*
X79052235Y-75898157D01*
X79300000Y-75947440D01*
X81300000Y-75947440D01*
X81547765Y-75898157D01*
X81757809Y-75757809D01*
X81865099Y-75597240D01*
X82331645Y-75859144D01*
X82459566Y-75890124D01*
X82713000Y-75770777D01*
X82713000Y-74127000D01*
X82693000Y-74127000D01*
X82693000Y-73873000D01*
X82713000Y-73873000D01*
X82713000Y-73853000D01*
X82967000Y-73853000D01*
X82967000Y-73873000D01*
X82987000Y-73873000D01*
X82987000Y-74127000D01*
X82967000Y-74127000D01*
X82967000Y-75770777D01*
X83220434Y-75890124D01*
X83348355Y-75859144D01*
X83568000Y-75735842D01*
X83568000Y-75885197D01*
X81473199Y-77980000D01*
X81014846Y-77980000D01*
X80939999Y-77965112D01*
X80865152Y-77980000D01*
X80865148Y-77980000D01*
X80643463Y-78024096D01*
X80392071Y-78192071D01*
X80349671Y-78255527D01*
X79851987Y-78753211D01*
X79810622Y-78725572D01*
X79270000Y-78618036D01*
X78729379Y-78725572D01*
X78443619Y-78916510D01*
X78353509Y-78781651D01*
X78290053Y-78739251D01*
X76066331Y-76515530D01*
X76023929Y-76452071D01*
X75772537Y-76284096D01*
X75550852Y-76240000D01*
X75550847Y-76240000D01*
X75476000Y-76225112D01*
X75450817Y-76230121D01*
X75413240Y-76139403D01*
X75642930Y-75985929D01*
X75685332Y-75922470D01*
X77022802Y-74585001D01*
X77515150Y-74585001D01*
X77589997Y-74599889D01*
X77664844Y-74585001D01*
X77664849Y-74585001D01*
X77886534Y-74540905D01*
X78137926Y-74372930D01*
X78180328Y-74309471D01*
X78652560Y-73837239D01*
X78652560Y-75300000D01*
X78652560Y-75300000D01*
G37*
X78652560Y-75300000D02*
X78701843Y-75547765D01*
X78842191Y-75757809D01*
X79052235Y-75898157D01*
X79300000Y-75947440D01*
X81300000Y-75947440D01*
X81547765Y-75898157D01*
X81757809Y-75757809D01*
X81865099Y-75597240D01*
X82331645Y-75859144D01*
X82459566Y-75890124D01*
X82713000Y-75770777D01*
X82713000Y-74127000D01*
X82693000Y-74127000D01*
X82693000Y-73873000D01*
X82713000Y-73873000D01*
X82713000Y-73853000D01*
X82967000Y-73853000D01*
X82967000Y-73873000D01*
X82987000Y-73873000D01*
X82987000Y-74127000D01*
X82967000Y-74127000D01*
X82967000Y-75770777D01*
X83220434Y-75890124D01*
X83348355Y-75859144D01*
X83568000Y-75735842D01*
X83568000Y-75885197D01*
X81473199Y-77980000D01*
X81014846Y-77980000D01*
X80939999Y-77965112D01*
X80865152Y-77980000D01*
X80865148Y-77980000D01*
X80643463Y-78024096D01*
X80392071Y-78192071D01*
X80349671Y-78255527D01*
X79851987Y-78753211D01*
X79810622Y-78725572D01*
X79270000Y-78618036D01*
X78729379Y-78725572D01*
X78443619Y-78916510D01*
X78353509Y-78781651D01*
X78290053Y-78739251D01*
X76066331Y-76515530D01*
X76023929Y-76452071D01*
X75772537Y-76284096D01*
X75550852Y-76240000D01*
X75550847Y-76240000D01*
X75476000Y-76225112D01*
X75450817Y-76230121D01*
X75413240Y-76139403D01*
X75642930Y-75985929D01*
X75685332Y-75922470D01*
X77022802Y-74585001D01*
X77515150Y-74585001D01*
X77589997Y-74599889D01*
X77664844Y-74585001D01*
X77664849Y-74585001D01*
X77886534Y-74540905D01*
X78137926Y-74372930D01*
X78180328Y-74309471D01*
X78652560Y-73837239D01*
X78652560Y-75300000D01*
G04 #@! TD*
M02*
