%FSLAX45Y45*%
G04 Gerber Fmt 4.5, Leading zero omitted, Abs format (unit mm)*
G04 Created by KiCad (PCBNEW (5.0.2)-1) date 31/01/2019 22:51:27*
%MOMM*%
%LPD*%
G01*
G04 APERTURE LIST*
%ADD10C,0.150000*%
%ADD11C,0.200000*%
%ADD12C,0.300000*%
G04 APERTURE END LIST*
D10*
X4700000Y-10900000D02*
X5800000Y-10900000D01*
X4700000Y-7000000D02*
X4700000Y-10900000D01*
X14300000Y-10900000D02*
X14300000Y-7000000D01*
X13200000Y-10900000D02*
X14300000Y-10900000D01*
X13200000Y-12000000D02*
X13200000Y-10900000D01*
X5800000Y-12000000D02*
X13200000Y-12000000D01*
X5800000Y-10900000D02*
X5800000Y-12000000D01*
X6500000Y-7000000D02*
X6500000Y-3500000D01*
X4700000Y-7000000D02*
X6500000Y-7000000D01*
X12500000Y-7000000D02*
X14300000Y-7000000D01*
X12500000Y-3500000D02*
X12500000Y-7000000D01*
X6500000Y-3500000D02*
X12500000Y-3500000D01*
D11*
X5720400Y-8768400D02*
X5760400Y-8808400D01*
X5760400Y-8768400D02*
X5720400Y-8808400D01*
X5901900Y-10292400D02*
X5941900Y-10332400D01*
X5941900Y-10292400D02*
X5901900Y-10332400D01*
X6050506Y-10672376D02*
X6090506Y-10712376D01*
X6090506Y-10672376D02*
X6050506Y-10712376D01*
X6126800Y-9657400D02*
X6166800Y-9697400D01*
X6166800Y-9657400D02*
X6126800Y-9697400D01*
X6127265Y-9429265D02*
X6167265Y-9469265D01*
X6167265Y-9429265D02*
X6127265Y-9469265D01*
X6380800Y-10800400D02*
X6420800Y-10840400D01*
X6420800Y-10800400D02*
X6380800Y-10840400D01*
X6736400Y-10597200D02*
X6776400Y-10637200D01*
X6776400Y-10597200D02*
X6736400Y-10637200D01*
X6787200Y-9784400D02*
X6827200Y-9824400D01*
X6827200Y-9784400D02*
X6787200Y-9824400D01*
X7396800Y-9174800D02*
X7436800Y-9214800D01*
X7436800Y-9174800D02*
X7396800Y-9214800D01*
X7600000Y-8893301D02*
X7640000Y-8933301D01*
X7640000Y-8893301D02*
X7600000Y-8933301D01*
X7701600Y-7549200D02*
X7741600Y-7589200D01*
X7741600Y-7549200D02*
X7701600Y-7589200D01*
X7955600Y-8768400D02*
X7995600Y-8808400D01*
X7995600Y-8768400D02*
X7955600Y-8808400D01*
X8311200Y-9784400D02*
X8351200Y-9824400D01*
X8351200Y-9784400D02*
X8311200Y-9824400D01*
X8616000Y-8819200D02*
X8656000Y-8859200D01*
X8656000Y-8819200D02*
X8616000Y-8859200D01*
X8895400Y-8819200D02*
X8935400Y-8859200D01*
X8935400Y-8819200D02*
X8895400Y-8859200D01*
X9479600Y-9276400D02*
X9519600Y-9316400D01*
X9519600Y-9276400D02*
X9479600Y-9316400D01*
X9682800Y-8463600D02*
X9722800Y-8503600D01*
X9722800Y-8463600D02*
X9682800Y-8503600D01*
X9987600Y-10902000D02*
X10027600Y-10942000D01*
X10027600Y-10902000D02*
X9987600Y-10942000D01*
X10089200Y-8209600D02*
X10129200Y-8249600D01*
X10129200Y-8209600D02*
X10089200Y-8249600D01*
X11156000Y-11664000D02*
X11196000Y-11704000D01*
X11196000Y-11664000D02*
X11156000Y-11704000D01*
X11714800Y-9124000D02*
X11754800Y-9164000D01*
X11754800Y-9124000D02*
X11714800Y-9164000D01*
X12781600Y-10343200D02*
X12821600Y-10383200D01*
X12821600Y-10343200D02*
X12781600Y-10383200D01*
X13146400Y-8991600D02*
G75*
G03X13146400Y-8991600I-40000J0D01*
G01*
X13146400Y-9245600D02*
G75*
G03X13146400Y-9245600I-40000J0D01*
G01*
X13146400Y-9499600D02*
G75*
G03X13146400Y-9499600I-40000J0D01*
G01*
X9540000Y-10900000D02*
G75*
G03X9540000Y-10900000I-40000J0D01*
G01*
X10556000Y-10900000D02*
G75*
G03X10556000Y-10900000I-40000J0D01*
G01*
X8124000Y-8500000D02*
G75*
G03X8124000Y-8500000I-40000J0D01*
G01*
X9140000Y-8500000D02*
G75*
G03X9140000Y-8500000I-40000J0D01*
G01*
X5640000Y-9392000D02*
G75*
G03X5640000Y-9392000I-40000J0D01*
G01*
X5640000Y-9646000D02*
G75*
G03X5640000Y-9646000I-40000J0D01*
G01*
X5640000Y-9900000D02*
G75*
G03X5640000Y-9900000I-40000J0D01*
G01*
X6440000Y-8500000D02*
G75*
G03X6440000Y-8500000I-40000J0D01*
G01*
X7456000Y-8500000D02*
G75*
G03X7456000Y-8500000I-40000J0D01*
G01*
X6796400Y-8839200D02*
G75*
G03X6796400Y-8839200I-40000J0D01*
G01*
X7812400Y-8839200D02*
G75*
G03X7812400Y-8839200I-40000J0D01*
G01*
X7840000Y-10100000D02*
G75*
G03X7840000Y-10100000I-40000J0D01*
G01*
X7840000Y-11116000D02*
G75*
G03X7840000Y-11116000I-40000J0D01*
G01*
X7202800Y-11480800D02*
G75*
G03X7202800Y-11480800I-40000J0D01*
G01*
X8218800Y-11480800D02*
G75*
G03X8218800Y-11480800I-40000J0D01*
G01*
X12540000Y-10284000D02*
G75*
G03X12540000Y-10284000I-40000J0D01*
G01*
X12540000Y-11300000D02*
G75*
G03X12540000Y-11300000I-40000J0D01*
G01*
X11640000Y-10400000D02*
G75*
G03X11640000Y-10400000I-40000J0D01*
G01*
X11890000Y-10400000D02*
G75*
G03X11890000Y-10400000I-40000J0D01*
G01*
X8140000Y-10084000D02*
G75*
G03X8140000Y-10084000I-40000J0D01*
G01*
X8140000Y-11100000D02*
G75*
G03X8140000Y-11100000I-40000J0D01*
G01*
X8324000Y-8800000D02*
G75*
G03X8324000Y-8800000I-40000J0D01*
G01*
X9340000Y-8800000D02*
G75*
G03X9340000Y-8800000I-40000J0D01*
G01*
X11040000Y-10400000D02*
G75*
G03X11040000Y-10400000I-40000J0D01*
G01*
X11290000Y-10400000D02*
G75*
G03X11290000Y-10400000I-40000J0D01*
G01*
X6040000Y-8084000D02*
G75*
G03X6040000Y-8084000I-40000J0D01*
G01*
X6040000Y-9100000D02*
G75*
G03X6040000Y-9100000I-40000J0D01*
G01*
X5640000Y-8084000D02*
G75*
G03X5640000Y-8084000I-40000J0D01*
G01*
X5640000Y-9100000D02*
G75*
G03X5640000Y-9100000I-40000J0D01*
G01*
X6403000Y-7997995D02*
X6403000Y-8078005D01*
X6362995Y-8038000D02*
X6443005Y-8038000D01*
X6403000Y-8759995D02*
X6403000Y-8840005D01*
X6362995Y-8800000D02*
X6443005Y-8800000D01*
X6403000Y-9013995D02*
X6403000Y-9094005D01*
X6362995Y-9054000D02*
X6443005Y-9054000D01*
X6403000Y-9267995D02*
X6403000Y-9348005D01*
X6362995Y-9308000D02*
X6443005Y-9308000D01*
X6403000Y-9521995D02*
X6403000Y-9602005D01*
X6362995Y-9562000D02*
X6443005Y-9562000D01*
X6657000Y-7997995D02*
X6657000Y-8078005D01*
X6616995Y-8038000D02*
X6697005Y-8038000D01*
X6657000Y-9521995D02*
X6657000Y-9602005D01*
X6616995Y-9562000D02*
X6697005Y-9562000D01*
X6911000Y-7997995D02*
X6911000Y-8078005D01*
X6870995Y-8038000D02*
X6951005Y-8038000D01*
X6911000Y-9521995D02*
X6911000Y-9602005D01*
X6870995Y-9562000D02*
X6951005Y-9562000D01*
X7038000Y-9267995D02*
X7038000Y-9348005D01*
X6997995Y-9308000D02*
X7078005Y-9308000D01*
X7165000Y-7997995D02*
X7165000Y-8078005D01*
X7124995Y-8038000D02*
X7205005Y-8038000D01*
X7165000Y-9521995D02*
X7165000Y-9602005D01*
X7124995Y-9562000D02*
X7205005Y-9562000D01*
X7292000Y-9267995D02*
X7292000Y-9348005D01*
X7251995Y-9308000D02*
X7332005Y-9308000D01*
X7419000Y-7997995D02*
X7419000Y-8078005D01*
X7378995Y-8038000D02*
X7459005Y-8038000D01*
X7419000Y-9521995D02*
X7419000Y-9602005D01*
X7378995Y-9562000D02*
X7459005Y-9562000D01*
X7673000Y-7997995D02*
X7673000Y-8078005D01*
X7632995Y-8038000D02*
X7713005Y-8038000D01*
X7673000Y-9521995D02*
X7673000Y-9602005D01*
X7632995Y-9562000D02*
X7713005Y-9562000D01*
X7927000Y-7997995D02*
X7927000Y-8078005D01*
X7886995Y-8038000D02*
X7967005Y-8038000D01*
X7927000Y-9521995D02*
X7927000Y-9602005D01*
X7886995Y-9562000D02*
X7967005Y-9562000D01*
X8054000Y-9267995D02*
X8054000Y-9348005D01*
X8013995Y-9308000D02*
X8094005Y-9308000D01*
X8181000Y-7997995D02*
X8181000Y-8078005D01*
X8140995Y-8038000D02*
X8221005Y-8038000D01*
X8181000Y-9521995D02*
X8181000Y-9602005D01*
X8140995Y-9562000D02*
X8221005Y-9562000D01*
X8308000Y-9267995D02*
X8308000Y-9348005D01*
X8267995Y-9308000D02*
X8348005Y-9308000D01*
X8435000Y-7997995D02*
X8435000Y-8078005D01*
X8394995Y-8038000D02*
X8475005Y-8038000D01*
X8435000Y-9521995D02*
X8435000Y-9602005D01*
X8394995Y-9562000D02*
X8475005Y-9562000D01*
X8689000Y-7997995D02*
X8689000Y-8078005D01*
X8648995Y-8038000D02*
X8729005Y-8038000D01*
X8689000Y-9521995D02*
X8689000Y-9602005D01*
X8648995Y-9562000D02*
X8729005Y-9562000D01*
X8943000Y-7997995D02*
X8943000Y-8078005D01*
X8902995Y-8038000D02*
X8983005Y-8038000D01*
X8943000Y-9521995D02*
X8943000Y-9602005D01*
X8902995Y-9562000D02*
X8983005Y-9562000D01*
X9197000Y-7997995D02*
X9197000Y-8078005D01*
X9156995Y-8038000D02*
X9237005Y-8038000D01*
X9197000Y-9521995D02*
X9197000Y-9602005D01*
X9156995Y-9562000D02*
X9237005Y-9562000D01*
X8531820Y-10231820D02*
X8531820Y-10168180D01*
X8468180Y-10168180D01*
X8468180Y-10231820D01*
X8531820Y-10231820D01*
X8785820Y-10231820D02*
X8785820Y-10168180D01*
X8722180Y-10168180D01*
X8722180Y-10231820D01*
X8785820Y-10231820D01*
X8531820Y-10931820D02*
X8531820Y-10868180D01*
X8468180Y-10868180D01*
X8468180Y-10931820D01*
X8531820Y-10931820D01*
X8785820Y-10931820D02*
X8785820Y-10868180D01*
X8722180Y-10868180D01*
X8722180Y-10931820D01*
X8785820Y-10931820D01*
X13481820Y-7431820D02*
X13481820Y-7368180D01*
X13418180Y-7368180D01*
X13418180Y-7431820D01*
X13481820Y-7431820D01*
X13681820Y-7431820D02*
X13681820Y-7368180D01*
X13618180Y-7368180D01*
X13618180Y-7431820D01*
X13681820Y-7431820D01*
X13881820Y-7431820D02*
X13881820Y-7368180D01*
X13818180Y-7368180D01*
X13818180Y-7431820D01*
X13881820Y-7431820D01*
X7245420Y-10242620D02*
X7245420Y-10178980D01*
X7181780Y-10178980D01*
X7181780Y-10242620D01*
X7245420Y-10242620D01*
X7499420Y-10242620D02*
X7499420Y-10178980D01*
X7435780Y-10178980D01*
X7435780Y-10242620D01*
X7499420Y-10242620D01*
X7245420Y-10903020D02*
X7245420Y-10839380D01*
X7181780Y-10839380D01*
X7181780Y-10903020D01*
X7245420Y-10903020D01*
X7499420Y-10903020D02*
X7499420Y-10839380D01*
X7435780Y-10839380D01*
X7435780Y-10903020D01*
X7499420Y-10903020D01*
X12319000Y-7644600D02*
X12369000Y-7594600D01*
X12319000Y-7544600D01*
X12269000Y-7594600D01*
X12319000Y-7644600D01*
X12573000Y-7644600D02*
X12623000Y-7594600D01*
X12573000Y-7544600D01*
X12523000Y-7594600D01*
X12573000Y-7644600D01*
X12827000Y-7644600D02*
X12877000Y-7594600D01*
X12827000Y-7544600D01*
X12777000Y-7594600D01*
X12827000Y-7644600D01*
X5092000Y-10750000D02*
X5142000Y-10700000D01*
X5092000Y-10650000D01*
X5042000Y-10700000D01*
X5092000Y-10750000D01*
X5346000Y-10750000D02*
X5396000Y-10700000D01*
X5346000Y-10650000D01*
X5296000Y-10700000D01*
X5346000Y-10750000D01*
X5600000Y-10750000D02*
X5650000Y-10700000D01*
X5600000Y-10650000D01*
X5550000Y-10700000D01*
X5600000Y-10750000D01*
X12319000Y-7390600D02*
X12369000Y-7340600D01*
X12319000Y-7290600D01*
X12269000Y-7340600D01*
X12319000Y-7390600D01*
X12573000Y-7390600D02*
X12623000Y-7340600D01*
X12573000Y-7290600D01*
X12523000Y-7340600D01*
X12573000Y-7390600D01*
X12827000Y-7390600D02*
X12877000Y-7340600D01*
X12827000Y-7290600D01*
X12777000Y-7340600D01*
X12827000Y-7390600D01*
X11292000Y-11150000D02*
X11342000Y-11100000D01*
X11292000Y-11050000D01*
X11242000Y-11100000D01*
X11292000Y-11150000D01*
X11546000Y-11150000D02*
X11596000Y-11100000D01*
X11546000Y-11050000D01*
X11496000Y-11100000D01*
X11546000Y-11150000D01*
X11800000Y-11150000D02*
X11850000Y-11100000D01*
X11800000Y-11050000D01*
X11750000Y-11100000D01*
X11800000Y-11150000D01*
X5100000Y-8250000D02*
X5150000Y-8200000D01*
X5100000Y-8150000D01*
X5050000Y-8200000D01*
X5100000Y-8250000D01*
X5100000Y-8504000D02*
X5150000Y-8454000D01*
X5100000Y-8404000D01*
X5050000Y-8454000D01*
X5100000Y-8504000D01*
X5100000Y-8758000D02*
X5150000Y-8708000D01*
X5100000Y-8658000D01*
X5050000Y-8708000D01*
X5100000Y-8758000D01*
X5100000Y-9012000D02*
X5150000Y-8962000D01*
X5100000Y-8912000D01*
X5050000Y-8962000D01*
X5100000Y-9012000D01*
X5100000Y-9266000D02*
X5150000Y-9216000D01*
X5100000Y-9166000D01*
X5050000Y-9216000D01*
X5100000Y-9266000D01*
X5100000Y-9520000D02*
X5150000Y-9470000D01*
X5100000Y-9420000D01*
X5050000Y-9470000D01*
X5100000Y-9520000D01*
X5100000Y-9774000D02*
X5150000Y-9724000D01*
X5100000Y-9674000D01*
X5050000Y-9724000D01*
X5100000Y-9774000D01*
X9084000Y-11350000D02*
X9134000Y-11300000D01*
X9084000Y-11250000D01*
X9034000Y-11300000D01*
X9084000Y-11350000D01*
X9338000Y-11350000D02*
X9388000Y-11300000D01*
X9338000Y-11250000D01*
X9288000Y-11300000D01*
X9338000Y-11350000D01*
X9592000Y-11350000D02*
X9642000Y-11300000D01*
X9592000Y-11250000D01*
X9542000Y-11300000D01*
X9592000Y-11350000D01*
X9846000Y-11350000D02*
X9896000Y-11300000D01*
X9846000Y-11250000D01*
X9796000Y-11300000D01*
X9846000Y-11350000D01*
X10100000Y-11350000D02*
X10150000Y-11300000D01*
X10100000Y-11250000D01*
X10050000Y-11300000D01*
X10100000Y-11350000D01*
X10354000Y-11350000D02*
X10404000Y-11300000D01*
X10354000Y-11250000D01*
X10304000Y-11300000D01*
X10354000Y-11350000D01*
X10608000Y-11350000D02*
X10658000Y-11300000D01*
X10608000Y-11250000D01*
X10558000Y-11300000D01*
X10608000Y-11350000D01*
X11430000Y-7390600D02*
X11480000Y-7340600D01*
X11430000Y-7290600D01*
X11380000Y-7340600D01*
X11430000Y-7390600D01*
X11430000Y-7644600D02*
X11480000Y-7594600D01*
X11430000Y-7544600D01*
X11380000Y-7594600D01*
X11430000Y-7644600D01*
X11684000Y-7390600D02*
X11734000Y-7340600D01*
X11684000Y-7290600D01*
X11634000Y-7340600D01*
X11684000Y-7390600D01*
X11684000Y-7644600D02*
X11734000Y-7594600D01*
X11684000Y-7544600D01*
X11634000Y-7594600D01*
X11684000Y-7644600D01*
X11938000Y-7390600D02*
X11988000Y-7340600D01*
X11938000Y-7290600D01*
X11888000Y-7340600D01*
X11938000Y-7390600D01*
X11938000Y-7644600D02*
X11988000Y-7594600D01*
X11938000Y-7544600D01*
X11888000Y-7594600D01*
X11938000Y-7644600D01*
X5100000Y-10350000D02*
X5150000Y-10300000D01*
X5100000Y-10250000D01*
X5050000Y-10300000D01*
X5100000Y-10350000D01*
X5354000Y-10350000D02*
X5404000Y-10300000D01*
X5354000Y-10250000D01*
X5304000Y-10300000D01*
X5354000Y-10350000D01*
X5608000Y-10350000D02*
X5658000Y-10300000D01*
X5608000Y-10250000D01*
X5558000Y-10300000D01*
X5608000Y-10350000D01*
X6248400Y-11750000D02*
X6298400Y-11700000D01*
X6248400Y-11650000D01*
X6198400Y-11700000D01*
X6248400Y-11750000D01*
X6502400Y-11750000D02*
X6552400Y-11700000D01*
X6502400Y-11650000D01*
X6452400Y-11700000D01*
X6502400Y-11750000D01*
X6756400Y-11750000D02*
X6806400Y-11700000D01*
X6756400Y-11650000D01*
X6706400Y-11700000D01*
X6756400Y-11750000D01*
X13392000Y-10750000D02*
X13442000Y-10700000D01*
X13392000Y-10650000D01*
X13342000Y-10700000D01*
X13392000Y-10750000D01*
X13646000Y-10750000D02*
X13696000Y-10700000D01*
X13646000Y-10650000D01*
X13596000Y-10700000D01*
X13646000Y-10750000D01*
X13900000Y-10750000D02*
X13950000Y-10700000D01*
X13900000Y-10650000D01*
X13850000Y-10700000D01*
X13900000Y-10750000D01*
X12192000Y-11750000D02*
X12242000Y-11700000D01*
X12192000Y-11650000D01*
X12142000Y-11700000D01*
X12192000Y-11750000D01*
X12446000Y-11750000D02*
X12496000Y-11700000D01*
X12446000Y-11650000D01*
X12396000Y-11700000D01*
X12446000Y-11750000D01*
X12700000Y-11750000D02*
X12750000Y-11700000D01*
X12700000Y-11650000D01*
X12650000Y-11700000D01*
X12700000Y-11750000D01*
X10475000Y-8125000D02*
X10525000Y-8075000D01*
X10475000Y-8025000D01*
X10425000Y-8075000D01*
X10475000Y-8125000D01*
X10475000Y-8425000D02*
X10525000Y-8375000D01*
X10475000Y-8325000D01*
X10425000Y-8375000D01*
X10475000Y-8425000D01*
X10475000Y-8750000D02*
X10525000Y-8700000D01*
X10475000Y-8650000D01*
X10425000Y-8700000D01*
X10475000Y-8750000D01*
X10475000Y-9050000D02*
X10525000Y-9000000D01*
X10475000Y-8950000D01*
X10425000Y-9000000D01*
X10475000Y-9050000D01*
X11925000Y-8125000D02*
X11975000Y-8075000D01*
X11925000Y-8025000D01*
X11875000Y-8075000D01*
X11925000Y-8125000D01*
X11925000Y-8425000D02*
X11975000Y-8375000D01*
X11925000Y-8325000D01*
X11875000Y-8375000D01*
X11925000Y-8425000D01*
X11925000Y-8750000D02*
X11975000Y-8700000D01*
X11925000Y-8650000D01*
X11875000Y-8700000D01*
X11925000Y-8750000D01*
X11925000Y-9050000D02*
X11975000Y-9000000D01*
X11925000Y-8950000D01*
X11875000Y-9000000D01*
X11925000Y-9050000D01*
X12275000Y-9550000D02*
X12325000Y-9500000D01*
X12275000Y-9450000D01*
X12225000Y-9500000D01*
X12275000Y-9550000D01*
X12275000Y-9850000D02*
X12325000Y-9800000D01*
X12275000Y-9750000D01*
X12225000Y-9800000D01*
X12275000Y-9850000D01*
X8592000Y-11750000D02*
X8642000Y-11700000D01*
X8592000Y-11650000D01*
X8542000Y-11700000D01*
X8592000Y-11750000D01*
X8846000Y-11750000D02*
X8896000Y-11700000D01*
X8846000Y-11650000D01*
X8796000Y-11700000D01*
X8846000Y-11750000D01*
X9100000Y-11750000D02*
X9150000Y-11700000D01*
X9100000Y-11650000D01*
X9050000Y-11700000D01*
X9100000Y-11750000D01*
X13900000Y-8326000D02*
X13950000Y-8276000D01*
X13900000Y-8226000D01*
X13850000Y-8276000D01*
X13900000Y-8326000D01*
X13900000Y-8580000D02*
X13950000Y-8530000D01*
X13900000Y-8480000D01*
X13850000Y-8530000D01*
X13900000Y-8580000D01*
X13900000Y-8834000D02*
X13950000Y-8784000D01*
X13900000Y-8734000D01*
X13850000Y-8784000D01*
X13900000Y-8834000D01*
X13900000Y-9088000D02*
X13950000Y-9038000D01*
X13900000Y-8988000D01*
X13850000Y-9038000D01*
X13900000Y-9088000D01*
X13900000Y-9342000D02*
X13950000Y-9292000D01*
X13900000Y-9242000D01*
X13850000Y-9292000D01*
X13900000Y-9342000D01*
X13900000Y-9596000D02*
X13950000Y-9546000D01*
X13900000Y-9496000D01*
X13850000Y-9546000D01*
X13900000Y-9596000D01*
X13900000Y-9850000D02*
X13950000Y-9800000D01*
X13900000Y-9750000D01*
X13850000Y-9800000D01*
X13900000Y-9850000D01*
X6248400Y-11022800D02*
X6298400Y-10972800D01*
X6248400Y-10922800D01*
X6198400Y-10972800D01*
X6248400Y-11022800D01*
X6248400Y-11276800D02*
X6298400Y-11226800D01*
X6248400Y-11176800D01*
X6198400Y-11226800D01*
X6248400Y-11276800D01*
X6502400Y-11022800D02*
X6552400Y-10972800D01*
X6502400Y-10922800D01*
X6452400Y-10972800D01*
X6502400Y-11022800D01*
X6502400Y-11276800D02*
X6552400Y-11226800D01*
X6502400Y-11176800D01*
X6452400Y-11226800D01*
X6502400Y-11276800D01*
X5745000Y-7195000D02*
X5855000Y-7305000D01*
X5855000Y-7195000D02*
X5745000Y-7305000D01*
X5855000Y-7250000D02*
G75*
G03X5855000Y-7250000I-55000J0D01*
G01*
X5745000Y-7645000D02*
X5855000Y-7755000D01*
X5855000Y-7645000D02*
X5745000Y-7755000D01*
X5855000Y-7700000D02*
G75*
G03X5855000Y-7700000I-55000J0D01*
G01*
X6395000Y-7195000D02*
X6505000Y-7305000D01*
X6505000Y-7195000D02*
X6395000Y-7305000D01*
X6505000Y-7250000D02*
G75*
G03X6505000Y-7250000I-55000J0D01*
G01*
X6395000Y-7645000D02*
X6505000Y-7755000D01*
X6505000Y-7645000D02*
X6395000Y-7755000D01*
X6505000Y-7700000D02*
G75*
G03X6505000Y-7700000I-55000J0D01*
G01*
X4795000Y-7195000D02*
X4905000Y-7305000D01*
X4905000Y-7195000D02*
X4795000Y-7305000D01*
X4905000Y-7250000D02*
G75*
G03X4905000Y-7250000I-55000J0D01*
G01*
X4795000Y-7645000D02*
X4905000Y-7755000D01*
X4905000Y-7645000D02*
X4795000Y-7755000D01*
X4905000Y-7700000D02*
G75*
G03X4905000Y-7700000I-55000J0D01*
G01*
X5445000Y-7195000D02*
X5555000Y-7305000D01*
X5555000Y-7195000D02*
X5445000Y-7305000D01*
X5555000Y-7250000D02*
G75*
G03X5555000Y-7250000I-55000J0D01*
G01*
X5445000Y-7645000D02*
X5555000Y-7755000D01*
X5555000Y-7645000D02*
X5445000Y-7755000D01*
X5555000Y-7700000D02*
G75*
G03X5555000Y-7700000I-55000J0D01*
G01*
X6695000Y-7195000D02*
X6805000Y-7305000D01*
X6805000Y-7195000D02*
X6695000Y-7305000D01*
X6805000Y-7250000D02*
G75*
G03X6805000Y-7250000I-55000J0D01*
G01*
X6695000Y-7645000D02*
X6805000Y-7755000D01*
X6805000Y-7645000D02*
X6695000Y-7755000D01*
X6805000Y-7700000D02*
G75*
G03X6805000Y-7700000I-55000J0D01*
G01*
X7345000Y-7195000D02*
X7455000Y-7305000D01*
X7455000Y-7195000D02*
X7345000Y-7305000D01*
X7455000Y-7250000D02*
G75*
G03X7455000Y-7250000I-55000J0D01*
G01*
X7345000Y-7645000D02*
X7455000Y-7755000D01*
X7455000Y-7645000D02*
X7345000Y-7755000D01*
X7455000Y-7700000D02*
G75*
G03X7455000Y-7700000I-55000J0D01*
G01*
X12940000Y-8440000D02*
X13060000Y-8560000D01*
X13060000Y-8440000D02*
X12940000Y-8560000D01*
X13000000Y-8440000D02*
X13000000Y-8560000D01*
X12940000Y-8500000D02*
X13060000Y-8500000D01*
X13194000Y-8440000D02*
X13314000Y-8560000D01*
X13314000Y-8440000D02*
X13194000Y-8560000D01*
X13254000Y-8440000D02*
X13254000Y-8560000D01*
X13194000Y-8500000D02*
X13314000Y-8500000D01*
X7970000Y-7340000D02*
X8090000Y-7460000D01*
X8090000Y-7340000D02*
X7970000Y-7460000D01*
X8030000Y-7340000D02*
X8030000Y-7460000D01*
X7970000Y-7400000D02*
X8090000Y-7400000D01*
X8224000Y-7340000D02*
X8344000Y-7460000D01*
X8344000Y-7340000D02*
X8224000Y-7460000D01*
X8284000Y-7340000D02*
X8284000Y-7460000D01*
X8224000Y-7400000D02*
X8344000Y-7400000D01*
X8478000Y-7340000D02*
X8598000Y-7460000D01*
X8598000Y-7340000D02*
X8478000Y-7460000D01*
X8538000Y-7340000D02*
X8538000Y-7460000D01*
X8478000Y-7400000D02*
X8598000Y-7400000D01*
X8732000Y-7340000D02*
X8852000Y-7460000D01*
X8852000Y-7340000D02*
X8732000Y-7460000D01*
X8792000Y-7340000D02*
X8792000Y-7460000D01*
X8732000Y-7400000D02*
X8852000Y-7400000D01*
X8986000Y-7340000D02*
X9106000Y-7460000D01*
X9106000Y-7340000D02*
X8986000Y-7460000D01*
X9046000Y-7340000D02*
X9046000Y-7460000D01*
X8986000Y-7400000D02*
X9106000Y-7400000D01*
X9240000Y-7340000D02*
X9360000Y-7460000D01*
X9360000Y-7340000D02*
X9240000Y-7460000D01*
X9300000Y-7340000D02*
X9300000Y-7460000D01*
X9240000Y-7400000D02*
X9360000Y-7400000D01*
X9640000Y-7340000D02*
X9760000Y-7460000D01*
X9760000Y-7340000D02*
X9640000Y-7460000D01*
X9700000Y-7340000D02*
X9700000Y-7460000D01*
X9640000Y-7400000D02*
X9760000Y-7400000D01*
X9894000Y-7340000D02*
X10014000Y-7460000D01*
X10014000Y-7340000D02*
X9894000Y-7460000D01*
X9954000Y-7340000D02*
X9954000Y-7460000D01*
X9894000Y-7400000D02*
X10014000Y-7400000D01*
X10148000Y-7340000D02*
X10268000Y-7460000D01*
X10268000Y-7340000D02*
X10148000Y-7460000D01*
X10208000Y-7340000D02*
X10208000Y-7460000D01*
X10148000Y-7400000D02*
X10268000Y-7400000D01*
X10402000Y-7340000D02*
X10522000Y-7460000D01*
X10522000Y-7340000D02*
X10402000Y-7460000D01*
X10462000Y-7340000D02*
X10462000Y-7460000D01*
X10402000Y-7400000D02*
X10522000Y-7400000D01*
X10656000Y-7340000D02*
X10776000Y-7460000D01*
X10776000Y-7340000D02*
X10656000Y-7460000D01*
X10716000Y-7340000D02*
X10716000Y-7460000D01*
X10656000Y-7400000D02*
X10776000Y-7400000D01*
X10910000Y-7340000D02*
X11030000Y-7460000D01*
X11030000Y-7340000D02*
X10910000Y-7460000D01*
X10970000Y-7340000D02*
X10970000Y-7460000D01*
X10910000Y-7400000D02*
X11030000Y-7400000D01*
X13165000Y-7325000D02*
X13315000Y-7475000D01*
X13315000Y-7325000D02*
X13165000Y-7475000D01*
X13293033Y-7453033D02*
X13293033Y-7346966D01*
X13186966Y-7346966D01*
X13186966Y-7453033D01*
X13293033Y-7453033D01*
X13985000Y-7325000D02*
X14135000Y-7475000D01*
X14135000Y-7325000D02*
X13985000Y-7475000D01*
X14113033Y-7453033D02*
X14113033Y-7346966D01*
X14006966Y-7346966D01*
X14006966Y-7453033D01*
X14113033Y-7453033D01*
X9315000Y-9915000D02*
X9685000Y-10285000D01*
X9685000Y-9915000D02*
X9315000Y-10285000D01*
X9500000Y-10285000D02*
X9685000Y-10100000D01*
X9500000Y-9915000D01*
X9315000Y-10100000D01*
X9500000Y-10285000D01*
X11715000Y-3915000D02*
X12085000Y-4285000D01*
X12085000Y-3915000D02*
X11715000Y-4285000D01*
X11900000Y-4285000D02*
X12085000Y-4100000D01*
X11900000Y-3915000D01*
X11715000Y-4100000D01*
X11900000Y-4285000D01*
X11715000Y-6115000D02*
X12085000Y-6485000D01*
X12085000Y-6115000D02*
X11715000Y-6485000D01*
X11900000Y-6485000D02*
X12085000Y-6300000D01*
X11900000Y-6115000D01*
X11715000Y-6300000D01*
X11900000Y-6485000D01*
X6215000Y-9915000D02*
X6585000Y-10285000D01*
X6585000Y-9915000D02*
X6215000Y-10285000D01*
X6400000Y-10285000D02*
X6585000Y-10100000D01*
X6400000Y-9915000D01*
X6215000Y-10100000D01*
X6400000Y-10285000D01*
X13015000Y-9915000D02*
X13385000Y-10285000D01*
X13385000Y-9915000D02*
X13015000Y-10285000D01*
X13200000Y-10285000D02*
X13385000Y-10100000D01*
X13200000Y-9915000D01*
X13015000Y-10100000D01*
X13200000Y-10285000D01*
X9815000Y-3715000D02*
X10185000Y-4085000D01*
X10185000Y-3715000D02*
X9815000Y-4085000D01*
X10000000Y-4085000D02*
X10185000Y-3900000D01*
X10000000Y-3715000D01*
X9815000Y-3900000D01*
X10000000Y-4085000D01*
X8815000Y-3715000D02*
X9185000Y-4085000D01*
X9185000Y-3715000D02*
X8815000Y-4085000D01*
X9000000Y-4085000D02*
X9185000Y-3900000D01*
X9000000Y-3715000D01*
X8815000Y-3900000D01*
X9000000Y-4085000D01*
X6915000Y-3915000D02*
X7285000Y-4285000D01*
X7285000Y-3915000D02*
X6915000Y-4285000D01*
X7100000Y-4285000D02*
X7285000Y-4100000D01*
X7100000Y-3915000D01*
X6915000Y-4100000D01*
X7100000Y-4285000D01*
X6915000Y-6115000D02*
X7285000Y-6485000D01*
X7285000Y-6115000D02*
X6915000Y-6485000D01*
X7100000Y-6485000D02*
X7285000Y-6300000D01*
X7100000Y-6115000D01*
X6915000Y-6300000D01*
X7100000Y-6485000D01*
X9815000Y-6215000D02*
X10185000Y-6585000D01*
X10185000Y-6215000D02*
X9815000Y-6585000D01*
X10000000Y-6585000D02*
X10185000Y-6400000D01*
X10000000Y-6215000D01*
X9815000Y-6400000D01*
X10000000Y-6585000D01*
X8815000Y-6215000D02*
X9185000Y-6585000D01*
X9185000Y-6215000D02*
X8815000Y-6585000D01*
X9000000Y-6585000D02*
X9185000Y-6400000D01*
X9000000Y-6215000D01*
X8815000Y-6400000D01*
X9000000Y-6585000D01*
D12*
X4978928Y-12473214D02*
X4978928Y-12173214D01*
X5050357Y-12173214D01*
X5093214Y-12187500D01*
X5121786Y-12216071D01*
X5136071Y-12244643D01*
X5150357Y-12301786D01*
X5150357Y-12344643D01*
X5136071Y-12401786D01*
X5121786Y-12430357D01*
X5093214Y-12458929D01*
X5050357Y-12473214D01*
X4978928Y-12473214D01*
X5278928Y-12473214D02*
X5278928Y-12273214D01*
X5278928Y-12330357D02*
X5293214Y-12301786D01*
X5307500Y-12287500D01*
X5336071Y-12273214D01*
X5364643Y-12273214D01*
X5464643Y-12473214D02*
X5464643Y-12273214D01*
X5464643Y-12173214D02*
X5450357Y-12187500D01*
X5464643Y-12201786D01*
X5478928Y-12187500D01*
X5464643Y-12173214D01*
X5464643Y-12201786D01*
X5650357Y-12473214D02*
X5621786Y-12458929D01*
X5607500Y-12430357D01*
X5607500Y-12173214D01*
X5807500Y-12473214D02*
X5778928Y-12458929D01*
X5764643Y-12430357D01*
X5764643Y-12173214D01*
X6150357Y-12473214D02*
X6150357Y-12173214D01*
X6250357Y-12387500D01*
X6350357Y-12173214D01*
X6350357Y-12473214D01*
X6621786Y-12473214D02*
X6621786Y-12316071D01*
X6607500Y-12287500D01*
X6578928Y-12273214D01*
X6521786Y-12273214D01*
X6493214Y-12287500D01*
X6621786Y-12458929D02*
X6593214Y-12473214D01*
X6521786Y-12473214D01*
X6493214Y-12458929D01*
X6478928Y-12430357D01*
X6478928Y-12401786D01*
X6493214Y-12373214D01*
X6521786Y-12358929D01*
X6593214Y-12358929D01*
X6621786Y-12344643D01*
X6764643Y-12273214D02*
X6764643Y-12573214D01*
X6764643Y-12287500D02*
X6793214Y-12273214D01*
X6850357Y-12273214D01*
X6878928Y-12287500D01*
X6893214Y-12301786D01*
X6907500Y-12330357D01*
X6907500Y-12416071D01*
X6893214Y-12444643D01*
X6878928Y-12458929D01*
X6850357Y-12473214D01*
X6793214Y-12473214D01*
X6764643Y-12458929D01*
X7036071Y-12444643D02*
X7050357Y-12458929D01*
X7036071Y-12473214D01*
X7021786Y-12458929D01*
X7036071Y-12444643D01*
X7036071Y-12473214D01*
X7036071Y-12287500D02*
X7050357Y-12301786D01*
X7036071Y-12316071D01*
X7021786Y-12301786D01*
X7036071Y-12287500D01*
X7036071Y-12316071D01*
X4652500Y-12947500D02*
X4692500Y-12987500D01*
X4692500Y-12947500D02*
X4652500Y-12987500D01*
X5036071Y-12803214D02*
X5064643Y-12803214D01*
X5093214Y-12817500D01*
X5107500Y-12831786D01*
X5121786Y-12860357D01*
X5136071Y-12917500D01*
X5136071Y-12988929D01*
X5121786Y-13046071D01*
X5107500Y-13074643D01*
X5093214Y-13088929D01*
X5064643Y-13103214D01*
X5036071Y-13103214D01*
X5007500Y-13088929D01*
X4993214Y-13074643D01*
X4978928Y-13046071D01*
X4964643Y-12988929D01*
X4964643Y-12917500D01*
X4978928Y-12860357D01*
X4993214Y-12831786D01*
X5007500Y-12817500D01*
X5036071Y-12803214D01*
X5264643Y-13074643D02*
X5278928Y-13088929D01*
X5264643Y-13103214D01*
X5250357Y-13088929D01*
X5264643Y-13074643D01*
X5264643Y-13103214D01*
X5536071Y-12903214D02*
X5536071Y-13103214D01*
X5464643Y-12788929D02*
X5393214Y-13003214D01*
X5578928Y-13003214D01*
X5750357Y-12803214D02*
X5778928Y-12803214D01*
X5807500Y-12817500D01*
X5821786Y-12831786D01*
X5836071Y-12860357D01*
X5850357Y-12917500D01*
X5850357Y-12988929D01*
X5836071Y-13046071D01*
X5821786Y-13074643D01*
X5807500Y-13088929D01*
X5778928Y-13103214D01*
X5750357Y-13103214D01*
X5721786Y-13088929D01*
X5707500Y-13074643D01*
X5693214Y-13046071D01*
X5678928Y-12988929D01*
X5678928Y-12917500D01*
X5693214Y-12860357D01*
X5707500Y-12831786D01*
X5721786Y-12817500D01*
X5750357Y-12803214D01*
X5978928Y-13103214D02*
X5978928Y-12903214D01*
X5978928Y-12931786D02*
X5993214Y-12917500D01*
X6021786Y-12903214D01*
X6064643Y-12903214D01*
X6093214Y-12917500D01*
X6107500Y-12946071D01*
X6107500Y-13103214D01*
X6107500Y-12946071D02*
X6121786Y-12917500D01*
X6150357Y-12903214D01*
X6193214Y-12903214D01*
X6221786Y-12917500D01*
X6236071Y-12946071D01*
X6236071Y-13103214D01*
X6378928Y-13103214D02*
X6378928Y-12903214D01*
X6378928Y-12931786D02*
X6393214Y-12917500D01*
X6421786Y-12903214D01*
X6464643Y-12903214D01*
X6493214Y-12917500D01*
X6507500Y-12946071D01*
X6507500Y-13103214D01*
X6507500Y-12946071D02*
X6521786Y-12917500D01*
X6550357Y-12903214D01*
X6593214Y-12903214D01*
X6621786Y-12917500D01*
X6636071Y-12946071D01*
X6636071Y-13103214D01*
X7221786Y-12788929D02*
X6964643Y-13174643D01*
X7607500Y-12803214D02*
X7636071Y-12803214D01*
X7664643Y-12817500D01*
X7678928Y-12831786D01*
X7693214Y-12860357D01*
X7707500Y-12917500D01*
X7707500Y-12988929D01*
X7693214Y-13046071D01*
X7678928Y-13074643D01*
X7664643Y-13088929D01*
X7636071Y-13103214D01*
X7607500Y-13103214D01*
X7578928Y-13088929D01*
X7564643Y-13074643D01*
X7550357Y-13046071D01*
X7536071Y-12988929D01*
X7536071Y-12917500D01*
X7550357Y-12860357D01*
X7564643Y-12831786D01*
X7578928Y-12817500D01*
X7607500Y-12803214D01*
X7836071Y-13074643D02*
X7850357Y-13088929D01*
X7836071Y-13103214D01*
X7821786Y-13088929D01*
X7836071Y-13074643D01*
X7836071Y-13103214D01*
X8036071Y-12803214D02*
X8064643Y-12803214D01*
X8093214Y-12817500D01*
X8107500Y-12831786D01*
X8121786Y-12860357D01*
X8136071Y-12917500D01*
X8136071Y-12988929D01*
X8121786Y-13046071D01*
X8107500Y-13074643D01*
X8093214Y-13088929D01*
X8064643Y-13103214D01*
X8036071Y-13103214D01*
X8007500Y-13088929D01*
X7993214Y-13074643D01*
X7978928Y-13046071D01*
X7964643Y-12988929D01*
X7964643Y-12917500D01*
X7978928Y-12860357D01*
X7993214Y-12831786D01*
X8007500Y-12817500D01*
X8036071Y-12803214D01*
X8421786Y-13103214D02*
X8250357Y-13103214D01*
X8336071Y-13103214D02*
X8336071Y-12803214D01*
X8307500Y-12846071D01*
X8278928Y-12874643D01*
X8250357Y-12888929D01*
X8678928Y-12803214D02*
X8621786Y-12803214D01*
X8593214Y-12817500D01*
X8578928Y-12831786D01*
X8550357Y-12874643D01*
X8536071Y-12931786D01*
X8536071Y-13046071D01*
X8550357Y-13074643D01*
X8564643Y-13088929D01*
X8593214Y-13103214D01*
X8650357Y-13103214D01*
X8678928Y-13088929D01*
X8693214Y-13074643D01*
X8707500Y-13046071D01*
X8707500Y-12974643D01*
X8693214Y-12946071D01*
X8678928Y-12931786D01*
X8650357Y-12917500D01*
X8593214Y-12917500D01*
X8564643Y-12931786D01*
X8550357Y-12946071D01*
X8536071Y-12974643D01*
X8821786Y-12803214D02*
X8821786Y-12860357D01*
X8936071Y-12803214D02*
X8936071Y-12860357D01*
X9378928Y-13217500D02*
X9364643Y-13203214D01*
X9336071Y-13160357D01*
X9321786Y-13131786D01*
X9307500Y-13088929D01*
X9293214Y-13017500D01*
X9293214Y-12960357D01*
X9307500Y-12888929D01*
X9321786Y-12846071D01*
X9336071Y-12817500D01*
X9364643Y-12774643D01*
X9378928Y-12760357D01*
X9478928Y-12831786D02*
X9493214Y-12817500D01*
X9521786Y-12803214D01*
X9593214Y-12803214D01*
X9621786Y-12817500D01*
X9636071Y-12831786D01*
X9650357Y-12860357D01*
X9650357Y-12888929D01*
X9636071Y-12931786D01*
X9464643Y-13103214D01*
X9650357Y-13103214D01*
X9764643Y-12831786D02*
X9778928Y-12817500D01*
X9807500Y-12803214D01*
X9878928Y-12803214D01*
X9907500Y-12817500D01*
X9921786Y-12831786D01*
X9936071Y-12860357D01*
X9936071Y-12888929D01*
X9921786Y-12931786D01*
X9750357Y-13103214D01*
X9936071Y-13103214D01*
X10293214Y-13103214D02*
X10293214Y-12803214D01*
X10421786Y-13103214D02*
X10421786Y-12946071D01*
X10407500Y-12917500D01*
X10378928Y-12903214D01*
X10336071Y-12903214D01*
X10307500Y-12917500D01*
X10293214Y-12931786D01*
X10607500Y-13103214D02*
X10578928Y-13088929D01*
X10564643Y-13074643D01*
X10550357Y-13046071D01*
X10550357Y-12960357D01*
X10564643Y-12931786D01*
X10578928Y-12917500D01*
X10607500Y-12903214D01*
X10650357Y-12903214D01*
X10678928Y-12917500D01*
X10693214Y-12931786D01*
X10707500Y-12960357D01*
X10707500Y-13046071D01*
X10693214Y-13074643D01*
X10678928Y-13088929D01*
X10650357Y-13103214D01*
X10607500Y-13103214D01*
X10878928Y-13103214D02*
X10850357Y-13088929D01*
X10836071Y-13060357D01*
X10836071Y-12803214D01*
X11107500Y-13088929D02*
X11078928Y-13103214D01*
X11021786Y-13103214D01*
X10993214Y-13088929D01*
X10978928Y-13060357D01*
X10978928Y-12946071D01*
X10993214Y-12917500D01*
X11021786Y-12903214D01*
X11078928Y-12903214D01*
X11107500Y-12917500D01*
X11121786Y-12946071D01*
X11121786Y-12974643D01*
X10978928Y-13003214D01*
X11236071Y-13088929D02*
X11264643Y-13103214D01*
X11321786Y-13103214D01*
X11350357Y-13088929D01*
X11364643Y-13060357D01*
X11364643Y-13046071D01*
X11350357Y-13017500D01*
X11321786Y-13003214D01*
X11278928Y-13003214D01*
X11250357Y-12988929D01*
X11236071Y-12960357D01*
X11236071Y-12946071D01*
X11250357Y-12917500D01*
X11278928Y-12903214D01*
X11321786Y-12903214D01*
X11350357Y-12917500D01*
X11464643Y-13217500D02*
X11478928Y-13203214D01*
X11507500Y-13160357D01*
X11521786Y-13131786D01*
X11536071Y-13088929D01*
X11550357Y-13017500D01*
X11550357Y-12960357D01*
X11536071Y-12888929D01*
X11521786Y-12846071D01*
X11507500Y-12817500D01*
X11478928Y-12774643D01*
X11464643Y-12760357D01*
X4692500Y-13363500D02*
G75*
G03X4692500Y-13363500I-40000J0D01*
G01*
X5036071Y-13199214D02*
X5064643Y-13199214D01*
X5093214Y-13213500D01*
X5107500Y-13227786D01*
X5121786Y-13256357D01*
X5136071Y-13313500D01*
X5136071Y-13384929D01*
X5121786Y-13442071D01*
X5107500Y-13470643D01*
X5093214Y-13484929D01*
X5064643Y-13499214D01*
X5036071Y-13499214D01*
X5007500Y-13484929D01*
X4993214Y-13470643D01*
X4978928Y-13442071D01*
X4964643Y-13384929D01*
X4964643Y-13313500D01*
X4978928Y-13256357D01*
X4993214Y-13227786D01*
X5007500Y-13213500D01*
X5036071Y-13199214D01*
X5264643Y-13470643D02*
X5278928Y-13484929D01*
X5264643Y-13499214D01*
X5250357Y-13484929D01*
X5264643Y-13470643D01*
X5264643Y-13499214D01*
X5450357Y-13327786D02*
X5421786Y-13313500D01*
X5407500Y-13299214D01*
X5393214Y-13270643D01*
X5393214Y-13256357D01*
X5407500Y-13227786D01*
X5421786Y-13213500D01*
X5450357Y-13199214D01*
X5507500Y-13199214D01*
X5536071Y-13213500D01*
X5550357Y-13227786D01*
X5564643Y-13256357D01*
X5564643Y-13270643D01*
X5550357Y-13299214D01*
X5536071Y-13313500D01*
X5507500Y-13327786D01*
X5450357Y-13327786D01*
X5421786Y-13342071D01*
X5407500Y-13356357D01*
X5393214Y-13384929D01*
X5393214Y-13442071D01*
X5407500Y-13470643D01*
X5421786Y-13484929D01*
X5450357Y-13499214D01*
X5507500Y-13499214D01*
X5536071Y-13484929D01*
X5550357Y-13470643D01*
X5564643Y-13442071D01*
X5564643Y-13384929D01*
X5550357Y-13356357D01*
X5536071Y-13342071D01*
X5507500Y-13327786D01*
X5750357Y-13199214D02*
X5778928Y-13199214D01*
X5807500Y-13213500D01*
X5821786Y-13227786D01*
X5836071Y-13256357D01*
X5850357Y-13313500D01*
X5850357Y-13384929D01*
X5836071Y-13442071D01*
X5821786Y-13470643D01*
X5807500Y-13484929D01*
X5778928Y-13499214D01*
X5750357Y-13499214D01*
X5721786Y-13484929D01*
X5707500Y-13470643D01*
X5693214Y-13442071D01*
X5678928Y-13384929D01*
X5678928Y-13313500D01*
X5693214Y-13256357D01*
X5707500Y-13227786D01*
X5721786Y-13213500D01*
X5750357Y-13199214D01*
X5978928Y-13499214D02*
X5978928Y-13299214D01*
X5978928Y-13327786D02*
X5993214Y-13313500D01*
X6021786Y-13299214D01*
X6064643Y-13299214D01*
X6093214Y-13313500D01*
X6107500Y-13342071D01*
X6107500Y-13499214D01*
X6107500Y-13342071D02*
X6121786Y-13313500D01*
X6150357Y-13299214D01*
X6193214Y-13299214D01*
X6221786Y-13313500D01*
X6236071Y-13342071D01*
X6236071Y-13499214D01*
X6378928Y-13499214D02*
X6378928Y-13299214D01*
X6378928Y-13327786D02*
X6393214Y-13313500D01*
X6421786Y-13299214D01*
X6464643Y-13299214D01*
X6493214Y-13313500D01*
X6507500Y-13342071D01*
X6507500Y-13499214D01*
X6507500Y-13342071D02*
X6521786Y-13313500D01*
X6550357Y-13299214D01*
X6593214Y-13299214D01*
X6621786Y-13313500D01*
X6636071Y-13342071D01*
X6636071Y-13499214D01*
X7221786Y-13184929D02*
X6964643Y-13570643D01*
X7607500Y-13199214D02*
X7636071Y-13199214D01*
X7664643Y-13213500D01*
X7678928Y-13227786D01*
X7693214Y-13256357D01*
X7707500Y-13313500D01*
X7707500Y-13384929D01*
X7693214Y-13442071D01*
X7678928Y-13470643D01*
X7664643Y-13484929D01*
X7636071Y-13499214D01*
X7607500Y-13499214D01*
X7578928Y-13484929D01*
X7564643Y-13470643D01*
X7550357Y-13442071D01*
X7536071Y-13384929D01*
X7536071Y-13313500D01*
X7550357Y-13256357D01*
X7564643Y-13227786D01*
X7578928Y-13213500D01*
X7607500Y-13199214D01*
X7836071Y-13470643D02*
X7850357Y-13484929D01*
X7836071Y-13499214D01*
X7821786Y-13484929D01*
X7836071Y-13470643D01*
X7836071Y-13499214D01*
X8036071Y-13199214D02*
X8064643Y-13199214D01*
X8093214Y-13213500D01*
X8107500Y-13227786D01*
X8121786Y-13256357D01*
X8136071Y-13313500D01*
X8136071Y-13384929D01*
X8121786Y-13442071D01*
X8107500Y-13470643D01*
X8093214Y-13484929D01*
X8064643Y-13499214D01*
X8036071Y-13499214D01*
X8007500Y-13484929D01*
X7993214Y-13470643D01*
X7978928Y-13442071D01*
X7964643Y-13384929D01*
X7964643Y-13313500D01*
X7978928Y-13256357D01*
X7993214Y-13227786D01*
X8007500Y-13213500D01*
X8036071Y-13199214D01*
X8236071Y-13199214D02*
X8421786Y-13199214D01*
X8321786Y-13313500D01*
X8364643Y-13313500D01*
X8393214Y-13327786D01*
X8407500Y-13342071D01*
X8421786Y-13370643D01*
X8421786Y-13442071D01*
X8407500Y-13470643D01*
X8393214Y-13484929D01*
X8364643Y-13499214D01*
X8278928Y-13499214D01*
X8250357Y-13484929D01*
X8236071Y-13470643D01*
X8707500Y-13499214D02*
X8536071Y-13499214D01*
X8621786Y-13499214D02*
X8621786Y-13199214D01*
X8593214Y-13242071D01*
X8564643Y-13270643D01*
X8536071Y-13284929D01*
X8821786Y-13199214D02*
X8821786Y-13256357D01*
X8936071Y-13199214D02*
X8936071Y-13256357D01*
X9378928Y-13613500D02*
X9364643Y-13599214D01*
X9336071Y-13556357D01*
X9321786Y-13527786D01*
X9307500Y-13484929D01*
X9293214Y-13413500D01*
X9293214Y-13356357D01*
X9307500Y-13284929D01*
X9321786Y-13242071D01*
X9336071Y-13213500D01*
X9364643Y-13170643D01*
X9378928Y-13156357D01*
X9464643Y-13199214D02*
X9650357Y-13199214D01*
X9550357Y-13313500D01*
X9593214Y-13313500D01*
X9621786Y-13327786D01*
X9636071Y-13342071D01*
X9650357Y-13370643D01*
X9650357Y-13442071D01*
X9636071Y-13470643D01*
X9621786Y-13484929D01*
X9593214Y-13499214D01*
X9507500Y-13499214D01*
X9478928Y-13484929D01*
X9464643Y-13470643D01*
X9764643Y-13227786D02*
X9778928Y-13213500D01*
X9807500Y-13199214D01*
X9878928Y-13199214D01*
X9907500Y-13213500D01*
X9921786Y-13227786D01*
X9936071Y-13256357D01*
X9936071Y-13284929D01*
X9921786Y-13327786D01*
X9750357Y-13499214D01*
X9936071Y-13499214D01*
X10293214Y-13499214D02*
X10293214Y-13199214D01*
X10421786Y-13499214D02*
X10421786Y-13342071D01*
X10407500Y-13313500D01*
X10378928Y-13299214D01*
X10336071Y-13299214D01*
X10307500Y-13313500D01*
X10293214Y-13327786D01*
X10607500Y-13499214D02*
X10578928Y-13484929D01*
X10564643Y-13470643D01*
X10550357Y-13442071D01*
X10550357Y-13356357D01*
X10564643Y-13327786D01*
X10578928Y-13313500D01*
X10607500Y-13299214D01*
X10650357Y-13299214D01*
X10678928Y-13313500D01*
X10693214Y-13327786D01*
X10707500Y-13356357D01*
X10707500Y-13442071D01*
X10693214Y-13470643D01*
X10678928Y-13484929D01*
X10650357Y-13499214D01*
X10607500Y-13499214D01*
X10878928Y-13499214D02*
X10850357Y-13484929D01*
X10836071Y-13456357D01*
X10836071Y-13199214D01*
X11107500Y-13484929D02*
X11078928Y-13499214D01*
X11021786Y-13499214D01*
X10993214Y-13484929D01*
X10978928Y-13456357D01*
X10978928Y-13342071D01*
X10993214Y-13313500D01*
X11021786Y-13299214D01*
X11078928Y-13299214D01*
X11107500Y-13313500D01*
X11121786Y-13342071D01*
X11121786Y-13370643D01*
X10978928Y-13399214D01*
X11236071Y-13484929D02*
X11264643Y-13499214D01*
X11321786Y-13499214D01*
X11350357Y-13484929D01*
X11364643Y-13456357D01*
X11364643Y-13442071D01*
X11350357Y-13413500D01*
X11321786Y-13399214D01*
X11278928Y-13399214D01*
X11250357Y-13384929D01*
X11236071Y-13356357D01*
X11236071Y-13342071D01*
X11250357Y-13313500D01*
X11278928Y-13299214D01*
X11321786Y-13299214D01*
X11350357Y-13313500D01*
X11464643Y-13613500D02*
X11478928Y-13599214D01*
X11507500Y-13556357D01*
X11521786Y-13527786D01*
X11536071Y-13484929D01*
X11550357Y-13413500D01*
X11550357Y-13356357D01*
X11536071Y-13284929D01*
X11521786Y-13242071D01*
X11507500Y-13213500D01*
X11478928Y-13170643D01*
X11464643Y-13156357D01*
X4652495Y-13719495D02*
X4652495Y-13799505D01*
X4612490Y-13759500D02*
X4692500Y-13759500D01*
X5036071Y-13595214D02*
X5064643Y-13595214D01*
X5093214Y-13609500D01*
X5107500Y-13623786D01*
X5121786Y-13652357D01*
X5136071Y-13709500D01*
X5136071Y-13780929D01*
X5121786Y-13838071D01*
X5107500Y-13866643D01*
X5093214Y-13880929D01*
X5064643Y-13895214D01*
X5036071Y-13895214D01*
X5007500Y-13880929D01*
X4993214Y-13866643D01*
X4978928Y-13838071D01*
X4964643Y-13780929D01*
X4964643Y-13709500D01*
X4978928Y-13652357D01*
X4993214Y-13623786D01*
X5007500Y-13609500D01*
X5036071Y-13595214D01*
X5264643Y-13866643D02*
X5278928Y-13880929D01*
X5264643Y-13895214D01*
X5250357Y-13880929D01*
X5264643Y-13866643D01*
X5264643Y-13895214D01*
X5450357Y-13723786D02*
X5421786Y-13709500D01*
X5407500Y-13695214D01*
X5393214Y-13666643D01*
X5393214Y-13652357D01*
X5407500Y-13623786D01*
X5421786Y-13609500D01*
X5450357Y-13595214D01*
X5507500Y-13595214D01*
X5536071Y-13609500D01*
X5550357Y-13623786D01*
X5564643Y-13652357D01*
X5564643Y-13666643D01*
X5550357Y-13695214D01*
X5536071Y-13709500D01*
X5507500Y-13723786D01*
X5450357Y-13723786D01*
X5421786Y-13738071D01*
X5407500Y-13752357D01*
X5393214Y-13780929D01*
X5393214Y-13838071D01*
X5407500Y-13866643D01*
X5421786Y-13880929D01*
X5450357Y-13895214D01*
X5507500Y-13895214D01*
X5536071Y-13880929D01*
X5550357Y-13866643D01*
X5564643Y-13838071D01*
X5564643Y-13780929D01*
X5550357Y-13752357D01*
X5536071Y-13738071D01*
X5507500Y-13723786D01*
X5750357Y-13595214D02*
X5778928Y-13595214D01*
X5807500Y-13609500D01*
X5821786Y-13623786D01*
X5836071Y-13652357D01*
X5850357Y-13709500D01*
X5850357Y-13780929D01*
X5836071Y-13838071D01*
X5821786Y-13866643D01*
X5807500Y-13880929D01*
X5778928Y-13895214D01*
X5750357Y-13895214D01*
X5721786Y-13880929D01*
X5707500Y-13866643D01*
X5693214Y-13838071D01*
X5678928Y-13780929D01*
X5678928Y-13709500D01*
X5693214Y-13652357D01*
X5707500Y-13623786D01*
X5721786Y-13609500D01*
X5750357Y-13595214D01*
X5978928Y-13895214D02*
X5978928Y-13695214D01*
X5978928Y-13723786D02*
X5993214Y-13709500D01*
X6021786Y-13695214D01*
X6064643Y-13695214D01*
X6093214Y-13709500D01*
X6107500Y-13738071D01*
X6107500Y-13895214D01*
X6107500Y-13738071D02*
X6121786Y-13709500D01*
X6150357Y-13695214D01*
X6193214Y-13695214D01*
X6221786Y-13709500D01*
X6236071Y-13738071D01*
X6236071Y-13895214D01*
X6378928Y-13895214D02*
X6378928Y-13695214D01*
X6378928Y-13723786D02*
X6393214Y-13709500D01*
X6421786Y-13695214D01*
X6464643Y-13695214D01*
X6493214Y-13709500D01*
X6507500Y-13738071D01*
X6507500Y-13895214D01*
X6507500Y-13738071D02*
X6521786Y-13709500D01*
X6550357Y-13695214D01*
X6593214Y-13695214D01*
X6621786Y-13709500D01*
X6636071Y-13738071D01*
X6636071Y-13895214D01*
X7221786Y-13580929D02*
X6964643Y-13966643D01*
X7607500Y-13595214D02*
X7636071Y-13595214D01*
X7664643Y-13609500D01*
X7678928Y-13623786D01*
X7693214Y-13652357D01*
X7707500Y-13709500D01*
X7707500Y-13780929D01*
X7693214Y-13838071D01*
X7678928Y-13866643D01*
X7664643Y-13880929D01*
X7636071Y-13895214D01*
X7607500Y-13895214D01*
X7578928Y-13880929D01*
X7564643Y-13866643D01*
X7550357Y-13838071D01*
X7536071Y-13780929D01*
X7536071Y-13709500D01*
X7550357Y-13652357D01*
X7564643Y-13623786D01*
X7578928Y-13609500D01*
X7607500Y-13595214D01*
X7836071Y-13866643D02*
X7850357Y-13880929D01*
X7836071Y-13895214D01*
X7821786Y-13880929D01*
X7836071Y-13866643D01*
X7836071Y-13895214D01*
X8036071Y-13595214D02*
X8064643Y-13595214D01*
X8093214Y-13609500D01*
X8107500Y-13623786D01*
X8121786Y-13652357D01*
X8136071Y-13709500D01*
X8136071Y-13780929D01*
X8121786Y-13838071D01*
X8107500Y-13866643D01*
X8093214Y-13880929D01*
X8064643Y-13895214D01*
X8036071Y-13895214D01*
X8007500Y-13880929D01*
X7993214Y-13866643D01*
X7978928Y-13838071D01*
X7964643Y-13780929D01*
X7964643Y-13709500D01*
X7978928Y-13652357D01*
X7993214Y-13623786D01*
X8007500Y-13609500D01*
X8036071Y-13595214D01*
X8236071Y-13595214D02*
X8421786Y-13595214D01*
X8321786Y-13709500D01*
X8364643Y-13709500D01*
X8393214Y-13723786D01*
X8407500Y-13738071D01*
X8421786Y-13766643D01*
X8421786Y-13838071D01*
X8407500Y-13866643D01*
X8393214Y-13880929D01*
X8364643Y-13895214D01*
X8278928Y-13895214D01*
X8250357Y-13880929D01*
X8236071Y-13866643D01*
X8536071Y-13623786D02*
X8550357Y-13609500D01*
X8578928Y-13595214D01*
X8650357Y-13595214D01*
X8678928Y-13609500D01*
X8693214Y-13623786D01*
X8707500Y-13652357D01*
X8707500Y-13680929D01*
X8693214Y-13723786D01*
X8521786Y-13895214D01*
X8707500Y-13895214D01*
X8821786Y-13595214D02*
X8821786Y-13652357D01*
X8936071Y-13595214D02*
X8936071Y-13652357D01*
X9378928Y-14009500D02*
X9364643Y-13995214D01*
X9336071Y-13952357D01*
X9321786Y-13923786D01*
X9307500Y-13880929D01*
X9293214Y-13809500D01*
X9293214Y-13752357D01*
X9307500Y-13680929D01*
X9321786Y-13638071D01*
X9336071Y-13609500D01*
X9364643Y-13566643D01*
X9378928Y-13552357D01*
X9464643Y-13595214D02*
X9650357Y-13595214D01*
X9550357Y-13709500D01*
X9593214Y-13709500D01*
X9621786Y-13723786D01*
X9636071Y-13738071D01*
X9650357Y-13766643D01*
X9650357Y-13838071D01*
X9636071Y-13866643D01*
X9621786Y-13880929D01*
X9593214Y-13895214D01*
X9507500Y-13895214D01*
X9478928Y-13880929D01*
X9464643Y-13866643D01*
X9936071Y-13895214D02*
X9764643Y-13895214D01*
X9850357Y-13895214D02*
X9850357Y-13595214D01*
X9821786Y-13638071D01*
X9793214Y-13666643D01*
X9764643Y-13680929D01*
X10293214Y-13895214D02*
X10293214Y-13595214D01*
X10421786Y-13895214D02*
X10421786Y-13738071D01*
X10407500Y-13709500D01*
X10378928Y-13695214D01*
X10336071Y-13695214D01*
X10307500Y-13709500D01*
X10293214Y-13723786D01*
X10607500Y-13895214D02*
X10578928Y-13880929D01*
X10564643Y-13866643D01*
X10550357Y-13838071D01*
X10550357Y-13752357D01*
X10564643Y-13723786D01*
X10578928Y-13709500D01*
X10607500Y-13695214D01*
X10650357Y-13695214D01*
X10678928Y-13709500D01*
X10693214Y-13723786D01*
X10707500Y-13752357D01*
X10707500Y-13838071D01*
X10693214Y-13866643D01*
X10678928Y-13880929D01*
X10650357Y-13895214D01*
X10607500Y-13895214D01*
X10878928Y-13895214D02*
X10850357Y-13880929D01*
X10836071Y-13852357D01*
X10836071Y-13595214D01*
X11107500Y-13880929D02*
X11078928Y-13895214D01*
X11021786Y-13895214D01*
X10993214Y-13880929D01*
X10978928Y-13852357D01*
X10978928Y-13738071D01*
X10993214Y-13709500D01*
X11021786Y-13695214D01*
X11078928Y-13695214D01*
X11107500Y-13709500D01*
X11121786Y-13738071D01*
X11121786Y-13766643D01*
X10978928Y-13795214D01*
X11236071Y-13880929D02*
X11264643Y-13895214D01*
X11321786Y-13895214D01*
X11350357Y-13880929D01*
X11364643Y-13852357D01*
X11364643Y-13838071D01*
X11350357Y-13809500D01*
X11321786Y-13795214D01*
X11278928Y-13795214D01*
X11250357Y-13780929D01*
X11236071Y-13752357D01*
X11236071Y-13738071D01*
X11250357Y-13709500D01*
X11278928Y-13695214D01*
X11321786Y-13695214D01*
X11350357Y-13709500D01*
X11464643Y-14009500D02*
X11478928Y-13995214D01*
X11507500Y-13952357D01*
X11521786Y-13923786D01*
X11536071Y-13880929D01*
X11550357Y-13809500D01*
X11550357Y-13752357D01*
X11536071Y-13680929D01*
X11521786Y-13638071D01*
X11507500Y-13609500D01*
X11478928Y-13566643D01*
X11464643Y-13552357D01*
X4679320Y-14187320D02*
X4679320Y-14123680D01*
X4615680Y-14123680D01*
X4615680Y-14187320D01*
X4679320Y-14187320D01*
X5036071Y-13991214D02*
X5064643Y-13991214D01*
X5093214Y-14005500D01*
X5107500Y-14019786D01*
X5121786Y-14048357D01*
X5136071Y-14105500D01*
X5136071Y-14176929D01*
X5121786Y-14234071D01*
X5107500Y-14262643D01*
X5093214Y-14276929D01*
X5064643Y-14291214D01*
X5036071Y-14291214D01*
X5007500Y-14276929D01*
X4993214Y-14262643D01*
X4978928Y-14234071D01*
X4964643Y-14176929D01*
X4964643Y-14105500D01*
X4978928Y-14048357D01*
X4993214Y-14019786D01*
X5007500Y-14005500D01*
X5036071Y-13991214D01*
X5264643Y-14262643D02*
X5278928Y-14276929D01*
X5264643Y-14291214D01*
X5250357Y-14276929D01*
X5264643Y-14262643D01*
X5264643Y-14291214D01*
X5421786Y-14291214D02*
X5478928Y-14291214D01*
X5507500Y-14276929D01*
X5521786Y-14262643D01*
X5550357Y-14219786D01*
X5564643Y-14162643D01*
X5564643Y-14048357D01*
X5550357Y-14019786D01*
X5536071Y-14005500D01*
X5507500Y-13991214D01*
X5450357Y-13991214D01*
X5421786Y-14005500D01*
X5407500Y-14019786D01*
X5393214Y-14048357D01*
X5393214Y-14119786D01*
X5407500Y-14148357D01*
X5421786Y-14162643D01*
X5450357Y-14176929D01*
X5507500Y-14176929D01*
X5536071Y-14162643D01*
X5550357Y-14148357D01*
X5564643Y-14119786D01*
X5750357Y-13991214D02*
X5778928Y-13991214D01*
X5807500Y-14005500D01*
X5821786Y-14019786D01*
X5836071Y-14048357D01*
X5850357Y-14105500D01*
X5850357Y-14176929D01*
X5836071Y-14234071D01*
X5821786Y-14262643D01*
X5807500Y-14276929D01*
X5778928Y-14291214D01*
X5750357Y-14291214D01*
X5721786Y-14276929D01*
X5707500Y-14262643D01*
X5693214Y-14234071D01*
X5678928Y-14176929D01*
X5678928Y-14105500D01*
X5693214Y-14048357D01*
X5707500Y-14019786D01*
X5721786Y-14005500D01*
X5750357Y-13991214D01*
X5978928Y-14291214D02*
X5978928Y-14091214D01*
X5978928Y-14119786D02*
X5993214Y-14105500D01*
X6021786Y-14091214D01*
X6064643Y-14091214D01*
X6093214Y-14105500D01*
X6107500Y-14134071D01*
X6107500Y-14291214D01*
X6107500Y-14134071D02*
X6121786Y-14105500D01*
X6150357Y-14091214D01*
X6193214Y-14091214D01*
X6221786Y-14105500D01*
X6236071Y-14134071D01*
X6236071Y-14291214D01*
X6378928Y-14291214D02*
X6378928Y-14091214D01*
X6378928Y-14119786D02*
X6393214Y-14105500D01*
X6421786Y-14091214D01*
X6464643Y-14091214D01*
X6493214Y-14105500D01*
X6507500Y-14134071D01*
X6507500Y-14291214D01*
X6507500Y-14134071D02*
X6521786Y-14105500D01*
X6550357Y-14091214D01*
X6593214Y-14091214D01*
X6621786Y-14105500D01*
X6636071Y-14134071D01*
X6636071Y-14291214D01*
X7221786Y-13976929D02*
X6964643Y-14362643D01*
X7607500Y-13991214D02*
X7636071Y-13991214D01*
X7664643Y-14005500D01*
X7678928Y-14019786D01*
X7693214Y-14048357D01*
X7707500Y-14105500D01*
X7707500Y-14176929D01*
X7693214Y-14234071D01*
X7678928Y-14262643D01*
X7664643Y-14276929D01*
X7636071Y-14291214D01*
X7607500Y-14291214D01*
X7578928Y-14276929D01*
X7564643Y-14262643D01*
X7550357Y-14234071D01*
X7536071Y-14176929D01*
X7536071Y-14105500D01*
X7550357Y-14048357D01*
X7564643Y-14019786D01*
X7578928Y-14005500D01*
X7607500Y-13991214D01*
X7836071Y-14262643D02*
X7850357Y-14276929D01*
X7836071Y-14291214D01*
X7821786Y-14276929D01*
X7836071Y-14262643D01*
X7836071Y-14291214D01*
X8036071Y-13991214D02*
X8064643Y-13991214D01*
X8093214Y-14005500D01*
X8107500Y-14019786D01*
X8121786Y-14048357D01*
X8136071Y-14105500D01*
X8136071Y-14176929D01*
X8121786Y-14234071D01*
X8107500Y-14262643D01*
X8093214Y-14276929D01*
X8064643Y-14291214D01*
X8036071Y-14291214D01*
X8007500Y-14276929D01*
X7993214Y-14262643D01*
X7978928Y-14234071D01*
X7964643Y-14176929D01*
X7964643Y-14105500D01*
X7978928Y-14048357D01*
X7993214Y-14019786D01*
X8007500Y-14005500D01*
X8036071Y-13991214D01*
X8236071Y-13991214D02*
X8421786Y-13991214D01*
X8321786Y-14105500D01*
X8364643Y-14105500D01*
X8393214Y-14119786D01*
X8407500Y-14134071D01*
X8421786Y-14162643D01*
X8421786Y-14234071D01*
X8407500Y-14262643D01*
X8393214Y-14276929D01*
X8364643Y-14291214D01*
X8278928Y-14291214D01*
X8250357Y-14276929D01*
X8236071Y-14262643D01*
X8693214Y-13991214D02*
X8550357Y-13991214D01*
X8536071Y-14134071D01*
X8550357Y-14119786D01*
X8578928Y-14105500D01*
X8650357Y-14105500D01*
X8678928Y-14119786D01*
X8693214Y-14134071D01*
X8707500Y-14162643D01*
X8707500Y-14234071D01*
X8693214Y-14262643D01*
X8678928Y-14276929D01*
X8650357Y-14291214D01*
X8578928Y-14291214D01*
X8550357Y-14276929D01*
X8536071Y-14262643D01*
X8821786Y-13991214D02*
X8821786Y-14048357D01*
X8936071Y-13991214D02*
X8936071Y-14048357D01*
X9378928Y-14405500D02*
X9364643Y-14391214D01*
X9336071Y-14348357D01*
X9321786Y-14319786D01*
X9307500Y-14276929D01*
X9293214Y-14205500D01*
X9293214Y-14148357D01*
X9307500Y-14076929D01*
X9321786Y-14034071D01*
X9336071Y-14005500D01*
X9364643Y-13962643D01*
X9378928Y-13948357D01*
X9650357Y-14291214D02*
X9478928Y-14291214D01*
X9564643Y-14291214D02*
X9564643Y-13991214D01*
X9536071Y-14034071D01*
X9507500Y-14062643D01*
X9478928Y-14076929D01*
X9936071Y-14291214D02*
X9764643Y-14291214D01*
X9850357Y-14291214D02*
X9850357Y-13991214D01*
X9821786Y-14034071D01*
X9793214Y-14062643D01*
X9764643Y-14076929D01*
X10293214Y-14291214D02*
X10293214Y-13991214D01*
X10421786Y-14291214D02*
X10421786Y-14134071D01*
X10407500Y-14105500D01*
X10378928Y-14091214D01*
X10336071Y-14091214D01*
X10307500Y-14105500D01*
X10293214Y-14119786D01*
X10607500Y-14291214D02*
X10578928Y-14276929D01*
X10564643Y-14262643D01*
X10550357Y-14234071D01*
X10550357Y-14148357D01*
X10564643Y-14119786D01*
X10578928Y-14105500D01*
X10607500Y-14091214D01*
X10650357Y-14091214D01*
X10678928Y-14105500D01*
X10693214Y-14119786D01*
X10707500Y-14148357D01*
X10707500Y-14234071D01*
X10693214Y-14262643D01*
X10678928Y-14276929D01*
X10650357Y-14291214D01*
X10607500Y-14291214D01*
X10878928Y-14291214D02*
X10850357Y-14276929D01*
X10836071Y-14248357D01*
X10836071Y-13991214D01*
X11107500Y-14276929D02*
X11078928Y-14291214D01*
X11021786Y-14291214D01*
X10993214Y-14276929D01*
X10978928Y-14248357D01*
X10978928Y-14134071D01*
X10993214Y-14105500D01*
X11021786Y-14091214D01*
X11078928Y-14091214D01*
X11107500Y-14105500D01*
X11121786Y-14134071D01*
X11121786Y-14162643D01*
X10978928Y-14191214D01*
X11236071Y-14276929D02*
X11264643Y-14291214D01*
X11321786Y-14291214D01*
X11350357Y-14276929D01*
X11364643Y-14248357D01*
X11364643Y-14234071D01*
X11350357Y-14205500D01*
X11321786Y-14191214D01*
X11278928Y-14191214D01*
X11250357Y-14176929D01*
X11236071Y-14148357D01*
X11236071Y-14134071D01*
X11250357Y-14105500D01*
X11278928Y-14091214D01*
X11321786Y-14091214D01*
X11350357Y-14105500D01*
X11464643Y-14405500D02*
X11478928Y-14391214D01*
X11507500Y-14348357D01*
X11521786Y-14319786D01*
X11536071Y-14276929D01*
X11550357Y-14205500D01*
X11550357Y-14148357D01*
X11536071Y-14076929D01*
X11521786Y-14034071D01*
X11507500Y-14005500D01*
X11478928Y-13962643D01*
X11464643Y-13948357D01*
X4642500Y-14601500D02*
X4692500Y-14551500D01*
X4642500Y-14501500D01*
X4592500Y-14551500D01*
X4642500Y-14601500D01*
X5136071Y-14687214D02*
X4964643Y-14687214D01*
X5050357Y-14687214D02*
X5050357Y-14387214D01*
X5021786Y-14430071D01*
X4993214Y-14458643D01*
X4964643Y-14472929D01*
X5264643Y-14658643D02*
X5278928Y-14672929D01*
X5264643Y-14687214D01*
X5250357Y-14672929D01*
X5264643Y-14658643D01*
X5264643Y-14687214D01*
X5464643Y-14387214D02*
X5493214Y-14387214D01*
X5521786Y-14401500D01*
X5536071Y-14415786D01*
X5550357Y-14444357D01*
X5564643Y-14501500D01*
X5564643Y-14572929D01*
X5550357Y-14630071D01*
X5536071Y-14658643D01*
X5521786Y-14672929D01*
X5493214Y-14687214D01*
X5464643Y-14687214D01*
X5436071Y-14672929D01*
X5421786Y-14658643D01*
X5407500Y-14630071D01*
X5393214Y-14572929D01*
X5393214Y-14501500D01*
X5407500Y-14444357D01*
X5421786Y-14415786D01*
X5436071Y-14401500D01*
X5464643Y-14387214D01*
X5750357Y-14387214D02*
X5778928Y-14387214D01*
X5807500Y-14401500D01*
X5821786Y-14415786D01*
X5836071Y-14444357D01*
X5850357Y-14501500D01*
X5850357Y-14572929D01*
X5836071Y-14630071D01*
X5821786Y-14658643D01*
X5807500Y-14672929D01*
X5778928Y-14687214D01*
X5750357Y-14687214D01*
X5721786Y-14672929D01*
X5707500Y-14658643D01*
X5693214Y-14630071D01*
X5678928Y-14572929D01*
X5678928Y-14501500D01*
X5693214Y-14444357D01*
X5707500Y-14415786D01*
X5721786Y-14401500D01*
X5750357Y-14387214D01*
X5978928Y-14687214D02*
X5978928Y-14487214D01*
X5978928Y-14515786D02*
X5993214Y-14501500D01*
X6021786Y-14487214D01*
X6064643Y-14487214D01*
X6093214Y-14501500D01*
X6107500Y-14530071D01*
X6107500Y-14687214D01*
X6107500Y-14530071D02*
X6121786Y-14501500D01*
X6150357Y-14487214D01*
X6193214Y-14487214D01*
X6221786Y-14501500D01*
X6236071Y-14530071D01*
X6236071Y-14687214D01*
X6378928Y-14687214D02*
X6378928Y-14487214D01*
X6378928Y-14515786D02*
X6393214Y-14501500D01*
X6421786Y-14487214D01*
X6464643Y-14487214D01*
X6493214Y-14501500D01*
X6507500Y-14530071D01*
X6507500Y-14687214D01*
X6507500Y-14530071D02*
X6521786Y-14501500D01*
X6550357Y-14487214D01*
X6593214Y-14487214D01*
X6621786Y-14501500D01*
X6636071Y-14530071D01*
X6636071Y-14687214D01*
X7221786Y-14372929D02*
X6964643Y-14758643D01*
X7607500Y-14387214D02*
X7636071Y-14387214D01*
X7664643Y-14401500D01*
X7678928Y-14415786D01*
X7693214Y-14444357D01*
X7707500Y-14501500D01*
X7707500Y-14572929D01*
X7693214Y-14630071D01*
X7678928Y-14658643D01*
X7664643Y-14672929D01*
X7636071Y-14687214D01*
X7607500Y-14687214D01*
X7578928Y-14672929D01*
X7564643Y-14658643D01*
X7550357Y-14630071D01*
X7536071Y-14572929D01*
X7536071Y-14501500D01*
X7550357Y-14444357D01*
X7564643Y-14415786D01*
X7578928Y-14401500D01*
X7607500Y-14387214D01*
X7836071Y-14658643D02*
X7850357Y-14672929D01*
X7836071Y-14687214D01*
X7821786Y-14672929D01*
X7836071Y-14658643D01*
X7836071Y-14687214D01*
X8036071Y-14387214D02*
X8064643Y-14387214D01*
X8093214Y-14401500D01*
X8107500Y-14415786D01*
X8121786Y-14444357D01*
X8136071Y-14501500D01*
X8136071Y-14572929D01*
X8121786Y-14630071D01*
X8107500Y-14658643D01*
X8093214Y-14672929D01*
X8064643Y-14687214D01*
X8036071Y-14687214D01*
X8007500Y-14672929D01*
X7993214Y-14658643D01*
X7978928Y-14630071D01*
X7964643Y-14572929D01*
X7964643Y-14501500D01*
X7978928Y-14444357D01*
X7993214Y-14415786D01*
X8007500Y-14401500D01*
X8036071Y-14387214D01*
X8236071Y-14387214D02*
X8421786Y-14387214D01*
X8321786Y-14501500D01*
X8364643Y-14501500D01*
X8393214Y-14515786D01*
X8407500Y-14530071D01*
X8421786Y-14558643D01*
X8421786Y-14630071D01*
X8407500Y-14658643D01*
X8393214Y-14672929D01*
X8364643Y-14687214D01*
X8278928Y-14687214D01*
X8250357Y-14672929D01*
X8236071Y-14658643D01*
X8564643Y-14687214D02*
X8621786Y-14687214D01*
X8650357Y-14672929D01*
X8664643Y-14658643D01*
X8693214Y-14615786D01*
X8707500Y-14558643D01*
X8707500Y-14444357D01*
X8693214Y-14415786D01*
X8678928Y-14401500D01*
X8650357Y-14387214D01*
X8593214Y-14387214D01*
X8564643Y-14401500D01*
X8550357Y-14415786D01*
X8536071Y-14444357D01*
X8536071Y-14515786D01*
X8550357Y-14544357D01*
X8564643Y-14558643D01*
X8593214Y-14572929D01*
X8650357Y-14572929D01*
X8678928Y-14558643D01*
X8693214Y-14544357D01*
X8707500Y-14515786D01*
X8821786Y-14387214D02*
X8821786Y-14444357D01*
X8936071Y-14387214D02*
X8936071Y-14444357D01*
X9378928Y-14801500D02*
X9364643Y-14787214D01*
X9336071Y-14744357D01*
X9321786Y-14715786D01*
X9307500Y-14672929D01*
X9293214Y-14601500D01*
X9293214Y-14544357D01*
X9307500Y-14472929D01*
X9321786Y-14430071D01*
X9336071Y-14401500D01*
X9364643Y-14358643D01*
X9378928Y-14344357D01*
X9621786Y-14387214D02*
X9564643Y-14387214D01*
X9536071Y-14401500D01*
X9521786Y-14415786D01*
X9493214Y-14458643D01*
X9478928Y-14515786D01*
X9478928Y-14630071D01*
X9493214Y-14658643D01*
X9507500Y-14672929D01*
X9536071Y-14687214D01*
X9593214Y-14687214D01*
X9621786Y-14672929D01*
X9636071Y-14658643D01*
X9650357Y-14630071D01*
X9650357Y-14558643D01*
X9636071Y-14530071D01*
X9621786Y-14515786D01*
X9593214Y-14501500D01*
X9536071Y-14501500D01*
X9507500Y-14515786D01*
X9493214Y-14530071D01*
X9478928Y-14558643D01*
X9821786Y-14515786D02*
X9793214Y-14501500D01*
X9778928Y-14487214D01*
X9764643Y-14458643D01*
X9764643Y-14444357D01*
X9778928Y-14415786D01*
X9793214Y-14401500D01*
X9821786Y-14387214D01*
X9878928Y-14387214D01*
X9907500Y-14401500D01*
X9921786Y-14415786D01*
X9936071Y-14444357D01*
X9936071Y-14458643D01*
X9921786Y-14487214D01*
X9907500Y-14501500D01*
X9878928Y-14515786D01*
X9821786Y-14515786D01*
X9793214Y-14530071D01*
X9778928Y-14544357D01*
X9764643Y-14572929D01*
X9764643Y-14630071D01*
X9778928Y-14658643D01*
X9793214Y-14672929D01*
X9821786Y-14687214D01*
X9878928Y-14687214D01*
X9907500Y-14672929D01*
X9921786Y-14658643D01*
X9936071Y-14630071D01*
X9936071Y-14572929D01*
X9921786Y-14544357D01*
X9907500Y-14530071D01*
X9878928Y-14515786D01*
X10293214Y-14687214D02*
X10293214Y-14387214D01*
X10421786Y-14687214D02*
X10421786Y-14530071D01*
X10407500Y-14501500D01*
X10378928Y-14487214D01*
X10336071Y-14487214D01*
X10307500Y-14501500D01*
X10293214Y-14515786D01*
X10607500Y-14687214D02*
X10578928Y-14672929D01*
X10564643Y-14658643D01*
X10550357Y-14630071D01*
X10550357Y-14544357D01*
X10564643Y-14515786D01*
X10578928Y-14501500D01*
X10607500Y-14487214D01*
X10650357Y-14487214D01*
X10678928Y-14501500D01*
X10693214Y-14515786D01*
X10707500Y-14544357D01*
X10707500Y-14630071D01*
X10693214Y-14658643D01*
X10678928Y-14672929D01*
X10650357Y-14687214D01*
X10607500Y-14687214D01*
X10878928Y-14687214D02*
X10850357Y-14672929D01*
X10836071Y-14644357D01*
X10836071Y-14387214D01*
X11107500Y-14672929D02*
X11078928Y-14687214D01*
X11021786Y-14687214D01*
X10993214Y-14672929D01*
X10978928Y-14644357D01*
X10978928Y-14530071D01*
X10993214Y-14501500D01*
X11021786Y-14487214D01*
X11078928Y-14487214D01*
X11107500Y-14501500D01*
X11121786Y-14530071D01*
X11121786Y-14558643D01*
X10978928Y-14587214D01*
X11236071Y-14672929D02*
X11264643Y-14687214D01*
X11321786Y-14687214D01*
X11350357Y-14672929D01*
X11364643Y-14644357D01*
X11364643Y-14630071D01*
X11350357Y-14601500D01*
X11321786Y-14587214D01*
X11278928Y-14587214D01*
X11250357Y-14572929D01*
X11236071Y-14544357D01*
X11236071Y-14530071D01*
X11250357Y-14501500D01*
X11278928Y-14487214D01*
X11321786Y-14487214D01*
X11350357Y-14501500D01*
X11464643Y-14801500D02*
X11478928Y-14787214D01*
X11507500Y-14744357D01*
X11521786Y-14715786D01*
X11536071Y-14672929D01*
X11550357Y-14601500D01*
X11550357Y-14544357D01*
X11536071Y-14472929D01*
X11521786Y-14430071D01*
X11507500Y-14401500D01*
X11478928Y-14358643D01*
X11464643Y-14344357D01*
X4582500Y-14892500D02*
X4692500Y-15002500D01*
X4692500Y-14892500D02*
X4582500Y-15002500D01*
X4692500Y-14947500D02*
G75*
G03X4692500Y-14947500I-55000J0D01*
G01*
X5136071Y-15083214D02*
X4964643Y-15083214D01*
X5050357Y-15083214D02*
X5050357Y-14783214D01*
X5021786Y-14826071D01*
X4993214Y-14854643D01*
X4964643Y-14868929D01*
X5264643Y-15054643D02*
X5278928Y-15068929D01*
X5264643Y-15083214D01*
X5250357Y-15068929D01*
X5264643Y-15054643D01*
X5264643Y-15083214D01*
X5564643Y-15083214D02*
X5393214Y-15083214D01*
X5478928Y-15083214D02*
X5478928Y-14783214D01*
X5450357Y-14826071D01*
X5421786Y-14854643D01*
X5393214Y-14868929D01*
X5750357Y-14783214D02*
X5778928Y-14783214D01*
X5807500Y-14797500D01*
X5821786Y-14811786D01*
X5836071Y-14840357D01*
X5850357Y-14897500D01*
X5850357Y-14968929D01*
X5836071Y-15026071D01*
X5821786Y-15054643D01*
X5807500Y-15068929D01*
X5778928Y-15083214D01*
X5750357Y-15083214D01*
X5721786Y-15068929D01*
X5707500Y-15054643D01*
X5693214Y-15026071D01*
X5678928Y-14968929D01*
X5678928Y-14897500D01*
X5693214Y-14840357D01*
X5707500Y-14811786D01*
X5721786Y-14797500D01*
X5750357Y-14783214D01*
X5978928Y-15083214D02*
X5978928Y-14883214D01*
X5978928Y-14911786D02*
X5993214Y-14897500D01*
X6021786Y-14883214D01*
X6064643Y-14883214D01*
X6093214Y-14897500D01*
X6107500Y-14926071D01*
X6107500Y-15083214D01*
X6107500Y-14926071D02*
X6121786Y-14897500D01*
X6150357Y-14883214D01*
X6193214Y-14883214D01*
X6221786Y-14897500D01*
X6236071Y-14926071D01*
X6236071Y-15083214D01*
X6378928Y-15083214D02*
X6378928Y-14883214D01*
X6378928Y-14911786D02*
X6393214Y-14897500D01*
X6421786Y-14883214D01*
X6464643Y-14883214D01*
X6493214Y-14897500D01*
X6507500Y-14926071D01*
X6507500Y-15083214D01*
X6507500Y-14926071D02*
X6521786Y-14897500D01*
X6550357Y-14883214D01*
X6593214Y-14883214D01*
X6621786Y-14897500D01*
X6636071Y-14926071D01*
X6636071Y-15083214D01*
X7221786Y-14768929D02*
X6964643Y-15154643D01*
X7607500Y-14783214D02*
X7636071Y-14783214D01*
X7664643Y-14797500D01*
X7678928Y-14811786D01*
X7693214Y-14840357D01*
X7707500Y-14897500D01*
X7707500Y-14968929D01*
X7693214Y-15026071D01*
X7678928Y-15054643D01*
X7664643Y-15068929D01*
X7636071Y-15083214D01*
X7607500Y-15083214D01*
X7578928Y-15068929D01*
X7564643Y-15054643D01*
X7550357Y-15026071D01*
X7536071Y-14968929D01*
X7536071Y-14897500D01*
X7550357Y-14840357D01*
X7564643Y-14811786D01*
X7578928Y-14797500D01*
X7607500Y-14783214D01*
X7836071Y-15054643D02*
X7850357Y-15068929D01*
X7836071Y-15083214D01*
X7821786Y-15068929D01*
X7836071Y-15054643D01*
X7836071Y-15083214D01*
X8036071Y-14783214D02*
X8064643Y-14783214D01*
X8093214Y-14797500D01*
X8107500Y-14811786D01*
X8121786Y-14840357D01*
X8136071Y-14897500D01*
X8136071Y-14968929D01*
X8121786Y-15026071D01*
X8107500Y-15054643D01*
X8093214Y-15068929D01*
X8064643Y-15083214D01*
X8036071Y-15083214D01*
X8007500Y-15068929D01*
X7993214Y-15054643D01*
X7978928Y-15026071D01*
X7964643Y-14968929D01*
X7964643Y-14897500D01*
X7978928Y-14840357D01*
X7993214Y-14811786D01*
X8007500Y-14797500D01*
X8036071Y-14783214D01*
X8393214Y-14883214D02*
X8393214Y-15083214D01*
X8321786Y-14768929D02*
X8250357Y-14983214D01*
X8436071Y-14983214D01*
X8521786Y-14783214D02*
X8707500Y-14783214D01*
X8607500Y-14897500D01*
X8650357Y-14897500D01*
X8678928Y-14911786D01*
X8693214Y-14926071D01*
X8707500Y-14954643D01*
X8707500Y-15026071D01*
X8693214Y-15054643D01*
X8678928Y-15068929D01*
X8650357Y-15083214D01*
X8564643Y-15083214D01*
X8536071Y-15068929D01*
X8521786Y-15054643D01*
X8821786Y-14783214D02*
X8821786Y-14840357D01*
X8936071Y-14783214D02*
X8936071Y-14840357D01*
X9378928Y-15197500D02*
X9364643Y-15183214D01*
X9336071Y-15140357D01*
X9321786Y-15111786D01*
X9307500Y-15068929D01*
X9293214Y-14997500D01*
X9293214Y-14940357D01*
X9307500Y-14868929D01*
X9321786Y-14826071D01*
X9336071Y-14797500D01*
X9364643Y-14754643D01*
X9378928Y-14740357D01*
X9650357Y-15083214D02*
X9478928Y-15083214D01*
X9564643Y-15083214D02*
X9564643Y-14783214D01*
X9536071Y-14826071D01*
X9507500Y-14854643D01*
X9478928Y-14868929D01*
X9764643Y-14811786D02*
X9778928Y-14797500D01*
X9807500Y-14783214D01*
X9878928Y-14783214D01*
X9907500Y-14797500D01*
X9921786Y-14811786D01*
X9936071Y-14840357D01*
X9936071Y-14868929D01*
X9921786Y-14911786D01*
X9750357Y-15083214D01*
X9936071Y-15083214D01*
X10293214Y-15083214D02*
X10293214Y-14783214D01*
X10421786Y-15083214D02*
X10421786Y-14926071D01*
X10407500Y-14897500D01*
X10378928Y-14883214D01*
X10336071Y-14883214D01*
X10307500Y-14897500D01*
X10293214Y-14911786D01*
X10607500Y-15083214D02*
X10578928Y-15068929D01*
X10564643Y-15054643D01*
X10550357Y-15026071D01*
X10550357Y-14940357D01*
X10564643Y-14911786D01*
X10578928Y-14897500D01*
X10607500Y-14883214D01*
X10650357Y-14883214D01*
X10678928Y-14897500D01*
X10693214Y-14911786D01*
X10707500Y-14940357D01*
X10707500Y-15026071D01*
X10693214Y-15054643D01*
X10678928Y-15068929D01*
X10650357Y-15083214D01*
X10607500Y-15083214D01*
X10878928Y-15083214D02*
X10850357Y-15068929D01*
X10836071Y-15040357D01*
X10836071Y-14783214D01*
X11107500Y-15068929D02*
X11078928Y-15083214D01*
X11021786Y-15083214D01*
X10993214Y-15068929D01*
X10978928Y-15040357D01*
X10978928Y-14926071D01*
X10993214Y-14897500D01*
X11021786Y-14883214D01*
X11078928Y-14883214D01*
X11107500Y-14897500D01*
X11121786Y-14926071D01*
X11121786Y-14954643D01*
X10978928Y-14983214D01*
X11236071Y-15068929D02*
X11264643Y-15083214D01*
X11321786Y-15083214D01*
X11350357Y-15068929D01*
X11364643Y-15040357D01*
X11364643Y-15026071D01*
X11350357Y-14997500D01*
X11321786Y-14983214D01*
X11278928Y-14983214D01*
X11250357Y-14968929D01*
X11236071Y-14940357D01*
X11236071Y-14926071D01*
X11250357Y-14897500D01*
X11278928Y-14883214D01*
X11321786Y-14883214D01*
X11350357Y-14897500D01*
X11464643Y-15197500D02*
X11478928Y-15183214D01*
X11507500Y-15140357D01*
X11521786Y-15111786D01*
X11536071Y-15068929D01*
X11550357Y-14997500D01*
X11550357Y-14940357D01*
X11536071Y-14868929D01*
X11521786Y-14826071D01*
X11507500Y-14797500D01*
X11478928Y-14754643D01*
X11464643Y-14740357D01*
X4572500Y-15283500D02*
X4692500Y-15403500D01*
X4692500Y-15283500D02*
X4572500Y-15403500D01*
X4632500Y-15283500D02*
X4632500Y-15403500D01*
X4572500Y-15343500D02*
X4692500Y-15343500D01*
X5136071Y-15479214D02*
X4964643Y-15479214D01*
X5050357Y-15479214D02*
X5050357Y-15179214D01*
X5021786Y-15222071D01*
X4993214Y-15250643D01*
X4964643Y-15264929D01*
X5264643Y-15450643D02*
X5278928Y-15464929D01*
X5264643Y-15479214D01*
X5250357Y-15464929D01*
X5264643Y-15450643D01*
X5264643Y-15479214D01*
X5393214Y-15207786D02*
X5407500Y-15193500D01*
X5436071Y-15179214D01*
X5507500Y-15179214D01*
X5536071Y-15193500D01*
X5550357Y-15207786D01*
X5564643Y-15236357D01*
X5564643Y-15264929D01*
X5550357Y-15307786D01*
X5378928Y-15479214D01*
X5564643Y-15479214D01*
X5750357Y-15179214D02*
X5778928Y-15179214D01*
X5807500Y-15193500D01*
X5821786Y-15207786D01*
X5836071Y-15236357D01*
X5850357Y-15293500D01*
X5850357Y-15364929D01*
X5836071Y-15422071D01*
X5821786Y-15450643D01*
X5807500Y-15464929D01*
X5778928Y-15479214D01*
X5750357Y-15479214D01*
X5721786Y-15464929D01*
X5707500Y-15450643D01*
X5693214Y-15422071D01*
X5678928Y-15364929D01*
X5678928Y-15293500D01*
X5693214Y-15236357D01*
X5707500Y-15207786D01*
X5721786Y-15193500D01*
X5750357Y-15179214D01*
X5978928Y-15479214D02*
X5978928Y-15279214D01*
X5978928Y-15307786D02*
X5993214Y-15293500D01*
X6021786Y-15279214D01*
X6064643Y-15279214D01*
X6093214Y-15293500D01*
X6107500Y-15322071D01*
X6107500Y-15479214D01*
X6107500Y-15322071D02*
X6121786Y-15293500D01*
X6150357Y-15279214D01*
X6193214Y-15279214D01*
X6221786Y-15293500D01*
X6236071Y-15322071D01*
X6236071Y-15479214D01*
X6378928Y-15479214D02*
X6378928Y-15279214D01*
X6378928Y-15307786D02*
X6393214Y-15293500D01*
X6421786Y-15279214D01*
X6464643Y-15279214D01*
X6493214Y-15293500D01*
X6507500Y-15322071D01*
X6507500Y-15479214D01*
X6507500Y-15322071D02*
X6521786Y-15293500D01*
X6550357Y-15279214D01*
X6593214Y-15279214D01*
X6621786Y-15293500D01*
X6636071Y-15322071D01*
X6636071Y-15479214D01*
X7221786Y-15164929D02*
X6964643Y-15550643D01*
X7607500Y-15179214D02*
X7636071Y-15179214D01*
X7664643Y-15193500D01*
X7678928Y-15207786D01*
X7693214Y-15236357D01*
X7707500Y-15293500D01*
X7707500Y-15364929D01*
X7693214Y-15422071D01*
X7678928Y-15450643D01*
X7664643Y-15464929D01*
X7636071Y-15479214D01*
X7607500Y-15479214D01*
X7578928Y-15464929D01*
X7564643Y-15450643D01*
X7550357Y-15422071D01*
X7536071Y-15364929D01*
X7536071Y-15293500D01*
X7550357Y-15236357D01*
X7564643Y-15207786D01*
X7578928Y-15193500D01*
X7607500Y-15179214D01*
X7836071Y-15450643D02*
X7850357Y-15464929D01*
X7836071Y-15479214D01*
X7821786Y-15464929D01*
X7836071Y-15450643D01*
X7836071Y-15479214D01*
X8036071Y-15179214D02*
X8064643Y-15179214D01*
X8093214Y-15193500D01*
X8107500Y-15207786D01*
X8121786Y-15236357D01*
X8136071Y-15293500D01*
X8136071Y-15364929D01*
X8121786Y-15422071D01*
X8107500Y-15450643D01*
X8093214Y-15464929D01*
X8064643Y-15479214D01*
X8036071Y-15479214D01*
X8007500Y-15464929D01*
X7993214Y-15450643D01*
X7978928Y-15422071D01*
X7964643Y-15364929D01*
X7964643Y-15293500D01*
X7978928Y-15236357D01*
X7993214Y-15207786D01*
X8007500Y-15193500D01*
X8036071Y-15179214D01*
X8393214Y-15279214D02*
X8393214Y-15479214D01*
X8321786Y-15164929D02*
X8250357Y-15379214D01*
X8436071Y-15379214D01*
X8521786Y-15179214D02*
X8721786Y-15179214D01*
X8593214Y-15479214D01*
X8821786Y-15179214D02*
X8821786Y-15236357D01*
X8936071Y-15179214D02*
X8936071Y-15236357D01*
X9378928Y-15593500D02*
X9364643Y-15579214D01*
X9336071Y-15536357D01*
X9321786Y-15507786D01*
X9307500Y-15464929D01*
X9293214Y-15393500D01*
X9293214Y-15336357D01*
X9307500Y-15264929D01*
X9321786Y-15222071D01*
X9336071Y-15193500D01*
X9364643Y-15150643D01*
X9378928Y-15136357D01*
X9650357Y-15479214D02*
X9478928Y-15479214D01*
X9564643Y-15479214D02*
X9564643Y-15179214D01*
X9536071Y-15222071D01*
X9507500Y-15250643D01*
X9478928Y-15264929D01*
X9907500Y-15279214D02*
X9907500Y-15479214D01*
X9836071Y-15164929D02*
X9764643Y-15379214D01*
X9950357Y-15379214D01*
X10293214Y-15479214D02*
X10293214Y-15179214D01*
X10421786Y-15479214D02*
X10421786Y-15322071D01*
X10407500Y-15293500D01*
X10378928Y-15279214D01*
X10336071Y-15279214D01*
X10307500Y-15293500D01*
X10293214Y-15307786D01*
X10607500Y-15479214D02*
X10578928Y-15464929D01*
X10564643Y-15450643D01*
X10550357Y-15422071D01*
X10550357Y-15336357D01*
X10564643Y-15307786D01*
X10578928Y-15293500D01*
X10607500Y-15279214D01*
X10650357Y-15279214D01*
X10678928Y-15293500D01*
X10693214Y-15307786D01*
X10707500Y-15336357D01*
X10707500Y-15422071D01*
X10693214Y-15450643D01*
X10678928Y-15464929D01*
X10650357Y-15479214D01*
X10607500Y-15479214D01*
X10878928Y-15479214D02*
X10850357Y-15464929D01*
X10836071Y-15436357D01*
X10836071Y-15179214D01*
X11107500Y-15464929D02*
X11078928Y-15479214D01*
X11021786Y-15479214D01*
X10993214Y-15464929D01*
X10978928Y-15436357D01*
X10978928Y-15322071D01*
X10993214Y-15293500D01*
X11021786Y-15279214D01*
X11078928Y-15279214D01*
X11107500Y-15293500D01*
X11121786Y-15322071D01*
X11121786Y-15350643D01*
X10978928Y-15379214D01*
X11236071Y-15464929D02*
X11264643Y-15479214D01*
X11321786Y-15479214D01*
X11350357Y-15464929D01*
X11364643Y-15436357D01*
X11364643Y-15422071D01*
X11350357Y-15393500D01*
X11321786Y-15379214D01*
X11278928Y-15379214D01*
X11250357Y-15364929D01*
X11236071Y-15336357D01*
X11236071Y-15322071D01*
X11250357Y-15293500D01*
X11278928Y-15279214D01*
X11321786Y-15279214D01*
X11350357Y-15293500D01*
X11464643Y-15593500D02*
X11478928Y-15579214D01*
X11507500Y-15536357D01*
X11521786Y-15507786D01*
X11536071Y-15464929D01*
X11550357Y-15393500D01*
X11550357Y-15336357D01*
X11536071Y-15264929D01*
X11521786Y-15222071D01*
X11507500Y-15193500D01*
X11478928Y-15150643D01*
X11464643Y-15136357D01*
X4542500Y-15664500D02*
X4692500Y-15814500D01*
X4692500Y-15664500D02*
X4542500Y-15814500D01*
X4670533Y-15792534D02*
X4670533Y-15686467D01*
X4564466Y-15686467D01*
X4564466Y-15792534D01*
X4670533Y-15792534D01*
X5136071Y-15875214D02*
X4964643Y-15875214D01*
X5050357Y-15875214D02*
X5050357Y-15575214D01*
X5021786Y-15618071D01*
X4993214Y-15646643D01*
X4964643Y-15660929D01*
X5264643Y-15846643D02*
X5278928Y-15860929D01*
X5264643Y-15875214D01*
X5250357Y-15860929D01*
X5264643Y-15846643D01*
X5264643Y-15875214D01*
X5550357Y-15575214D02*
X5407500Y-15575214D01*
X5393214Y-15718071D01*
X5407500Y-15703786D01*
X5436071Y-15689500D01*
X5507500Y-15689500D01*
X5536071Y-15703786D01*
X5550357Y-15718071D01*
X5564643Y-15746643D01*
X5564643Y-15818071D01*
X5550357Y-15846643D01*
X5536071Y-15860929D01*
X5507500Y-15875214D01*
X5436071Y-15875214D01*
X5407500Y-15860929D01*
X5393214Y-15846643D01*
X5750357Y-15575214D02*
X5778928Y-15575214D01*
X5807500Y-15589500D01*
X5821786Y-15603786D01*
X5836071Y-15632357D01*
X5850357Y-15689500D01*
X5850357Y-15760929D01*
X5836071Y-15818071D01*
X5821786Y-15846643D01*
X5807500Y-15860929D01*
X5778928Y-15875214D01*
X5750357Y-15875214D01*
X5721786Y-15860929D01*
X5707500Y-15846643D01*
X5693214Y-15818071D01*
X5678928Y-15760929D01*
X5678928Y-15689500D01*
X5693214Y-15632357D01*
X5707500Y-15603786D01*
X5721786Y-15589500D01*
X5750357Y-15575214D01*
X5978928Y-15875214D02*
X5978928Y-15675214D01*
X5978928Y-15703786D02*
X5993214Y-15689500D01*
X6021786Y-15675214D01*
X6064643Y-15675214D01*
X6093214Y-15689500D01*
X6107500Y-15718071D01*
X6107500Y-15875214D01*
X6107500Y-15718071D02*
X6121786Y-15689500D01*
X6150357Y-15675214D01*
X6193214Y-15675214D01*
X6221786Y-15689500D01*
X6236071Y-15718071D01*
X6236071Y-15875214D01*
X6378928Y-15875214D02*
X6378928Y-15675214D01*
X6378928Y-15703786D02*
X6393214Y-15689500D01*
X6421786Y-15675214D01*
X6464643Y-15675214D01*
X6493214Y-15689500D01*
X6507500Y-15718071D01*
X6507500Y-15875214D01*
X6507500Y-15718071D02*
X6521786Y-15689500D01*
X6550357Y-15675214D01*
X6593214Y-15675214D01*
X6621786Y-15689500D01*
X6636071Y-15718071D01*
X6636071Y-15875214D01*
X7221786Y-15560929D02*
X6964643Y-15946643D01*
X7607500Y-15575214D02*
X7636071Y-15575214D01*
X7664643Y-15589500D01*
X7678928Y-15603786D01*
X7693214Y-15632357D01*
X7707500Y-15689500D01*
X7707500Y-15760929D01*
X7693214Y-15818071D01*
X7678928Y-15846643D01*
X7664643Y-15860929D01*
X7636071Y-15875214D01*
X7607500Y-15875214D01*
X7578928Y-15860929D01*
X7564643Y-15846643D01*
X7550357Y-15818071D01*
X7536071Y-15760929D01*
X7536071Y-15689500D01*
X7550357Y-15632357D01*
X7564643Y-15603786D01*
X7578928Y-15589500D01*
X7607500Y-15575214D01*
X7836071Y-15846643D02*
X7850357Y-15860929D01*
X7836071Y-15875214D01*
X7821786Y-15860929D01*
X7836071Y-15846643D01*
X7836071Y-15875214D01*
X8036071Y-15575214D02*
X8064643Y-15575214D01*
X8093214Y-15589500D01*
X8107500Y-15603786D01*
X8121786Y-15632357D01*
X8136071Y-15689500D01*
X8136071Y-15760929D01*
X8121786Y-15818071D01*
X8107500Y-15846643D01*
X8093214Y-15860929D01*
X8064643Y-15875214D01*
X8036071Y-15875214D01*
X8007500Y-15860929D01*
X7993214Y-15846643D01*
X7978928Y-15818071D01*
X7964643Y-15760929D01*
X7964643Y-15689500D01*
X7978928Y-15632357D01*
X7993214Y-15603786D01*
X8007500Y-15589500D01*
X8036071Y-15575214D01*
X8407500Y-15575214D02*
X8264643Y-15575214D01*
X8250357Y-15718071D01*
X8264643Y-15703786D01*
X8293214Y-15689500D01*
X8364643Y-15689500D01*
X8393214Y-15703786D01*
X8407500Y-15718071D01*
X8421786Y-15746643D01*
X8421786Y-15818071D01*
X8407500Y-15846643D01*
X8393214Y-15860929D01*
X8364643Y-15875214D01*
X8293214Y-15875214D01*
X8264643Y-15860929D01*
X8250357Y-15846643D01*
X8564643Y-15875214D02*
X8621786Y-15875214D01*
X8650357Y-15860929D01*
X8664643Y-15846643D01*
X8693214Y-15803786D01*
X8707500Y-15746643D01*
X8707500Y-15632357D01*
X8693214Y-15603786D01*
X8678928Y-15589500D01*
X8650357Y-15575214D01*
X8593214Y-15575214D01*
X8564643Y-15589500D01*
X8550357Y-15603786D01*
X8536071Y-15632357D01*
X8536071Y-15703786D01*
X8550357Y-15732357D01*
X8564643Y-15746643D01*
X8593214Y-15760929D01*
X8650357Y-15760929D01*
X8678928Y-15746643D01*
X8693214Y-15732357D01*
X8707500Y-15703786D01*
X8821786Y-15575214D02*
X8821786Y-15632357D01*
X8936071Y-15575214D02*
X8936071Y-15632357D01*
X9378928Y-15989500D02*
X9364643Y-15975214D01*
X9336071Y-15932357D01*
X9321786Y-15903786D01*
X9307500Y-15860929D01*
X9293214Y-15789500D01*
X9293214Y-15732357D01*
X9307500Y-15660929D01*
X9321786Y-15618071D01*
X9336071Y-15589500D01*
X9364643Y-15546643D01*
X9378928Y-15532357D01*
X9478928Y-15603786D02*
X9493214Y-15589500D01*
X9521786Y-15575214D01*
X9593214Y-15575214D01*
X9621786Y-15589500D01*
X9636071Y-15603786D01*
X9650357Y-15632357D01*
X9650357Y-15660929D01*
X9636071Y-15703786D01*
X9464643Y-15875214D01*
X9650357Y-15875214D01*
X10007500Y-15875214D02*
X10007500Y-15575214D01*
X10136071Y-15875214D02*
X10136071Y-15718071D01*
X10121786Y-15689500D01*
X10093214Y-15675214D01*
X10050357Y-15675214D01*
X10021786Y-15689500D01*
X10007500Y-15703786D01*
X10321786Y-15875214D02*
X10293214Y-15860929D01*
X10278928Y-15846643D01*
X10264643Y-15818071D01*
X10264643Y-15732357D01*
X10278928Y-15703786D01*
X10293214Y-15689500D01*
X10321786Y-15675214D01*
X10364643Y-15675214D01*
X10393214Y-15689500D01*
X10407500Y-15703786D01*
X10421786Y-15732357D01*
X10421786Y-15818071D01*
X10407500Y-15846643D01*
X10393214Y-15860929D01*
X10364643Y-15875214D01*
X10321786Y-15875214D01*
X10593214Y-15875214D02*
X10564643Y-15860929D01*
X10550357Y-15832357D01*
X10550357Y-15575214D01*
X10821786Y-15860929D02*
X10793214Y-15875214D01*
X10736071Y-15875214D01*
X10707500Y-15860929D01*
X10693214Y-15832357D01*
X10693214Y-15718071D01*
X10707500Y-15689500D01*
X10736071Y-15675214D01*
X10793214Y-15675214D01*
X10821786Y-15689500D01*
X10836071Y-15718071D01*
X10836071Y-15746643D01*
X10693214Y-15775214D01*
X10950357Y-15860929D02*
X10978928Y-15875214D01*
X11036071Y-15875214D01*
X11064643Y-15860929D01*
X11078928Y-15832357D01*
X11078928Y-15818071D01*
X11064643Y-15789500D01*
X11036071Y-15775214D01*
X10993214Y-15775214D01*
X10964643Y-15760929D01*
X10950357Y-15732357D01*
X10950357Y-15718071D01*
X10964643Y-15689500D01*
X10993214Y-15675214D01*
X11036071Y-15675214D01*
X11064643Y-15689500D01*
X11178928Y-15989500D02*
X11193214Y-15975214D01*
X11221786Y-15932357D01*
X11236071Y-15903786D01*
X11250357Y-15860929D01*
X11264643Y-15789500D01*
X11264643Y-15732357D01*
X11250357Y-15660929D01*
X11236071Y-15618071D01*
X11221786Y-15589500D01*
X11193214Y-15546643D01*
X11178928Y-15532357D01*
X4322500Y-15950500D02*
X4692500Y-16320500D01*
X4692500Y-15950500D02*
X4322500Y-16320500D01*
X4507500Y-16320500D02*
X4692500Y-16135500D01*
X4507500Y-15950500D01*
X4322500Y-16135500D01*
X4507500Y-16320500D01*
X4950357Y-15971214D02*
X5136071Y-15971214D01*
X5036071Y-16085500D01*
X5078928Y-16085500D01*
X5107500Y-16099786D01*
X5121786Y-16114071D01*
X5136071Y-16142643D01*
X5136071Y-16214071D01*
X5121786Y-16242643D01*
X5107500Y-16256929D01*
X5078928Y-16271214D01*
X4993214Y-16271214D01*
X4964643Y-16256929D01*
X4950357Y-16242643D01*
X5264643Y-16242643D02*
X5278928Y-16256929D01*
X5264643Y-16271214D01*
X5250357Y-16256929D01*
X5264643Y-16242643D01*
X5264643Y-16271214D01*
X5378928Y-15971214D02*
X5578928Y-15971214D01*
X5450357Y-16271214D01*
X5750357Y-15971214D02*
X5778928Y-15971214D01*
X5807500Y-15985500D01*
X5821786Y-15999786D01*
X5836071Y-16028357D01*
X5850357Y-16085500D01*
X5850357Y-16156929D01*
X5836071Y-16214071D01*
X5821786Y-16242643D01*
X5807500Y-16256929D01*
X5778928Y-16271214D01*
X5750357Y-16271214D01*
X5721786Y-16256929D01*
X5707500Y-16242643D01*
X5693214Y-16214071D01*
X5678928Y-16156929D01*
X5678928Y-16085500D01*
X5693214Y-16028357D01*
X5707500Y-15999786D01*
X5721786Y-15985500D01*
X5750357Y-15971214D01*
X5978928Y-16271214D02*
X5978928Y-16071214D01*
X5978928Y-16099786D02*
X5993214Y-16085500D01*
X6021786Y-16071214D01*
X6064643Y-16071214D01*
X6093214Y-16085500D01*
X6107500Y-16114071D01*
X6107500Y-16271214D01*
X6107500Y-16114071D02*
X6121786Y-16085500D01*
X6150357Y-16071214D01*
X6193214Y-16071214D01*
X6221786Y-16085500D01*
X6236071Y-16114071D01*
X6236071Y-16271214D01*
X6378928Y-16271214D02*
X6378928Y-16071214D01*
X6378928Y-16099786D02*
X6393214Y-16085500D01*
X6421786Y-16071214D01*
X6464643Y-16071214D01*
X6493214Y-16085500D01*
X6507500Y-16114071D01*
X6507500Y-16271214D01*
X6507500Y-16114071D02*
X6521786Y-16085500D01*
X6550357Y-16071214D01*
X6593214Y-16071214D01*
X6621786Y-16085500D01*
X6636071Y-16114071D01*
X6636071Y-16271214D01*
X7221786Y-15956929D02*
X6964643Y-16342643D01*
X7607500Y-15971214D02*
X7636071Y-15971214D01*
X7664643Y-15985500D01*
X7678928Y-15999786D01*
X7693214Y-16028357D01*
X7707500Y-16085500D01*
X7707500Y-16156929D01*
X7693214Y-16214071D01*
X7678928Y-16242643D01*
X7664643Y-16256929D01*
X7636071Y-16271214D01*
X7607500Y-16271214D01*
X7578928Y-16256929D01*
X7564643Y-16242643D01*
X7550357Y-16214071D01*
X7536071Y-16156929D01*
X7536071Y-16085500D01*
X7550357Y-16028357D01*
X7564643Y-15999786D01*
X7578928Y-15985500D01*
X7607500Y-15971214D01*
X7836071Y-16242643D02*
X7850357Y-16256929D01*
X7836071Y-16271214D01*
X7821786Y-16256929D01*
X7836071Y-16242643D01*
X7836071Y-16271214D01*
X8136071Y-16271214D02*
X7964643Y-16271214D01*
X8050357Y-16271214D02*
X8050357Y-15971214D01*
X8021786Y-16014071D01*
X7993214Y-16042643D01*
X7964643Y-16056929D01*
X8393214Y-16071214D02*
X8393214Y-16271214D01*
X8321786Y-15956929D02*
X8250357Y-16171214D01*
X8436071Y-16171214D01*
X8678928Y-15971214D02*
X8621786Y-15971214D01*
X8593214Y-15985500D01*
X8578928Y-15999786D01*
X8550357Y-16042643D01*
X8536071Y-16099786D01*
X8536071Y-16214071D01*
X8550357Y-16242643D01*
X8564643Y-16256929D01*
X8593214Y-16271214D01*
X8650357Y-16271214D01*
X8678928Y-16256929D01*
X8693214Y-16242643D01*
X8707500Y-16214071D01*
X8707500Y-16142643D01*
X8693214Y-16114071D01*
X8678928Y-16099786D01*
X8650357Y-16085500D01*
X8593214Y-16085500D01*
X8564643Y-16099786D01*
X8550357Y-16114071D01*
X8536071Y-16142643D01*
X8821786Y-15971214D02*
X8821786Y-16028357D01*
X8936071Y-15971214D02*
X8936071Y-16028357D01*
X9378928Y-16385500D02*
X9364643Y-16371214D01*
X9336071Y-16328357D01*
X9321786Y-16299786D01*
X9307500Y-16256929D01*
X9293214Y-16185500D01*
X9293214Y-16128357D01*
X9307500Y-16056929D01*
X9321786Y-16014071D01*
X9336071Y-15985500D01*
X9364643Y-15942643D01*
X9378928Y-15928357D01*
X9650357Y-16271214D02*
X9478928Y-16271214D01*
X9564643Y-16271214D02*
X9564643Y-15971214D01*
X9536071Y-16014071D01*
X9507500Y-16042643D01*
X9478928Y-16056929D01*
X9936071Y-16271214D02*
X9764643Y-16271214D01*
X9850357Y-16271214D02*
X9850357Y-15971214D01*
X9821786Y-16014071D01*
X9793214Y-16042643D01*
X9764643Y-16056929D01*
X10293214Y-16271214D02*
X10293214Y-15971214D01*
X10421786Y-16271214D02*
X10421786Y-16114071D01*
X10407500Y-16085500D01*
X10378928Y-16071214D01*
X10336071Y-16071214D01*
X10307500Y-16085500D01*
X10293214Y-16099786D01*
X10607500Y-16271214D02*
X10578928Y-16256929D01*
X10564643Y-16242643D01*
X10550357Y-16214071D01*
X10550357Y-16128357D01*
X10564643Y-16099786D01*
X10578928Y-16085500D01*
X10607500Y-16071214D01*
X10650357Y-16071214D01*
X10678928Y-16085500D01*
X10693214Y-16099786D01*
X10707500Y-16128357D01*
X10707500Y-16214071D01*
X10693214Y-16242643D01*
X10678928Y-16256929D01*
X10650357Y-16271214D01*
X10607500Y-16271214D01*
X10878928Y-16271214D02*
X10850357Y-16256929D01*
X10836071Y-16228357D01*
X10836071Y-15971214D01*
X11107500Y-16256929D02*
X11078928Y-16271214D01*
X11021786Y-16271214D01*
X10993214Y-16256929D01*
X10978928Y-16228357D01*
X10978928Y-16114071D01*
X10993214Y-16085500D01*
X11021786Y-16071214D01*
X11078928Y-16071214D01*
X11107500Y-16085500D01*
X11121786Y-16114071D01*
X11121786Y-16142643D01*
X10978928Y-16171214D01*
X11236071Y-16256929D02*
X11264643Y-16271214D01*
X11321786Y-16271214D01*
X11350357Y-16256929D01*
X11364643Y-16228357D01*
X11364643Y-16214071D01*
X11350357Y-16185500D01*
X11321786Y-16171214D01*
X11278928Y-16171214D01*
X11250357Y-16156929D01*
X11236071Y-16128357D01*
X11236071Y-16114071D01*
X11250357Y-16085500D01*
X11278928Y-16071214D01*
X11321786Y-16071214D01*
X11350357Y-16085500D01*
X11464643Y-16385500D02*
X11478928Y-16371214D01*
X11507500Y-16328357D01*
X11521786Y-16299786D01*
X11536071Y-16256929D01*
X11550357Y-16185500D01*
X11550357Y-16128357D01*
X11536071Y-16056929D01*
X11521786Y-16014071D01*
X11507500Y-15985500D01*
X11478928Y-15942643D01*
X11464643Y-15928357D01*
X12007500Y-16385500D02*
X11993214Y-16371214D01*
X11964643Y-16328357D01*
X11950357Y-16299786D01*
X11936071Y-16256929D01*
X11921786Y-16185500D01*
X11921786Y-16128357D01*
X11936071Y-16056929D01*
X11950357Y-16014071D01*
X11964643Y-15985500D01*
X11993214Y-15942643D01*
X12007500Y-15928357D01*
X12121786Y-16071214D02*
X12121786Y-16271214D01*
X12121786Y-16099786D02*
X12136071Y-16085500D01*
X12164643Y-16071214D01*
X12207500Y-16071214D01*
X12236071Y-16085500D01*
X12250357Y-16114071D01*
X12250357Y-16271214D01*
X12436071Y-16271214D02*
X12407500Y-16256929D01*
X12393214Y-16242643D01*
X12378928Y-16214071D01*
X12378928Y-16128357D01*
X12393214Y-16099786D01*
X12407500Y-16085500D01*
X12436071Y-16071214D01*
X12478928Y-16071214D01*
X12507500Y-16085500D01*
X12521786Y-16099786D01*
X12536071Y-16128357D01*
X12536071Y-16214071D01*
X12521786Y-16242643D01*
X12507500Y-16256929D01*
X12478928Y-16271214D01*
X12436071Y-16271214D01*
X12621786Y-16071214D02*
X12736071Y-16071214D01*
X12664643Y-15971214D02*
X12664643Y-16228357D01*
X12678928Y-16256929D01*
X12707500Y-16271214D01*
X12736071Y-16271214D01*
X13064643Y-16071214D02*
X13064643Y-16371214D01*
X13064643Y-16085500D02*
X13093214Y-16071214D01*
X13150357Y-16071214D01*
X13178928Y-16085500D01*
X13193214Y-16099786D01*
X13207500Y-16128357D01*
X13207500Y-16214071D01*
X13193214Y-16242643D01*
X13178928Y-16256929D01*
X13150357Y-16271214D01*
X13093214Y-16271214D01*
X13064643Y-16256929D01*
X13378928Y-16271214D02*
X13350357Y-16256929D01*
X13336071Y-16228357D01*
X13336071Y-15971214D01*
X13621786Y-16271214D02*
X13621786Y-16114071D01*
X13607500Y-16085500D01*
X13578928Y-16071214D01*
X13521786Y-16071214D01*
X13493214Y-16085500D01*
X13621786Y-16256929D02*
X13593214Y-16271214D01*
X13521786Y-16271214D01*
X13493214Y-16256929D01*
X13478928Y-16228357D01*
X13478928Y-16199786D01*
X13493214Y-16171214D01*
X13521786Y-16156929D01*
X13593214Y-16156929D01*
X13621786Y-16142643D01*
X13721786Y-16071214D02*
X13836071Y-16071214D01*
X13764643Y-15971214D02*
X13764643Y-16228357D01*
X13778928Y-16256929D01*
X13807500Y-16271214D01*
X13836071Y-16271214D01*
X14050357Y-16256929D02*
X14021786Y-16271214D01*
X13964643Y-16271214D01*
X13936071Y-16256929D01*
X13921786Y-16228357D01*
X13921786Y-16114071D01*
X13936071Y-16085500D01*
X13964643Y-16071214D01*
X14021786Y-16071214D01*
X14050357Y-16085500D01*
X14064643Y-16114071D01*
X14064643Y-16142643D01*
X13921786Y-16171214D01*
X14321786Y-16271214D02*
X14321786Y-15971214D01*
X14321786Y-16256929D02*
X14293214Y-16271214D01*
X14236071Y-16271214D01*
X14207500Y-16256929D01*
X14193214Y-16242643D01*
X14178928Y-16214071D01*
X14178928Y-16128357D01*
X14193214Y-16099786D01*
X14207500Y-16085500D01*
X14236071Y-16071214D01*
X14293214Y-16071214D01*
X14321786Y-16085500D01*
X14436071Y-16385500D02*
X14450357Y-16371214D01*
X14478928Y-16328357D01*
X14493214Y-16299786D01*
X14507500Y-16256929D01*
X14521786Y-16185500D01*
X14521786Y-16128357D01*
X14507500Y-16056929D01*
X14493214Y-16014071D01*
X14478928Y-15985500D01*
X14450357Y-15942643D01*
X14436071Y-15928357D01*
M02*
