G04 #@! TF.GenerationSoftware,KiCad,Pcbnew,(5.0.2)-1*
G04 #@! TF.CreationDate,2019-01-31T22:52:24+01:00*
G04 #@! TF.ProjectId,v3,76332e6b-6963-4616-945f-706362585858,rev?*
G04 #@! TF.SameCoordinates,Original*
G04 #@! TF.FileFunction,Legend,Top*
G04 #@! TF.FilePolarity,Positive*
%FSLAX46Y46*%
G04 Gerber Fmt 4.6, Leading zero omitted, Abs format (unit mm)*
G04 Created by KiCad (PCBNEW (5.0.2)-1) date 31/01/2019 22:52:24*
%MOMM*%
%LPD*%
G01*
G04 APERTURE LIST*
%ADD10C,0.300000*%
%ADD11C,0.125000*%
%ADD12C,0.200000*%
%ADD13C,0.150000*%
%ADD14C,0.120000*%
%ADD15C,0.010000*%
%ADD16C,0.160000*%
G04 APERTURE END LIST*
D10*
X122555428Y-78585142D02*
X122769714Y-78656571D01*
X123126857Y-78656571D01*
X123269714Y-78585142D01*
X123341142Y-78513714D01*
X123412571Y-78370857D01*
X123412571Y-78228000D01*
X123341142Y-78085142D01*
X123269714Y-78013714D01*
X123126857Y-77942285D01*
X122841142Y-77870857D01*
X122698285Y-77799428D01*
X122626857Y-77728000D01*
X122555428Y-77585142D01*
X122555428Y-77442285D01*
X122626857Y-77299428D01*
X122698285Y-77228000D01*
X122841142Y-77156571D01*
X123198285Y-77156571D01*
X123412571Y-77228000D01*
X125198285Y-78085142D02*
X126341142Y-78085142D01*
X128198285Y-78085142D02*
X129341142Y-78085142D01*
X128769714Y-78656571D02*
X128769714Y-77513714D01*
D11*
X124829238Y-70575357D02*
X124829238Y-71003928D01*
X124805428Y-71051547D01*
X124757809Y-71075357D01*
X124734000Y-71075357D01*
X124829238Y-70408690D02*
X124805428Y-70432500D01*
X124829238Y-70456309D01*
X124853047Y-70432500D01*
X124829238Y-70408690D01*
X124829238Y-70456309D01*
X125281619Y-70575357D02*
X125281619Y-70908690D01*
X125067333Y-70575357D02*
X125067333Y-70837261D01*
X125091142Y-70884880D01*
X125138761Y-70908690D01*
X125210190Y-70908690D01*
X125257809Y-70884880D01*
X125281619Y-70861071D01*
X125519714Y-70908690D02*
X125519714Y-70575357D01*
X125519714Y-70622976D02*
X125543523Y-70599166D01*
X125591142Y-70575357D01*
X125662571Y-70575357D01*
X125710190Y-70599166D01*
X125734000Y-70646785D01*
X125734000Y-70908690D01*
X125734000Y-70646785D02*
X125757809Y-70599166D01*
X125805428Y-70575357D01*
X125876857Y-70575357D01*
X125924476Y-70599166D01*
X125948285Y-70646785D01*
X125948285Y-70908690D01*
X126186380Y-70575357D02*
X126186380Y-71075357D01*
X126186380Y-70599166D02*
X126234000Y-70575357D01*
X126329238Y-70575357D01*
X126376857Y-70599166D01*
X126400666Y-70622976D01*
X126424476Y-70670595D01*
X126424476Y-70813452D01*
X126400666Y-70861071D01*
X126376857Y-70884880D01*
X126329238Y-70908690D01*
X126234000Y-70908690D01*
X126186380Y-70884880D01*
X126829238Y-70884880D02*
X126781619Y-70908690D01*
X126686380Y-70908690D01*
X126638761Y-70884880D01*
X126614952Y-70837261D01*
X126614952Y-70646785D01*
X126638761Y-70599166D01*
X126686380Y-70575357D01*
X126781619Y-70575357D01*
X126829238Y-70599166D01*
X126853047Y-70646785D01*
X126853047Y-70694404D01*
X126614952Y-70742023D01*
X127067333Y-70908690D02*
X127067333Y-70575357D01*
X127067333Y-70670595D02*
X127091142Y-70622976D01*
X127114952Y-70599166D01*
X127162571Y-70575357D01*
X127210190Y-70575357D01*
X121864952Y-71521785D02*
X121936380Y-71545595D01*
X121960190Y-71569404D01*
X121984000Y-71617023D01*
X121984000Y-71688452D01*
X121960190Y-71736071D01*
X121936380Y-71759880D01*
X121888761Y-71783690D01*
X121698285Y-71783690D01*
X121698285Y-71283690D01*
X121864952Y-71283690D01*
X121912571Y-71307500D01*
X121936380Y-71331309D01*
X121960190Y-71378928D01*
X121960190Y-71426547D01*
X121936380Y-71474166D01*
X121912571Y-71497976D01*
X121864952Y-71521785D01*
X121698285Y-71521785D01*
X122412571Y-71450357D02*
X122412571Y-71783690D01*
X122198285Y-71450357D02*
X122198285Y-71712261D01*
X122222095Y-71759880D01*
X122269714Y-71783690D01*
X122341142Y-71783690D01*
X122388761Y-71759880D01*
X122412571Y-71736071D01*
X122579238Y-71450357D02*
X122769714Y-71450357D01*
X122650666Y-71283690D02*
X122650666Y-71712261D01*
X122674476Y-71759880D01*
X122722095Y-71783690D01*
X122769714Y-71783690D01*
X122864952Y-71450357D02*
X123055428Y-71450357D01*
X122936380Y-71283690D02*
X122936380Y-71712261D01*
X122960190Y-71759880D01*
X123007809Y-71783690D01*
X123055428Y-71783690D01*
X123484000Y-71783690D02*
X123198285Y-71783690D01*
X123341142Y-71783690D02*
X123341142Y-71283690D01*
X123293523Y-71355119D01*
X123245904Y-71402738D01*
X123198285Y-71426547D01*
X123698285Y-71593214D02*
X124079238Y-71593214D01*
X124317333Y-71783690D02*
X124317333Y-71450357D01*
X124317333Y-71283690D02*
X124293523Y-71307500D01*
X124317333Y-71331309D01*
X124341142Y-71307500D01*
X124317333Y-71283690D01*
X124317333Y-71331309D01*
X124555428Y-71450357D02*
X124555428Y-71783690D01*
X124555428Y-71497976D02*
X124579238Y-71474166D01*
X124626857Y-71450357D01*
X124698285Y-71450357D01*
X124745904Y-71474166D01*
X124769714Y-71521785D01*
X124769714Y-71783690D01*
X124936380Y-71450357D02*
X125126857Y-71450357D01*
X125007809Y-71283690D02*
X125007809Y-71712261D01*
X125031619Y-71759880D01*
X125079238Y-71783690D01*
X125126857Y-71783690D01*
X125484000Y-71759880D02*
X125436380Y-71783690D01*
X125341142Y-71783690D01*
X125293523Y-71759880D01*
X125269714Y-71712261D01*
X125269714Y-71521785D01*
X125293523Y-71474166D01*
X125341142Y-71450357D01*
X125436380Y-71450357D01*
X125484000Y-71474166D01*
X125507809Y-71521785D01*
X125507809Y-71569404D01*
X125269714Y-71617023D01*
X125722095Y-71783690D02*
X125722095Y-71450357D01*
X125722095Y-71545595D02*
X125745904Y-71497976D01*
X125769714Y-71474166D01*
X125817333Y-71450357D01*
X125864952Y-71450357D01*
X125960190Y-71450357D02*
X126150666Y-71450357D01*
X126031619Y-71783690D02*
X126031619Y-71355119D01*
X126055428Y-71307500D01*
X126103047Y-71283690D01*
X126150666Y-71283690D01*
X126531619Y-71783690D02*
X126531619Y-71521785D01*
X126507809Y-71474166D01*
X126460190Y-71450357D01*
X126364952Y-71450357D01*
X126317333Y-71474166D01*
X126531619Y-71759880D02*
X126484000Y-71783690D01*
X126364952Y-71783690D01*
X126317333Y-71759880D01*
X126293523Y-71712261D01*
X126293523Y-71664642D01*
X126317333Y-71617023D01*
X126364952Y-71593214D01*
X126484000Y-71593214D01*
X126531619Y-71569404D01*
X126984000Y-71759880D02*
X126936380Y-71783690D01*
X126841142Y-71783690D01*
X126793523Y-71759880D01*
X126769714Y-71736071D01*
X126745904Y-71688452D01*
X126745904Y-71545595D01*
X126769714Y-71497976D01*
X126793523Y-71474166D01*
X126841142Y-71450357D01*
X126936380Y-71450357D01*
X126984000Y-71474166D01*
X127388761Y-71759880D02*
X127341142Y-71783690D01*
X127245904Y-71783690D01*
X127198285Y-71759880D01*
X127174476Y-71712261D01*
X127174476Y-71521785D01*
X127198285Y-71474166D01*
X127245904Y-71450357D01*
X127341142Y-71450357D01*
X127388761Y-71474166D01*
X127412571Y-71521785D01*
X127412571Y-71569404D01*
X127174476Y-71617023D01*
X127626857Y-71593214D02*
X128007809Y-71593214D01*
X128245904Y-71450357D02*
X128245904Y-71950357D01*
X128484000Y-71712261D02*
X128507809Y-71759880D01*
X128555428Y-71783690D01*
X128245904Y-71712261D02*
X128269714Y-71759880D01*
X128317333Y-71783690D01*
X128412571Y-71783690D01*
X128460190Y-71759880D01*
X128484000Y-71712261D01*
X128484000Y-71450357D01*
X128745904Y-71759880D02*
X128793523Y-71783690D01*
X128888761Y-71783690D01*
X128936380Y-71759880D01*
X128960190Y-71712261D01*
X128960190Y-71688452D01*
X128936380Y-71640833D01*
X128888761Y-71617023D01*
X128817333Y-71617023D01*
X128769714Y-71593214D01*
X128745904Y-71545595D01*
X128745904Y-71521785D01*
X128769714Y-71474166D01*
X128817333Y-71450357D01*
X128888761Y-71450357D01*
X128936380Y-71474166D01*
X129103047Y-71450357D02*
X129293523Y-71450357D01*
X129174476Y-71283690D02*
X129174476Y-71712261D01*
X129198285Y-71759880D01*
X129245904Y-71783690D01*
X129293523Y-71783690D01*
X129674476Y-71783690D02*
X129674476Y-71521785D01*
X129650666Y-71474166D01*
X129603047Y-71450357D01*
X129507809Y-71450357D01*
X129460190Y-71474166D01*
X129674476Y-71759880D02*
X129626857Y-71783690D01*
X129507809Y-71783690D01*
X129460190Y-71759880D01*
X129436380Y-71712261D01*
X129436380Y-71664642D01*
X129460190Y-71617023D01*
X129507809Y-71593214D01*
X129626857Y-71593214D01*
X129674476Y-71569404D01*
X129912571Y-71783690D02*
X129912571Y-71450357D01*
X129912571Y-71545595D02*
X129936380Y-71497976D01*
X129960190Y-71474166D01*
X130007809Y-71450357D01*
X130055428Y-71450357D01*
X130150666Y-71450357D02*
X130341142Y-71450357D01*
X130222095Y-71283690D02*
X130222095Y-71712261D01*
X130245904Y-71759880D01*
X130293523Y-71783690D01*
X130341142Y-71783690D01*
D10*
X113585714Y-78656571D02*
X113585714Y-77656571D01*
X113585714Y-77942285D02*
X113657142Y-77799428D01*
X113728571Y-77728000D01*
X113871428Y-77656571D01*
X114014285Y-77656571D01*
X114371428Y-78656571D02*
X115157142Y-77656571D01*
X114371428Y-77656571D02*
X115157142Y-78656571D01*
X115947142Y-77656571D02*
X116518571Y-77656571D01*
X116161428Y-77156571D02*
X116161428Y-78442285D01*
X116232857Y-78585142D01*
X116375714Y-78656571D01*
X116518571Y-78656571D01*
X116875714Y-78656571D02*
X117661428Y-77656571D01*
X116875714Y-77656571D02*
X117661428Y-78656571D01*
X118808571Y-78085142D02*
X119951428Y-78085142D01*
X118808571Y-71227142D02*
X119951428Y-71227142D01*
X116268571Y-71227142D02*
X117411428Y-71227142D01*
X116840000Y-71798571D02*
X116840000Y-70655714D01*
X113728571Y-71227142D02*
X114871428Y-71227142D01*
X114300000Y-71798571D02*
X114300000Y-70655714D01*
X134302571Y-85197142D02*
X135445428Y-85197142D01*
X126936571Y-84943142D02*
X128079428Y-84943142D01*
X127508000Y-85514571D02*
X127508000Y-84371714D01*
D11*
X62416666Y-105093690D02*
X62416666Y-105450833D01*
X62392857Y-105522261D01*
X62345238Y-105569880D01*
X62273809Y-105593690D01*
X62226190Y-105593690D01*
X62869047Y-105260357D02*
X62869047Y-105593690D01*
X62654761Y-105260357D02*
X62654761Y-105522261D01*
X62678571Y-105569880D01*
X62726190Y-105593690D01*
X62797619Y-105593690D01*
X62845238Y-105569880D01*
X62869047Y-105546071D01*
X63107142Y-105593690D02*
X63107142Y-105260357D01*
X63107142Y-105307976D02*
X63130952Y-105284166D01*
X63178571Y-105260357D01*
X63250000Y-105260357D01*
X63297619Y-105284166D01*
X63321428Y-105331785D01*
X63321428Y-105593690D01*
X63321428Y-105331785D02*
X63345238Y-105284166D01*
X63392857Y-105260357D01*
X63464285Y-105260357D01*
X63511904Y-105284166D01*
X63535714Y-105331785D01*
X63535714Y-105593690D01*
X63773809Y-105260357D02*
X63773809Y-105760357D01*
X63773809Y-105284166D02*
X63821428Y-105260357D01*
X63916666Y-105260357D01*
X63964285Y-105284166D01*
X63988095Y-105307976D01*
X64011904Y-105355595D01*
X64011904Y-105498452D01*
X63988095Y-105546071D01*
X63964285Y-105569880D01*
X63916666Y-105593690D01*
X63821428Y-105593690D01*
X63773809Y-105569880D01*
X64416666Y-105569880D02*
X64369047Y-105593690D01*
X64273809Y-105593690D01*
X64226190Y-105569880D01*
X64202380Y-105522261D01*
X64202380Y-105331785D01*
X64226190Y-105284166D01*
X64273809Y-105260357D01*
X64369047Y-105260357D01*
X64416666Y-105284166D01*
X64440476Y-105331785D01*
X64440476Y-105379404D01*
X64202380Y-105427023D01*
X64654761Y-105593690D02*
X64654761Y-105260357D01*
X64654761Y-105355595D02*
X64678571Y-105307976D01*
X64702380Y-105284166D01*
X64750000Y-105260357D01*
X64797619Y-105260357D01*
X61797619Y-106468690D02*
X61630952Y-106230595D01*
X61511904Y-106468690D02*
X61511904Y-105968690D01*
X61702380Y-105968690D01*
X61750000Y-105992500D01*
X61773809Y-106016309D01*
X61797619Y-106063928D01*
X61797619Y-106135357D01*
X61773809Y-106182976D01*
X61750000Y-106206785D01*
X61702380Y-106230595D01*
X61511904Y-106230595D01*
X61964285Y-105968690D02*
X62297619Y-106468690D01*
X62297619Y-105968690D02*
X61964285Y-106468690D01*
X63369047Y-106635357D02*
X63369047Y-105921071D01*
X64416666Y-105968690D02*
X64702380Y-105968690D01*
X64559523Y-106468690D02*
X64559523Y-105968690D01*
X64821428Y-105968690D02*
X65154761Y-106468690D01*
X65154761Y-105968690D02*
X64821428Y-106468690D01*
X59904761Y-107153214D02*
X60285714Y-107153214D01*
X60523809Y-107153214D02*
X60904761Y-107153214D01*
X61142857Y-107153214D02*
X61523809Y-107153214D01*
X61761904Y-107153214D02*
X62142857Y-107153214D01*
X62380952Y-107153214D02*
X62761904Y-107153214D01*
X63000000Y-107153214D02*
X63380952Y-107153214D01*
X63619047Y-107153214D02*
X64000000Y-107153214D01*
X64238095Y-107153214D02*
X64619047Y-107153214D01*
X64857142Y-107153214D02*
X65238095Y-107153214D01*
X65476190Y-107153214D02*
X65857142Y-107153214D01*
X66095238Y-107153214D02*
X66476190Y-107153214D01*
X66714285Y-107153214D02*
X67095238Y-107153214D01*
X61428571Y-107956785D02*
X61500000Y-107980595D01*
X61523809Y-108004404D01*
X61547619Y-108052023D01*
X61547619Y-108123452D01*
X61523809Y-108171071D01*
X61500000Y-108194880D01*
X61452380Y-108218690D01*
X61261904Y-108218690D01*
X61261904Y-107718690D01*
X61428571Y-107718690D01*
X61476190Y-107742500D01*
X61500000Y-107766309D01*
X61523809Y-107813928D01*
X61523809Y-107861547D01*
X61500000Y-107909166D01*
X61476190Y-107932976D01*
X61428571Y-107956785D01*
X61261904Y-107956785D01*
X61976190Y-107885357D02*
X61976190Y-108218690D01*
X61761904Y-107885357D02*
X61761904Y-108147261D01*
X61785714Y-108194880D01*
X61833333Y-108218690D01*
X61904761Y-108218690D01*
X61952380Y-108194880D01*
X61976190Y-108171071D01*
X62142857Y-107885357D02*
X62333333Y-107885357D01*
X62214285Y-107718690D02*
X62214285Y-108147261D01*
X62238095Y-108194880D01*
X62285714Y-108218690D01*
X62333333Y-108218690D01*
X62476190Y-107766309D02*
X62500000Y-107742500D01*
X62547619Y-107718690D01*
X62666666Y-107718690D01*
X62714285Y-107742500D01*
X62738095Y-107766309D01*
X62761904Y-107813928D01*
X62761904Y-107861547D01*
X62738095Y-107932976D01*
X62452380Y-108218690D01*
X62761904Y-108218690D01*
X63476190Y-108385357D02*
X63476190Y-107671071D01*
X64452380Y-108218690D02*
X64214285Y-108218690D01*
X64214285Y-107718690D01*
X64809523Y-108194880D02*
X64761904Y-108218690D01*
X64666666Y-108218690D01*
X64619047Y-108194880D01*
X64595238Y-108147261D01*
X64595238Y-107956785D01*
X64619047Y-107909166D01*
X64666666Y-107885357D01*
X64761904Y-107885357D01*
X64809523Y-107909166D01*
X64833333Y-107956785D01*
X64833333Y-108004404D01*
X64595238Y-108052023D01*
X65261904Y-108218690D02*
X65261904Y-107718690D01*
X65261904Y-108194880D02*
X65214285Y-108218690D01*
X65119047Y-108218690D01*
X65071428Y-108194880D01*
X65047619Y-108171071D01*
X65023809Y-108123452D01*
X65023809Y-107980595D01*
X65047619Y-107932976D01*
X65071428Y-107909166D01*
X65119047Y-107885357D01*
X65214285Y-107885357D01*
X65261904Y-107909166D01*
X65476190Y-107766309D02*
X65500000Y-107742500D01*
X65547619Y-107718690D01*
X65666666Y-107718690D01*
X65714285Y-107742500D01*
X65738095Y-107766309D01*
X65761904Y-107813928D01*
X65761904Y-107861547D01*
X65738095Y-107932976D01*
X65452380Y-108218690D01*
X65761904Y-108218690D01*
X49252761Y-99872690D02*
X49252761Y-100229833D01*
X49228952Y-100301261D01*
X49181333Y-100348880D01*
X49109904Y-100372690D01*
X49062285Y-100372690D01*
X49490857Y-99872690D02*
X49490857Y-100277452D01*
X49514666Y-100325071D01*
X49538476Y-100348880D01*
X49586095Y-100372690D01*
X49681333Y-100372690D01*
X49728952Y-100348880D01*
X49752761Y-100325071D01*
X49776571Y-100277452D01*
X49776571Y-99872690D01*
X50014666Y-100372690D02*
X50014666Y-99872690D01*
X50181333Y-100229833D01*
X50348000Y-99872690D01*
X50348000Y-100372690D01*
X50586095Y-100372690D02*
X50586095Y-99872690D01*
X50776571Y-99872690D01*
X50824190Y-99896500D01*
X50848000Y-99920309D01*
X50871809Y-99967928D01*
X50871809Y-100039357D01*
X50848000Y-100086976D01*
X50824190Y-100110785D01*
X50776571Y-100134595D01*
X50586095Y-100134595D01*
X51086095Y-100110785D02*
X51252761Y-100110785D01*
X51324190Y-100372690D02*
X51086095Y-100372690D01*
X51086095Y-99872690D01*
X51324190Y-99872690D01*
X51824190Y-100372690D02*
X51657523Y-100134595D01*
X51538476Y-100372690D02*
X51538476Y-99872690D01*
X51728952Y-99872690D01*
X51776571Y-99896500D01*
X51800380Y-99920309D01*
X51824190Y-99967928D01*
X51824190Y-100039357D01*
X51800380Y-100086976D01*
X51776571Y-100110785D01*
X51728952Y-100134595D01*
X51538476Y-100134595D01*
X52681333Y-99896500D02*
X52633714Y-99872690D01*
X52562285Y-99872690D01*
X52490857Y-99896500D01*
X52443238Y-99944119D01*
X52419428Y-99991738D01*
X52395619Y-100086976D01*
X52395619Y-100158404D01*
X52419428Y-100253642D01*
X52443238Y-100301261D01*
X52490857Y-100348880D01*
X52562285Y-100372690D01*
X52609904Y-100372690D01*
X52681333Y-100348880D01*
X52705142Y-100325071D01*
X52705142Y-100158404D01*
X52609904Y-100158404D01*
X53205142Y-100372690D02*
X53038476Y-100134595D01*
X52919428Y-100372690D02*
X52919428Y-99872690D01*
X53109904Y-99872690D01*
X53157523Y-99896500D01*
X53181333Y-99920309D01*
X53205142Y-99967928D01*
X53205142Y-100039357D01*
X53181333Y-100086976D01*
X53157523Y-100110785D01*
X53109904Y-100134595D01*
X52919428Y-100134595D01*
X53514666Y-99872690D02*
X53609904Y-99872690D01*
X53657523Y-99896500D01*
X53705142Y-99944119D01*
X53728952Y-100039357D01*
X53728952Y-100206023D01*
X53705142Y-100301261D01*
X53657523Y-100348880D01*
X53609904Y-100372690D01*
X53514666Y-100372690D01*
X53467047Y-100348880D01*
X53419428Y-100301261D01*
X53395619Y-100206023D01*
X53395619Y-100039357D01*
X53419428Y-99944119D01*
X53467047Y-99896500D01*
X53514666Y-99872690D01*
X53943238Y-99872690D02*
X53943238Y-100277452D01*
X53967047Y-100325071D01*
X53990857Y-100348880D01*
X54038476Y-100372690D01*
X54133714Y-100372690D01*
X54181333Y-100348880D01*
X54205142Y-100325071D01*
X54228952Y-100277452D01*
X54228952Y-99872690D01*
X54467047Y-100372690D02*
X54467047Y-99872690D01*
X54752761Y-100372690D01*
X54752761Y-99872690D01*
X54990857Y-100372690D02*
X54990857Y-99872690D01*
X55109904Y-99872690D01*
X55181333Y-99896500D01*
X55228952Y-99944119D01*
X55252761Y-99991738D01*
X55276571Y-100086976D01*
X55276571Y-100158404D01*
X55252761Y-100253642D01*
X55228952Y-100301261D01*
X55181333Y-100348880D01*
X55109904Y-100372690D01*
X54990857Y-100372690D01*
X55848000Y-100348880D02*
X55919428Y-100372690D01*
X56038476Y-100372690D01*
X56086095Y-100348880D01*
X56109904Y-100325071D01*
X56133714Y-100277452D01*
X56133714Y-100229833D01*
X56109904Y-100182214D01*
X56086095Y-100158404D01*
X56038476Y-100134595D01*
X55943238Y-100110785D01*
X55895619Y-100086976D01*
X55871809Y-100063166D01*
X55848000Y-100015547D01*
X55848000Y-99967928D01*
X55871809Y-99920309D01*
X55895619Y-99896500D01*
X55943238Y-99872690D01*
X56062285Y-99872690D01*
X56133714Y-99896500D01*
X56348000Y-100110785D02*
X56514666Y-100110785D01*
X56586095Y-100372690D02*
X56348000Y-100372690D01*
X56348000Y-99872690D01*
X56586095Y-99872690D01*
X56800380Y-100372690D02*
X56800380Y-99872690D01*
X57086095Y-100372690D01*
X57086095Y-99872690D01*
X57300380Y-100348880D02*
X57371809Y-100372690D01*
X57490857Y-100372690D01*
X57538476Y-100348880D01*
X57562285Y-100325071D01*
X57586095Y-100277452D01*
X57586095Y-100229833D01*
X57562285Y-100182214D01*
X57538476Y-100158404D01*
X57490857Y-100134595D01*
X57395619Y-100110785D01*
X57347999Y-100086976D01*
X57324190Y-100063166D01*
X57300380Y-100015547D01*
X57300380Y-99967928D01*
X57324190Y-99920309D01*
X57347999Y-99896500D01*
X57395619Y-99872690D01*
X57514666Y-99872690D01*
X57586095Y-99896500D01*
X57895619Y-99872690D02*
X57990857Y-99872690D01*
X58038476Y-99896500D01*
X58086095Y-99944119D01*
X58109904Y-100039357D01*
X58109904Y-100206023D01*
X58086095Y-100301261D01*
X58038476Y-100348880D01*
X57990857Y-100372690D01*
X57895619Y-100372690D01*
X57847999Y-100348880D01*
X57800380Y-100301261D01*
X57776571Y-100206023D01*
X57776571Y-100039357D01*
X57800380Y-99944119D01*
X57847999Y-99896500D01*
X57895619Y-99872690D01*
X58609904Y-100372690D02*
X58443238Y-100134595D01*
X58324190Y-100372690D02*
X58324190Y-99872690D01*
X58514666Y-99872690D01*
X58562285Y-99896500D01*
X58586095Y-99920309D01*
X58609904Y-99967928D01*
X58609904Y-100039357D01*
X58586095Y-100086976D01*
X58562285Y-100110785D01*
X58514666Y-100134595D01*
X58324190Y-100134595D01*
X50728952Y-100747690D02*
X50490857Y-100747690D01*
X50467047Y-100985785D01*
X50490857Y-100961976D01*
X50538476Y-100938166D01*
X50657523Y-100938166D01*
X50705142Y-100961976D01*
X50728952Y-100985785D01*
X50752761Y-101033404D01*
X50752761Y-101152452D01*
X50728952Y-101200071D01*
X50705142Y-101223880D01*
X50657523Y-101247690D01*
X50538476Y-101247690D01*
X50490857Y-101223880D01*
X50467047Y-101200071D01*
X50895619Y-100747690D02*
X51062285Y-101247690D01*
X51228952Y-100747690D01*
X51395619Y-101057214D02*
X51776571Y-101057214D01*
X52014666Y-101247690D02*
X52014666Y-100747690D01*
X52205142Y-100747690D01*
X52252761Y-100771500D01*
X52276571Y-100795309D01*
X52300380Y-100842928D01*
X52300380Y-100914357D01*
X52276571Y-100961976D01*
X52252761Y-100985785D01*
X52205142Y-101009595D01*
X52014666Y-101009595D01*
X52467047Y-100747690D02*
X52586095Y-101247690D01*
X52681333Y-100890547D01*
X52776571Y-101247690D01*
X52895619Y-100747690D01*
X53371809Y-101247690D02*
X53205142Y-101009595D01*
X53086095Y-101247690D02*
X53086095Y-100747690D01*
X53276571Y-100747690D01*
X53324190Y-100771500D01*
X53348000Y-100795309D01*
X53371809Y-100842928D01*
X53371809Y-100914357D01*
X53348000Y-100961976D01*
X53324190Y-100985785D01*
X53276571Y-101009595D01*
X53086095Y-101009595D01*
X53586095Y-101057214D02*
X53967047Y-101057214D01*
X54181333Y-101104833D02*
X54419428Y-101104833D01*
X54133714Y-101247690D02*
X54300380Y-100747690D01*
X54467047Y-101247690D01*
X54919428Y-101247690D02*
X54752761Y-101009595D01*
X54633714Y-101247690D02*
X54633714Y-100747690D01*
X54824190Y-100747690D01*
X54871809Y-100771500D01*
X54895619Y-100795309D01*
X54919428Y-100842928D01*
X54919428Y-100914357D01*
X54895619Y-100961976D01*
X54871809Y-100985785D01*
X54824190Y-101009595D01*
X54633714Y-101009595D01*
X55133714Y-101247690D02*
X55133714Y-100747690D01*
X55252761Y-100747690D01*
X55324190Y-100771500D01*
X55371809Y-100819119D01*
X55395619Y-100866738D01*
X55419428Y-100961976D01*
X55419428Y-101033404D01*
X55395619Y-101128642D01*
X55371809Y-101176261D01*
X55324190Y-101223880D01*
X55252761Y-101247690D01*
X55133714Y-101247690D01*
X55633714Y-100747690D02*
X55633714Y-101152452D01*
X55657523Y-101200071D01*
X55681333Y-101223880D01*
X55728952Y-101247690D01*
X55824190Y-101247690D01*
X55871809Y-101223880D01*
X55895619Y-101200071D01*
X55919428Y-101152452D01*
X55919428Y-100747690D01*
X56157523Y-101247690D02*
X56157523Y-100747690D01*
X56395619Y-101247690D02*
X56395619Y-100747690D01*
X56681333Y-101247690D01*
X56681333Y-100747690D01*
X57014666Y-100747690D02*
X57109904Y-100747690D01*
X57157523Y-100771500D01*
X57205142Y-100819119D01*
X57228952Y-100914357D01*
X57228952Y-101081023D01*
X57205142Y-101176261D01*
X57157523Y-101223880D01*
X57109904Y-101247690D01*
X57014666Y-101247690D01*
X56967047Y-101223880D01*
X56919428Y-101176261D01*
X56895619Y-101081023D01*
X56895619Y-100914357D01*
X56919428Y-100819119D01*
X56967047Y-100771500D01*
X57014666Y-100747690D01*
D12*
X65000000Y-58000000D02*
X65000000Y-46000000D01*
X88000000Y-58000000D02*
X65000000Y-58000000D01*
X88000000Y-46000000D02*
X88000000Y-58000000D01*
X65000000Y-46000000D02*
X88000000Y-46000000D01*
X102000000Y-58000000D02*
X102000000Y-46000000D01*
X125000000Y-58000000D02*
X102000000Y-58000000D01*
X125000000Y-46000000D02*
X125000000Y-58000000D01*
X102000000Y-46000000D02*
X125000000Y-46000000D01*
D13*
G04 #@! TO.C,PCB101*
X124500000Y-100000000D02*
X99500000Y-100000000D01*
X99500000Y-100000000D02*
X99500000Y-79000000D01*
X99500000Y-79000000D02*
X124500000Y-79000000D01*
X124500000Y-79000000D02*
X124500000Y-100000000D01*
G04 #@! TO.C,IC101*
X62760000Y-78856000D02*
X62760000Y-96890000D01*
X95526000Y-96890000D02*
X95526000Y-78856000D01*
X62760000Y-78856000D02*
X95526000Y-78856000D01*
X95526000Y-96890000D02*
X62760000Y-96890000D01*
D14*
G04 #@! TO.C,C101*
X119555722Y-102820277D02*
G75*
G03X114944420Y-102820000I-2305722J-1179723D01*
G01*
X119555722Y-105179723D02*
G75*
G02X114944420Y-105180000I-2305722J1179723D01*
G01*
X119555722Y-105179723D02*
G75*
G03X119555580Y-102820000I-2305722J1179723D01*
G01*
X117250000Y-101450000D02*
X117250000Y-106550000D01*
X117290000Y-101450000D02*
X117290000Y-106550000D01*
X117330000Y-101451000D02*
X117330000Y-106549000D01*
X117370000Y-101452000D02*
X117370000Y-106548000D01*
X117410000Y-101454000D02*
X117410000Y-106546000D01*
X117450000Y-101457000D02*
X117450000Y-106543000D01*
X117490000Y-101461000D02*
X117490000Y-106539000D01*
X117530000Y-101465000D02*
X117530000Y-103020000D01*
X117530000Y-104980000D02*
X117530000Y-106535000D01*
X117570000Y-101469000D02*
X117570000Y-103020000D01*
X117570000Y-104980000D02*
X117570000Y-106531000D01*
X117610000Y-101475000D02*
X117610000Y-103020000D01*
X117610000Y-104980000D02*
X117610000Y-106525000D01*
X117650000Y-101481000D02*
X117650000Y-103020000D01*
X117650000Y-104980000D02*
X117650000Y-106519000D01*
X117690000Y-101487000D02*
X117690000Y-103020000D01*
X117690000Y-104980000D02*
X117690000Y-106513000D01*
X117730000Y-101494000D02*
X117730000Y-103020000D01*
X117730000Y-104980000D02*
X117730000Y-106506000D01*
X117770000Y-101502000D02*
X117770000Y-103020000D01*
X117770000Y-104980000D02*
X117770000Y-106498000D01*
X117810000Y-101511000D02*
X117810000Y-103020000D01*
X117810000Y-104980000D02*
X117810000Y-106489000D01*
X117850000Y-101520000D02*
X117850000Y-103020000D01*
X117850000Y-104980000D02*
X117850000Y-106480000D01*
X117890000Y-101530000D02*
X117890000Y-103020000D01*
X117890000Y-104980000D02*
X117890000Y-106470000D01*
X117930000Y-101540000D02*
X117930000Y-103020000D01*
X117930000Y-104980000D02*
X117930000Y-106460000D01*
X117971000Y-101552000D02*
X117971000Y-103020000D01*
X117971000Y-104980000D02*
X117971000Y-106448000D01*
X118011000Y-101564000D02*
X118011000Y-103020000D01*
X118011000Y-104980000D02*
X118011000Y-106436000D01*
X118051000Y-101576000D02*
X118051000Y-103020000D01*
X118051000Y-104980000D02*
X118051000Y-106424000D01*
X118091000Y-101590000D02*
X118091000Y-103020000D01*
X118091000Y-104980000D02*
X118091000Y-106410000D01*
X118131000Y-101604000D02*
X118131000Y-103020000D01*
X118131000Y-104980000D02*
X118131000Y-106396000D01*
X118171000Y-101618000D02*
X118171000Y-103020000D01*
X118171000Y-104980000D02*
X118171000Y-106382000D01*
X118211000Y-101634000D02*
X118211000Y-103020000D01*
X118211000Y-104980000D02*
X118211000Y-106366000D01*
X118251000Y-101650000D02*
X118251000Y-103020000D01*
X118251000Y-104980000D02*
X118251000Y-106350000D01*
X118291000Y-101667000D02*
X118291000Y-103020000D01*
X118291000Y-104980000D02*
X118291000Y-106333000D01*
X118331000Y-101685000D02*
X118331000Y-103020000D01*
X118331000Y-104980000D02*
X118331000Y-106315000D01*
X118371000Y-101704000D02*
X118371000Y-103020000D01*
X118371000Y-104980000D02*
X118371000Y-106296000D01*
X118411000Y-101724000D02*
X118411000Y-103020000D01*
X118411000Y-104980000D02*
X118411000Y-106276000D01*
X118451000Y-101744000D02*
X118451000Y-103020000D01*
X118451000Y-104980000D02*
X118451000Y-106256000D01*
X118491000Y-101766000D02*
X118491000Y-103020000D01*
X118491000Y-104980000D02*
X118491000Y-106234000D01*
X118531000Y-101788000D02*
X118531000Y-103020000D01*
X118531000Y-104980000D02*
X118531000Y-106212000D01*
X118571000Y-101811000D02*
X118571000Y-103020000D01*
X118571000Y-104980000D02*
X118571000Y-106189000D01*
X118611000Y-101835000D02*
X118611000Y-103020000D01*
X118611000Y-104980000D02*
X118611000Y-106165000D01*
X118651000Y-101860000D02*
X118651000Y-103020000D01*
X118651000Y-104980000D02*
X118651000Y-106140000D01*
X118691000Y-101887000D02*
X118691000Y-103020000D01*
X118691000Y-104980000D02*
X118691000Y-106113000D01*
X118731000Y-101914000D02*
X118731000Y-103020000D01*
X118731000Y-104980000D02*
X118731000Y-106086000D01*
X118771000Y-101942000D02*
X118771000Y-103020000D01*
X118771000Y-104980000D02*
X118771000Y-106058000D01*
X118811000Y-101972000D02*
X118811000Y-103020000D01*
X118811000Y-104980000D02*
X118811000Y-106028000D01*
X118851000Y-102003000D02*
X118851000Y-103020000D01*
X118851000Y-104980000D02*
X118851000Y-105997000D01*
X118891000Y-102035000D02*
X118891000Y-103020000D01*
X118891000Y-104980000D02*
X118891000Y-105965000D01*
X118931000Y-102068000D02*
X118931000Y-103020000D01*
X118931000Y-104980000D02*
X118931000Y-105932000D01*
X118971000Y-102103000D02*
X118971000Y-103020000D01*
X118971000Y-104980000D02*
X118971000Y-105897000D01*
X119011000Y-102139000D02*
X119011000Y-103020000D01*
X119011000Y-104980000D02*
X119011000Y-105861000D01*
X119051000Y-102177000D02*
X119051000Y-103020000D01*
X119051000Y-104980000D02*
X119051000Y-105823000D01*
X119091000Y-102217000D02*
X119091000Y-103020000D01*
X119091000Y-104980000D02*
X119091000Y-105783000D01*
X119131000Y-102258000D02*
X119131000Y-103020000D01*
X119131000Y-104980000D02*
X119131000Y-105742000D01*
X119171000Y-102301000D02*
X119171000Y-103020000D01*
X119171000Y-104980000D02*
X119171000Y-105699000D01*
X119211000Y-102346000D02*
X119211000Y-103020000D01*
X119211000Y-104980000D02*
X119211000Y-105654000D01*
X119251000Y-102394000D02*
X119251000Y-103020000D01*
X119251000Y-104980000D02*
X119251000Y-105606000D01*
X119291000Y-102444000D02*
X119291000Y-103020000D01*
X119291000Y-104980000D02*
X119291000Y-105556000D01*
X119331000Y-102496000D02*
X119331000Y-103020000D01*
X119331000Y-104980000D02*
X119331000Y-105504000D01*
X119371000Y-102552000D02*
X119371000Y-103020000D01*
X119371000Y-104980000D02*
X119371000Y-105448000D01*
X119411000Y-102610000D02*
X119411000Y-103020000D01*
X119411000Y-104980000D02*
X119411000Y-105390000D01*
X119451000Y-102673000D02*
X119451000Y-103020000D01*
X119451000Y-104980000D02*
X119451000Y-105327000D01*
X119491000Y-102739000D02*
X119491000Y-105261000D01*
X119531000Y-102811000D02*
X119531000Y-105189000D01*
X119571000Y-102888000D02*
X119571000Y-105112000D01*
X119611000Y-102972000D02*
X119611000Y-105028000D01*
X119651000Y-103066000D02*
X119651000Y-104934000D01*
X119691000Y-103171000D02*
X119691000Y-104829000D01*
X119731000Y-103293000D02*
X119731000Y-104707000D01*
X119771000Y-103441000D02*
X119771000Y-104559000D01*
X119811000Y-103646000D02*
X119811000Y-104354000D01*
X113800000Y-104000000D02*
X115000000Y-104000000D01*
X114400000Y-103350000D02*
X114400000Y-104650000D01*
G04 #@! TO.C,C102*
X108400000Y-103350000D02*
X108400000Y-104650000D01*
X107800000Y-104000000D02*
X109000000Y-104000000D01*
X113811000Y-103646000D02*
X113811000Y-104354000D01*
X113771000Y-103441000D02*
X113771000Y-104559000D01*
X113731000Y-103293000D02*
X113731000Y-104707000D01*
X113691000Y-103171000D02*
X113691000Y-104829000D01*
X113651000Y-103066000D02*
X113651000Y-104934000D01*
X113611000Y-102972000D02*
X113611000Y-105028000D01*
X113571000Y-102888000D02*
X113571000Y-105112000D01*
X113531000Y-102811000D02*
X113531000Y-105189000D01*
X113491000Y-102739000D02*
X113491000Y-105261000D01*
X113451000Y-104980000D02*
X113451000Y-105327000D01*
X113451000Y-102673000D02*
X113451000Y-103020000D01*
X113411000Y-104980000D02*
X113411000Y-105390000D01*
X113411000Y-102610000D02*
X113411000Y-103020000D01*
X113371000Y-104980000D02*
X113371000Y-105448000D01*
X113371000Y-102552000D02*
X113371000Y-103020000D01*
X113331000Y-104980000D02*
X113331000Y-105504000D01*
X113331000Y-102496000D02*
X113331000Y-103020000D01*
X113291000Y-104980000D02*
X113291000Y-105556000D01*
X113291000Y-102444000D02*
X113291000Y-103020000D01*
X113251000Y-104980000D02*
X113251000Y-105606000D01*
X113251000Y-102394000D02*
X113251000Y-103020000D01*
X113211000Y-104980000D02*
X113211000Y-105654000D01*
X113211000Y-102346000D02*
X113211000Y-103020000D01*
X113171000Y-104980000D02*
X113171000Y-105699000D01*
X113171000Y-102301000D02*
X113171000Y-103020000D01*
X113131000Y-104980000D02*
X113131000Y-105742000D01*
X113131000Y-102258000D02*
X113131000Y-103020000D01*
X113091000Y-104980000D02*
X113091000Y-105783000D01*
X113091000Y-102217000D02*
X113091000Y-103020000D01*
X113051000Y-104980000D02*
X113051000Y-105823000D01*
X113051000Y-102177000D02*
X113051000Y-103020000D01*
X113011000Y-104980000D02*
X113011000Y-105861000D01*
X113011000Y-102139000D02*
X113011000Y-103020000D01*
X112971000Y-104980000D02*
X112971000Y-105897000D01*
X112971000Y-102103000D02*
X112971000Y-103020000D01*
X112931000Y-104980000D02*
X112931000Y-105932000D01*
X112931000Y-102068000D02*
X112931000Y-103020000D01*
X112891000Y-104980000D02*
X112891000Y-105965000D01*
X112891000Y-102035000D02*
X112891000Y-103020000D01*
X112851000Y-104980000D02*
X112851000Y-105997000D01*
X112851000Y-102003000D02*
X112851000Y-103020000D01*
X112811000Y-104980000D02*
X112811000Y-106028000D01*
X112811000Y-101972000D02*
X112811000Y-103020000D01*
X112771000Y-104980000D02*
X112771000Y-106058000D01*
X112771000Y-101942000D02*
X112771000Y-103020000D01*
X112731000Y-104980000D02*
X112731000Y-106086000D01*
X112731000Y-101914000D02*
X112731000Y-103020000D01*
X112691000Y-104980000D02*
X112691000Y-106113000D01*
X112691000Y-101887000D02*
X112691000Y-103020000D01*
X112651000Y-104980000D02*
X112651000Y-106140000D01*
X112651000Y-101860000D02*
X112651000Y-103020000D01*
X112611000Y-104980000D02*
X112611000Y-106165000D01*
X112611000Y-101835000D02*
X112611000Y-103020000D01*
X112571000Y-104980000D02*
X112571000Y-106189000D01*
X112571000Y-101811000D02*
X112571000Y-103020000D01*
X112531000Y-104980000D02*
X112531000Y-106212000D01*
X112531000Y-101788000D02*
X112531000Y-103020000D01*
X112491000Y-104980000D02*
X112491000Y-106234000D01*
X112491000Y-101766000D02*
X112491000Y-103020000D01*
X112451000Y-104980000D02*
X112451000Y-106256000D01*
X112451000Y-101744000D02*
X112451000Y-103020000D01*
X112411000Y-104980000D02*
X112411000Y-106276000D01*
X112411000Y-101724000D02*
X112411000Y-103020000D01*
X112371000Y-104980000D02*
X112371000Y-106296000D01*
X112371000Y-101704000D02*
X112371000Y-103020000D01*
X112331000Y-104980000D02*
X112331000Y-106315000D01*
X112331000Y-101685000D02*
X112331000Y-103020000D01*
X112291000Y-104980000D02*
X112291000Y-106333000D01*
X112291000Y-101667000D02*
X112291000Y-103020000D01*
X112251000Y-104980000D02*
X112251000Y-106350000D01*
X112251000Y-101650000D02*
X112251000Y-103020000D01*
X112211000Y-104980000D02*
X112211000Y-106366000D01*
X112211000Y-101634000D02*
X112211000Y-103020000D01*
X112171000Y-104980000D02*
X112171000Y-106382000D01*
X112171000Y-101618000D02*
X112171000Y-103020000D01*
X112131000Y-104980000D02*
X112131000Y-106396000D01*
X112131000Y-101604000D02*
X112131000Y-103020000D01*
X112091000Y-104980000D02*
X112091000Y-106410000D01*
X112091000Y-101590000D02*
X112091000Y-103020000D01*
X112051000Y-104980000D02*
X112051000Y-106424000D01*
X112051000Y-101576000D02*
X112051000Y-103020000D01*
X112011000Y-104980000D02*
X112011000Y-106436000D01*
X112011000Y-101564000D02*
X112011000Y-103020000D01*
X111971000Y-104980000D02*
X111971000Y-106448000D01*
X111971000Y-101552000D02*
X111971000Y-103020000D01*
X111930000Y-104980000D02*
X111930000Y-106460000D01*
X111930000Y-101540000D02*
X111930000Y-103020000D01*
X111890000Y-104980000D02*
X111890000Y-106470000D01*
X111890000Y-101530000D02*
X111890000Y-103020000D01*
X111850000Y-104980000D02*
X111850000Y-106480000D01*
X111850000Y-101520000D02*
X111850000Y-103020000D01*
X111810000Y-104980000D02*
X111810000Y-106489000D01*
X111810000Y-101511000D02*
X111810000Y-103020000D01*
X111770000Y-104980000D02*
X111770000Y-106498000D01*
X111770000Y-101502000D02*
X111770000Y-103020000D01*
X111730000Y-104980000D02*
X111730000Y-106506000D01*
X111730000Y-101494000D02*
X111730000Y-103020000D01*
X111690000Y-104980000D02*
X111690000Y-106513000D01*
X111690000Y-101487000D02*
X111690000Y-103020000D01*
X111650000Y-104980000D02*
X111650000Y-106519000D01*
X111650000Y-101481000D02*
X111650000Y-103020000D01*
X111610000Y-104980000D02*
X111610000Y-106525000D01*
X111610000Y-101475000D02*
X111610000Y-103020000D01*
X111570000Y-104980000D02*
X111570000Y-106531000D01*
X111570000Y-101469000D02*
X111570000Y-103020000D01*
X111530000Y-104980000D02*
X111530000Y-106535000D01*
X111530000Y-101465000D02*
X111530000Y-103020000D01*
X111490000Y-101461000D02*
X111490000Y-106539000D01*
X111450000Y-101457000D02*
X111450000Y-106543000D01*
X111410000Y-101454000D02*
X111410000Y-106546000D01*
X111370000Y-101452000D02*
X111370000Y-106548000D01*
X111330000Y-101451000D02*
X111330000Y-106549000D01*
X111290000Y-101450000D02*
X111290000Y-106550000D01*
X111250000Y-101450000D02*
X111250000Y-106550000D01*
X113555722Y-105179723D02*
G75*
G03X113555580Y-102820000I-2305722J1179723D01*
G01*
X113555722Y-105179723D02*
G75*
G02X108944420Y-105180000I-2305722J1179723D01*
G01*
X113555722Y-102820277D02*
G75*
G03X108944420Y-102820000I-2305722J-1179723D01*
G01*
G04 #@! TO.C,J104*
X61154000Y-113598000D02*
X61154000Y-112268000D01*
X62484000Y-113598000D02*
X61154000Y-113598000D01*
X61154000Y-110998000D02*
X61154000Y-108398000D01*
X63754000Y-110998000D02*
X61154000Y-110998000D01*
X63754000Y-113598000D02*
X63754000Y-110998000D01*
X61154000Y-108398000D02*
X66354000Y-108398000D01*
X63754000Y-113598000D02*
X66354000Y-113598000D01*
X66354000Y-113598000D02*
X66354000Y-108398000D01*
G04 #@! TO.C,J106*
X49670000Y-104330000D02*
X49670000Y-103000000D01*
X51000000Y-104330000D02*
X49670000Y-104330000D01*
X52270000Y-104330000D02*
X52270000Y-101670000D01*
X52270000Y-101670000D02*
X57410000Y-101670000D01*
X52270000Y-104330000D02*
X57410000Y-104330000D01*
X57410000Y-104330000D02*
X57410000Y-101670000D01*
G04 #@! TO.C,Q101*
X57122795Y-94135816D02*
G75*
G02X57850000Y-94660000I-1122795J-2324184D01*
G01*
X54901193Y-94103600D02*
G75*
G03X53400000Y-96460000I1098807J-2356400D01*
G01*
X54901193Y-98816400D02*
G75*
G02X53400000Y-96460000I1098807J2356400D01*
G01*
X57122795Y-98784184D02*
G75*
G03X57850000Y-98260000I-1122795J2324184D01*
G01*
X57850000Y-98260000D02*
X57850000Y-94660000D01*
G04 #@! TO.C,Q102*
X129214000Y-90656000D02*
X129214000Y-94256000D01*
X129941205Y-90131816D02*
G75*
G03X129214000Y-90656000I1122795J-2324184D01*
G01*
X132162807Y-90099600D02*
G75*
G02X133664000Y-92456000I-1098807J-2356400D01*
G01*
X132162807Y-94812400D02*
G75*
G03X133664000Y-92456000I-1098807J2356400D01*
G01*
X129941205Y-94780184D02*
G75*
G02X129214000Y-94256000I1122795J2324184D01*
G01*
G04 #@! TO.C,R101*
X76744000Y-88392000D02*
X75854000Y-88392000D01*
X68544000Y-88392000D02*
X69434000Y-88392000D01*
X75854000Y-87082000D02*
X69434000Y-87082000D01*
X75854000Y-89702000D02*
X75854000Y-87082000D01*
X69434000Y-89702000D02*
X75854000Y-89702000D01*
X69434000Y-87082000D02*
X69434000Y-89702000D01*
G04 #@! TO.C,R102*
X56000000Y-81820000D02*
X56000000Y-82710000D01*
X56000000Y-90020000D02*
X56000000Y-89130000D01*
X54690000Y-82710000D02*
X54690000Y-89130000D01*
X57310000Y-82710000D02*
X54690000Y-82710000D01*
X57310000Y-89130000D02*
X57310000Y-82710000D01*
X54690000Y-89130000D02*
X57310000Y-89130000D01*
G04 #@! TO.C,R103*
X58690000Y-89130000D02*
X61310000Y-89130000D01*
X61310000Y-89130000D02*
X61310000Y-82710000D01*
X61310000Y-82710000D02*
X58690000Y-82710000D01*
X58690000Y-82710000D02*
X58690000Y-89130000D01*
X60000000Y-90020000D02*
X60000000Y-89130000D01*
X60000000Y-81820000D02*
X60000000Y-82710000D01*
G04 #@! TO.C,R104*
X83820000Y-88000000D02*
X84710000Y-88000000D01*
X92020000Y-88000000D02*
X91130000Y-88000000D01*
X84710000Y-89310000D02*
X91130000Y-89310000D01*
X84710000Y-86690000D02*
X84710000Y-89310000D01*
X91130000Y-86690000D02*
X84710000Y-86690000D01*
X91130000Y-89310000D02*
X91130000Y-86690000D01*
G04 #@! TO.C,R105*
X89130000Y-86310000D02*
X89130000Y-83690000D01*
X89130000Y-83690000D02*
X82710000Y-83690000D01*
X82710000Y-83690000D02*
X82710000Y-86310000D01*
X82710000Y-86310000D02*
X89130000Y-86310000D01*
X90020000Y-85000000D02*
X89130000Y-85000000D01*
X81820000Y-85000000D02*
X82710000Y-85000000D01*
G04 #@! TO.C,R106*
X73180000Y-85000000D02*
X72290000Y-85000000D01*
X64980000Y-85000000D02*
X65870000Y-85000000D01*
X72290000Y-83690000D02*
X65870000Y-83690000D01*
X72290000Y-86310000D02*
X72290000Y-83690000D01*
X65870000Y-86310000D02*
X72290000Y-86310000D01*
X65870000Y-83690000D02*
X65870000Y-86310000D01*
G04 #@! TO.C,R107*
X79690000Y-109130000D02*
X82310000Y-109130000D01*
X82310000Y-109130000D02*
X82310000Y-102710000D01*
X82310000Y-102710000D02*
X79690000Y-102710000D01*
X79690000Y-102710000D02*
X79690000Y-109130000D01*
X81000000Y-110020000D02*
X81000000Y-109130000D01*
X81000000Y-101820000D02*
X81000000Y-102710000D01*
G04 #@! TO.C,R108*
X78000000Y-110180000D02*
X78000000Y-109290000D01*
X78000000Y-101980000D02*
X78000000Y-102870000D01*
X79310000Y-109290000D02*
X79310000Y-102870000D01*
X76690000Y-109290000D02*
X79310000Y-109290000D01*
X76690000Y-102870000D02*
X76690000Y-109290000D01*
X79310000Y-102870000D02*
X76690000Y-102870000D01*
G04 #@! TO.C,R109*
X123690000Y-111130000D02*
X126310000Y-111130000D01*
X126310000Y-111130000D02*
X126310000Y-104710000D01*
X126310000Y-104710000D02*
X123690000Y-104710000D01*
X123690000Y-104710000D02*
X123690000Y-111130000D01*
X125000000Y-112020000D02*
X125000000Y-111130000D01*
X125000000Y-103820000D02*
X125000000Y-104710000D01*
G04 #@! TO.C,R116*
X96870000Y-107690000D02*
X96870000Y-110310000D01*
X96870000Y-110310000D02*
X103290000Y-110310000D01*
X103290000Y-110310000D02*
X103290000Y-107690000D01*
X103290000Y-107690000D02*
X96870000Y-107690000D01*
X95980000Y-109000000D02*
X96870000Y-109000000D01*
X104180000Y-109000000D02*
X103290000Y-109000000D01*
G04 #@! TO.C,R117*
X72608000Y-114808000D02*
X73498000Y-114808000D01*
X80808000Y-114808000D02*
X79918000Y-114808000D01*
X73498000Y-116118000D02*
X79918000Y-116118000D01*
X73498000Y-113498000D02*
X73498000Y-116118000D01*
X79918000Y-113498000D02*
X73498000Y-113498000D01*
X79918000Y-116118000D02*
X79918000Y-113498000D01*
G04 #@! TO.C,U101*
X113609000Y-113620000D02*
X113609000Y-112110000D01*
X117310000Y-113620000D02*
X117310000Y-112110000D01*
X120580000Y-112110000D02*
X110340000Y-112110000D01*
X110340000Y-113620000D02*
X110340000Y-108979000D01*
X120580000Y-113620000D02*
X120580000Y-108979000D01*
X120580000Y-108979000D02*
X110340000Y-108979000D01*
X120580000Y-113620000D02*
X110340000Y-113620000D01*
G04 #@! TO.C,5V_1*
X83710000Y-107455000D02*
X83710000Y-110545000D01*
X88770000Y-109000000D02*
G75*
G03X88770000Y-109000000I-2500000J0D01*
G01*
X89260000Y-108999538D02*
G75*
G02X83710000Y-110544830I-2990000J-462D01*
G01*
X89260000Y-109000462D02*
G75*
G03X83710000Y-107455170I-2990000J462D01*
G01*
G04 #@! TO.C,BATT1*
X133340000Y-82600000D02*
X133340000Y-81980000D01*
X131740000Y-82600000D02*
X133340000Y-82600000D01*
X131740000Y-81980000D02*
X131740000Y-82600000D01*
X130800000Y-82600000D02*
X130800000Y-81980000D01*
X129200000Y-82600000D02*
X130800000Y-82600000D01*
X129200000Y-81980000D02*
X129200000Y-82600000D01*
X132290000Y-87980000D02*
X132290000Y-86980000D01*
X130250000Y-87980000D02*
X130250000Y-86980000D01*
X132290000Y-86550000D02*
X132540000Y-86980000D01*
X130250000Y-86550000D02*
X132290000Y-86550000D01*
X130000000Y-86980000D02*
X130250000Y-86550000D01*
X132540000Y-86980000D02*
X132540000Y-87980000D01*
X130000000Y-86980000D02*
X132540000Y-86980000D01*
X130000000Y-87980000D02*
X130000000Y-86980000D01*
X133910000Y-81980000D02*
X128630000Y-81980000D01*
X133910000Y-87980000D02*
X133910000Y-81980000D01*
X128630000Y-87980000D02*
X133910000Y-87980000D01*
X128630000Y-81980000D02*
X128630000Y-87980000D01*
G04 #@! TO.C,BUTT1*
X57750000Y-74000000D02*
X57750000Y-75500000D01*
X59000000Y-78000000D02*
X63500000Y-78000000D01*
X64750000Y-75500000D02*
X64750000Y-74000000D01*
X63500000Y-71500000D02*
X59000000Y-71500000D01*
G04 #@! TO.C,BUTT2*
X54000000Y-71500000D02*
X49500000Y-71500000D01*
X55250000Y-75500000D02*
X55250000Y-74000000D01*
X49500000Y-78000000D02*
X54000000Y-78000000D01*
X48250000Y-74000000D02*
X48250000Y-75500000D01*
G04 #@! TO.C,ext1*
X112970000Y-77276000D02*
X112970000Y-75946000D01*
X114300000Y-77276000D02*
X112970000Y-77276000D01*
X112970000Y-74676000D02*
X112970000Y-72076000D01*
X115570000Y-74676000D02*
X112970000Y-74676000D01*
X115570000Y-77276000D02*
X115570000Y-74676000D01*
X112970000Y-72076000D02*
X120710000Y-72076000D01*
X115570000Y-77276000D02*
X120710000Y-77276000D01*
X120710000Y-77276000D02*
X120710000Y-72076000D01*
G04 #@! TO.C,LED1*
X76396000Y-108712462D02*
G75*
G03X70846000Y-107167170I-2990000J462D01*
G01*
X76396000Y-108711538D02*
G75*
G02X70846000Y-110256830I-2990000J-462D01*
G01*
X75906000Y-108712000D02*
G75*
G03X75906000Y-108712000I-2500000J0D01*
G01*
X70846000Y-107167000D02*
X70846000Y-110257000D01*
G04 #@! TO.C,LED2*
X70846000Y-100563000D02*
X70846000Y-103653000D01*
X75906000Y-102108000D02*
G75*
G03X75906000Y-102108000I-2500000J0D01*
G01*
X76396000Y-102107538D02*
G75*
G02X70846000Y-103652830I-2990000J-462D01*
G01*
X76396000Y-102108462D02*
G75*
G03X70846000Y-100563170I-2990000J462D01*
G01*
G04 #@! TO.C,MOT_L_1*
X110500000Y-71600000D02*
X110500000Y-70980000D01*
X108900000Y-71600000D02*
X110500000Y-71600000D01*
X108900000Y-70980000D02*
X108900000Y-71600000D01*
X107960000Y-71600000D02*
X107960000Y-70980000D01*
X106360000Y-71600000D02*
X107960000Y-71600000D01*
X106360000Y-70980000D02*
X106360000Y-71600000D01*
X105420000Y-71600000D02*
X105420000Y-70980000D01*
X103820000Y-71600000D02*
X105420000Y-71600000D01*
X103820000Y-70980000D02*
X103820000Y-71600000D01*
X102880000Y-71600000D02*
X102880000Y-70980000D01*
X101280000Y-71600000D02*
X102880000Y-71600000D01*
X101280000Y-70980000D02*
X101280000Y-71600000D01*
X100340000Y-71600000D02*
X100340000Y-70980000D01*
X98740000Y-71600000D02*
X100340000Y-71600000D01*
X98740000Y-70980000D02*
X98740000Y-71600000D01*
X97800000Y-71600000D02*
X97800000Y-70980000D01*
X96200000Y-71600000D02*
X97800000Y-71600000D01*
X96200000Y-70980000D02*
X96200000Y-71600000D01*
X109450000Y-76980000D02*
X109450000Y-75980000D01*
X97250000Y-76980000D02*
X97250000Y-75980000D01*
X109450000Y-75550000D02*
X109700000Y-75980000D01*
X97250000Y-75550000D02*
X109450000Y-75550000D01*
X97000000Y-75980000D02*
X97250000Y-75550000D01*
X109700000Y-75980000D02*
X109700000Y-76980000D01*
X97000000Y-75980000D02*
X109700000Y-75980000D01*
X97000000Y-76980000D02*
X97000000Y-75980000D01*
X111070000Y-70980000D02*
X95630000Y-70980000D01*
X111070000Y-76980000D02*
X111070000Y-70980000D01*
X95630000Y-76980000D02*
X111070000Y-76980000D01*
X95630000Y-70980000D02*
X95630000Y-76980000D01*
G04 #@! TO.C,MOT_R_1*
X78930000Y-70980000D02*
X78930000Y-76980000D01*
X78930000Y-76980000D02*
X94370000Y-76980000D01*
X94370000Y-76980000D02*
X94370000Y-70980000D01*
X94370000Y-70980000D02*
X78930000Y-70980000D01*
X80300000Y-76980000D02*
X80300000Y-75980000D01*
X80300000Y-75980000D02*
X93000000Y-75980000D01*
X93000000Y-75980000D02*
X93000000Y-76980000D01*
X80300000Y-75980000D02*
X80550000Y-75550000D01*
X80550000Y-75550000D02*
X92750000Y-75550000D01*
X92750000Y-75550000D02*
X93000000Y-75980000D01*
X80550000Y-76980000D02*
X80550000Y-75980000D01*
X92750000Y-76980000D02*
X92750000Y-75980000D01*
X79500000Y-70980000D02*
X79500000Y-71600000D01*
X79500000Y-71600000D02*
X81100000Y-71600000D01*
X81100000Y-71600000D02*
X81100000Y-70980000D01*
X82040000Y-70980000D02*
X82040000Y-71600000D01*
X82040000Y-71600000D02*
X83640000Y-71600000D01*
X83640000Y-71600000D02*
X83640000Y-70980000D01*
X84580000Y-70980000D02*
X84580000Y-71600000D01*
X84580000Y-71600000D02*
X86180000Y-71600000D01*
X86180000Y-71600000D02*
X86180000Y-70980000D01*
X87120000Y-70980000D02*
X87120000Y-71600000D01*
X87120000Y-71600000D02*
X88720000Y-71600000D01*
X88720000Y-71600000D02*
X88720000Y-70980000D01*
X89660000Y-70980000D02*
X89660000Y-71600000D01*
X89660000Y-71600000D02*
X91260000Y-71600000D01*
X91260000Y-71600000D02*
X91260000Y-70980000D01*
X92200000Y-70980000D02*
X92200000Y-71600000D01*
X92200000Y-71600000D02*
X93800000Y-71600000D01*
X93800000Y-71600000D02*
X93800000Y-70980000D01*
G04 #@! TO.C,POWER_1*
X89260000Y-102000462D02*
G75*
G03X83710000Y-100455170I-2990000J462D01*
G01*
X89260000Y-101999538D02*
G75*
G02X83710000Y-103544830I-2990000J-462D01*
G01*
X88770000Y-102000000D02*
G75*
G03X88770000Y-102000000I-2500000J0D01*
G01*
X83710000Y-100455000D02*
X83710000Y-103545000D01*
D13*
G04 #@! TO.C,PWR_1*
X134500000Y-71700000D02*
X132200000Y-71700000D01*
X140800000Y-71700000D02*
X138600000Y-71700000D01*
X140800000Y-76300000D02*
X132200000Y-76300000D01*
D14*
G04 #@! TO.C,QTR_1*
X140330000Y-108440000D02*
X132590000Y-108440000D01*
X132590000Y-108440000D02*
X132590000Y-111100000D01*
X132590000Y-111100000D02*
X140330000Y-111100000D01*
X140330000Y-111100000D02*
X140330000Y-108440000D01*
X139380000Y-111100000D02*
X139380000Y-117100000D01*
X139380000Y-117100000D02*
X138620000Y-117100000D01*
X138620000Y-117100000D02*
X138620000Y-111100000D01*
X139320000Y-111100000D02*
X139320000Y-117100000D01*
X139200000Y-111100000D02*
X139200000Y-117100000D01*
X139080000Y-111100000D02*
X139080000Y-117100000D01*
X138960000Y-111100000D02*
X138960000Y-117100000D01*
X138840000Y-111100000D02*
X138840000Y-117100000D01*
X138720000Y-111100000D02*
X138720000Y-117100000D01*
X139380000Y-108110000D02*
X139380000Y-108440000D01*
X138620000Y-108110000D02*
X138620000Y-108440000D01*
X137730000Y-108440000D02*
X137730000Y-111100000D01*
X136840000Y-111100000D02*
X136840000Y-117100000D01*
X136840000Y-117100000D02*
X136080000Y-117100000D01*
X136080000Y-117100000D02*
X136080000Y-111100000D01*
X136840000Y-108042929D02*
X136840000Y-108440000D01*
X136080000Y-108042929D02*
X136080000Y-108440000D01*
X135190000Y-108440000D02*
X135190000Y-111100000D01*
X134300000Y-111100000D02*
X134300000Y-117100000D01*
X134300000Y-117100000D02*
X133540000Y-117100000D01*
X133540000Y-117100000D02*
X133540000Y-111100000D01*
X134300000Y-108042929D02*
X134300000Y-108440000D01*
X133540000Y-108042929D02*
X133540000Y-108440000D01*
X139000000Y-105730000D02*
X140270000Y-105730000D01*
X140270000Y-105730000D02*
X140270000Y-107000000D01*
G04 #@! TO.C,QTR_2*
X57270000Y-105730000D02*
X57270000Y-107000000D01*
X56000000Y-105730000D02*
X57270000Y-105730000D01*
X50540000Y-108042929D02*
X50540000Y-108440000D01*
X51300000Y-108042929D02*
X51300000Y-108440000D01*
X50540000Y-117100000D02*
X50540000Y-111100000D01*
X51300000Y-117100000D02*
X50540000Y-117100000D01*
X51300000Y-111100000D02*
X51300000Y-117100000D01*
X52190000Y-108440000D02*
X52190000Y-111100000D01*
X53080000Y-108042929D02*
X53080000Y-108440000D01*
X53840000Y-108042929D02*
X53840000Y-108440000D01*
X53080000Y-117100000D02*
X53080000Y-111100000D01*
X53840000Y-117100000D02*
X53080000Y-117100000D01*
X53840000Y-111100000D02*
X53840000Y-117100000D01*
X54730000Y-108440000D02*
X54730000Y-111100000D01*
X55620000Y-108110000D02*
X55620000Y-108440000D01*
X56380000Y-108110000D02*
X56380000Y-108440000D01*
X55720000Y-111100000D02*
X55720000Y-117100000D01*
X55840000Y-111100000D02*
X55840000Y-117100000D01*
X55960000Y-111100000D02*
X55960000Y-117100000D01*
X56080000Y-111100000D02*
X56080000Y-117100000D01*
X56200000Y-111100000D02*
X56200000Y-117100000D01*
X56320000Y-111100000D02*
X56320000Y-117100000D01*
X55620000Y-117100000D02*
X55620000Y-111100000D01*
X56380000Y-117100000D02*
X55620000Y-117100000D01*
X56380000Y-111100000D02*
X56380000Y-117100000D01*
X57330000Y-111100000D02*
X57330000Y-108440000D01*
X49590000Y-111100000D02*
X57330000Y-111100000D01*
X49590000Y-108440000D02*
X49590000Y-111100000D01*
X57330000Y-108440000D02*
X49590000Y-108440000D01*
G04 #@! TO.C,SHARP1*
X128330000Y-115670000D02*
X128330000Y-117000000D01*
X127000000Y-115670000D02*
X128330000Y-115670000D01*
X125730000Y-115670000D02*
X125730000Y-118330000D01*
X125730000Y-118330000D02*
X120590000Y-118330000D01*
X125730000Y-115670000D02*
X120590000Y-115670000D01*
X120590000Y-115670000D02*
X120590000Y-118330000D01*
G04 #@! TO.C,SHARP2*
X84590000Y-115670000D02*
X84590000Y-118330000D01*
X89730000Y-115670000D02*
X84590000Y-115670000D01*
X89730000Y-118330000D02*
X84590000Y-118330000D01*
X89730000Y-115670000D02*
X89730000Y-118330000D01*
X91000000Y-115670000D02*
X92330000Y-115670000D01*
X92330000Y-115670000D02*
X92330000Y-117000000D01*
G04 #@! TO.C,SHARP3*
X68894000Y-115670000D02*
X68894000Y-117000000D01*
X67564000Y-115670000D02*
X68894000Y-115670000D01*
X66294000Y-115670000D02*
X66294000Y-118330000D01*
X66294000Y-118330000D02*
X61154000Y-118330000D01*
X66294000Y-115670000D02*
X61154000Y-115670000D01*
X61154000Y-115670000D02*
X61154000Y-118330000D01*
G04 #@! TO.C,VL53_1*
X89510000Y-114330000D02*
X89510000Y-113000000D01*
X90840000Y-114330000D02*
X89510000Y-114330000D01*
X92110000Y-114330000D02*
X92110000Y-111670000D01*
X92110000Y-111670000D02*
X107410000Y-111670000D01*
X92110000Y-114330000D02*
X107410000Y-114330000D01*
X107410000Y-114330000D02*
X107410000Y-111670000D01*
G04 #@! TO.C,VL53_2*
X49670000Y-80670000D02*
X51000000Y-80670000D01*
X49670000Y-82000000D02*
X49670000Y-80670000D01*
X49670000Y-83270000D02*
X52330000Y-83270000D01*
X52330000Y-83270000D02*
X52330000Y-98570000D01*
X49670000Y-83270000D02*
X49670000Y-98570000D01*
X49670000Y-98570000D02*
X52330000Y-98570000D01*
G04 #@! TO.C,VL53_3*
X140330000Y-81430000D02*
X137670000Y-81430000D01*
X140330000Y-96730000D02*
X140330000Y-81430000D01*
X137670000Y-96730000D02*
X137670000Y-81430000D01*
X140330000Y-96730000D02*
X137670000Y-96730000D01*
X140330000Y-98000000D02*
X140330000Y-99330000D01*
X140330000Y-99330000D02*
X139000000Y-99330000D01*
G04 #@! TO.C,interface1*
X129600000Y-74736000D02*
X129600000Y-72076000D01*
X124460000Y-74736000D02*
X129600000Y-74736000D01*
X124460000Y-72076000D02*
X129600000Y-72076000D01*
X124460000Y-74736000D02*
X124460000Y-72076000D01*
X123190000Y-74736000D02*
X121860000Y-74736000D01*
X121860000Y-74736000D02*
X121860000Y-73406000D01*
G04 #@! TO.C,MicroStart1*
X121860000Y-77276000D02*
X121860000Y-75946000D01*
X123190000Y-77276000D02*
X121860000Y-77276000D01*
X124460000Y-77276000D02*
X124460000Y-74616000D01*
X124460000Y-74616000D02*
X129600000Y-74616000D01*
X124460000Y-77276000D02*
X129600000Y-77276000D01*
X129600000Y-77276000D02*
X129600000Y-74616000D01*
G04 #@! TO.C,reset1*
X67250000Y-74000000D02*
X67250000Y-75500000D01*
X68500000Y-78000000D02*
X73000000Y-78000000D01*
X74250000Y-75500000D02*
X74250000Y-74000000D01*
X73000000Y-71500000D02*
X68500000Y-71500000D01*
D15*
G04 #@! TO.C,G\002A\002A\002A*
G36*
X103382000Y-59249333D02*
X86702667Y-59249333D01*
X86702667Y-50867333D01*
X88904000Y-50867333D01*
X88904000Y-52899333D01*
X90936000Y-52899333D01*
X90936000Y-55016000D01*
X88904000Y-55016000D01*
X88904000Y-57048000D01*
X93052667Y-57048000D01*
X93052667Y-52899333D01*
X95084667Y-52899333D01*
X95084667Y-57048000D01*
X97113656Y-57048000D01*
X97136328Y-54994833D01*
X97159000Y-52941667D01*
X98196167Y-52917894D01*
X99233333Y-52894121D01*
X99233333Y-57048000D01*
X101265333Y-57048000D01*
X101265333Y-50867333D01*
X88904000Y-50867333D01*
X86702667Y-50867333D01*
X86702667Y-48750667D01*
X103382000Y-48750667D01*
X103382000Y-59249333D01*
X103382000Y-59249333D01*
G37*
X103382000Y-59249333D02*
X86702667Y-59249333D01*
X86702667Y-50867333D01*
X88904000Y-50867333D01*
X88904000Y-52899333D01*
X90936000Y-52899333D01*
X90936000Y-55016000D01*
X88904000Y-55016000D01*
X88904000Y-57048000D01*
X93052667Y-57048000D01*
X93052667Y-52899333D01*
X95084667Y-52899333D01*
X95084667Y-57048000D01*
X97113656Y-57048000D01*
X97136328Y-54994833D01*
X97159000Y-52941667D01*
X98196167Y-52917894D01*
X99233333Y-52894121D01*
X99233333Y-57048000D01*
X101265333Y-57048000D01*
X101265333Y-50867333D01*
X88904000Y-50867333D01*
X86702667Y-50867333D01*
X86702667Y-48750667D01*
X103382000Y-48750667D01*
X103382000Y-59249333D01*
G04 #@! TO.C,PCB101*
D13*
X109577523Y-95448380D02*
X109577523Y-94448380D01*
X109958476Y-94448380D01*
X110053714Y-94496000D01*
X110101333Y-94543619D01*
X110148952Y-94638857D01*
X110148952Y-94781714D01*
X110101333Y-94876952D01*
X110053714Y-94924571D01*
X109958476Y-94972190D01*
X109577523Y-94972190D01*
X111148952Y-95353142D02*
X111101333Y-95400761D01*
X110958476Y-95448380D01*
X110863238Y-95448380D01*
X110720380Y-95400761D01*
X110625142Y-95305523D01*
X110577523Y-95210285D01*
X110529904Y-95019809D01*
X110529904Y-94876952D01*
X110577523Y-94686476D01*
X110625142Y-94591238D01*
X110720380Y-94496000D01*
X110863238Y-94448380D01*
X110958476Y-94448380D01*
X111101333Y-94496000D01*
X111148952Y-94543619D01*
X111910857Y-94924571D02*
X112053714Y-94972190D01*
X112101333Y-95019809D01*
X112148952Y-95115047D01*
X112148952Y-95257904D01*
X112101333Y-95353142D01*
X112053714Y-95400761D01*
X111958476Y-95448380D01*
X111577523Y-95448380D01*
X111577523Y-94448380D01*
X111910857Y-94448380D01*
X112006095Y-94496000D01*
X112053714Y-94543619D01*
X112101333Y-94638857D01*
X112101333Y-94734095D01*
X112053714Y-94829333D01*
X112006095Y-94876952D01*
X111910857Y-94924571D01*
X111577523Y-94924571D01*
X113101333Y-95448380D02*
X112529904Y-95448380D01*
X112815619Y-95448380D02*
X112815619Y-94448380D01*
X112720380Y-94591238D01*
X112625142Y-94686476D01*
X112529904Y-94734095D01*
X113720380Y-94448380D02*
X113815619Y-94448380D01*
X113910857Y-94496000D01*
X113958476Y-94543619D01*
X114006095Y-94638857D01*
X114053714Y-94829333D01*
X114053714Y-95067428D01*
X114006095Y-95257904D01*
X113958476Y-95353142D01*
X113910857Y-95400761D01*
X113815619Y-95448380D01*
X113720380Y-95448380D01*
X113625142Y-95400761D01*
X113577523Y-95353142D01*
X113529904Y-95257904D01*
X113482285Y-95067428D01*
X113482285Y-94829333D01*
X113529904Y-94638857D01*
X113577523Y-94543619D01*
X113625142Y-94496000D01*
X113720380Y-94448380D01*
X115006095Y-95448380D02*
X114434666Y-95448380D01*
X114720380Y-95448380D02*
X114720380Y-94448380D01*
X114625142Y-94591238D01*
X114529904Y-94686476D01*
X114434666Y-94734095D01*
G04 #@! TO.C,IC101*
D16*
X90427142Y-78201904D02*
X90427142Y-77401904D01*
X91265238Y-78125714D02*
X91227142Y-78163809D01*
X91112857Y-78201904D01*
X91036666Y-78201904D01*
X90922380Y-78163809D01*
X90846190Y-78087619D01*
X90808095Y-78011428D01*
X90770000Y-77859047D01*
X90770000Y-77744761D01*
X90808095Y-77592380D01*
X90846190Y-77516190D01*
X90922380Y-77440000D01*
X91036666Y-77401904D01*
X91112857Y-77401904D01*
X91227142Y-77440000D01*
X91265238Y-77478095D01*
X92027142Y-78201904D02*
X91570000Y-78201904D01*
X91798571Y-78201904D02*
X91798571Y-77401904D01*
X91722380Y-77516190D01*
X91646190Y-77592380D01*
X91570000Y-77630476D01*
X92522380Y-77401904D02*
X92598571Y-77401904D01*
X92674761Y-77440000D01*
X92712857Y-77478095D01*
X92750952Y-77554285D01*
X92789047Y-77706666D01*
X92789047Y-77897142D01*
X92750952Y-78049523D01*
X92712857Y-78125714D01*
X92674761Y-78163809D01*
X92598571Y-78201904D01*
X92522380Y-78201904D01*
X92446190Y-78163809D01*
X92408095Y-78125714D01*
X92370000Y-78049523D01*
X92331904Y-77897142D01*
X92331904Y-77706666D01*
X92370000Y-77554285D01*
X92408095Y-77478095D01*
X92446190Y-77440000D01*
X92522380Y-77401904D01*
X93550952Y-78201904D02*
X93093809Y-78201904D01*
X93322380Y-78201904D02*
X93322380Y-77401904D01*
X93246190Y-77516190D01*
X93170000Y-77592380D01*
X93093809Y-77630476D01*
G04 #@! TO.C,C101*
D13*
X119784952Y-101449142D02*
X119737333Y-101496761D01*
X119594476Y-101544380D01*
X119499238Y-101544380D01*
X119356380Y-101496761D01*
X119261142Y-101401523D01*
X119213523Y-101306285D01*
X119165904Y-101115809D01*
X119165904Y-100972952D01*
X119213523Y-100782476D01*
X119261142Y-100687238D01*
X119356380Y-100592000D01*
X119499238Y-100544380D01*
X119594476Y-100544380D01*
X119737333Y-100592000D01*
X119784952Y-100639619D01*
X120737333Y-101544380D02*
X120165904Y-101544380D01*
X120451619Y-101544380D02*
X120451619Y-100544380D01*
X120356380Y-100687238D01*
X120261142Y-100782476D01*
X120165904Y-100830095D01*
X121356380Y-100544380D02*
X121451619Y-100544380D01*
X121546857Y-100592000D01*
X121594476Y-100639619D01*
X121642095Y-100734857D01*
X121689714Y-100925333D01*
X121689714Y-101163428D01*
X121642095Y-101353904D01*
X121594476Y-101449142D01*
X121546857Y-101496761D01*
X121451619Y-101544380D01*
X121356380Y-101544380D01*
X121261142Y-101496761D01*
X121213523Y-101449142D01*
X121165904Y-101353904D01*
X121118285Y-101163428D01*
X121118285Y-100925333D01*
X121165904Y-100734857D01*
X121213523Y-100639619D01*
X121261142Y-100592000D01*
X121356380Y-100544380D01*
X122642095Y-101544380D02*
X122070666Y-101544380D01*
X122356380Y-101544380D02*
X122356380Y-100544380D01*
X122261142Y-100687238D01*
X122165904Y-100782476D01*
X122070666Y-100830095D01*
G04 #@! TO.C,C102*
X107084952Y-101449142D02*
X107037333Y-101496761D01*
X106894476Y-101544380D01*
X106799238Y-101544380D01*
X106656380Y-101496761D01*
X106561142Y-101401523D01*
X106513523Y-101306285D01*
X106465904Y-101115809D01*
X106465904Y-100972952D01*
X106513523Y-100782476D01*
X106561142Y-100687238D01*
X106656380Y-100592000D01*
X106799238Y-100544380D01*
X106894476Y-100544380D01*
X107037333Y-100592000D01*
X107084952Y-100639619D01*
X108037333Y-101544380D02*
X107465904Y-101544380D01*
X107751619Y-101544380D02*
X107751619Y-100544380D01*
X107656380Y-100687238D01*
X107561142Y-100782476D01*
X107465904Y-100830095D01*
X108656380Y-100544380D02*
X108751619Y-100544380D01*
X108846857Y-100592000D01*
X108894476Y-100639619D01*
X108942095Y-100734857D01*
X108989714Y-100925333D01*
X108989714Y-101163428D01*
X108942095Y-101353904D01*
X108894476Y-101449142D01*
X108846857Y-101496761D01*
X108751619Y-101544380D01*
X108656380Y-101544380D01*
X108561142Y-101496761D01*
X108513523Y-101449142D01*
X108465904Y-101353904D01*
X108418285Y-101163428D01*
X108418285Y-100925333D01*
X108465904Y-100734857D01*
X108513523Y-100639619D01*
X108561142Y-100592000D01*
X108656380Y-100544380D01*
X109370666Y-100639619D02*
X109418285Y-100592000D01*
X109513523Y-100544380D01*
X109751619Y-100544380D01*
X109846857Y-100592000D01*
X109894476Y-100639619D01*
X109942095Y-100734857D01*
X109942095Y-100830095D01*
X109894476Y-100972952D01*
X109323047Y-101544380D01*
X109942095Y-101544380D01*
G04 #@! TO.C,J104*
X59606380Y-112283714D02*
X60320666Y-112283714D01*
X60463523Y-112331333D01*
X60558761Y-112426571D01*
X60606380Y-112569428D01*
X60606380Y-112664666D01*
X60606380Y-111283714D02*
X60606380Y-111855142D01*
X60606380Y-111569428D02*
X59606380Y-111569428D01*
X59749238Y-111664666D01*
X59844476Y-111759904D01*
X59892095Y-111855142D01*
X59606380Y-110664666D02*
X59606380Y-110569428D01*
X59654000Y-110474190D01*
X59701619Y-110426571D01*
X59796857Y-110378952D01*
X59987333Y-110331333D01*
X60225428Y-110331333D01*
X60415904Y-110378952D01*
X60511142Y-110426571D01*
X60558761Y-110474190D01*
X60606380Y-110569428D01*
X60606380Y-110664666D01*
X60558761Y-110759904D01*
X60511142Y-110807523D01*
X60415904Y-110855142D01*
X60225428Y-110902761D01*
X59987333Y-110902761D01*
X59796857Y-110855142D01*
X59701619Y-110807523D01*
X59654000Y-110759904D01*
X59606380Y-110664666D01*
X59939714Y-109474190D02*
X60606380Y-109474190D01*
X59558761Y-109712285D02*
X60273047Y-109950380D01*
X60273047Y-109331333D01*
G04 #@! TO.C,J106*
X48122380Y-104285714D02*
X48836666Y-104285714D01*
X48979523Y-104333333D01*
X49074761Y-104428571D01*
X49122380Y-104571428D01*
X49122380Y-104666666D01*
X49122380Y-103285714D02*
X49122380Y-103857142D01*
X49122380Y-103571428D02*
X48122380Y-103571428D01*
X48265238Y-103666666D01*
X48360476Y-103761904D01*
X48408095Y-103857142D01*
X48122380Y-102666666D02*
X48122380Y-102571428D01*
X48170000Y-102476190D01*
X48217619Y-102428571D01*
X48312857Y-102380952D01*
X48503333Y-102333333D01*
X48741428Y-102333333D01*
X48931904Y-102380952D01*
X49027142Y-102428571D01*
X49074761Y-102476190D01*
X49122380Y-102571428D01*
X49122380Y-102666666D01*
X49074761Y-102761904D01*
X49027142Y-102809523D01*
X48931904Y-102857142D01*
X48741428Y-102904761D01*
X48503333Y-102904761D01*
X48312857Y-102857142D01*
X48217619Y-102809523D01*
X48170000Y-102761904D01*
X48122380Y-102666666D01*
X48122380Y-101476190D02*
X48122380Y-101666666D01*
X48170000Y-101761904D01*
X48217619Y-101809523D01*
X48360476Y-101904761D01*
X48550952Y-101952380D01*
X48931904Y-101952380D01*
X49027142Y-101904761D01*
X49074761Y-101857142D01*
X49122380Y-101761904D01*
X49122380Y-101571428D01*
X49074761Y-101476190D01*
X49027142Y-101428571D01*
X48931904Y-101380952D01*
X48693809Y-101380952D01*
X48598571Y-101428571D01*
X48550952Y-101476190D01*
X48503333Y-101571428D01*
X48503333Y-101761904D01*
X48550952Y-101857142D01*
X48598571Y-101904761D01*
X48693809Y-101952380D01*
G04 #@! TO.C,Q101*
X59475619Y-97567619D02*
X59428000Y-97662857D01*
X59332761Y-97758095D01*
X59189904Y-97900952D01*
X59142285Y-97996190D01*
X59142285Y-98091428D01*
X59380380Y-98043809D02*
X59332761Y-98139047D01*
X59237523Y-98234285D01*
X59047047Y-98281904D01*
X58713714Y-98281904D01*
X58523238Y-98234285D01*
X58428000Y-98139047D01*
X58380380Y-98043809D01*
X58380380Y-97853333D01*
X58428000Y-97758095D01*
X58523238Y-97662857D01*
X58713714Y-97615238D01*
X59047047Y-97615238D01*
X59237523Y-97662857D01*
X59332761Y-97758095D01*
X59380380Y-97853333D01*
X59380380Y-98043809D01*
X59380380Y-96662857D02*
X59380380Y-97234285D01*
X59380380Y-96948571D02*
X58380380Y-96948571D01*
X58523238Y-97043809D01*
X58618476Y-97139047D01*
X58666095Y-97234285D01*
X58380380Y-96043809D02*
X58380380Y-95948571D01*
X58428000Y-95853333D01*
X58475619Y-95805714D01*
X58570857Y-95758095D01*
X58761333Y-95710476D01*
X58999428Y-95710476D01*
X59189904Y-95758095D01*
X59285142Y-95805714D01*
X59332761Y-95853333D01*
X59380380Y-95948571D01*
X59380380Y-96043809D01*
X59332761Y-96139047D01*
X59285142Y-96186666D01*
X59189904Y-96234285D01*
X58999428Y-96281904D01*
X58761333Y-96281904D01*
X58570857Y-96234285D01*
X58475619Y-96186666D01*
X58428000Y-96139047D01*
X58380380Y-96043809D01*
X59380380Y-94758095D02*
X59380380Y-95329523D01*
X59380380Y-95043809D02*
X58380380Y-95043809D01*
X58523238Y-95139047D01*
X58618476Y-95234285D01*
X58666095Y-95329523D01*
G04 #@! TO.C,Q102*
X128659619Y-93451619D02*
X128612000Y-93546857D01*
X128516761Y-93642095D01*
X128373904Y-93784952D01*
X128326285Y-93880190D01*
X128326285Y-93975428D01*
X128564380Y-93927809D02*
X128516761Y-94023047D01*
X128421523Y-94118285D01*
X128231047Y-94165904D01*
X127897714Y-94165904D01*
X127707238Y-94118285D01*
X127612000Y-94023047D01*
X127564380Y-93927809D01*
X127564380Y-93737333D01*
X127612000Y-93642095D01*
X127707238Y-93546857D01*
X127897714Y-93499238D01*
X128231047Y-93499238D01*
X128421523Y-93546857D01*
X128516761Y-93642095D01*
X128564380Y-93737333D01*
X128564380Y-93927809D01*
X128564380Y-92546857D02*
X128564380Y-93118285D01*
X128564380Y-92832571D02*
X127564380Y-92832571D01*
X127707238Y-92927809D01*
X127802476Y-93023047D01*
X127850095Y-93118285D01*
X127564380Y-91927809D02*
X127564380Y-91832571D01*
X127612000Y-91737333D01*
X127659619Y-91689714D01*
X127754857Y-91642095D01*
X127945333Y-91594476D01*
X128183428Y-91594476D01*
X128373904Y-91642095D01*
X128469142Y-91689714D01*
X128516761Y-91737333D01*
X128564380Y-91832571D01*
X128564380Y-91927809D01*
X128516761Y-92023047D01*
X128469142Y-92070666D01*
X128373904Y-92118285D01*
X128183428Y-92165904D01*
X127945333Y-92165904D01*
X127754857Y-92118285D01*
X127659619Y-92070666D01*
X127612000Y-92023047D01*
X127564380Y-91927809D01*
X127659619Y-91213523D02*
X127612000Y-91165904D01*
X127564380Y-91070666D01*
X127564380Y-90832571D01*
X127612000Y-90737333D01*
X127659619Y-90689714D01*
X127754857Y-90642095D01*
X127850095Y-90642095D01*
X127992952Y-90689714D01*
X128564380Y-91261142D01*
X128564380Y-90642095D01*
G04 #@! TO.C,R101*
X71524952Y-86534380D02*
X71191619Y-86058190D01*
X70953523Y-86534380D02*
X70953523Y-85534380D01*
X71334476Y-85534380D01*
X71429714Y-85582000D01*
X71477333Y-85629619D01*
X71524952Y-85724857D01*
X71524952Y-85867714D01*
X71477333Y-85962952D01*
X71429714Y-86010571D01*
X71334476Y-86058190D01*
X70953523Y-86058190D01*
X72477333Y-86534380D02*
X71905904Y-86534380D01*
X72191619Y-86534380D02*
X72191619Y-85534380D01*
X72096380Y-85677238D01*
X72001142Y-85772476D01*
X71905904Y-85820095D01*
X73096380Y-85534380D02*
X73191619Y-85534380D01*
X73286857Y-85582000D01*
X73334476Y-85629619D01*
X73382095Y-85724857D01*
X73429714Y-85915333D01*
X73429714Y-86153428D01*
X73382095Y-86343904D01*
X73334476Y-86439142D01*
X73286857Y-86486761D01*
X73191619Y-86534380D01*
X73096380Y-86534380D01*
X73001142Y-86486761D01*
X72953523Y-86439142D01*
X72905904Y-86343904D01*
X72858285Y-86153428D01*
X72858285Y-85915333D01*
X72905904Y-85724857D01*
X72953523Y-85629619D01*
X73001142Y-85582000D01*
X73096380Y-85534380D01*
X74382095Y-86534380D02*
X73810666Y-86534380D01*
X74096380Y-86534380D02*
X74096380Y-85534380D01*
X74001142Y-85677238D01*
X73905904Y-85772476D01*
X73810666Y-85820095D01*
G04 #@! TO.C,R102*
X54142380Y-87039047D02*
X53666190Y-87372380D01*
X54142380Y-87610476D02*
X53142380Y-87610476D01*
X53142380Y-87229523D01*
X53190000Y-87134285D01*
X53237619Y-87086666D01*
X53332857Y-87039047D01*
X53475714Y-87039047D01*
X53570952Y-87086666D01*
X53618571Y-87134285D01*
X53666190Y-87229523D01*
X53666190Y-87610476D01*
X54142380Y-86086666D02*
X54142380Y-86658095D01*
X54142380Y-86372380D02*
X53142380Y-86372380D01*
X53285238Y-86467619D01*
X53380476Y-86562857D01*
X53428095Y-86658095D01*
X53142380Y-85467619D02*
X53142380Y-85372380D01*
X53190000Y-85277142D01*
X53237619Y-85229523D01*
X53332857Y-85181904D01*
X53523333Y-85134285D01*
X53761428Y-85134285D01*
X53951904Y-85181904D01*
X54047142Y-85229523D01*
X54094761Y-85277142D01*
X54142380Y-85372380D01*
X54142380Y-85467619D01*
X54094761Y-85562857D01*
X54047142Y-85610476D01*
X53951904Y-85658095D01*
X53761428Y-85705714D01*
X53523333Y-85705714D01*
X53332857Y-85658095D01*
X53237619Y-85610476D01*
X53190000Y-85562857D01*
X53142380Y-85467619D01*
X53237619Y-84753333D02*
X53190000Y-84705714D01*
X53142380Y-84610476D01*
X53142380Y-84372380D01*
X53190000Y-84277142D01*
X53237619Y-84229523D01*
X53332857Y-84181904D01*
X53428095Y-84181904D01*
X53570952Y-84229523D01*
X54142380Y-84800952D01*
X54142380Y-84181904D01*
G04 #@! TO.C,R103*
X58142380Y-87039047D02*
X57666190Y-87372380D01*
X58142380Y-87610476D02*
X57142380Y-87610476D01*
X57142380Y-87229523D01*
X57190000Y-87134285D01*
X57237619Y-87086666D01*
X57332857Y-87039047D01*
X57475714Y-87039047D01*
X57570952Y-87086666D01*
X57618571Y-87134285D01*
X57666190Y-87229523D01*
X57666190Y-87610476D01*
X58142380Y-86086666D02*
X58142380Y-86658095D01*
X58142380Y-86372380D02*
X57142380Y-86372380D01*
X57285238Y-86467619D01*
X57380476Y-86562857D01*
X57428095Y-86658095D01*
X57142380Y-85467619D02*
X57142380Y-85372380D01*
X57190000Y-85277142D01*
X57237619Y-85229523D01*
X57332857Y-85181904D01*
X57523333Y-85134285D01*
X57761428Y-85134285D01*
X57951904Y-85181904D01*
X58047142Y-85229523D01*
X58094761Y-85277142D01*
X58142380Y-85372380D01*
X58142380Y-85467619D01*
X58094761Y-85562857D01*
X58047142Y-85610476D01*
X57951904Y-85658095D01*
X57761428Y-85705714D01*
X57523333Y-85705714D01*
X57332857Y-85658095D01*
X57237619Y-85610476D01*
X57190000Y-85562857D01*
X57142380Y-85467619D01*
X57142380Y-84800952D02*
X57142380Y-84181904D01*
X57523333Y-84515238D01*
X57523333Y-84372380D01*
X57570952Y-84277142D01*
X57618571Y-84229523D01*
X57713809Y-84181904D01*
X57951904Y-84181904D01*
X58047142Y-84229523D01*
X58094761Y-84277142D01*
X58142380Y-84372380D01*
X58142380Y-84658095D01*
X58094761Y-84753333D01*
X58047142Y-84800952D01*
G04 #@! TO.C,R104*
X78880952Y-88452380D02*
X78547619Y-87976190D01*
X78309523Y-88452380D02*
X78309523Y-87452380D01*
X78690476Y-87452380D01*
X78785714Y-87500000D01*
X78833333Y-87547619D01*
X78880952Y-87642857D01*
X78880952Y-87785714D01*
X78833333Y-87880952D01*
X78785714Y-87928571D01*
X78690476Y-87976190D01*
X78309523Y-87976190D01*
X79833333Y-88452380D02*
X79261904Y-88452380D01*
X79547619Y-88452380D02*
X79547619Y-87452380D01*
X79452380Y-87595238D01*
X79357142Y-87690476D01*
X79261904Y-87738095D01*
X80452380Y-87452380D02*
X80547619Y-87452380D01*
X80642857Y-87500000D01*
X80690476Y-87547619D01*
X80738095Y-87642857D01*
X80785714Y-87833333D01*
X80785714Y-88071428D01*
X80738095Y-88261904D01*
X80690476Y-88357142D01*
X80642857Y-88404761D01*
X80547619Y-88452380D01*
X80452380Y-88452380D01*
X80357142Y-88404761D01*
X80309523Y-88357142D01*
X80261904Y-88261904D01*
X80214285Y-88071428D01*
X80214285Y-87833333D01*
X80261904Y-87642857D01*
X80309523Y-87547619D01*
X80357142Y-87500000D01*
X80452380Y-87452380D01*
X81642857Y-87785714D02*
X81642857Y-88452380D01*
X81404761Y-87404761D02*
X81166666Y-88119047D01*
X81785714Y-88119047D01*
G04 #@! TO.C,R105*
X76880952Y-85452380D02*
X76547619Y-84976190D01*
X76309523Y-85452380D02*
X76309523Y-84452380D01*
X76690476Y-84452380D01*
X76785714Y-84500000D01*
X76833333Y-84547619D01*
X76880952Y-84642857D01*
X76880952Y-84785714D01*
X76833333Y-84880952D01*
X76785714Y-84928571D01*
X76690476Y-84976190D01*
X76309523Y-84976190D01*
X77833333Y-85452380D02*
X77261904Y-85452380D01*
X77547619Y-85452380D02*
X77547619Y-84452380D01*
X77452380Y-84595238D01*
X77357142Y-84690476D01*
X77261904Y-84738095D01*
X78452380Y-84452380D02*
X78547619Y-84452380D01*
X78642857Y-84500000D01*
X78690476Y-84547619D01*
X78738095Y-84642857D01*
X78785714Y-84833333D01*
X78785714Y-85071428D01*
X78738095Y-85261904D01*
X78690476Y-85357142D01*
X78642857Y-85404761D01*
X78547619Y-85452380D01*
X78452380Y-85452380D01*
X78357142Y-85404761D01*
X78309523Y-85357142D01*
X78261904Y-85261904D01*
X78214285Y-85071428D01*
X78214285Y-84833333D01*
X78261904Y-84642857D01*
X78309523Y-84547619D01*
X78357142Y-84500000D01*
X78452380Y-84452380D01*
X79690476Y-84452380D02*
X79214285Y-84452380D01*
X79166666Y-84928571D01*
X79214285Y-84880952D01*
X79309523Y-84833333D01*
X79547619Y-84833333D01*
X79642857Y-84880952D01*
X79690476Y-84928571D01*
X79738095Y-85023809D01*
X79738095Y-85261904D01*
X79690476Y-85357142D01*
X79642857Y-85404761D01*
X79547619Y-85452380D01*
X79309523Y-85452380D01*
X79214285Y-85404761D01*
X79166666Y-85357142D01*
G04 #@! TO.C,R106*
X67960952Y-83142380D02*
X67627619Y-82666190D01*
X67389523Y-83142380D02*
X67389523Y-82142380D01*
X67770476Y-82142380D01*
X67865714Y-82190000D01*
X67913333Y-82237619D01*
X67960952Y-82332857D01*
X67960952Y-82475714D01*
X67913333Y-82570952D01*
X67865714Y-82618571D01*
X67770476Y-82666190D01*
X67389523Y-82666190D01*
X68913333Y-83142380D02*
X68341904Y-83142380D01*
X68627619Y-83142380D02*
X68627619Y-82142380D01*
X68532380Y-82285238D01*
X68437142Y-82380476D01*
X68341904Y-82428095D01*
X69532380Y-82142380D02*
X69627619Y-82142380D01*
X69722857Y-82190000D01*
X69770476Y-82237619D01*
X69818095Y-82332857D01*
X69865714Y-82523333D01*
X69865714Y-82761428D01*
X69818095Y-82951904D01*
X69770476Y-83047142D01*
X69722857Y-83094761D01*
X69627619Y-83142380D01*
X69532380Y-83142380D01*
X69437142Y-83094761D01*
X69389523Y-83047142D01*
X69341904Y-82951904D01*
X69294285Y-82761428D01*
X69294285Y-82523333D01*
X69341904Y-82332857D01*
X69389523Y-82237619D01*
X69437142Y-82190000D01*
X69532380Y-82142380D01*
X70722857Y-82142380D02*
X70532380Y-82142380D01*
X70437142Y-82190000D01*
X70389523Y-82237619D01*
X70294285Y-82380476D01*
X70246666Y-82570952D01*
X70246666Y-82951904D01*
X70294285Y-83047142D01*
X70341904Y-83094761D01*
X70437142Y-83142380D01*
X70627619Y-83142380D01*
X70722857Y-83094761D01*
X70770476Y-83047142D01*
X70818095Y-82951904D01*
X70818095Y-82713809D01*
X70770476Y-82618571D01*
X70722857Y-82570952D01*
X70627619Y-82523333D01*
X70437142Y-82523333D01*
X70341904Y-82570952D01*
X70294285Y-82618571D01*
X70246666Y-82713809D01*
G04 #@! TO.C,R107*
X79142380Y-107039047D02*
X78666190Y-107372380D01*
X79142380Y-107610476D02*
X78142380Y-107610476D01*
X78142380Y-107229523D01*
X78190000Y-107134285D01*
X78237619Y-107086666D01*
X78332857Y-107039047D01*
X78475714Y-107039047D01*
X78570952Y-107086666D01*
X78618571Y-107134285D01*
X78666190Y-107229523D01*
X78666190Y-107610476D01*
X79142380Y-106086666D02*
X79142380Y-106658095D01*
X79142380Y-106372380D02*
X78142380Y-106372380D01*
X78285238Y-106467619D01*
X78380476Y-106562857D01*
X78428095Y-106658095D01*
X78142380Y-105467619D02*
X78142380Y-105372380D01*
X78190000Y-105277142D01*
X78237619Y-105229523D01*
X78332857Y-105181904D01*
X78523333Y-105134285D01*
X78761428Y-105134285D01*
X78951904Y-105181904D01*
X79047142Y-105229523D01*
X79094761Y-105277142D01*
X79142380Y-105372380D01*
X79142380Y-105467619D01*
X79094761Y-105562857D01*
X79047142Y-105610476D01*
X78951904Y-105658095D01*
X78761428Y-105705714D01*
X78523333Y-105705714D01*
X78332857Y-105658095D01*
X78237619Y-105610476D01*
X78190000Y-105562857D01*
X78142380Y-105467619D01*
X78142380Y-104800952D02*
X78142380Y-104134285D01*
X79142380Y-104562857D01*
G04 #@! TO.C,R108*
X80762380Y-107199047D02*
X80286190Y-107532380D01*
X80762380Y-107770476D02*
X79762380Y-107770476D01*
X79762380Y-107389523D01*
X79810000Y-107294285D01*
X79857619Y-107246666D01*
X79952857Y-107199047D01*
X80095714Y-107199047D01*
X80190952Y-107246666D01*
X80238571Y-107294285D01*
X80286190Y-107389523D01*
X80286190Y-107770476D01*
X80762380Y-106246666D02*
X80762380Y-106818095D01*
X80762380Y-106532380D02*
X79762380Y-106532380D01*
X79905238Y-106627619D01*
X80000476Y-106722857D01*
X80048095Y-106818095D01*
X79762380Y-105627619D02*
X79762380Y-105532380D01*
X79810000Y-105437142D01*
X79857619Y-105389523D01*
X79952857Y-105341904D01*
X80143333Y-105294285D01*
X80381428Y-105294285D01*
X80571904Y-105341904D01*
X80667142Y-105389523D01*
X80714761Y-105437142D01*
X80762380Y-105532380D01*
X80762380Y-105627619D01*
X80714761Y-105722857D01*
X80667142Y-105770476D01*
X80571904Y-105818095D01*
X80381428Y-105865714D01*
X80143333Y-105865714D01*
X79952857Y-105818095D01*
X79857619Y-105770476D01*
X79810000Y-105722857D01*
X79762380Y-105627619D01*
X80190952Y-104722857D02*
X80143333Y-104818095D01*
X80095714Y-104865714D01*
X80000476Y-104913333D01*
X79952857Y-104913333D01*
X79857619Y-104865714D01*
X79810000Y-104818095D01*
X79762380Y-104722857D01*
X79762380Y-104532380D01*
X79810000Y-104437142D01*
X79857619Y-104389523D01*
X79952857Y-104341904D01*
X80000476Y-104341904D01*
X80095714Y-104389523D01*
X80143333Y-104437142D01*
X80190952Y-104532380D01*
X80190952Y-104722857D01*
X80238571Y-104818095D01*
X80286190Y-104865714D01*
X80381428Y-104913333D01*
X80571904Y-104913333D01*
X80667142Y-104865714D01*
X80714761Y-104818095D01*
X80762380Y-104722857D01*
X80762380Y-104532380D01*
X80714761Y-104437142D01*
X80667142Y-104389523D01*
X80571904Y-104341904D01*
X80381428Y-104341904D01*
X80286190Y-104389523D01*
X80238571Y-104437142D01*
X80190952Y-104532380D01*
G04 #@! TO.C,R109*
X123142380Y-109039047D02*
X122666190Y-109372380D01*
X123142380Y-109610476D02*
X122142380Y-109610476D01*
X122142380Y-109229523D01*
X122190000Y-109134285D01*
X122237619Y-109086666D01*
X122332857Y-109039047D01*
X122475714Y-109039047D01*
X122570952Y-109086666D01*
X122618571Y-109134285D01*
X122666190Y-109229523D01*
X122666190Y-109610476D01*
X123142380Y-108086666D02*
X123142380Y-108658095D01*
X123142380Y-108372380D02*
X122142380Y-108372380D01*
X122285238Y-108467619D01*
X122380476Y-108562857D01*
X122428095Y-108658095D01*
X122142380Y-107467619D02*
X122142380Y-107372380D01*
X122190000Y-107277142D01*
X122237619Y-107229523D01*
X122332857Y-107181904D01*
X122523333Y-107134285D01*
X122761428Y-107134285D01*
X122951904Y-107181904D01*
X123047142Y-107229523D01*
X123094761Y-107277142D01*
X123142380Y-107372380D01*
X123142380Y-107467619D01*
X123094761Y-107562857D01*
X123047142Y-107610476D01*
X122951904Y-107658095D01*
X122761428Y-107705714D01*
X122523333Y-107705714D01*
X122332857Y-107658095D01*
X122237619Y-107610476D01*
X122190000Y-107562857D01*
X122142380Y-107467619D01*
X123142380Y-106658095D02*
X123142380Y-106467619D01*
X123094761Y-106372380D01*
X123047142Y-106324761D01*
X122904285Y-106229523D01*
X122713809Y-106181904D01*
X122332857Y-106181904D01*
X122237619Y-106229523D01*
X122190000Y-106277142D01*
X122142380Y-106372380D01*
X122142380Y-106562857D01*
X122190000Y-106658095D01*
X122237619Y-106705714D01*
X122332857Y-106753333D01*
X122570952Y-106753333D01*
X122666190Y-106705714D01*
X122713809Y-106658095D01*
X122761428Y-106562857D01*
X122761428Y-106372380D01*
X122713809Y-106277142D01*
X122666190Y-106229523D01*
X122570952Y-106181904D01*
G04 #@! TO.C,R116*
X98960952Y-107142380D02*
X98627619Y-106666190D01*
X98389523Y-107142380D02*
X98389523Y-106142380D01*
X98770476Y-106142380D01*
X98865714Y-106190000D01*
X98913333Y-106237619D01*
X98960952Y-106332857D01*
X98960952Y-106475714D01*
X98913333Y-106570952D01*
X98865714Y-106618571D01*
X98770476Y-106666190D01*
X98389523Y-106666190D01*
X99913333Y-107142380D02*
X99341904Y-107142380D01*
X99627619Y-107142380D02*
X99627619Y-106142380D01*
X99532380Y-106285238D01*
X99437142Y-106380476D01*
X99341904Y-106428095D01*
X100865714Y-107142380D02*
X100294285Y-107142380D01*
X100580000Y-107142380D02*
X100580000Y-106142380D01*
X100484761Y-106285238D01*
X100389523Y-106380476D01*
X100294285Y-106428095D01*
X101722857Y-106142380D02*
X101532380Y-106142380D01*
X101437142Y-106190000D01*
X101389523Y-106237619D01*
X101294285Y-106380476D01*
X101246666Y-106570952D01*
X101246666Y-106951904D01*
X101294285Y-107047142D01*
X101341904Y-107094761D01*
X101437142Y-107142380D01*
X101627619Y-107142380D01*
X101722857Y-107094761D01*
X101770476Y-107047142D01*
X101818095Y-106951904D01*
X101818095Y-106713809D01*
X101770476Y-106618571D01*
X101722857Y-106570952D01*
X101627619Y-106523333D01*
X101437142Y-106523333D01*
X101341904Y-106570952D01*
X101294285Y-106618571D01*
X101246666Y-106713809D01*
G04 #@! TO.C,R117*
X75588952Y-117570380D02*
X75255619Y-117094190D01*
X75017523Y-117570380D02*
X75017523Y-116570380D01*
X75398476Y-116570380D01*
X75493714Y-116618000D01*
X75541333Y-116665619D01*
X75588952Y-116760857D01*
X75588952Y-116903714D01*
X75541333Y-116998952D01*
X75493714Y-117046571D01*
X75398476Y-117094190D01*
X75017523Y-117094190D01*
X76541333Y-117570380D02*
X75969904Y-117570380D01*
X76255619Y-117570380D02*
X76255619Y-116570380D01*
X76160380Y-116713238D01*
X76065142Y-116808476D01*
X75969904Y-116856095D01*
X77493714Y-117570380D02*
X76922285Y-117570380D01*
X77208000Y-117570380D02*
X77208000Y-116570380D01*
X77112761Y-116713238D01*
X77017523Y-116808476D01*
X76922285Y-116856095D01*
X77827047Y-116570380D02*
X78493714Y-116570380D01*
X78065142Y-117570380D01*
G04 #@! TO.C,U101*
X113745714Y-114072380D02*
X113745714Y-114881904D01*
X113793333Y-114977142D01*
X113840952Y-115024761D01*
X113936190Y-115072380D01*
X114126666Y-115072380D01*
X114221904Y-115024761D01*
X114269523Y-114977142D01*
X114317142Y-114881904D01*
X114317142Y-114072380D01*
X115317142Y-115072380D02*
X114745714Y-115072380D01*
X115031428Y-115072380D02*
X115031428Y-114072380D01*
X114936190Y-114215238D01*
X114840952Y-114310476D01*
X114745714Y-114358095D01*
X115936190Y-114072380D02*
X116031428Y-114072380D01*
X116126666Y-114120000D01*
X116174285Y-114167619D01*
X116221904Y-114262857D01*
X116269523Y-114453333D01*
X116269523Y-114691428D01*
X116221904Y-114881904D01*
X116174285Y-114977142D01*
X116126666Y-115024761D01*
X116031428Y-115072380D01*
X115936190Y-115072380D01*
X115840952Y-115024761D01*
X115793333Y-114977142D01*
X115745714Y-114881904D01*
X115698095Y-114691428D01*
X115698095Y-114453333D01*
X115745714Y-114262857D01*
X115793333Y-114167619D01*
X115840952Y-114120000D01*
X115936190Y-114072380D01*
X117221904Y-115072380D02*
X116650476Y-115072380D01*
X116936190Y-115072380D02*
X116936190Y-114072380D01*
X116840952Y-114215238D01*
X116745714Y-114310476D01*
X116650476Y-114358095D01*
G04 #@! TO.C,5V_1*
X89876380Y-109759619D02*
X89876380Y-110235809D01*
X90352571Y-110283428D01*
X90304952Y-110235809D01*
X90257333Y-110140571D01*
X90257333Y-109902476D01*
X90304952Y-109807238D01*
X90352571Y-109759619D01*
X90447809Y-109712000D01*
X90685904Y-109712000D01*
X90781142Y-109759619D01*
X90828761Y-109807238D01*
X90876380Y-109902476D01*
X90876380Y-110140571D01*
X90828761Y-110235809D01*
X90781142Y-110283428D01*
X89876380Y-109426285D02*
X90876380Y-109092952D01*
X89876380Y-108759619D01*
X90971619Y-108664380D02*
X90971619Y-107902476D01*
X90876380Y-107140571D02*
X90876380Y-107712000D01*
X90876380Y-107426285D02*
X89876380Y-107426285D01*
X90019238Y-107521523D01*
X90114476Y-107616761D01*
X90162095Y-107712000D01*
G04 #@! TO.C,BATT1*
X129404761Y-80428571D02*
X129547619Y-80476190D01*
X129595238Y-80523809D01*
X129642857Y-80619047D01*
X129642857Y-80761904D01*
X129595238Y-80857142D01*
X129547619Y-80904761D01*
X129452380Y-80952380D01*
X129071428Y-80952380D01*
X129071428Y-79952380D01*
X129404761Y-79952380D01*
X129500000Y-80000000D01*
X129547619Y-80047619D01*
X129595238Y-80142857D01*
X129595238Y-80238095D01*
X129547619Y-80333333D01*
X129500000Y-80380952D01*
X129404761Y-80428571D01*
X129071428Y-80428571D01*
X130023809Y-80666666D02*
X130500000Y-80666666D01*
X129928571Y-80952380D02*
X130261904Y-79952380D01*
X130595238Y-80952380D01*
X130785714Y-79952380D02*
X131357142Y-79952380D01*
X131071428Y-80952380D02*
X131071428Y-79952380D01*
X131547619Y-79952380D02*
X132119047Y-79952380D01*
X131833333Y-80952380D02*
X131833333Y-79952380D01*
X132976190Y-80952380D02*
X132404761Y-80952380D01*
X132690476Y-80952380D02*
X132690476Y-79952380D01*
X132595238Y-80095238D01*
X132500000Y-80190476D01*
X132404761Y-80238095D01*
G04 #@! TO.C,BUTT1*
X57745523Y-78928571D02*
X57888380Y-78976190D01*
X57936000Y-79023809D01*
X57983619Y-79119047D01*
X57983619Y-79261904D01*
X57936000Y-79357142D01*
X57888380Y-79404761D01*
X57793142Y-79452380D01*
X57412190Y-79452380D01*
X57412190Y-78452380D01*
X57745523Y-78452380D01*
X57840761Y-78500000D01*
X57888380Y-78547619D01*
X57936000Y-78642857D01*
X57936000Y-78738095D01*
X57888380Y-78833333D01*
X57840761Y-78880952D01*
X57745523Y-78928571D01*
X57412190Y-78928571D01*
X58412190Y-78452380D02*
X58412190Y-79261904D01*
X58459809Y-79357142D01*
X58507428Y-79404761D01*
X58602666Y-79452380D01*
X58793142Y-79452380D01*
X58888380Y-79404761D01*
X58936000Y-79357142D01*
X58983619Y-79261904D01*
X58983619Y-78452380D01*
X59316952Y-78452380D02*
X59888380Y-78452380D01*
X59602666Y-79452380D02*
X59602666Y-78452380D01*
X60078857Y-78452380D02*
X60650285Y-78452380D01*
X60364571Y-79452380D02*
X60364571Y-78452380D01*
X61507428Y-79452380D02*
X60936000Y-79452380D01*
X61221714Y-79452380D02*
X61221714Y-78452380D01*
X61126476Y-78595238D01*
X61031238Y-78690476D01*
X60936000Y-78738095D01*
G04 #@! TO.C,BUTT2*
X48601523Y-78928571D02*
X48744380Y-78976190D01*
X48792000Y-79023809D01*
X48839619Y-79119047D01*
X48839619Y-79261904D01*
X48792000Y-79357142D01*
X48744380Y-79404761D01*
X48649142Y-79452380D01*
X48268190Y-79452380D01*
X48268190Y-78452380D01*
X48601523Y-78452380D01*
X48696761Y-78500000D01*
X48744380Y-78547619D01*
X48792000Y-78642857D01*
X48792000Y-78738095D01*
X48744380Y-78833333D01*
X48696761Y-78880952D01*
X48601523Y-78928571D01*
X48268190Y-78928571D01*
X49268190Y-78452380D02*
X49268190Y-79261904D01*
X49315809Y-79357142D01*
X49363428Y-79404761D01*
X49458666Y-79452380D01*
X49649142Y-79452380D01*
X49744380Y-79404761D01*
X49792000Y-79357142D01*
X49839619Y-79261904D01*
X49839619Y-78452380D01*
X50172952Y-78452380D02*
X50744380Y-78452380D01*
X50458666Y-79452380D02*
X50458666Y-78452380D01*
X50934857Y-78452380D02*
X51506285Y-78452380D01*
X51220571Y-79452380D02*
X51220571Y-78452380D01*
X51792000Y-78547619D02*
X51839619Y-78500000D01*
X51934857Y-78452380D01*
X52172952Y-78452380D01*
X52268190Y-78500000D01*
X52315809Y-78547619D01*
X52363428Y-78642857D01*
X52363428Y-78738095D01*
X52315809Y-78880952D01*
X51744380Y-79452380D01*
X52363428Y-79452380D01*
G04 #@! TO.C,ext1*
X112374761Y-75652190D02*
X112422380Y-75747428D01*
X112422380Y-75937904D01*
X112374761Y-76033142D01*
X112279523Y-76080761D01*
X111898571Y-76080761D01*
X111803333Y-76033142D01*
X111755714Y-75937904D01*
X111755714Y-75747428D01*
X111803333Y-75652190D01*
X111898571Y-75604571D01*
X111993809Y-75604571D01*
X112089047Y-76080761D01*
X112422380Y-75271238D02*
X111755714Y-74747428D01*
X111755714Y-75271238D02*
X112422380Y-74747428D01*
X111755714Y-74509333D02*
X111755714Y-74128380D01*
X111422380Y-74366476D02*
X112279523Y-74366476D01*
X112374761Y-74318857D01*
X112422380Y-74223619D01*
X112422380Y-74128380D01*
X112422380Y-73271238D02*
X112422380Y-73842666D01*
X112422380Y-73556952D02*
X111422380Y-73556952D01*
X111565238Y-73652190D01*
X111660476Y-73747428D01*
X111708095Y-73842666D01*
G04 #@! TO.C,LED1*
X70048380Y-109323047D02*
X70048380Y-109799238D01*
X69048380Y-109799238D01*
X69524571Y-108989714D02*
X69524571Y-108656380D01*
X70048380Y-108513523D02*
X70048380Y-108989714D01*
X69048380Y-108989714D01*
X69048380Y-108513523D01*
X70048380Y-108084952D02*
X69048380Y-108084952D01*
X69048380Y-107846857D01*
X69096000Y-107704000D01*
X69191238Y-107608761D01*
X69286476Y-107561142D01*
X69476952Y-107513523D01*
X69619809Y-107513523D01*
X69810285Y-107561142D01*
X69905523Y-107608761D01*
X70000761Y-107704000D01*
X70048380Y-107846857D01*
X70048380Y-108084952D01*
X70048380Y-106561142D02*
X70048380Y-107132571D01*
X70048380Y-106846857D02*
X69048380Y-106846857D01*
X69191238Y-106942095D01*
X69286476Y-107037333D01*
X69334095Y-107132571D01*
G04 #@! TO.C,LED2*
X70048380Y-103227047D02*
X70048380Y-103703238D01*
X69048380Y-103703238D01*
X69524571Y-102893714D02*
X69524571Y-102560380D01*
X70048380Y-102417523D02*
X70048380Y-102893714D01*
X69048380Y-102893714D01*
X69048380Y-102417523D01*
X70048380Y-101988952D02*
X69048380Y-101988952D01*
X69048380Y-101750857D01*
X69096000Y-101608000D01*
X69191238Y-101512761D01*
X69286476Y-101465142D01*
X69476952Y-101417523D01*
X69619809Y-101417523D01*
X69810285Y-101465142D01*
X69905523Y-101512761D01*
X70000761Y-101608000D01*
X70048380Y-101750857D01*
X70048380Y-101988952D01*
X69143619Y-101036571D02*
X69096000Y-100988952D01*
X69048380Y-100893714D01*
X69048380Y-100655619D01*
X69096000Y-100560380D01*
X69143619Y-100512761D01*
X69238857Y-100465142D01*
X69334095Y-100465142D01*
X69476952Y-100512761D01*
X70048380Y-101084190D01*
X70048380Y-100465142D01*
G04 #@! TO.C,MOT_L_1*
X95119047Y-69952380D02*
X95119047Y-68952380D01*
X95452380Y-69666666D01*
X95785714Y-68952380D01*
X95785714Y-69952380D01*
X96452380Y-68952380D02*
X96642857Y-68952380D01*
X96738095Y-69000000D01*
X96833333Y-69095238D01*
X96880952Y-69285714D01*
X96880952Y-69619047D01*
X96833333Y-69809523D01*
X96738095Y-69904761D01*
X96642857Y-69952380D01*
X96452380Y-69952380D01*
X96357142Y-69904761D01*
X96261904Y-69809523D01*
X96214285Y-69619047D01*
X96214285Y-69285714D01*
X96261904Y-69095238D01*
X96357142Y-69000000D01*
X96452380Y-68952380D01*
X97166666Y-68952380D02*
X97738095Y-68952380D01*
X97452380Y-69952380D02*
X97452380Y-68952380D01*
X97833333Y-70047619D02*
X98595238Y-70047619D01*
X99309523Y-69952380D02*
X98833333Y-69952380D01*
X98833333Y-68952380D01*
X99404761Y-70047619D02*
X100166666Y-70047619D01*
X100928571Y-69952380D02*
X100357142Y-69952380D01*
X100642857Y-69952380D02*
X100642857Y-68952380D01*
X100547619Y-69095238D01*
X100452380Y-69190476D01*
X100357142Y-69238095D01*
G04 #@! TO.C,MOT_R_1*
X78323809Y-69952380D02*
X78323809Y-68952380D01*
X78657142Y-69666666D01*
X78990476Y-68952380D01*
X78990476Y-69952380D01*
X79657142Y-68952380D02*
X79847619Y-68952380D01*
X79942857Y-69000000D01*
X80038095Y-69095238D01*
X80085714Y-69285714D01*
X80085714Y-69619047D01*
X80038095Y-69809523D01*
X79942857Y-69904761D01*
X79847619Y-69952380D01*
X79657142Y-69952380D01*
X79561904Y-69904761D01*
X79466666Y-69809523D01*
X79419047Y-69619047D01*
X79419047Y-69285714D01*
X79466666Y-69095238D01*
X79561904Y-69000000D01*
X79657142Y-68952380D01*
X80371428Y-68952380D02*
X80942857Y-68952380D01*
X80657142Y-69952380D02*
X80657142Y-68952380D01*
X81038095Y-70047619D02*
X81800000Y-70047619D01*
X82609523Y-69952380D02*
X82276190Y-69476190D01*
X82038095Y-69952380D02*
X82038095Y-68952380D01*
X82419047Y-68952380D01*
X82514285Y-69000000D01*
X82561904Y-69047619D01*
X82609523Y-69142857D01*
X82609523Y-69285714D01*
X82561904Y-69380952D01*
X82514285Y-69428571D01*
X82419047Y-69476190D01*
X82038095Y-69476190D01*
X82800000Y-70047619D02*
X83561904Y-70047619D01*
X84323809Y-69952380D02*
X83752380Y-69952380D01*
X84038095Y-69952380D02*
X84038095Y-68952380D01*
X83942857Y-69095238D01*
X83847619Y-69190476D01*
X83752380Y-69238095D01*
G04 #@! TO.C,POWER_1*
X90876380Y-105274666D02*
X89876380Y-105274666D01*
X89876380Y-104893714D01*
X89924000Y-104798476D01*
X89971619Y-104750857D01*
X90066857Y-104703238D01*
X90209714Y-104703238D01*
X90304952Y-104750857D01*
X90352571Y-104798476D01*
X90400190Y-104893714D01*
X90400190Y-105274666D01*
X89876380Y-104084190D02*
X89876380Y-103893714D01*
X89924000Y-103798476D01*
X90019238Y-103703238D01*
X90209714Y-103655619D01*
X90543047Y-103655619D01*
X90733523Y-103703238D01*
X90828761Y-103798476D01*
X90876380Y-103893714D01*
X90876380Y-104084190D01*
X90828761Y-104179428D01*
X90733523Y-104274666D01*
X90543047Y-104322285D01*
X90209714Y-104322285D01*
X90019238Y-104274666D01*
X89924000Y-104179428D01*
X89876380Y-104084190D01*
X89876380Y-103322285D02*
X90876380Y-103084190D01*
X90162095Y-102893714D01*
X90876380Y-102703238D01*
X89876380Y-102465142D01*
X90352571Y-102084190D02*
X90352571Y-101750857D01*
X90876380Y-101608000D02*
X90876380Y-102084190D01*
X89876380Y-102084190D01*
X89876380Y-101608000D01*
X90876380Y-100608000D02*
X90400190Y-100941333D01*
X90876380Y-101179428D02*
X89876380Y-101179428D01*
X89876380Y-100798476D01*
X89924000Y-100703238D01*
X89971619Y-100655619D01*
X90066857Y-100608000D01*
X90209714Y-100608000D01*
X90304952Y-100655619D01*
X90352571Y-100703238D01*
X90400190Y-100798476D01*
X90400190Y-101179428D01*
X90971619Y-100417523D02*
X90971619Y-99655619D01*
X90876380Y-98893714D02*
X90876380Y-99465142D01*
X90876380Y-99179428D02*
X89876380Y-99179428D01*
X90019238Y-99274666D01*
X90114476Y-99369904D01*
X90162095Y-99465142D01*
G04 #@! TO.C,PWR_1*
X134909523Y-78052380D02*
X134909523Y-77052380D01*
X135290476Y-77052380D01*
X135385714Y-77100000D01*
X135433333Y-77147619D01*
X135480952Y-77242857D01*
X135480952Y-77385714D01*
X135433333Y-77480952D01*
X135385714Y-77528571D01*
X135290476Y-77576190D01*
X134909523Y-77576190D01*
X135814285Y-77052380D02*
X136052380Y-78052380D01*
X136242857Y-77338095D01*
X136433333Y-78052380D01*
X136671428Y-77052380D01*
X137623809Y-78052380D02*
X137290476Y-77576190D01*
X137052380Y-78052380D02*
X137052380Y-77052380D01*
X137433333Y-77052380D01*
X137528571Y-77100000D01*
X137576190Y-77147619D01*
X137623809Y-77242857D01*
X137623809Y-77385714D01*
X137576190Y-77480952D01*
X137528571Y-77528571D01*
X137433333Y-77576190D01*
X137052380Y-77576190D01*
X137814285Y-78147619D02*
X138576190Y-78147619D01*
X139338095Y-78052380D02*
X138766666Y-78052380D01*
X139052380Y-78052380D02*
X139052380Y-77052380D01*
X138957142Y-77195238D01*
X138861904Y-77290476D01*
X138766666Y-77338095D01*
G04 #@! TO.C,QTR_1*
X134722857Y-108987619D02*
X134627619Y-108940000D01*
X134532380Y-108844761D01*
X134389523Y-108701904D01*
X134294285Y-108654285D01*
X134199047Y-108654285D01*
X134246666Y-108892380D02*
X134151428Y-108844761D01*
X134056190Y-108749523D01*
X134008571Y-108559047D01*
X134008571Y-108225714D01*
X134056190Y-108035238D01*
X134151428Y-107940000D01*
X134246666Y-107892380D01*
X134437142Y-107892380D01*
X134532380Y-107940000D01*
X134627619Y-108035238D01*
X134675238Y-108225714D01*
X134675238Y-108559047D01*
X134627619Y-108749523D01*
X134532380Y-108844761D01*
X134437142Y-108892380D01*
X134246666Y-108892380D01*
X134960952Y-107892380D02*
X135532380Y-107892380D01*
X135246666Y-108892380D02*
X135246666Y-107892380D01*
X136437142Y-108892380D02*
X136103809Y-108416190D01*
X135865714Y-108892380D02*
X135865714Y-107892380D01*
X136246666Y-107892380D01*
X136341904Y-107940000D01*
X136389523Y-107987619D01*
X136437142Y-108082857D01*
X136437142Y-108225714D01*
X136389523Y-108320952D01*
X136341904Y-108368571D01*
X136246666Y-108416190D01*
X135865714Y-108416190D01*
X136627619Y-108987619D02*
X137389523Y-108987619D01*
X138151428Y-108892380D02*
X137580000Y-108892380D01*
X137865714Y-108892380D02*
X137865714Y-107892380D01*
X137770476Y-108035238D01*
X137675238Y-108130476D01*
X137580000Y-108178095D01*
G04 #@! TO.C,QTR_2*
X52490857Y-109259619D02*
X52395619Y-109212000D01*
X52300380Y-109116761D01*
X52157523Y-108973904D01*
X52062285Y-108926285D01*
X51967047Y-108926285D01*
X52014666Y-109164380D02*
X51919428Y-109116761D01*
X51824190Y-109021523D01*
X51776571Y-108831047D01*
X51776571Y-108497714D01*
X51824190Y-108307238D01*
X51919428Y-108212000D01*
X52014666Y-108164380D01*
X52205142Y-108164380D01*
X52300380Y-108212000D01*
X52395619Y-108307238D01*
X52443238Y-108497714D01*
X52443238Y-108831047D01*
X52395619Y-109021523D01*
X52300380Y-109116761D01*
X52205142Y-109164380D01*
X52014666Y-109164380D01*
X52728952Y-108164380D02*
X53300380Y-108164380D01*
X53014666Y-109164380D02*
X53014666Y-108164380D01*
X54205142Y-109164380D02*
X53871809Y-108688190D01*
X53633714Y-109164380D02*
X53633714Y-108164380D01*
X54014666Y-108164380D01*
X54109904Y-108212000D01*
X54157523Y-108259619D01*
X54205142Y-108354857D01*
X54205142Y-108497714D01*
X54157523Y-108592952D01*
X54109904Y-108640571D01*
X54014666Y-108688190D01*
X53633714Y-108688190D01*
X54395619Y-109259619D02*
X55157523Y-109259619D01*
X55348000Y-108259619D02*
X55395619Y-108212000D01*
X55490857Y-108164380D01*
X55728952Y-108164380D01*
X55824190Y-108212000D01*
X55871809Y-108259619D01*
X55919428Y-108354857D01*
X55919428Y-108450095D01*
X55871809Y-108592952D01*
X55300380Y-109164380D01*
X55919428Y-109164380D01*
G04 #@! TO.C,SHARP1*
X121825714Y-115532761D02*
X121968571Y-115580380D01*
X122206666Y-115580380D01*
X122301904Y-115532761D01*
X122349523Y-115485142D01*
X122397142Y-115389904D01*
X122397142Y-115294666D01*
X122349523Y-115199428D01*
X122301904Y-115151809D01*
X122206666Y-115104190D01*
X122016190Y-115056571D01*
X121920952Y-115008952D01*
X121873333Y-114961333D01*
X121825714Y-114866095D01*
X121825714Y-114770857D01*
X121873333Y-114675619D01*
X121920952Y-114628000D01*
X122016190Y-114580380D01*
X122254285Y-114580380D01*
X122397142Y-114628000D01*
X122825714Y-115580380D02*
X122825714Y-114580380D01*
X122825714Y-115056571D02*
X123397142Y-115056571D01*
X123397142Y-115580380D02*
X123397142Y-114580380D01*
X123825714Y-115294666D02*
X124301904Y-115294666D01*
X123730476Y-115580380D02*
X124063809Y-114580380D01*
X124397142Y-115580380D01*
X125301904Y-115580380D02*
X124968571Y-115104190D01*
X124730476Y-115580380D02*
X124730476Y-114580380D01*
X125111428Y-114580380D01*
X125206666Y-114628000D01*
X125254285Y-114675619D01*
X125301904Y-114770857D01*
X125301904Y-114913714D01*
X125254285Y-115008952D01*
X125206666Y-115056571D01*
X125111428Y-115104190D01*
X124730476Y-115104190D01*
X125730476Y-115580380D02*
X125730476Y-114580380D01*
X126111428Y-114580380D01*
X126206666Y-114628000D01*
X126254285Y-114675619D01*
X126301904Y-114770857D01*
X126301904Y-114913714D01*
X126254285Y-115008952D01*
X126206666Y-115056571D01*
X126111428Y-115104190D01*
X125730476Y-115104190D01*
X127254285Y-115580380D02*
X126682857Y-115580380D01*
X126968571Y-115580380D02*
X126968571Y-114580380D01*
X126873333Y-114723238D01*
X126778095Y-114818476D01*
X126682857Y-114866095D01*
G04 #@! TO.C,SHARP2*
X85893714Y-115532761D02*
X86036571Y-115580380D01*
X86274666Y-115580380D01*
X86369904Y-115532761D01*
X86417523Y-115485142D01*
X86465142Y-115389904D01*
X86465142Y-115294666D01*
X86417523Y-115199428D01*
X86369904Y-115151809D01*
X86274666Y-115104190D01*
X86084190Y-115056571D01*
X85988952Y-115008952D01*
X85941333Y-114961333D01*
X85893714Y-114866095D01*
X85893714Y-114770857D01*
X85941333Y-114675619D01*
X85988952Y-114628000D01*
X86084190Y-114580380D01*
X86322285Y-114580380D01*
X86465142Y-114628000D01*
X86893714Y-115580380D02*
X86893714Y-114580380D01*
X86893714Y-115056571D02*
X87465142Y-115056571D01*
X87465142Y-115580380D02*
X87465142Y-114580380D01*
X87893714Y-115294666D02*
X88369904Y-115294666D01*
X87798476Y-115580380D02*
X88131809Y-114580380D01*
X88465142Y-115580380D01*
X89369904Y-115580380D02*
X89036571Y-115104190D01*
X88798476Y-115580380D02*
X88798476Y-114580380D01*
X89179428Y-114580380D01*
X89274666Y-114628000D01*
X89322285Y-114675619D01*
X89369904Y-114770857D01*
X89369904Y-114913714D01*
X89322285Y-115008952D01*
X89274666Y-115056571D01*
X89179428Y-115104190D01*
X88798476Y-115104190D01*
X89798476Y-115580380D02*
X89798476Y-114580380D01*
X90179428Y-114580380D01*
X90274666Y-114628000D01*
X90322285Y-114675619D01*
X90369904Y-114770857D01*
X90369904Y-114913714D01*
X90322285Y-115008952D01*
X90274666Y-115056571D01*
X90179428Y-115104190D01*
X89798476Y-115104190D01*
X90750857Y-114675619D02*
X90798476Y-114628000D01*
X90893714Y-114580380D01*
X91131809Y-114580380D01*
X91227047Y-114628000D01*
X91274666Y-114675619D01*
X91322285Y-114770857D01*
X91322285Y-114866095D01*
X91274666Y-115008952D01*
X90703238Y-115580380D01*
X91322285Y-115580380D01*
G04 #@! TO.C,SHARP3*
X61801714Y-119276761D02*
X61944571Y-119324380D01*
X62182666Y-119324380D01*
X62277904Y-119276761D01*
X62325523Y-119229142D01*
X62373142Y-119133904D01*
X62373142Y-119038666D01*
X62325523Y-118943428D01*
X62277904Y-118895809D01*
X62182666Y-118848190D01*
X61992190Y-118800571D01*
X61896952Y-118752952D01*
X61849333Y-118705333D01*
X61801714Y-118610095D01*
X61801714Y-118514857D01*
X61849333Y-118419619D01*
X61896952Y-118372000D01*
X61992190Y-118324380D01*
X62230285Y-118324380D01*
X62373142Y-118372000D01*
X62801714Y-119324380D02*
X62801714Y-118324380D01*
X62801714Y-118800571D02*
X63373142Y-118800571D01*
X63373142Y-119324380D02*
X63373142Y-118324380D01*
X63801714Y-119038666D02*
X64277904Y-119038666D01*
X63706476Y-119324380D02*
X64039809Y-118324380D01*
X64373142Y-119324380D01*
X65277904Y-119324380D02*
X64944571Y-118848190D01*
X64706476Y-119324380D02*
X64706476Y-118324380D01*
X65087428Y-118324380D01*
X65182666Y-118372000D01*
X65230285Y-118419619D01*
X65277904Y-118514857D01*
X65277904Y-118657714D01*
X65230285Y-118752952D01*
X65182666Y-118800571D01*
X65087428Y-118848190D01*
X64706476Y-118848190D01*
X65706476Y-119324380D02*
X65706476Y-118324380D01*
X66087428Y-118324380D01*
X66182666Y-118372000D01*
X66230285Y-118419619D01*
X66277904Y-118514857D01*
X66277904Y-118657714D01*
X66230285Y-118752952D01*
X66182666Y-118800571D01*
X66087428Y-118848190D01*
X65706476Y-118848190D01*
X66611238Y-118324380D02*
X67230285Y-118324380D01*
X66896952Y-118705333D01*
X67039809Y-118705333D01*
X67135047Y-118752952D01*
X67182666Y-118800571D01*
X67230285Y-118895809D01*
X67230285Y-119133904D01*
X67182666Y-119229142D01*
X67135047Y-119276761D01*
X67039809Y-119324380D01*
X66754095Y-119324380D01*
X66658857Y-119276761D01*
X66611238Y-119229142D01*
G04 #@! TO.C,VL53_1*
X87962380Y-115547619D02*
X88962380Y-115214285D01*
X87962380Y-114880952D01*
X88962380Y-114071428D02*
X88962380Y-114547619D01*
X87962380Y-114547619D01*
X87962380Y-113261904D02*
X87962380Y-113738095D01*
X88438571Y-113785714D01*
X88390952Y-113738095D01*
X88343333Y-113642857D01*
X88343333Y-113404761D01*
X88390952Y-113309523D01*
X88438571Y-113261904D01*
X88533809Y-113214285D01*
X88771904Y-113214285D01*
X88867142Y-113261904D01*
X88914761Y-113309523D01*
X88962380Y-113404761D01*
X88962380Y-113642857D01*
X88914761Y-113738095D01*
X88867142Y-113785714D01*
X87962380Y-112880952D02*
X87962380Y-112261904D01*
X88343333Y-112595238D01*
X88343333Y-112452380D01*
X88390952Y-112357142D01*
X88438571Y-112309523D01*
X88533809Y-112261904D01*
X88771904Y-112261904D01*
X88867142Y-112309523D01*
X88914761Y-112357142D01*
X88962380Y-112452380D01*
X88962380Y-112738095D01*
X88914761Y-112833333D01*
X88867142Y-112880952D01*
X89057619Y-112071428D02*
X89057619Y-111309523D01*
X88962380Y-110547619D02*
X88962380Y-111119047D01*
X88962380Y-110833333D02*
X87962380Y-110833333D01*
X88105238Y-110928571D01*
X88200476Y-111023809D01*
X88248095Y-111119047D01*
G04 #@! TO.C,VL53_2*
X48728380Y-90939619D02*
X49728380Y-90606285D01*
X48728380Y-90272952D01*
X49728380Y-89463428D02*
X49728380Y-89939619D01*
X48728380Y-89939619D01*
X48728380Y-88653904D02*
X48728380Y-89130095D01*
X49204571Y-89177714D01*
X49156952Y-89130095D01*
X49109333Y-89034857D01*
X49109333Y-88796761D01*
X49156952Y-88701523D01*
X49204571Y-88653904D01*
X49299809Y-88606285D01*
X49537904Y-88606285D01*
X49633142Y-88653904D01*
X49680761Y-88701523D01*
X49728380Y-88796761D01*
X49728380Y-89034857D01*
X49680761Y-89130095D01*
X49633142Y-89177714D01*
X48728380Y-88272952D02*
X48728380Y-87653904D01*
X49109333Y-87987238D01*
X49109333Y-87844380D01*
X49156952Y-87749142D01*
X49204571Y-87701523D01*
X49299809Y-87653904D01*
X49537904Y-87653904D01*
X49633142Y-87701523D01*
X49680761Y-87749142D01*
X49728380Y-87844380D01*
X49728380Y-88130095D01*
X49680761Y-88225333D01*
X49633142Y-88272952D01*
X49823619Y-87463428D02*
X49823619Y-86701523D01*
X48823619Y-86511047D02*
X48776000Y-86463428D01*
X48728380Y-86368190D01*
X48728380Y-86130095D01*
X48776000Y-86034857D01*
X48823619Y-85987238D01*
X48918857Y-85939619D01*
X49014095Y-85939619D01*
X49156952Y-85987238D01*
X49728380Y-86558666D01*
X49728380Y-85939619D01*
G04 #@! TO.C,VL53_3*
X140800380Y-95727619D02*
X141800380Y-95394285D01*
X140800380Y-95060952D01*
X141800380Y-94251428D02*
X141800380Y-94727619D01*
X140800380Y-94727619D01*
X140800380Y-93441904D02*
X140800380Y-93918095D01*
X141276571Y-93965714D01*
X141228952Y-93918095D01*
X141181333Y-93822857D01*
X141181333Y-93584761D01*
X141228952Y-93489523D01*
X141276571Y-93441904D01*
X141371809Y-93394285D01*
X141609904Y-93394285D01*
X141705142Y-93441904D01*
X141752761Y-93489523D01*
X141800380Y-93584761D01*
X141800380Y-93822857D01*
X141752761Y-93918095D01*
X141705142Y-93965714D01*
X140800380Y-93060952D02*
X140800380Y-92441904D01*
X141181333Y-92775238D01*
X141181333Y-92632380D01*
X141228952Y-92537142D01*
X141276571Y-92489523D01*
X141371809Y-92441904D01*
X141609904Y-92441904D01*
X141705142Y-92489523D01*
X141752761Y-92537142D01*
X141800380Y-92632380D01*
X141800380Y-92918095D01*
X141752761Y-93013333D01*
X141705142Y-93060952D01*
X141895619Y-92251428D02*
X141895619Y-91489523D01*
X140800380Y-91346666D02*
X140800380Y-90727619D01*
X141181333Y-91060952D01*
X141181333Y-90918095D01*
X141228952Y-90822857D01*
X141276571Y-90775238D01*
X141371809Y-90727619D01*
X141609904Y-90727619D01*
X141705142Y-90775238D01*
X141752761Y-90822857D01*
X141800380Y-90918095D01*
X141800380Y-91203809D01*
X141752761Y-91299047D01*
X141705142Y-91346666D01*
G04 #@! TO.C,interface1*
D11*
X124210190Y-74902190D02*
X124210190Y-74568857D01*
X124210190Y-74402190D02*
X124186380Y-74426000D01*
X124210190Y-74449809D01*
X124234000Y-74426000D01*
X124210190Y-74402190D01*
X124210190Y-74449809D01*
X124448285Y-74568857D02*
X124448285Y-74902190D01*
X124448285Y-74616476D02*
X124472095Y-74592666D01*
X124519714Y-74568857D01*
X124591142Y-74568857D01*
X124638761Y-74592666D01*
X124662571Y-74640285D01*
X124662571Y-74902190D01*
X124829238Y-74568857D02*
X125019714Y-74568857D01*
X124900666Y-74402190D02*
X124900666Y-74830761D01*
X124924476Y-74878380D01*
X124972095Y-74902190D01*
X125019714Y-74902190D01*
X125376857Y-74878380D02*
X125329238Y-74902190D01*
X125234000Y-74902190D01*
X125186380Y-74878380D01*
X125162571Y-74830761D01*
X125162571Y-74640285D01*
X125186380Y-74592666D01*
X125234000Y-74568857D01*
X125329238Y-74568857D01*
X125376857Y-74592666D01*
X125400666Y-74640285D01*
X125400666Y-74687904D01*
X125162571Y-74735523D01*
X125614952Y-74902190D02*
X125614952Y-74568857D01*
X125614952Y-74664095D02*
X125638761Y-74616476D01*
X125662571Y-74592666D01*
X125710190Y-74568857D01*
X125757809Y-74568857D01*
X125853047Y-74568857D02*
X126043523Y-74568857D01*
X125924476Y-74902190D02*
X125924476Y-74473619D01*
X125948285Y-74426000D01*
X125995904Y-74402190D01*
X126043523Y-74402190D01*
X126424476Y-74902190D02*
X126424476Y-74640285D01*
X126400666Y-74592666D01*
X126353047Y-74568857D01*
X126257809Y-74568857D01*
X126210190Y-74592666D01*
X126424476Y-74878380D02*
X126376857Y-74902190D01*
X126257809Y-74902190D01*
X126210190Y-74878380D01*
X126186380Y-74830761D01*
X126186380Y-74783142D01*
X126210190Y-74735523D01*
X126257809Y-74711714D01*
X126376857Y-74711714D01*
X126424476Y-74687904D01*
X126876857Y-74878380D02*
X126829238Y-74902190D01*
X126734000Y-74902190D01*
X126686380Y-74878380D01*
X126662571Y-74854571D01*
X126638761Y-74806952D01*
X126638761Y-74664095D01*
X126662571Y-74616476D01*
X126686380Y-74592666D01*
X126734000Y-74568857D01*
X126829238Y-74568857D01*
X126876857Y-74592666D01*
X127281619Y-74878380D02*
X127234000Y-74902190D01*
X127138761Y-74902190D01*
X127091142Y-74878380D01*
X127067333Y-74830761D01*
X127067333Y-74640285D01*
X127091142Y-74592666D01*
X127138761Y-74568857D01*
X127234000Y-74568857D01*
X127281619Y-74592666D01*
X127305428Y-74640285D01*
X127305428Y-74687904D01*
X127067333Y-74735523D01*
X127781619Y-74902190D02*
X127495904Y-74902190D01*
X127638761Y-74902190D02*
X127638761Y-74402190D01*
X127591142Y-74473619D01*
X127543523Y-74521238D01*
X127495904Y-74545047D01*
G04 #@! TO.C,MicroStart1*
D13*
X121682380Y-80208380D02*
X121682380Y-79208380D01*
X122015714Y-79922666D01*
X122349047Y-79208380D01*
X122349047Y-80208380D01*
X122825238Y-80208380D02*
X122825238Y-79541714D01*
X122825238Y-79208380D02*
X122777619Y-79256000D01*
X122825238Y-79303619D01*
X122872857Y-79256000D01*
X122825238Y-79208380D01*
X122825238Y-79303619D01*
X123730000Y-80160761D02*
X123634761Y-80208380D01*
X123444285Y-80208380D01*
X123349047Y-80160761D01*
X123301428Y-80113142D01*
X123253809Y-80017904D01*
X123253809Y-79732190D01*
X123301428Y-79636952D01*
X123349047Y-79589333D01*
X123444285Y-79541714D01*
X123634761Y-79541714D01*
X123730000Y-79589333D01*
X124158571Y-80208380D02*
X124158571Y-79541714D01*
X124158571Y-79732190D02*
X124206190Y-79636952D01*
X124253809Y-79589333D01*
X124349047Y-79541714D01*
X124444285Y-79541714D01*
X124920476Y-80208380D02*
X124825238Y-80160761D01*
X124777619Y-80113142D01*
X124730000Y-80017904D01*
X124730000Y-79732190D01*
X124777619Y-79636952D01*
X124825238Y-79589333D01*
X124920476Y-79541714D01*
X125063333Y-79541714D01*
X125158571Y-79589333D01*
X125206190Y-79636952D01*
X125253809Y-79732190D01*
X125253809Y-80017904D01*
X125206190Y-80113142D01*
X125158571Y-80160761D01*
X125063333Y-80208380D01*
X124920476Y-80208380D01*
X125634761Y-80160761D02*
X125777619Y-80208380D01*
X126015714Y-80208380D01*
X126110952Y-80160761D01*
X126158571Y-80113142D01*
X126206190Y-80017904D01*
X126206190Y-79922666D01*
X126158571Y-79827428D01*
X126110952Y-79779809D01*
X126015714Y-79732190D01*
X125825238Y-79684571D01*
X125730000Y-79636952D01*
X125682380Y-79589333D01*
X125634761Y-79494095D01*
X125634761Y-79398857D01*
X125682380Y-79303619D01*
X125730000Y-79256000D01*
X125825238Y-79208380D01*
X126063333Y-79208380D01*
X126206190Y-79256000D01*
X126491904Y-79541714D02*
X126872857Y-79541714D01*
X126634761Y-79208380D02*
X126634761Y-80065523D01*
X126682380Y-80160761D01*
X126777619Y-80208380D01*
X126872857Y-80208380D01*
X127634761Y-80208380D02*
X127634761Y-79684571D01*
X127587142Y-79589333D01*
X127491904Y-79541714D01*
X127301428Y-79541714D01*
X127206190Y-79589333D01*
X127634761Y-80160761D02*
X127539523Y-80208380D01*
X127301428Y-80208380D01*
X127206190Y-80160761D01*
X127158571Y-80065523D01*
X127158571Y-79970285D01*
X127206190Y-79875047D01*
X127301428Y-79827428D01*
X127539523Y-79827428D01*
X127634761Y-79779809D01*
X128110952Y-80208380D02*
X128110952Y-79541714D01*
X128110952Y-79732190D02*
X128158571Y-79636952D01*
X128206190Y-79589333D01*
X128301428Y-79541714D01*
X128396666Y-79541714D01*
X128587142Y-79541714D02*
X128968095Y-79541714D01*
X128730000Y-79208380D02*
X128730000Y-80065523D01*
X128777619Y-80160761D01*
X128872857Y-80208380D01*
X128968095Y-80208380D01*
X129825238Y-80208380D02*
X129253809Y-80208380D01*
X129539523Y-80208380D02*
X129539523Y-79208380D01*
X129444285Y-79351238D01*
X129349047Y-79446476D01*
X129253809Y-79494095D01*
G04 #@! TO.C,reset1*
X68262761Y-70556380D02*
X68262761Y-69889714D01*
X68262761Y-70080190D02*
X68310380Y-69984952D01*
X68358000Y-69937333D01*
X68453238Y-69889714D01*
X68548476Y-69889714D01*
X69262761Y-70508761D02*
X69167523Y-70556380D01*
X68977047Y-70556380D01*
X68881809Y-70508761D01*
X68834190Y-70413523D01*
X68834190Y-70032571D01*
X68881809Y-69937333D01*
X68977047Y-69889714D01*
X69167523Y-69889714D01*
X69262761Y-69937333D01*
X69310380Y-70032571D01*
X69310380Y-70127809D01*
X68834190Y-70223047D01*
X69691333Y-70508761D02*
X69786571Y-70556380D01*
X69977047Y-70556380D01*
X70072285Y-70508761D01*
X70119904Y-70413523D01*
X70119904Y-70365904D01*
X70072285Y-70270666D01*
X69977047Y-70223047D01*
X69834190Y-70223047D01*
X69738952Y-70175428D01*
X69691333Y-70080190D01*
X69691333Y-70032571D01*
X69738952Y-69937333D01*
X69834190Y-69889714D01*
X69977047Y-69889714D01*
X70072285Y-69937333D01*
X70929428Y-70508761D02*
X70834190Y-70556380D01*
X70643714Y-70556380D01*
X70548476Y-70508761D01*
X70500857Y-70413523D01*
X70500857Y-70032571D01*
X70548476Y-69937333D01*
X70643714Y-69889714D01*
X70834190Y-69889714D01*
X70929428Y-69937333D01*
X70977047Y-70032571D01*
X70977047Y-70127809D01*
X70500857Y-70223047D01*
X71262761Y-69889714D02*
X71643714Y-69889714D01*
X71405619Y-69556380D02*
X71405619Y-70413523D01*
X71453238Y-70508761D01*
X71548476Y-70556380D01*
X71643714Y-70556380D01*
X72500857Y-70556380D02*
X71929428Y-70556380D01*
X72215142Y-70556380D02*
X72215142Y-69556380D01*
X72119904Y-69699238D01*
X72024666Y-69794476D01*
X71929428Y-69842095D01*
G04 #@! TO.C,REF\002A\002A*
X93666666Y-96752380D02*
X93333333Y-96276190D01*
X93095238Y-96752380D02*
X93095238Y-95752380D01*
X93476190Y-95752380D01*
X93571428Y-95800000D01*
X93619047Y-95847619D01*
X93666666Y-95942857D01*
X93666666Y-96085714D01*
X93619047Y-96180952D01*
X93571428Y-96228571D01*
X93476190Y-96276190D01*
X93095238Y-96276190D01*
X94095238Y-96228571D02*
X94428571Y-96228571D01*
X94571428Y-96752380D02*
X94095238Y-96752380D01*
X94095238Y-95752380D01*
X94571428Y-95752380D01*
X95333333Y-96228571D02*
X95000000Y-96228571D01*
X95000000Y-96752380D02*
X95000000Y-95752380D01*
X95476190Y-95752380D01*
X96000000Y-95752380D02*
X96000000Y-95990476D01*
X95761904Y-95895238D02*
X96000000Y-95990476D01*
X96238095Y-95895238D01*
X95857142Y-96180952D02*
X96000000Y-95990476D01*
X96142857Y-96180952D01*
X96761904Y-95752380D02*
X96761904Y-95990476D01*
X96523809Y-95895238D02*
X96761904Y-95990476D01*
X97000000Y-95895238D01*
X96619047Y-96180952D02*
X96761904Y-95990476D01*
X96904761Y-96180952D01*
X62666666Y-96752380D02*
X62333333Y-96276190D01*
X62095238Y-96752380D02*
X62095238Y-95752380D01*
X62476190Y-95752380D01*
X62571428Y-95800000D01*
X62619047Y-95847619D01*
X62666666Y-95942857D01*
X62666666Y-96085714D01*
X62619047Y-96180952D01*
X62571428Y-96228571D01*
X62476190Y-96276190D01*
X62095238Y-96276190D01*
X63095238Y-96228571D02*
X63428571Y-96228571D01*
X63571428Y-96752380D02*
X63095238Y-96752380D01*
X63095238Y-95752380D01*
X63571428Y-95752380D01*
X64333333Y-96228571D02*
X64000000Y-96228571D01*
X64000000Y-96752380D02*
X64000000Y-95752380D01*
X64476190Y-95752380D01*
X65000000Y-95752380D02*
X65000000Y-95990476D01*
X64761904Y-95895238D02*
X65000000Y-95990476D01*
X65238095Y-95895238D01*
X64857142Y-96180952D02*
X65000000Y-95990476D01*
X65142857Y-96180952D01*
X65761904Y-95752380D02*
X65761904Y-95990476D01*
X65523809Y-95895238D02*
X65761904Y-95990476D01*
X66000000Y-95895238D01*
X65619047Y-96180952D02*
X65761904Y-95990476D01*
X65904761Y-96180952D01*
X130666666Y-96752380D02*
X130333333Y-96276190D01*
X130095238Y-96752380D02*
X130095238Y-95752380D01*
X130476190Y-95752380D01*
X130571428Y-95800000D01*
X130619047Y-95847619D01*
X130666666Y-95942857D01*
X130666666Y-96085714D01*
X130619047Y-96180952D01*
X130571428Y-96228571D01*
X130476190Y-96276190D01*
X130095238Y-96276190D01*
X131095238Y-96228571D02*
X131428571Y-96228571D01*
X131571428Y-96752380D02*
X131095238Y-96752380D01*
X131095238Y-95752380D01*
X131571428Y-95752380D01*
X132333333Y-96228571D02*
X132000000Y-96228571D01*
X132000000Y-96752380D02*
X132000000Y-95752380D01*
X132476190Y-95752380D01*
X133000000Y-95752380D02*
X133000000Y-95990476D01*
X132761904Y-95895238D02*
X133000000Y-95990476D01*
X133238095Y-95895238D01*
X132857142Y-96180952D02*
X133000000Y-95990476D01*
X133142857Y-96180952D01*
X133761904Y-95752380D02*
X133761904Y-95990476D01*
X133523809Y-95895238D02*
X133761904Y-95990476D01*
X134000000Y-95895238D01*
X133619047Y-96180952D02*
X133761904Y-95990476D01*
X133904761Y-96180952D01*
X117666666Y-41452380D02*
X117333333Y-40976190D01*
X117095238Y-41452380D02*
X117095238Y-40452380D01*
X117476190Y-40452380D01*
X117571428Y-40500000D01*
X117619047Y-40547619D01*
X117666666Y-40642857D01*
X117666666Y-40785714D01*
X117619047Y-40880952D01*
X117571428Y-40928571D01*
X117476190Y-40976190D01*
X117095238Y-40976190D01*
X118095238Y-40928571D02*
X118428571Y-40928571D01*
X118571428Y-41452380D02*
X118095238Y-41452380D01*
X118095238Y-40452380D01*
X118571428Y-40452380D01*
X119333333Y-40928571D02*
X119000000Y-40928571D01*
X119000000Y-41452380D02*
X119000000Y-40452380D01*
X119476190Y-40452380D01*
X120000000Y-40452380D02*
X120000000Y-40690476D01*
X119761904Y-40595238D02*
X120000000Y-40690476D01*
X120238095Y-40595238D01*
X119857142Y-40880952D02*
X120000000Y-40690476D01*
X120142857Y-40880952D01*
X120761904Y-40452380D02*
X120761904Y-40690476D01*
X120523809Y-40595238D02*
X120761904Y-40690476D01*
X121000000Y-40595238D01*
X120619047Y-40880952D02*
X120761904Y-40690476D01*
X120904761Y-40880952D01*
X117666666Y-63452380D02*
X117333333Y-62976190D01*
X117095238Y-63452380D02*
X117095238Y-62452380D01*
X117476190Y-62452380D01*
X117571428Y-62500000D01*
X117619047Y-62547619D01*
X117666666Y-62642857D01*
X117666666Y-62785714D01*
X117619047Y-62880952D01*
X117571428Y-62928571D01*
X117476190Y-62976190D01*
X117095238Y-62976190D01*
X118095238Y-62928571D02*
X118428571Y-62928571D01*
X118571428Y-63452380D02*
X118095238Y-63452380D01*
X118095238Y-62452380D01*
X118571428Y-62452380D01*
X119333333Y-62928571D02*
X119000000Y-62928571D01*
X119000000Y-63452380D02*
X119000000Y-62452380D01*
X119476190Y-62452380D01*
X120000000Y-62452380D02*
X120000000Y-62690476D01*
X119761904Y-62595238D02*
X120000000Y-62690476D01*
X120238095Y-62595238D01*
X119857142Y-62880952D02*
X120000000Y-62690476D01*
X120142857Y-62880952D01*
X120761904Y-62452380D02*
X120761904Y-62690476D01*
X120523809Y-62595238D02*
X120761904Y-62690476D01*
X121000000Y-62595238D01*
X120619047Y-62880952D02*
X120761904Y-62690476D01*
X120904761Y-62880952D01*
X69666666Y-41452380D02*
X69333333Y-40976190D01*
X69095238Y-41452380D02*
X69095238Y-40452380D01*
X69476190Y-40452380D01*
X69571428Y-40500000D01*
X69619047Y-40547619D01*
X69666666Y-40642857D01*
X69666666Y-40785714D01*
X69619047Y-40880952D01*
X69571428Y-40928571D01*
X69476190Y-40976190D01*
X69095238Y-40976190D01*
X70095238Y-40928571D02*
X70428571Y-40928571D01*
X70571428Y-41452380D02*
X70095238Y-41452380D01*
X70095238Y-40452380D01*
X70571428Y-40452380D01*
X71333333Y-40928571D02*
X71000000Y-40928571D01*
X71000000Y-41452380D02*
X71000000Y-40452380D01*
X71476190Y-40452380D01*
X72000000Y-40452380D02*
X72000000Y-40690476D01*
X71761904Y-40595238D02*
X72000000Y-40690476D01*
X72238095Y-40595238D01*
X71857142Y-40880952D02*
X72000000Y-40690476D01*
X72142857Y-40880952D01*
X72761904Y-40452380D02*
X72761904Y-40690476D01*
X72523809Y-40595238D02*
X72761904Y-40690476D01*
X73000000Y-40595238D01*
X72619047Y-40880952D02*
X72761904Y-40690476D01*
X72904761Y-40880952D01*
X69666666Y-63452380D02*
X69333333Y-62976190D01*
X69095238Y-63452380D02*
X69095238Y-62452380D01*
X69476190Y-62452380D01*
X69571428Y-62500000D01*
X69619047Y-62547619D01*
X69666666Y-62642857D01*
X69666666Y-62785714D01*
X69619047Y-62880952D01*
X69571428Y-62928571D01*
X69476190Y-62976190D01*
X69095238Y-62976190D01*
X70095238Y-62928571D02*
X70428571Y-62928571D01*
X70571428Y-63452380D02*
X70095238Y-63452380D01*
X70095238Y-62452380D01*
X70571428Y-62452380D01*
X71333333Y-62928571D02*
X71000000Y-62928571D01*
X71000000Y-63452380D02*
X71000000Y-62452380D01*
X71476190Y-62452380D01*
X72000000Y-62452380D02*
X72000000Y-62690476D01*
X71761904Y-62595238D02*
X72000000Y-62690476D01*
X72238095Y-62595238D01*
X71857142Y-62880952D02*
X72000000Y-62690476D01*
X72142857Y-62880952D01*
X72761904Y-62452380D02*
X72761904Y-62690476D01*
X72523809Y-62595238D02*
X72761904Y-62690476D01*
X73000000Y-62595238D01*
X72619047Y-62880952D02*
X72761904Y-62690476D01*
X72904761Y-62880952D01*
X88666666Y-39452380D02*
X88333333Y-38976190D01*
X88095238Y-39452380D02*
X88095238Y-38452380D01*
X88476190Y-38452380D01*
X88571428Y-38500000D01*
X88619047Y-38547619D01*
X88666666Y-38642857D01*
X88666666Y-38785714D01*
X88619047Y-38880952D01*
X88571428Y-38928571D01*
X88476190Y-38976190D01*
X88095238Y-38976190D01*
X89095238Y-38928571D02*
X89428571Y-38928571D01*
X89571428Y-39452380D02*
X89095238Y-39452380D01*
X89095238Y-38452380D01*
X89571428Y-38452380D01*
X90333333Y-38928571D02*
X90000000Y-38928571D01*
X90000000Y-39452380D02*
X90000000Y-38452380D01*
X90476190Y-38452380D01*
X91000000Y-38452380D02*
X91000000Y-38690476D01*
X90761904Y-38595238D02*
X91000000Y-38690476D01*
X91238095Y-38595238D01*
X90857142Y-38880952D02*
X91000000Y-38690476D01*
X91142857Y-38880952D01*
X91761904Y-38452380D02*
X91761904Y-38690476D01*
X91523809Y-38595238D02*
X91761904Y-38690476D01*
X92000000Y-38595238D01*
X91619047Y-38880952D02*
X91761904Y-38690476D01*
X91904761Y-38880952D01*
X98666666Y-39452380D02*
X98333333Y-38976190D01*
X98095238Y-39452380D02*
X98095238Y-38452380D01*
X98476190Y-38452380D01*
X98571428Y-38500000D01*
X98619047Y-38547619D01*
X98666666Y-38642857D01*
X98666666Y-38785714D01*
X98619047Y-38880952D01*
X98571428Y-38928571D01*
X98476190Y-38976190D01*
X98095238Y-38976190D01*
X99095238Y-38928571D02*
X99428571Y-38928571D01*
X99571428Y-39452380D02*
X99095238Y-39452380D01*
X99095238Y-38452380D01*
X99571428Y-38452380D01*
X100333333Y-38928571D02*
X100000000Y-38928571D01*
X100000000Y-39452380D02*
X100000000Y-38452380D01*
X100476190Y-38452380D01*
X101000000Y-38452380D02*
X101000000Y-38690476D01*
X100761904Y-38595238D02*
X101000000Y-38690476D01*
X101238095Y-38595238D01*
X100857142Y-38880952D02*
X101000000Y-38690476D01*
X101142857Y-38880952D01*
X101761904Y-38452380D02*
X101761904Y-38690476D01*
X101523809Y-38595238D02*
X101761904Y-38690476D01*
X102000000Y-38595238D01*
X101619047Y-38880952D02*
X101761904Y-38690476D01*
X101904761Y-38880952D01*
X88666666Y-64452380D02*
X88333333Y-63976190D01*
X88095238Y-64452380D02*
X88095238Y-63452380D01*
X88476190Y-63452380D01*
X88571428Y-63500000D01*
X88619047Y-63547619D01*
X88666666Y-63642857D01*
X88666666Y-63785714D01*
X88619047Y-63880952D01*
X88571428Y-63928571D01*
X88476190Y-63976190D01*
X88095238Y-63976190D01*
X89095238Y-63928571D02*
X89428571Y-63928571D01*
X89571428Y-64452380D02*
X89095238Y-64452380D01*
X89095238Y-63452380D01*
X89571428Y-63452380D01*
X90333333Y-63928571D02*
X90000000Y-63928571D01*
X90000000Y-64452380D02*
X90000000Y-63452380D01*
X90476190Y-63452380D01*
X91000000Y-63452380D02*
X91000000Y-63690476D01*
X90761904Y-63595238D02*
X91000000Y-63690476D01*
X91238095Y-63595238D01*
X90857142Y-63880952D02*
X91000000Y-63690476D01*
X91142857Y-63880952D01*
X91761904Y-63452380D02*
X91761904Y-63690476D01*
X91523809Y-63595238D02*
X91761904Y-63690476D01*
X92000000Y-63595238D01*
X91619047Y-63880952D02*
X91761904Y-63690476D01*
X91904761Y-63880952D01*
X98666666Y-64452380D02*
X98333333Y-63976190D01*
X98095238Y-64452380D02*
X98095238Y-63452380D01*
X98476190Y-63452380D01*
X98571428Y-63500000D01*
X98619047Y-63547619D01*
X98666666Y-63642857D01*
X98666666Y-63785714D01*
X98619047Y-63880952D01*
X98571428Y-63928571D01*
X98476190Y-63976190D01*
X98095238Y-63976190D01*
X99095238Y-63928571D02*
X99428571Y-63928571D01*
X99571428Y-64452380D02*
X99095238Y-64452380D01*
X99095238Y-63452380D01*
X99571428Y-63452380D01*
X100333333Y-63928571D02*
X100000000Y-63928571D01*
X100000000Y-64452380D02*
X100000000Y-63452380D01*
X100476190Y-63452380D01*
X101000000Y-63452380D02*
X101000000Y-63690476D01*
X100761904Y-63595238D02*
X101000000Y-63690476D01*
X101238095Y-63595238D01*
X100857142Y-63880952D02*
X101000000Y-63690476D01*
X101142857Y-63880952D01*
X101761904Y-63452380D02*
X101761904Y-63690476D01*
X101523809Y-63595238D02*
X101761904Y-63690476D01*
X102000000Y-63595238D01*
X101619047Y-63880952D02*
X101761904Y-63690476D01*
X101904761Y-63880952D01*
G04 #@! TD*
M02*
