G04 #@! TF.GenerationSoftware,KiCad,Pcbnew,(5.0.2)-1*
G04 #@! TF.CreationDate,2019-01-31T22:52:24+01:00*
G04 #@! TF.ProjectId,v3,76332e6b-6963-4616-945f-706362585858,rev?*
G04 #@! TF.SameCoordinates,Original*
G04 #@! TF.FileFunction,Soldermask,Top*
G04 #@! TF.FilePolarity,Negative*
%FSLAX46Y46*%
G04 Gerber Fmt 4.6, Leading zero omitted, Abs format (unit mm)*
G04 Created by KiCad (PCBNEW (5.0.2)-1) date 31/01/2019 22:52:24*
%MOMM*%
%LPD*%
G01*
G04 APERTURE LIST*
%ADD10C,0.100000*%
G04 APERTURE END LIST*
D10*
G36*
X68465000Y-117901000D02*
X66663000Y-117901000D01*
X66663000Y-116099000D01*
X68465000Y-116099000D01*
X68465000Y-117901000D01*
X68465000Y-117901000D01*
G37*
G36*
X124570442Y-116105518D02*
X124636627Y-116112037D01*
X124749853Y-116146384D01*
X124806467Y-116163557D01*
X124945087Y-116237652D01*
X124962991Y-116247222D01*
X124998729Y-116276552D01*
X125100186Y-116359814D01*
X125183448Y-116461271D01*
X125212778Y-116497009D01*
X125212779Y-116497011D01*
X125296443Y-116653533D01*
X125296443Y-116653534D01*
X125347963Y-116823373D01*
X125365359Y-117000000D01*
X125347963Y-117176627D01*
X125313616Y-117289853D01*
X125296443Y-117346467D01*
X125222348Y-117485087D01*
X125212778Y-117502991D01*
X125183448Y-117538729D01*
X125100186Y-117640186D01*
X124998729Y-117723448D01*
X124962991Y-117752778D01*
X124962989Y-117752779D01*
X124806467Y-117836443D01*
X124749853Y-117853616D01*
X124636627Y-117887963D01*
X124570442Y-117894482D01*
X124504260Y-117901000D01*
X124415740Y-117901000D01*
X124349558Y-117894482D01*
X124283373Y-117887963D01*
X124170147Y-117853616D01*
X124113533Y-117836443D01*
X123957011Y-117752779D01*
X123957009Y-117752778D01*
X123921271Y-117723448D01*
X123819814Y-117640186D01*
X123736552Y-117538729D01*
X123707222Y-117502991D01*
X123697652Y-117485087D01*
X123623557Y-117346467D01*
X123606384Y-117289853D01*
X123572037Y-117176627D01*
X123554641Y-117000000D01*
X123572037Y-116823373D01*
X123623557Y-116653534D01*
X123623557Y-116653533D01*
X123707221Y-116497011D01*
X123707222Y-116497009D01*
X123736552Y-116461271D01*
X123819814Y-116359814D01*
X123921271Y-116276552D01*
X123957009Y-116247222D01*
X123974913Y-116237652D01*
X124113533Y-116163557D01*
X124170147Y-116146384D01*
X124283373Y-116112037D01*
X124349558Y-116105518D01*
X124415740Y-116099000D01*
X124504260Y-116099000D01*
X124570442Y-116105518D01*
X124570442Y-116105518D01*
G37*
G36*
X122030442Y-116105518D02*
X122096627Y-116112037D01*
X122209853Y-116146384D01*
X122266467Y-116163557D01*
X122405087Y-116237652D01*
X122422991Y-116247222D01*
X122458729Y-116276552D01*
X122560186Y-116359814D01*
X122643448Y-116461271D01*
X122672778Y-116497009D01*
X122672779Y-116497011D01*
X122756443Y-116653533D01*
X122756443Y-116653534D01*
X122807963Y-116823373D01*
X122825359Y-117000000D01*
X122807963Y-117176627D01*
X122773616Y-117289853D01*
X122756443Y-117346467D01*
X122682348Y-117485087D01*
X122672778Y-117502991D01*
X122643448Y-117538729D01*
X122560186Y-117640186D01*
X122458729Y-117723448D01*
X122422991Y-117752778D01*
X122422989Y-117752779D01*
X122266467Y-117836443D01*
X122209853Y-117853616D01*
X122096627Y-117887963D01*
X122030442Y-117894482D01*
X121964260Y-117901000D01*
X121875740Y-117901000D01*
X121809558Y-117894482D01*
X121743373Y-117887963D01*
X121630147Y-117853616D01*
X121573533Y-117836443D01*
X121417011Y-117752779D01*
X121417009Y-117752778D01*
X121381271Y-117723448D01*
X121279814Y-117640186D01*
X121196552Y-117538729D01*
X121167222Y-117502991D01*
X121157652Y-117485087D01*
X121083557Y-117346467D01*
X121066384Y-117289853D01*
X121032037Y-117176627D01*
X121014641Y-117000000D01*
X121032037Y-116823373D01*
X121083557Y-116653534D01*
X121083557Y-116653533D01*
X121167221Y-116497011D01*
X121167222Y-116497009D01*
X121196552Y-116461271D01*
X121279814Y-116359814D01*
X121381271Y-116276552D01*
X121417009Y-116247222D01*
X121434913Y-116237652D01*
X121573533Y-116163557D01*
X121630147Y-116146384D01*
X121743373Y-116112037D01*
X121809558Y-116105518D01*
X121875740Y-116099000D01*
X121964260Y-116099000D01*
X122030442Y-116105518D01*
X122030442Y-116105518D01*
G37*
G36*
X127901000Y-117901000D02*
X126099000Y-117901000D01*
X126099000Y-116099000D01*
X127901000Y-116099000D01*
X127901000Y-117901000D01*
X127901000Y-117901000D01*
G37*
G36*
X91901000Y-117901000D02*
X90099000Y-117901000D01*
X90099000Y-116099000D01*
X91901000Y-116099000D01*
X91901000Y-117901000D01*
X91901000Y-117901000D01*
G37*
G36*
X86030442Y-116105518D02*
X86096627Y-116112037D01*
X86209853Y-116146384D01*
X86266467Y-116163557D01*
X86405087Y-116237652D01*
X86422991Y-116247222D01*
X86458729Y-116276552D01*
X86560186Y-116359814D01*
X86643448Y-116461271D01*
X86672778Y-116497009D01*
X86672779Y-116497011D01*
X86756443Y-116653533D01*
X86756443Y-116653534D01*
X86807963Y-116823373D01*
X86825359Y-117000000D01*
X86807963Y-117176627D01*
X86773616Y-117289853D01*
X86756443Y-117346467D01*
X86682348Y-117485087D01*
X86672778Y-117502991D01*
X86643448Y-117538729D01*
X86560186Y-117640186D01*
X86458729Y-117723448D01*
X86422991Y-117752778D01*
X86422989Y-117752779D01*
X86266467Y-117836443D01*
X86209853Y-117853616D01*
X86096627Y-117887963D01*
X86030442Y-117894482D01*
X85964260Y-117901000D01*
X85875740Y-117901000D01*
X85809558Y-117894482D01*
X85743373Y-117887963D01*
X85630147Y-117853616D01*
X85573533Y-117836443D01*
X85417011Y-117752779D01*
X85417009Y-117752778D01*
X85381271Y-117723448D01*
X85279814Y-117640186D01*
X85196552Y-117538729D01*
X85167222Y-117502991D01*
X85157652Y-117485087D01*
X85083557Y-117346467D01*
X85066384Y-117289853D01*
X85032037Y-117176627D01*
X85014641Y-117000000D01*
X85032037Y-116823373D01*
X85083557Y-116653534D01*
X85083557Y-116653533D01*
X85167221Y-116497011D01*
X85167222Y-116497009D01*
X85196552Y-116461271D01*
X85279814Y-116359814D01*
X85381271Y-116276552D01*
X85417009Y-116247222D01*
X85434913Y-116237652D01*
X85573533Y-116163557D01*
X85630147Y-116146384D01*
X85743373Y-116112037D01*
X85809558Y-116105518D01*
X85875740Y-116099000D01*
X85964260Y-116099000D01*
X86030442Y-116105518D01*
X86030442Y-116105518D01*
G37*
G36*
X88570442Y-116105518D02*
X88636627Y-116112037D01*
X88749853Y-116146384D01*
X88806467Y-116163557D01*
X88945087Y-116237652D01*
X88962991Y-116247222D01*
X88998729Y-116276552D01*
X89100186Y-116359814D01*
X89183448Y-116461271D01*
X89212778Y-116497009D01*
X89212779Y-116497011D01*
X89296443Y-116653533D01*
X89296443Y-116653534D01*
X89347963Y-116823373D01*
X89365359Y-117000000D01*
X89347963Y-117176627D01*
X89313616Y-117289853D01*
X89296443Y-117346467D01*
X89222348Y-117485087D01*
X89212778Y-117502991D01*
X89183448Y-117538729D01*
X89100186Y-117640186D01*
X88998729Y-117723448D01*
X88962991Y-117752778D01*
X88962989Y-117752779D01*
X88806467Y-117836443D01*
X88749853Y-117853616D01*
X88636627Y-117887963D01*
X88570442Y-117894482D01*
X88504260Y-117901000D01*
X88415740Y-117901000D01*
X88349558Y-117894482D01*
X88283373Y-117887963D01*
X88170147Y-117853616D01*
X88113533Y-117836443D01*
X87957011Y-117752779D01*
X87957009Y-117752778D01*
X87921271Y-117723448D01*
X87819814Y-117640186D01*
X87736552Y-117538729D01*
X87707222Y-117502991D01*
X87697652Y-117485087D01*
X87623557Y-117346467D01*
X87606384Y-117289853D01*
X87572037Y-117176627D01*
X87554641Y-117000000D01*
X87572037Y-116823373D01*
X87623557Y-116653534D01*
X87623557Y-116653533D01*
X87707221Y-116497011D01*
X87707222Y-116497009D01*
X87736552Y-116461271D01*
X87819814Y-116359814D01*
X87921271Y-116276552D01*
X87957009Y-116247222D01*
X87974913Y-116237652D01*
X88113533Y-116163557D01*
X88170147Y-116146384D01*
X88283373Y-116112037D01*
X88349558Y-116105518D01*
X88415740Y-116099000D01*
X88504260Y-116099000D01*
X88570442Y-116105518D01*
X88570442Y-116105518D01*
G37*
G36*
X65134442Y-116105518D02*
X65200627Y-116112037D01*
X65313853Y-116146384D01*
X65370467Y-116163557D01*
X65509087Y-116237652D01*
X65526991Y-116247222D01*
X65562729Y-116276552D01*
X65664186Y-116359814D01*
X65747448Y-116461271D01*
X65776778Y-116497009D01*
X65776779Y-116497011D01*
X65860443Y-116653533D01*
X65860443Y-116653534D01*
X65911963Y-116823373D01*
X65929359Y-117000000D01*
X65911963Y-117176627D01*
X65877616Y-117289853D01*
X65860443Y-117346467D01*
X65786348Y-117485087D01*
X65776778Y-117502991D01*
X65747448Y-117538729D01*
X65664186Y-117640186D01*
X65562729Y-117723448D01*
X65526991Y-117752778D01*
X65526989Y-117752779D01*
X65370467Y-117836443D01*
X65313853Y-117853616D01*
X65200627Y-117887963D01*
X65134442Y-117894482D01*
X65068260Y-117901000D01*
X64979740Y-117901000D01*
X64913558Y-117894482D01*
X64847373Y-117887963D01*
X64734147Y-117853616D01*
X64677533Y-117836443D01*
X64521011Y-117752779D01*
X64521009Y-117752778D01*
X64485271Y-117723448D01*
X64383814Y-117640186D01*
X64300552Y-117538729D01*
X64271222Y-117502991D01*
X64261652Y-117485087D01*
X64187557Y-117346467D01*
X64170384Y-117289853D01*
X64136037Y-117176627D01*
X64118641Y-117000000D01*
X64136037Y-116823373D01*
X64187557Y-116653534D01*
X64187557Y-116653533D01*
X64271221Y-116497011D01*
X64271222Y-116497009D01*
X64300552Y-116461271D01*
X64383814Y-116359814D01*
X64485271Y-116276552D01*
X64521009Y-116247222D01*
X64538913Y-116237652D01*
X64677533Y-116163557D01*
X64734147Y-116146384D01*
X64847373Y-116112037D01*
X64913558Y-116105518D01*
X64979740Y-116099000D01*
X65068260Y-116099000D01*
X65134442Y-116105518D01*
X65134442Y-116105518D01*
G37*
G36*
X62594442Y-116105518D02*
X62660627Y-116112037D01*
X62773853Y-116146384D01*
X62830467Y-116163557D01*
X62969087Y-116237652D01*
X62986991Y-116247222D01*
X63022729Y-116276552D01*
X63124186Y-116359814D01*
X63207448Y-116461271D01*
X63236778Y-116497009D01*
X63236779Y-116497011D01*
X63320443Y-116653533D01*
X63320443Y-116653534D01*
X63371963Y-116823373D01*
X63389359Y-117000000D01*
X63371963Y-117176627D01*
X63337616Y-117289853D01*
X63320443Y-117346467D01*
X63246348Y-117485087D01*
X63236778Y-117502991D01*
X63207448Y-117538729D01*
X63124186Y-117640186D01*
X63022729Y-117723448D01*
X62986991Y-117752778D01*
X62986989Y-117752779D01*
X62830467Y-117836443D01*
X62773853Y-117853616D01*
X62660627Y-117887963D01*
X62594442Y-117894482D01*
X62528260Y-117901000D01*
X62439740Y-117901000D01*
X62373558Y-117894482D01*
X62307373Y-117887963D01*
X62194147Y-117853616D01*
X62137533Y-117836443D01*
X61981011Y-117752779D01*
X61981009Y-117752778D01*
X61945271Y-117723448D01*
X61843814Y-117640186D01*
X61760552Y-117538729D01*
X61731222Y-117502991D01*
X61721652Y-117485087D01*
X61647557Y-117346467D01*
X61630384Y-117289853D01*
X61596037Y-117176627D01*
X61578641Y-117000000D01*
X61596037Y-116823373D01*
X61647557Y-116653534D01*
X61647557Y-116653533D01*
X61731221Y-116497011D01*
X61731222Y-116497009D01*
X61760552Y-116461271D01*
X61843814Y-116359814D01*
X61945271Y-116276552D01*
X61981009Y-116247222D01*
X61998913Y-116237652D01*
X62137533Y-116163557D01*
X62194147Y-116146384D01*
X62307373Y-116112037D01*
X62373558Y-116105518D01*
X62439740Y-116099000D01*
X62528260Y-116099000D01*
X62594442Y-116105518D01*
X62594442Y-116105518D01*
G37*
G36*
X71794821Y-113969313D02*
X71794824Y-113969314D01*
X71794825Y-113969314D01*
X71955239Y-114017975D01*
X71955241Y-114017976D01*
X71955244Y-114017977D01*
X72103078Y-114096995D01*
X72232659Y-114203341D01*
X72339005Y-114332922D01*
X72418023Y-114480756D01*
X72418024Y-114480759D01*
X72418025Y-114480761D01*
X72466686Y-114641175D01*
X72466687Y-114641179D01*
X72483117Y-114808000D01*
X72466687Y-114974821D01*
X72466686Y-114974824D01*
X72466686Y-114974825D01*
X72441993Y-115056228D01*
X72418023Y-115135244D01*
X72339005Y-115283078D01*
X72232659Y-115412659D01*
X72103078Y-115519005D01*
X71955244Y-115598023D01*
X71955241Y-115598024D01*
X71955239Y-115598025D01*
X71794825Y-115646686D01*
X71794824Y-115646686D01*
X71794821Y-115646687D01*
X71669804Y-115659000D01*
X71586196Y-115659000D01*
X71461179Y-115646687D01*
X71461176Y-115646686D01*
X71461175Y-115646686D01*
X71300761Y-115598025D01*
X71300759Y-115598024D01*
X71300756Y-115598023D01*
X71152922Y-115519005D01*
X71023341Y-115412659D01*
X70916995Y-115283078D01*
X70837977Y-115135244D01*
X70814008Y-115056228D01*
X70789314Y-114974825D01*
X70789314Y-114974824D01*
X70789313Y-114974821D01*
X70772883Y-114808000D01*
X70789313Y-114641179D01*
X70789314Y-114641175D01*
X70837975Y-114480761D01*
X70837976Y-114480759D01*
X70837977Y-114480756D01*
X70916995Y-114332922D01*
X71023341Y-114203341D01*
X71152922Y-114096995D01*
X71300756Y-114017977D01*
X71300759Y-114017976D01*
X71300761Y-114017975D01*
X71461175Y-113969314D01*
X71461176Y-113969314D01*
X71461179Y-113969313D01*
X71586196Y-113957000D01*
X71669804Y-113957000D01*
X71794821Y-113969313D01*
X71794821Y-113969313D01*
G37*
G36*
X82036228Y-113989703D02*
X82191100Y-114053853D01*
X82330481Y-114146985D01*
X82449015Y-114265519D01*
X82542147Y-114404900D01*
X82606297Y-114559772D01*
X82639000Y-114724184D01*
X82639000Y-114891816D01*
X82606297Y-115056228D01*
X82542147Y-115211100D01*
X82449015Y-115350481D01*
X82330481Y-115469015D01*
X82191100Y-115562147D01*
X82036228Y-115626297D01*
X81871816Y-115659000D01*
X81704184Y-115659000D01*
X81539772Y-115626297D01*
X81384900Y-115562147D01*
X81245519Y-115469015D01*
X81126985Y-115350481D01*
X81033853Y-115211100D01*
X80969703Y-115056228D01*
X80937000Y-114891816D01*
X80937000Y-114724184D01*
X80969703Y-114559772D01*
X81033853Y-114404900D01*
X81126985Y-114265519D01*
X81245519Y-114146985D01*
X81384900Y-114053853D01*
X81539772Y-113989703D01*
X81704184Y-113957000D01*
X81871816Y-113957000D01*
X82036228Y-113989703D01*
X82036228Y-113989703D01*
G37*
G36*
X106190442Y-112105518D02*
X106256627Y-112112037D01*
X106369853Y-112146384D01*
X106426467Y-112163557D01*
X106565087Y-112237652D01*
X106582991Y-112247222D01*
X106608309Y-112268000D01*
X106720186Y-112359814D01*
X106789789Y-112444627D01*
X106832778Y-112497009D01*
X106832779Y-112497011D01*
X106916443Y-112653533D01*
X106916443Y-112653534D01*
X106967963Y-112823373D01*
X106985359Y-113000000D01*
X106967963Y-113176627D01*
X106946243Y-113248228D01*
X106916443Y-113346467D01*
X106842348Y-113485087D01*
X106832778Y-113502991D01*
X106803448Y-113538729D01*
X106720186Y-113640186D01*
X106618729Y-113723448D01*
X106582991Y-113752778D01*
X106582989Y-113752779D01*
X106426467Y-113836443D01*
X106378478Y-113851000D01*
X106256627Y-113887963D01*
X106190443Y-113894481D01*
X106124260Y-113901000D01*
X106035740Y-113901000D01*
X105969557Y-113894481D01*
X105903373Y-113887963D01*
X105781522Y-113851000D01*
X105733533Y-113836443D01*
X105577011Y-113752779D01*
X105577009Y-113752778D01*
X105541271Y-113723448D01*
X105439814Y-113640186D01*
X105356552Y-113538729D01*
X105327222Y-113502991D01*
X105317652Y-113485087D01*
X105243557Y-113346467D01*
X105213757Y-113248228D01*
X105192037Y-113176627D01*
X105174641Y-113000000D01*
X105192037Y-112823373D01*
X105243557Y-112653534D01*
X105243557Y-112653533D01*
X105327221Y-112497011D01*
X105327222Y-112497009D01*
X105370211Y-112444627D01*
X105439814Y-112359814D01*
X105551691Y-112268000D01*
X105577009Y-112247222D01*
X105594913Y-112237652D01*
X105733533Y-112163557D01*
X105790147Y-112146384D01*
X105903373Y-112112037D01*
X105969558Y-112105518D01*
X106035740Y-112099000D01*
X106124260Y-112099000D01*
X106190442Y-112105518D01*
X106190442Y-112105518D01*
G37*
G36*
X103650442Y-112105518D02*
X103716627Y-112112037D01*
X103829853Y-112146384D01*
X103886467Y-112163557D01*
X104025087Y-112237652D01*
X104042991Y-112247222D01*
X104068309Y-112268000D01*
X104180186Y-112359814D01*
X104249789Y-112444627D01*
X104292778Y-112497009D01*
X104292779Y-112497011D01*
X104376443Y-112653533D01*
X104376443Y-112653534D01*
X104427963Y-112823373D01*
X104445359Y-113000000D01*
X104427963Y-113176627D01*
X104406243Y-113248228D01*
X104376443Y-113346467D01*
X104302348Y-113485087D01*
X104292778Y-113502991D01*
X104263448Y-113538729D01*
X104180186Y-113640186D01*
X104078729Y-113723448D01*
X104042991Y-113752778D01*
X104042989Y-113752779D01*
X103886467Y-113836443D01*
X103838478Y-113851000D01*
X103716627Y-113887963D01*
X103650443Y-113894481D01*
X103584260Y-113901000D01*
X103495740Y-113901000D01*
X103429557Y-113894481D01*
X103363373Y-113887963D01*
X103241522Y-113851000D01*
X103193533Y-113836443D01*
X103037011Y-113752779D01*
X103037009Y-113752778D01*
X103001271Y-113723448D01*
X102899814Y-113640186D01*
X102816552Y-113538729D01*
X102787222Y-113502991D01*
X102777652Y-113485087D01*
X102703557Y-113346467D01*
X102673757Y-113248228D01*
X102652037Y-113176627D01*
X102634641Y-113000000D01*
X102652037Y-112823373D01*
X102703557Y-112653534D01*
X102703557Y-112653533D01*
X102787221Y-112497011D01*
X102787222Y-112497009D01*
X102830211Y-112444627D01*
X102899814Y-112359814D01*
X103011691Y-112268000D01*
X103037009Y-112247222D01*
X103054913Y-112237652D01*
X103193533Y-112163557D01*
X103250147Y-112146384D01*
X103363373Y-112112037D01*
X103429558Y-112105518D01*
X103495740Y-112099000D01*
X103584260Y-112099000D01*
X103650442Y-112105518D01*
X103650442Y-112105518D01*
G37*
G36*
X101110442Y-112105518D02*
X101176627Y-112112037D01*
X101289853Y-112146384D01*
X101346467Y-112163557D01*
X101485087Y-112237652D01*
X101502991Y-112247222D01*
X101528309Y-112268000D01*
X101640186Y-112359814D01*
X101709789Y-112444627D01*
X101752778Y-112497009D01*
X101752779Y-112497011D01*
X101836443Y-112653533D01*
X101836443Y-112653534D01*
X101887963Y-112823373D01*
X101905359Y-113000000D01*
X101887963Y-113176627D01*
X101866243Y-113248228D01*
X101836443Y-113346467D01*
X101762348Y-113485087D01*
X101752778Y-113502991D01*
X101723448Y-113538729D01*
X101640186Y-113640186D01*
X101538729Y-113723448D01*
X101502991Y-113752778D01*
X101502989Y-113752779D01*
X101346467Y-113836443D01*
X101298478Y-113851000D01*
X101176627Y-113887963D01*
X101110443Y-113894481D01*
X101044260Y-113901000D01*
X100955740Y-113901000D01*
X100889557Y-113894481D01*
X100823373Y-113887963D01*
X100701522Y-113851000D01*
X100653533Y-113836443D01*
X100497011Y-113752779D01*
X100497009Y-113752778D01*
X100461271Y-113723448D01*
X100359814Y-113640186D01*
X100276552Y-113538729D01*
X100247222Y-113502991D01*
X100237652Y-113485087D01*
X100163557Y-113346467D01*
X100133757Y-113248228D01*
X100112037Y-113176627D01*
X100094641Y-113000000D01*
X100112037Y-112823373D01*
X100163557Y-112653534D01*
X100163557Y-112653533D01*
X100247221Y-112497011D01*
X100247222Y-112497009D01*
X100290211Y-112444627D01*
X100359814Y-112359814D01*
X100471691Y-112268000D01*
X100497009Y-112247222D01*
X100514913Y-112237652D01*
X100653533Y-112163557D01*
X100710147Y-112146384D01*
X100823373Y-112112037D01*
X100889558Y-112105518D01*
X100955740Y-112099000D01*
X101044260Y-112099000D01*
X101110442Y-112105518D01*
X101110442Y-112105518D01*
G37*
G36*
X98570442Y-112105518D02*
X98636627Y-112112037D01*
X98749853Y-112146384D01*
X98806467Y-112163557D01*
X98945087Y-112237652D01*
X98962991Y-112247222D01*
X98988309Y-112268000D01*
X99100186Y-112359814D01*
X99169789Y-112444627D01*
X99212778Y-112497009D01*
X99212779Y-112497011D01*
X99296443Y-112653533D01*
X99296443Y-112653534D01*
X99347963Y-112823373D01*
X99365359Y-113000000D01*
X99347963Y-113176627D01*
X99326243Y-113248228D01*
X99296443Y-113346467D01*
X99222348Y-113485087D01*
X99212778Y-113502991D01*
X99183448Y-113538729D01*
X99100186Y-113640186D01*
X98998729Y-113723448D01*
X98962991Y-113752778D01*
X98962989Y-113752779D01*
X98806467Y-113836443D01*
X98758478Y-113851000D01*
X98636627Y-113887963D01*
X98570443Y-113894481D01*
X98504260Y-113901000D01*
X98415740Y-113901000D01*
X98349557Y-113894481D01*
X98283373Y-113887963D01*
X98161522Y-113851000D01*
X98113533Y-113836443D01*
X97957011Y-113752779D01*
X97957009Y-113752778D01*
X97921271Y-113723448D01*
X97819814Y-113640186D01*
X97736552Y-113538729D01*
X97707222Y-113502991D01*
X97697652Y-113485087D01*
X97623557Y-113346467D01*
X97593757Y-113248228D01*
X97572037Y-113176627D01*
X97554641Y-113000000D01*
X97572037Y-112823373D01*
X97623557Y-112653534D01*
X97623557Y-112653533D01*
X97707221Y-112497011D01*
X97707222Y-112497009D01*
X97750211Y-112444627D01*
X97819814Y-112359814D01*
X97931691Y-112268000D01*
X97957009Y-112247222D01*
X97974913Y-112237652D01*
X98113533Y-112163557D01*
X98170147Y-112146384D01*
X98283373Y-112112037D01*
X98349558Y-112105518D01*
X98415740Y-112099000D01*
X98504260Y-112099000D01*
X98570442Y-112105518D01*
X98570442Y-112105518D01*
G37*
G36*
X96030442Y-112105518D02*
X96096627Y-112112037D01*
X96209853Y-112146384D01*
X96266467Y-112163557D01*
X96405087Y-112237652D01*
X96422991Y-112247222D01*
X96448309Y-112268000D01*
X96560186Y-112359814D01*
X96629789Y-112444627D01*
X96672778Y-112497009D01*
X96672779Y-112497011D01*
X96756443Y-112653533D01*
X96756443Y-112653534D01*
X96807963Y-112823373D01*
X96825359Y-113000000D01*
X96807963Y-113176627D01*
X96786243Y-113248228D01*
X96756443Y-113346467D01*
X96682348Y-113485087D01*
X96672778Y-113502991D01*
X96643448Y-113538729D01*
X96560186Y-113640186D01*
X96458729Y-113723448D01*
X96422991Y-113752778D01*
X96422989Y-113752779D01*
X96266467Y-113836443D01*
X96218478Y-113851000D01*
X96096627Y-113887963D01*
X96030443Y-113894481D01*
X95964260Y-113901000D01*
X95875740Y-113901000D01*
X95809557Y-113894481D01*
X95743373Y-113887963D01*
X95621522Y-113851000D01*
X95573533Y-113836443D01*
X95417011Y-113752779D01*
X95417009Y-113752778D01*
X95381271Y-113723448D01*
X95279814Y-113640186D01*
X95196552Y-113538729D01*
X95167222Y-113502991D01*
X95157652Y-113485087D01*
X95083557Y-113346467D01*
X95053757Y-113248228D01*
X95032037Y-113176627D01*
X95014641Y-113000000D01*
X95032037Y-112823373D01*
X95083557Y-112653534D01*
X95083557Y-112653533D01*
X95167221Y-112497011D01*
X95167222Y-112497009D01*
X95210211Y-112444627D01*
X95279814Y-112359814D01*
X95391691Y-112268000D01*
X95417009Y-112247222D01*
X95434913Y-112237652D01*
X95573533Y-112163557D01*
X95630147Y-112146384D01*
X95743373Y-112112037D01*
X95809558Y-112105518D01*
X95875740Y-112099000D01*
X95964260Y-112099000D01*
X96030442Y-112105518D01*
X96030442Y-112105518D01*
G37*
G36*
X93490442Y-112105518D02*
X93556627Y-112112037D01*
X93669853Y-112146384D01*
X93726467Y-112163557D01*
X93865087Y-112237652D01*
X93882991Y-112247222D01*
X93908309Y-112268000D01*
X94020186Y-112359814D01*
X94089789Y-112444627D01*
X94132778Y-112497009D01*
X94132779Y-112497011D01*
X94216443Y-112653533D01*
X94216443Y-112653534D01*
X94267963Y-112823373D01*
X94285359Y-113000000D01*
X94267963Y-113176627D01*
X94246243Y-113248228D01*
X94216443Y-113346467D01*
X94142348Y-113485087D01*
X94132778Y-113502991D01*
X94103448Y-113538729D01*
X94020186Y-113640186D01*
X93918729Y-113723448D01*
X93882991Y-113752778D01*
X93882989Y-113752779D01*
X93726467Y-113836443D01*
X93678478Y-113851000D01*
X93556627Y-113887963D01*
X93490443Y-113894481D01*
X93424260Y-113901000D01*
X93335740Y-113901000D01*
X93269557Y-113894481D01*
X93203373Y-113887963D01*
X93081522Y-113851000D01*
X93033533Y-113836443D01*
X92877011Y-113752779D01*
X92877009Y-113752778D01*
X92841271Y-113723448D01*
X92739814Y-113640186D01*
X92656552Y-113538729D01*
X92627222Y-113502991D01*
X92617652Y-113485087D01*
X92543557Y-113346467D01*
X92513757Y-113248228D01*
X92492037Y-113176627D01*
X92474641Y-113000000D01*
X92492037Y-112823373D01*
X92543557Y-112653534D01*
X92543557Y-112653533D01*
X92627221Y-112497011D01*
X92627222Y-112497009D01*
X92670211Y-112444627D01*
X92739814Y-112359814D01*
X92851691Y-112268000D01*
X92877009Y-112247222D01*
X92894913Y-112237652D01*
X93033533Y-112163557D01*
X93090147Y-112146384D01*
X93203373Y-112112037D01*
X93269558Y-112105518D01*
X93335740Y-112099000D01*
X93424260Y-112099000D01*
X93490442Y-112105518D01*
X93490442Y-112105518D01*
G37*
G36*
X91741000Y-113901000D02*
X89939000Y-113901000D01*
X89939000Y-112099000D01*
X91741000Y-112099000D01*
X91741000Y-113901000D01*
X91741000Y-113901000D01*
G37*
G36*
X125248228Y-112181703D02*
X125403100Y-112245853D01*
X125542481Y-112338985D01*
X125661015Y-112457519D01*
X125754147Y-112596900D01*
X125818297Y-112751772D01*
X125851000Y-112916184D01*
X125851000Y-113083816D01*
X125818297Y-113248228D01*
X125754147Y-113403100D01*
X125661015Y-113542481D01*
X125542481Y-113661015D01*
X125403100Y-113754147D01*
X125248228Y-113818297D01*
X125083816Y-113851000D01*
X124916184Y-113851000D01*
X124751772Y-113818297D01*
X124596900Y-113754147D01*
X124457519Y-113661015D01*
X124338985Y-113542481D01*
X124245853Y-113403100D01*
X124181703Y-113248228D01*
X124149000Y-113083816D01*
X124149000Y-112916184D01*
X124181703Y-112751772D01*
X124245853Y-112596900D01*
X124338985Y-112457519D01*
X124457519Y-112338985D01*
X124596900Y-112245853D01*
X124751772Y-112181703D01*
X124916184Y-112149000D01*
X125083816Y-112149000D01*
X125248228Y-112181703D01*
X125248228Y-112181703D01*
G37*
G36*
X65134443Y-111373519D02*
X65200627Y-111380037D01*
X65313853Y-111414384D01*
X65370467Y-111431557D01*
X65474639Y-111487239D01*
X65526991Y-111515222D01*
X65560206Y-111542481D01*
X65664186Y-111627814D01*
X65747448Y-111729271D01*
X65776778Y-111765009D01*
X65776779Y-111765011D01*
X65860443Y-111921533D01*
X65877616Y-111978147D01*
X65911963Y-112091373D01*
X65929359Y-112268000D01*
X65911963Y-112444627D01*
X65877616Y-112557853D01*
X65860443Y-112614467D01*
X65839561Y-112653533D01*
X65776778Y-112770991D01*
X65747448Y-112806729D01*
X65664186Y-112908186D01*
X65562729Y-112991448D01*
X65526991Y-113020778D01*
X65526989Y-113020779D01*
X65370467Y-113104443D01*
X65313853Y-113121616D01*
X65200627Y-113155963D01*
X65134442Y-113162482D01*
X65068260Y-113169000D01*
X64979740Y-113169000D01*
X64913558Y-113162482D01*
X64847373Y-113155963D01*
X64734147Y-113121616D01*
X64677533Y-113104443D01*
X64521011Y-113020779D01*
X64521009Y-113020778D01*
X64485271Y-112991448D01*
X64383814Y-112908186D01*
X64300552Y-112806729D01*
X64271222Y-112770991D01*
X64208439Y-112653533D01*
X64187557Y-112614467D01*
X64170384Y-112557853D01*
X64136037Y-112444627D01*
X64118641Y-112268000D01*
X64136037Y-112091373D01*
X64170384Y-111978147D01*
X64187557Y-111921533D01*
X64271221Y-111765011D01*
X64271222Y-111765009D01*
X64300552Y-111729271D01*
X64383814Y-111627814D01*
X64487794Y-111542481D01*
X64521009Y-111515222D01*
X64573361Y-111487239D01*
X64677533Y-111431557D01*
X64734147Y-111414384D01*
X64847373Y-111380037D01*
X64913557Y-111373519D01*
X64979740Y-111367000D01*
X65068260Y-111367000D01*
X65134443Y-111373519D01*
X65134443Y-111373519D01*
G37*
G36*
X63385000Y-113169000D02*
X61583000Y-113169000D01*
X61583000Y-111367000D01*
X63385000Y-111367000D01*
X63385000Y-113169000D01*
X63385000Y-113169000D01*
G37*
G36*
X78166821Y-110321313D02*
X78166824Y-110321314D01*
X78166825Y-110321314D01*
X78327239Y-110369975D01*
X78327241Y-110369976D01*
X78327244Y-110369977D01*
X78475078Y-110448995D01*
X78604659Y-110555341D01*
X78711005Y-110684922D01*
X78790023Y-110832756D01*
X78838687Y-110993179D01*
X78855117Y-111160000D01*
X78838687Y-111326821D01*
X78838686Y-111326824D01*
X78838686Y-111326825D01*
X78826896Y-111365693D01*
X78790023Y-111487244D01*
X78711005Y-111635078D01*
X78604659Y-111764659D01*
X78475078Y-111871005D01*
X78327244Y-111950023D01*
X78327241Y-111950024D01*
X78327239Y-111950025D01*
X78166825Y-111998686D01*
X78166824Y-111998686D01*
X78166821Y-111998687D01*
X78041804Y-112011000D01*
X77958196Y-112011000D01*
X77833179Y-111998687D01*
X77833176Y-111998686D01*
X77833175Y-111998686D01*
X77672761Y-111950025D01*
X77672759Y-111950024D01*
X77672756Y-111950023D01*
X77524922Y-111871005D01*
X77395341Y-111764659D01*
X77288995Y-111635078D01*
X77209977Y-111487244D01*
X77173105Y-111365693D01*
X77161314Y-111326825D01*
X77161314Y-111326824D01*
X77161313Y-111326821D01*
X77144883Y-111160000D01*
X77161313Y-110993179D01*
X77209977Y-110832756D01*
X77288995Y-110684922D01*
X77395341Y-110555341D01*
X77524922Y-110448995D01*
X77672756Y-110369977D01*
X77672759Y-110369976D01*
X77672761Y-110369975D01*
X77833175Y-110321314D01*
X77833176Y-110321314D01*
X77833179Y-110321313D01*
X77958196Y-110309000D01*
X78041804Y-110309000D01*
X78166821Y-110321313D01*
X78166821Y-110321313D01*
G37*
G36*
X118951000Y-111951000D02*
X117049000Y-111951000D01*
X117049000Y-110049000D01*
X118951000Y-110049000D01*
X118951000Y-111951000D01*
X118951000Y-111951000D01*
G37*
G36*
X115646425Y-110062760D02*
X115646428Y-110062761D01*
X115646429Y-110062761D01*
X115825693Y-110117140D01*
X115825695Y-110117141D01*
X115990905Y-110205448D01*
X116135712Y-110324288D01*
X116254552Y-110469095D01*
X116333055Y-110615963D01*
X116342860Y-110634307D01*
X116397239Y-110813571D01*
X116397240Y-110813575D01*
X116415601Y-111000000D01*
X116397240Y-111186425D01*
X116397239Y-111186428D01*
X116397239Y-111186429D01*
X116354652Y-111326821D01*
X116342859Y-111365695D01*
X116254552Y-111530905D01*
X116135712Y-111675712D01*
X115990905Y-111794552D01*
X115990903Y-111794553D01*
X115825693Y-111882860D01*
X115646429Y-111937239D01*
X115646428Y-111937239D01*
X115646425Y-111937240D01*
X115506718Y-111951000D01*
X115413282Y-111951000D01*
X115273575Y-111937240D01*
X115273572Y-111937239D01*
X115273571Y-111937239D01*
X115094307Y-111882860D01*
X114929097Y-111794553D01*
X114929095Y-111794552D01*
X114784288Y-111675712D01*
X114665448Y-111530905D01*
X114577141Y-111365695D01*
X114565349Y-111326821D01*
X114522761Y-111186429D01*
X114522761Y-111186428D01*
X114522760Y-111186425D01*
X114504399Y-111000000D01*
X114522760Y-110813575D01*
X114522761Y-110813571D01*
X114577140Y-110634307D01*
X114586945Y-110615963D01*
X114665448Y-110469095D01*
X114784288Y-110324288D01*
X114929095Y-110205448D01*
X115094305Y-110117141D01*
X115094307Y-110117140D01*
X115273571Y-110062761D01*
X115273572Y-110062761D01*
X115273575Y-110062760D01*
X115413282Y-110049000D01*
X115506718Y-110049000D01*
X115646425Y-110062760D01*
X115646425Y-110062760D01*
G37*
G36*
X113106425Y-110062760D02*
X113106428Y-110062761D01*
X113106429Y-110062761D01*
X113285693Y-110117140D01*
X113285695Y-110117141D01*
X113450905Y-110205448D01*
X113595712Y-110324288D01*
X113714552Y-110469095D01*
X113793055Y-110615963D01*
X113802860Y-110634307D01*
X113857239Y-110813571D01*
X113857240Y-110813575D01*
X113875601Y-111000000D01*
X113857240Y-111186425D01*
X113857239Y-111186428D01*
X113857239Y-111186429D01*
X113814652Y-111326821D01*
X113802859Y-111365695D01*
X113714552Y-111530905D01*
X113595712Y-111675712D01*
X113450905Y-111794552D01*
X113450903Y-111794553D01*
X113285693Y-111882860D01*
X113106429Y-111937239D01*
X113106428Y-111937239D01*
X113106425Y-111937240D01*
X112966718Y-111951000D01*
X112873282Y-111951000D01*
X112733575Y-111937240D01*
X112733572Y-111937239D01*
X112733571Y-111937239D01*
X112554307Y-111882860D01*
X112389097Y-111794553D01*
X112389095Y-111794552D01*
X112244288Y-111675712D01*
X112125448Y-111530905D01*
X112037141Y-111365695D01*
X112025349Y-111326821D01*
X111982761Y-111186429D01*
X111982761Y-111186428D01*
X111982760Y-111186425D01*
X111964399Y-111000000D01*
X111982760Y-110813575D01*
X111982761Y-110813571D01*
X112037140Y-110634307D01*
X112046945Y-110615963D01*
X112125448Y-110469095D01*
X112244288Y-110324288D01*
X112389095Y-110205448D01*
X112554305Y-110117141D01*
X112554307Y-110117140D01*
X112733571Y-110062761D01*
X112733572Y-110062761D01*
X112733575Y-110062760D01*
X112873282Y-110049000D01*
X112966718Y-110049000D01*
X113106425Y-110062760D01*
X113106425Y-110062760D01*
G37*
G36*
X81248228Y-110181703D02*
X81403100Y-110245853D01*
X81542481Y-110338985D01*
X81661015Y-110457519D01*
X81754147Y-110596900D01*
X81818297Y-110751772D01*
X81851000Y-110916184D01*
X81851000Y-111083816D01*
X81818297Y-111248228D01*
X81754147Y-111403100D01*
X81661015Y-111542481D01*
X81542481Y-111661015D01*
X81403100Y-111754147D01*
X81248228Y-111818297D01*
X81083816Y-111851000D01*
X80916184Y-111851000D01*
X80751772Y-111818297D01*
X80596900Y-111754147D01*
X80457519Y-111661015D01*
X80338985Y-111542481D01*
X80245853Y-111403100D01*
X80181703Y-111248228D01*
X80149000Y-111083816D01*
X80149000Y-110916184D01*
X80181703Y-110751772D01*
X80245853Y-110596900D01*
X80338985Y-110457519D01*
X80457519Y-110338985D01*
X80596900Y-110245853D01*
X80751772Y-110181703D01*
X80916184Y-110149000D01*
X81083816Y-110149000D01*
X81248228Y-110181703D01*
X81248228Y-110181703D01*
G37*
G36*
X65134443Y-108833519D02*
X65200627Y-108840037D01*
X65313853Y-108874384D01*
X65370467Y-108891557D01*
X65416540Y-108916184D01*
X65526991Y-108975222D01*
X65544262Y-108989396D01*
X65664186Y-109087814D01*
X65747448Y-109189271D01*
X65776778Y-109225009D01*
X65776779Y-109225011D01*
X65860443Y-109381533D01*
X65860443Y-109381534D01*
X65911963Y-109551373D01*
X65929359Y-109728000D01*
X65911963Y-109904627D01*
X65897896Y-109951000D01*
X65860443Y-110074467D01*
X65803123Y-110181703D01*
X65776778Y-110230991D01*
X65764581Y-110245853D01*
X65664186Y-110368186D01*
X65565718Y-110448995D01*
X65526991Y-110480778D01*
X65526989Y-110480779D01*
X65370467Y-110564443D01*
X65313853Y-110581616D01*
X65200627Y-110615963D01*
X65134442Y-110622482D01*
X65068260Y-110629000D01*
X64979740Y-110629000D01*
X64913558Y-110622482D01*
X64847373Y-110615963D01*
X64734147Y-110581616D01*
X64677533Y-110564443D01*
X64521011Y-110480779D01*
X64521009Y-110480778D01*
X64482282Y-110448995D01*
X64383814Y-110368186D01*
X64283419Y-110245853D01*
X64271222Y-110230991D01*
X64244877Y-110181703D01*
X64187557Y-110074467D01*
X64150104Y-109951000D01*
X64136037Y-109904627D01*
X64118641Y-109728000D01*
X64136037Y-109551373D01*
X64187557Y-109381534D01*
X64187557Y-109381533D01*
X64271221Y-109225011D01*
X64271222Y-109225009D01*
X64300552Y-109189271D01*
X64383814Y-109087814D01*
X64503738Y-108989396D01*
X64521009Y-108975222D01*
X64631460Y-108916184D01*
X64677533Y-108891557D01*
X64734147Y-108874384D01*
X64847373Y-108840037D01*
X64913557Y-108833519D01*
X64979740Y-108827000D01*
X65068260Y-108827000D01*
X65134443Y-108833519D01*
X65134443Y-108833519D01*
G37*
G36*
X62594443Y-108833519D02*
X62660627Y-108840037D01*
X62773853Y-108874384D01*
X62830467Y-108891557D01*
X62876540Y-108916184D01*
X62986991Y-108975222D01*
X63004262Y-108989396D01*
X63124186Y-109087814D01*
X63207448Y-109189271D01*
X63236778Y-109225009D01*
X63236779Y-109225011D01*
X63320443Y-109381533D01*
X63320443Y-109381534D01*
X63371963Y-109551373D01*
X63389359Y-109728000D01*
X63371963Y-109904627D01*
X63357896Y-109951000D01*
X63320443Y-110074467D01*
X63263123Y-110181703D01*
X63236778Y-110230991D01*
X63224581Y-110245853D01*
X63124186Y-110368186D01*
X63025718Y-110448995D01*
X62986991Y-110480778D01*
X62986989Y-110480779D01*
X62830467Y-110564443D01*
X62773853Y-110581616D01*
X62660627Y-110615963D01*
X62594442Y-110622482D01*
X62528260Y-110629000D01*
X62439740Y-110629000D01*
X62373558Y-110622482D01*
X62307373Y-110615963D01*
X62194147Y-110581616D01*
X62137533Y-110564443D01*
X61981011Y-110480779D01*
X61981009Y-110480778D01*
X61942282Y-110448995D01*
X61843814Y-110368186D01*
X61743419Y-110245853D01*
X61731222Y-110230991D01*
X61704877Y-110181703D01*
X61647557Y-110074467D01*
X61610104Y-109951000D01*
X61596037Y-109904627D01*
X61578641Y-109728000D01*
X61596037Y-109551373D01*
X61647557Y-109381534D01*
X61647557Y-109381533D01*
X61731221Y-109225011D01*
X61731222Y-109225009D01*
X61760552Y-109189271D01*
X61843814Y-109087814D01*
X61963738Y-108989396D01*
X61981009Y-108975222D01*
X62091460Y-108916184D01*
X62137533Y-108891557D01*
X62194147Y-108874384D01*
X62307373Y-108840037D01*
X62373557Y-108833519D01*
X62439740Y-108827000D01*
X62528260Y-108827000D01*
X62594443Y-108833519D01*
X62594443Y-108833519D01*
G37*
G36*
X85951000Y-109951000D02*
X84049000Y-109951000D01*
X84049000Y-108049000D01*
X85951000Y-108049000D01*
X85951000Y-109951000D01*
X85951000Y-109951000D01*
G37*
G36*
X87817396Y-108085546D02*
X87990466Y-108157234D01*
X88146230Y-108261312D01*
X88278688Y-108393770D01*
X88382766Y-108549534D01*
X88454454Y-108722604D01*
X88491000Y-108906333D01*
X88491000Y-109093667D01*
X88454454Y-109277396D01*
X88382766Y-109450466D01*
X88278688Y-109606230D01*
X88146230Y-109738688D01*
X87990466Y-109842766D01*
X87817396Y-109914454D01*
X87633667Y-109951000D01*
X87446333Y-109951000D01*
X87262604Y-109914454D01*
X87089534Y-109842766D01*
X86933770Y-109738688D01*
X86801312Y-109606230D01*
X86697234Y-109450466D01*
X86625546Y-109277396D01*
X86589000Y-109093667D01*
X86589000Y-108906333D01*
X86625546Y-108722604D01*
X86697234Y-108549534D01*
X86801312Y-108393770D01*
X86933770Y-108261312D01*
X87089534Y-108157234D01*
X87262604Y-108085546D01*
X87446333Y-108049000D01*
X87633667Y-108049000D01*
X87817396Y-108085546D01*
X87817396Y-108085546D01*
G37*
G36*
X105326821Y-108161313D02*
X105326824Y-108161314D01*
X105326825Y-108161314D01*
X105487239Y-108209975D01*
X105487241Y-108209976D01*
X105487244Y-108209977D01*
X105635078Y-108288995D01*
X105764659Y-108395341D01*
X105871005Y-108524922D01*
X105950023Y-108672756D01*
X105950024Y-108672759D01*
X105950025Y-108672761D01*
X105996813Y-108827000D01*
X105998687Y-108833179D01*
X106015117Y-109000000D01*
X105998687Y-109166821D01*
X105998686Y-109166824D01*
X105998686Y-109166825D01*
X105952758Y-109318230D01*
X105950023Y-109327244D01*
X105871005Y-109475078D01*
X105764659Y-109604659D01*
X105635078Y-109711005D01*
X105487244Y-109790023D01*
X105487241Y-109790024D01*
X105487239Y-109790025D01*
X105326825Y-109838686D01*
X105326824Y-109838686D01*
X105326821Y-109838687D01*
X105201804Y-109851000D01*
X105118196Y-109851000D01*
X104993179Y-109838687D01*
X104993176Y-109838686D01*
X104993175Y-109838686D01*
X104832761Y-109790025D01*
X104832759Y-109790024D01*
X104832756Y-109790023D01*
X104684922Y-109711005D01*
X104555341Y-109604659D01*
X104448995Y-109475078D01*
X104369977Y-109327244D01*
X104367243Y-109318230D01*
X104321314Y-109166825D01*
X104321314Y-109166824D01*
X104321313Y-109166821D01*
X104304883Y-109000000D01*
X104321313Y-108833179D01*
X104323187Y-108827000D01*
X104369975Y-108672761D01*
X104369976Y-108672759D01*
X104369977Y-108672756D01*
X104448995Y-108524922D01*
X104555341Y-108395341D01*
X104684922Y-108288995D01*
X104832756Y-108209977D01*
X104832759Y-108209976D01*
X104832761Y-108209975D01*
X104993175Y-108161314D01*
X104993176Y-108161314D01*
X104993179Y-108161313D01*
X105118196Y-108149000D01*
X105201804Y-108149000D01*
X105326821Y-108161313D01*
X105326821Y-108161313D01*
G37*
G36*
X95248228Y-108181703D02*
X95403100Y-108245853D01*
X95542481Y-108338985D01*
X95661015Y-108457519D01*
X95754147Y-108596900D01*
X95818297Y-108751772D01*
X95851000Y-108916184D01*
X95851000Y-109083816D01*
X95818297Y-109248228D01*
X95754147Y-109403100D01*
X95661015Y-109542481D01*
X95542481Y-109661015D01*
X95403100Y-109754147D01*
X95248228Y-109818297D01*
X95083816Y-109851000D01*
X94916184Y-109851000D01*
X94751772Y-109818297D01*
X94596900Y-109754147D01*
X94457519Y-109661015D01*
X94338985Y-109542481D01*
X94245853Y-109403100D01*
X94181703Y-109248228D01*
X94149000Y-109083816D01*
X94149000Y-108916184D01*
X94181703Y-108751772D01*
X94245853Y-108596900D01*
X94338985Y-108457519D01*
X94457519Y-108338985D01*
X94596900Y-108245853D01*
X94751772Y-108181703D01*
X94916184Y-108149000D01*
X95083816Y-108149000D01*
X95248228Y-108181703D01*
X95248228Y-108181703D01*
G37*
G36*
X74953396Y-107797546D02*
X75126466Y-107869234D01*
X75282230Y-107973312D01*
X75414688Y-108105770D01*
X75518766Y-108261534D01*
X75590454Y-108434604D01*
X75627000Y-108618333D01*
X75627000Y-108805667D01*
X75590454Y-108989396D01*
X75518766Y-109162466D01*
X75414688Y-109318230D01*
X75282230Y-109450688D01*
X75126466Y-109554766D01*
X74953396Y-109626454D01*
X74769667Y-109663000D01*
X74582333Y-109663000D01*
X74398604Y-109626454D01*
X74225534Y-109554766D01*
X74069770Y-109450688D01*
X73937312Y-109318230D01*
X73833234Y-109162466D01*
X73761546Y-108989396D01*
X73725000Y-108805667D01*
X73725000Y-108618333D01*
X73761546Y-108434604D01*
X73833234Y-108261534D01*
X73937312Y-108105770D01*
X74069770Y-107973312D01*
X74225534Y-107869234D01*
X74398604Y-107797546D01*
X74582333Y-107761000D01*
X74769667Y-107761000D01*
X74953396Y-107797546D01*
X74953396Y-107797546D01*
G37*
G36*
X73087000Y-109663000D02*
X71185000Y-109663000D01*
X71185000Y-107761000D01*
X73087000Y-107761000D01*
X73087000Y-109663000D01*
X73087000Y-109663000D01*
G37*
G36*
X51030442Y-106105518D02*
X51096627Y-106112037D01*
X51209853Y-106146384D01*
X51266467Y-106163557D01*
X51405087Y-106237652D01*
X51422991Y-106247222D01*
X51458729Y-106276552D01*
X51560186Y-106359814D01*
X51643448Y-106461271D01*
X51672778Y-106497009D01*
X51672779Y-106497011D01*
X51756443Y-106653533D01*
X51756443Y-106653534D01*
X51807963Y-106823373D01*
X51825359Y-107000000D01*
X51807963Y-107176627D01*
X51773616Y-107289853D01*
X51756443Y-107346467D01*
X51682348Y-107485087D01*
X51672778Y-107502991D01*
X51643448Y-107538729D01*
X51560186Y-107640186D01*
X51458729Y-107723448D01*
X51422991Y-107752778D01*
X51422989Y-107752779D01*
X51266467Y-107836443D01*
X51209853Y-107853616D01*
X51096627Y-107887963D01*
X51030442Y-107894482D01*
X50964260Y-107901000D01*
X50875740Y-107901000D01*
X50809558Y-107894482D01*
X50743373Y-107887963D01*
X50630147Y-107853616D01*
X50573533Y-107836443D01*
X50417011Y-107752779D01*
X50417009Y-107752778D01*
X50381271Y-107723448D01*
X50279814Y-107640186D01*
X50196552Y-107538729D01*
X50167222Y-107502991D01*
X50157652Y-107485087D01*
X50083557Y-107346467D01*
X50066384Y-107289853D01*
X50032037Y-107176627D01*
X50014641Y-107000000D01*
X50032037Y-106823373D01*
X50083557Y-106653534D01*
X50083557Y-106653533D01*
X50167221Y-106497011D01*
X50167222Y-106497009D01*
X50196552Y-106461271D01*
X50279814Y-106359814D01*
X50381271Y-106276552D01*
X50417009Y-106247222D01*
X50434913Y-106237652D01*
X50573533Y-106163557D01*
X50630147Y-106146384D01*
X50743373Y-106112037D01*
X50809558Y-106105518D01*
X50875740Y-106099000D01*
X50964260Y-106099000D01*
X51030442Y-106105518D01*
X51030442Y-106105518D01*
G37*
G36*
X139901000Y-107901000D02*
X138099000Y-107901000D01*
X138099000Y-106099000D01*
X139901000Y-106099000D01*
X139901000Y-107901000D01*
X139901000Y-107901000D01*
G37*
G36*
X56901000Y-107901000D02*
X55099000Y-107901000D01*
X55099000Y-106099000D01*
X56901000Y-106099000D01*
X56901000Y-107901000D01*
X56901000Y-107901000D01*
G37*
G36*
X136570442Y-106105518D02*
X136636627Y-106112037D01*
X136749853Y-106146384D01*
X136806467Y-106163557D01*
X136945087Y-106237652D01*
X136962991Y-106247222D01*
X136998729Y-106276552D01*
X137100186Y-106359814D01*
X137183448Y-106461271D01*
X137212778Y-106497009D01*
X137212779Y-106497011D01*
X137296443Y-106653533D01*
X137296443Y-106653534D01*
X137347963Y-106823373D01*
X137365359Y-107000000D01*
X137347963Y-107176627D01*
X137313616Y-107289853D01*
X137296443Y-107346467D01*
X137222348Y-107485087D01*
X137212778Y-107502991D01*
X137183448Y-107538729D01*
X137100186Y-107640186D01*
X136998729Y-107723448D01*
X136962991Y-107752778D01*
X136962989Y-107752779D01*
X136806467Y-107836443D01*
X136749853Y-107853616D01*
X136636627Y-107887963D01*
X136570442Y-107894482D01*
X136504260Y-107901000D01*
X136415740Y-107901000D01*
X136349558Y-107894482D01*
X136283373Y-107887963D01*
X136170147Y-107853616D01*
X136113533Y-107836443D01*
X135957011Y-107752779D01*
X135957009Y-107752778D01*
X135921271Y-107723448D01*
X135819814Y-107640186D01*
X135736552Y-107538729D01*
X135707222Y-107502991D01*
X135697652Y-107485087D01*
X135623557Y-107346467D01*
X135606384Y-107289853D01*
X135572037Y-107176627D01*
X135554641Y-107000000D01*
X135572037Y-106823373D01*
X135623557Y-106653534D01*
X135623557Y-106653533D01*
X135707221Y-106497011D01*
X135707222Y-106497009D01*
X135736552Y-106461271D01*
X135819814Y-106359814D01*
X135921271Y-106276552D01*
X135957009Y-106247222D01*
X135974913Y-106237652D01*
X136113533Y-106163557D01*
X136170147Y-106146384D01*
X136283373Y-106112037D01*
X136349558Y-106105518D01*
X136415740Y-106099000D01*
X136504260Y-106099000D01*
X136570442Y-106105518D01*
X136570442Y-106105518D01*
G37*
G36*
X134030442Y-106105518D02*
X134096627Y-106112037D01*
X134209853Y-106146384D01*
X134266467Y-106163557D01*
X134405087Y-106237652D01*
X134422991Y-106247222D01*
X134458729Y-106276552D01*
X134560186Y-106359814D01*
X134643448Y-106461271D01*
X134672778Y-106497009D01*
X134672779Y-106497011D01*
X134756443Y-106653533D01*
X134756443Y-106653534D01*
X134807963Y-106823373D01*
X134825359Y-107000000D01*
X134807963Y-107176627D01*
X134773616Y-107289853D01*
X134756443Y-107346467D01*
X134682348Y-107485087D01*
X134672778Y-107502991D01*
X134643448Y-107538729D01*
X134560186Y-107640186D01*
X134458729Y-107723448D01*
X134422991Y-107752778D01*
X134422989Y-107752779D01*
X134266467Y-107836443D01*
X134209853Y-107853616D01*
X134096627Y-107887963D01*
X134030442Y-107894482D01*
X133964260Y-107901000D01*
X133875740Y-107901000D01*
X133809558Y-107894482D01*
X133743373Y-107887963D01*
X133630147Y-107853616D01*
X133573533Y-107836443D01*
X133417011Y-107752779D01*
X133417009Y-107752778D01*
X133381271Y-107723448D01*
X133279814Y-107640186D01*
X133196552Y-107538729D01*
X133167222Y-107502991D01*
X133157652Y-107485087D01*
X133083557Y-107346467D01*
X133066384Y-107289853D01*
X133032037Y-107176627D01*
X133014641Y-107000000D01*
X133032037Y-106823373D01*
X133083557Y-106653534D01*
X133083557Y-106653533D01*
X133167221Y-106497011D01*
X133167222Y-106497009D01*
X133196552Y-106461271D01*
X133279814Y-106359814D01*
X133381271Y-106276552D01*
X133417009Y-106247222D01*
X133434913Y-106237652D01*
X133573533Y-106163557D01*
X133630147Y-106146384D01*
X133743373Y-106112037D01*
X133809558Y-106105518D01*
X133875740Y-106099000D01*
X133964260Y-106099000D01*
X134030442Y-106105518D01*
X134030442Y-106105518D01*
G37*
G36*
X53570442Y-106105518D02*
X53636627Y-106112037D01*
X53749853Y-106146384D01*
X53806467Y-106163557D01*
X53945087Y-106237652D01*
X53962991Y-106247222D01*
X53998729Y-106276552D01*
X54100186Y-106359814D01*
X54183448Y-106461271D01*
X54212778Y-106497009D01*
X54212779Y-106497011D01*
X54296443Y-106653533D01*
X54296443Y-106653534D01*
X54347963Y-106823373D01*
X54365359Y-107000000D01*
X54347963Y-107176627D01*
X54313616Y-107289853D01*
X54296443Y-107346467D01*
X54222348Y-107485087D01*
X54212778Y-107502991D01*
X54183448Y-107538729D01*
X54100186Y-107640186D01*
X53998729Y-107723448D01*
X53962991Y-107752778D01*
X53962989Y-107752779D01*
X53806467Y-107836443D01*
X53749853Y-107853616D01*
X53636627Y-107887963D01*
X53570442Y-107894482D01*
X53504260Y-107901000D01*
X53415740Y-107901000D01*
X53349558Y-107894482D01*
X53283373Y-107887963D01*
X53170147Y-107853616D01*
X53113533Y-107836443D01*
X52957011Y-107752779D01*
X52957009Y-107752778D01*
X52921271Y-107723448D01*
X52819814Y-107640186D01*
X52736552Y-107538729D01*
X52707222Y-107502991D01*
X52697652Y-107485087D01*
X52623557Y-107346467D01*
X52606384Y-107289853D01*
X52572037Y-107176627D01*
X52554641Y-107000000D01*
X52572037Y-106823373D01*
X52623557Y-106653534D01*
X52623557Y-106653533D01*
X52707221Y-106497011D01*
X52707222Y-106497009D01*
X52736552Y-106461271D01*
X52819814Y-106359814D01*
X52921271Y-106276552D01*
X52957009Y-106247222D01*
X52974913Y-106237652D01*
X53113533Y-106163557D01*
X53170147Y-106146384D01*
X53283373Y-106112037D01*
X53349558Y-106105518D01*
X53415740Y-106099000D01*
X53504260Y-106099000D01*
X53570442Y-106105518D01*
X53570442Y-106105518D01*
G37*
G36*
X112748228Y-103181703D02*
X112903100Y-103245853D01*
X113042481Y-103338985D01*
X113161015Y-103457519D01*
X113254147Y-103596900D01*
X113318297Y-103751772D01*
X113351000Y-103916184D01*
X113351000Y-104083816D01*
X113318297Y-104248228D01*
X113254147Y-104403100D01*
X113161015Y-104542481D01*
X113042481Y-104661015D01*
X112903100Y-104754147D01*
X112748228Y-104818297D01*
X112583816Y-104851000D01*
X112416184Y-104851000D01*
X112251772Y-104818297D01*
X112096900Y-104754147D01*
X111957519Y-104661015D01*
X111838985Y-104542481D01*
X111745853Y-104403100D01*
X111681703Y-104248228D01*
X111649000Y-104083816D01*
X111649000Y-103916184D01*
X111681703Y-103751772D01*
X111745853Y-103596900D01*
X111838985Y-103457519D01*
X111957519Y-103338985D01*
X112096900Y-103245853D01*
X112251772Y-103181703D01*
X112416184Y-103149000D01*
X112583816Y-103149000D01*
X112748228Y-103181703D01*
X112748228Y-103181703D01*
G37*
G36*
X118748228Y-103181703D02*
X118903100Y-103245853D01*
X119042481Y-103338985D01*
X119161015Y-103457519D01*
X119254147Y-103596900D01*
X119318297Y-103751772D01*
X119351000Y-103916184D01*
X119351000Y-104083816D01*
X119318297Y-104248228D01*
X119254147Y-104403100D01*
X119161015Y-104542481D01*
X119042481Y-104661015D01*
X118903100Y-104754147D01*
X118748228Y-104818297D01*
X118583816Y-104851000D01*
X118416184Y-104851000D01*
X118251772Y-104818297D01*
X118096900Y-104754147D01*
X117957519Y-104661015D01*
X117838985Y-104542481D01*
X117745853Y-104403100D01*
X117681703Y-104248228D01*
X117649000Y-104083816D01*
X117649000Y-103916184D01*
X117681703Y-103751772D01*
X117745853Y-103596900D01*
X117838985Y-103457519D01*
X117957519Y-103338985D01*
X118096900Y-103245853D01*
X118251772Y-103181703D01*
X118416184Y-103149000D01*
X118583816Y-103149000D01*
X118748228Y-103181703D01*
X118748228Y-103181703D01*
G37*
G36*
X116851000Y-104851000D02*
X115149000Y-104851000D01*
X115149000Y-103149000D01*
X116851000Y-103149000D01*
X116851000Y-104851000D01*
X116851000Y-104851000D01*
G37*
G36*
X110851000Y-104851000D02*
X109149000Y-104851000D01*
X109149000Y-103149000D01*
X110851000Y-103149000D01*
X110851000Y-104851000D01*
X110851000Y-104851000D01*
G37*
G36*
X56190443Y-102105519D02*
X56256627Y-102112037D01*
X56369853Y-102146384D01*
X56426467Y-102163557D01*
X56516759Y-102211820D01*
X56582991Y-102247222D01*
X56618729Y-102276552D01*
X56720186Y-102359814D01*
X56794581Y-102450466D01*
X56832778Y-102497009D01*
X56832779Y-102497011D01*
X56916443Y-102653533D01*
X56933616Y-102710147D01*
X56967963Y-102823373D01*
X56985359Y-103000000D01*
X56967963Y-103176627D01*
X56946963Y-103245854D01*
X56916443Y-103346467D01*
X56842348Y-103485087D01*
X56832778Y-103502991D01*
X56803448Y-103538729D01*
X56720186Y-103640186D01*
X56618729Y-103723448D01*
X56582991Y-103752778D01*
X56582989Y-103752779D01*
X56426467Y-103836443D01*
X56369853Y-103853616D01*
X56256627Y-103887963D01*
X56190442Y-103894482D01*
X56124260Y-103901000D01*
X56035740Y-103901000D01*
X55969558Y-103894482D01*
X55903373Y-103887963D01*
X55790147Y-103853616D01*
X55733533Y-103836443D01*
X55577011Y-103752779D01*
X55577009Y-103752778D01*
X55541271Y-103723448D01*
X55439814Y-103640186D01*
X55356552Y-103538729D01*
X55327222Y-103502991D01*
X55317652Y-103485087D01*
X55243557Y-103346467D01*
X55213037Y-103245854D01*
X55192037Y-103176627D01*
X55174641Y-103000000D01*
X55192037Y-102823373D01*
X55226384Y-102710147D01*
X55243557Y-102653533D01*
X55327221Y-102497011D01*
X55327222Y-102497009D01*
X55365419Y-102450466D01*
X55439814Y-102359814D01*
X55541271Y-102276552D01*
X55577009Y-102247222D01*
X55643241Y-102211820D01*
X55733533Y-102163557D01*
X55790147Y-102146384D01*
X55903373Y-102112037D01*
X55969557Y-102105519D01*
X56035740Y-102099000D01*
X56124260Y-102099000D01*
X56190443Y-102105519D01*
X56190443Y-102105519D01*
G37*
G36*
X53650443Y-102105519D02*
X53716627Y-102112037D01*
X53829853Y-102146384D01*
X53886467Y-102163557D01*
X53976759Y-102211820D01*
X54042991Y-102247222D01*
X54078729Y-102276552D01*
X54180186Y-102359814D01*
X54254581Y-102450466D01*
X54292778Y-102497009D01*
X54292779Y-102497011D01*
X54376443Y-102653533D01*
X54393616Y-102710147D01*
X54427963Y-102823373D01*
X54445359Y-103000000D01*
X54427963Y-103176627D01*
X54406963Y-103245854D01*
X54376443Y-103346467D01*
X54302348Y-103485087D01*
X54292778Y-103502991D01*
X54263448Y-103538729D01*
X54180186Y-103640186D01*
X54078729Y-103723448D01*
X54042991Y-103752778D01*
X54042989Y-103752779D01*
X53886467Y-103836443D01*
X53829853Y-103853616D01*
X53716627Y-103887963D01*
X53650442Y-103894482D01*
X53584260Y-103901000D01*
X53495740Y-103901000D01*
X53429558Y-103894482D01*
X53363373Y-103887963D01*
X53250147Y-103853616D01*
X53193533Y-103836443D01*
X53037011Y-103752779D01*
X53037009Y-103752778D01*
X53001271Y-103723448D01*
X52899814Y-103640186D01*
X52816552Y-103538729D01*
X52787222Y-103502991D01*
X52777652Y-103485087D01*
X52703557Y-103346467D01*
X52673037Y-103245854D01*
X52652037Y-103176627D01*
X52634641Y-103000000D01*
X52652037Y-102823373D01*
X52686384Y-102710147D01*
X52703557Y-102653533D01*
X52787221Y-102497011D01*
X52787222Y-102497009D01*
X52825419Y-102450466D01*
X52899814Y-102359814D01*
X53001271Y-102276552D01*
X53037009Y-102247222D01*
X53103241Y-102211820D01*
X53193533Y-102163557D01*
X53250147Y-102146384D01*
X53363373Y-102112037D01*
X53429557Y-102105519D01*
X53495740Y-102099000D01*
X53584260Y-102099000D01*
X53650443Y-102105519D01*
X53650443Y-102105519D01*
G37*
G36*
X51901000Y-103901000D02*
X50099000Y-103901000D01*
X50099000Y-102099000D01*
X51901000Y-102099000D01*
X51901000Y-103901000D01*
X51901000Y-103901000D01*
G37*
G36*
X125166821Y-102001313D02*
X125166824Y-102001314D01*
X125166825Y-102001314D01*
X125327239Y-102049975D01*
X125327241Y-102049976D01*
X125327244Y-102049977D01*
X125475078Y-102128995D01*
X125604659Y-102235341D01*
X125711005Y-102364922D01*
X125790023Y-102512756D01*
X125790024Y-102512759D01*
X125790025Y-102512761D01*
X125832728Y-102653534D01*
X125838687Y-102673179D01*
X125855117Y-102840000D01*
X125838687Y-103006821D01*
X125838686Y-103006824D01*
X125838686Y-103006825D01*
X125795558Y-103149000D01*
X125790023Y-103167244D01*
X125711005Y-103315078D01*
X125604659Y-103444659D01*
X125475078Y-103551005D01*
X125327244Y-103630023D01*
X125327241Y-103630024D01*
X125327239Y-103630025D01*
X125166825Y-103678686D01*
X125166824Y-103678686D01*
X125166821Y-103678687D01*
X125041804Y-103691000D01*
X124958196Y-103691000D01*
X124833179Y-103678687D01*
X124833176Y-103678686D01*
X124833175Y-103678686D01*
X124672761Y-103630025D01*
X124672759Y-103630024D01*
X124672756Y-103630023D01*
X124524922Y-103551005D01*
X124395341Y-103444659D01*
X124288995Y-103315078D01*
X124209977Y-103167244D01*
X124204443Y-103149000D01*
X124161314Y-103006825D01*
X124161314Y-103006824D01*
X124161313Y-103006821D01*
X124144883Y-102840000D01*
X124161313Y-102673179D01*
X124167272Y-102653534D01*
X124209975Y-102512761D01*
X124209976Y-102512759D01*
X124209977Y-102512756D01*
X124288995Y-102364922D01*
X124395341Y-102235341D01*
X124524922Y-102128995D01*
X124672756Y-102049977D01*
X124672759Y-102049976D01*
X124672761Y-102049975D01*
X124833175Y-102001314D01*
X124833176Y-102001314D01*
X124833179Y-102001313D01*
X124958196Y-101989000D01*
X125041804Y-101989000D01*
X125166821Y-102001313D01*
X125166821Y-102001313D01*
G37*
G36*
X73087000Y-103059000D02*
X71185000Y-103059000D01*
X71185000Y-101157000D01*
X73087000Y-101157000D01*
X73087000Y-103059000D01*
X73087000Y-103059000D01*
G37*
G36*
X74953396Y-101193546D02*
X75126466Y-101265234D01*
X75282230Y-101369312D01*
X75414688Y-101501770D01*
X75518766Y-101657534D01*
X75590454Y-101830604D01*
X75627000Y-102014333D01*
X75627000Y-102201667D01*
X75590454Y-102385396D01*
X75518766Y-102558466D01*
X75414688Y-102714230D01*
X75282230Y-102846688D01*
X75126466Y-102950766D01*
X74953396Y-103022454D01*
X74769667Y-103059000D01*
X74582333Y-103059000D01*
X74398604Y-103022454D01*
X74225534Y-102950766D01*
X74069770Y-102846688D01*
X73937312Y-102714230D01*
X73833234Y-102558466D01*
X73761546Y-102385396D01*
X73725000Y-102201667D01*
X73725000Y-102014333D01*
X73761546Y-101830604D01*
X73833234Y-101657534D01*
X73937312Y-101501770D01*
X74069770Y-101369312D01*
X74225534Y-101265234D01*
X74398604Y-101193546D01*
X74582333Y-101157000D01*
X74769667Y-101157000D01*
X74953396Y-101193546D01*
X74953396Y-101193546D01*
G37*
G36*
X87817396Y-101085546D02*
X87990466Y-101157234D01*
X88146230Y-101261312D01*
X88278688Y-101393770D01*
X88382766Y-101549534D01*
X88454454Y-101722604D01*
X88491000Y-101906333D01*
X88491000Y-102093667D01*
X88454454Y-102277396D01*
X88382766Y-102450466D01*
X88278688Y-102606230D01*
X88146230Y-102738688D01*
X87990466Y-102842766D01*
X87817396Y-102914454D01*
X87633667Y-102951000D01*
X87446333Y-102951000D01*
X87262604Y-102914454D01*
X87089534Y-102842766D01*
X86933770Y-102738688D01*
X86801312Y-102606230D01*
X86697234Y-102450466D01*
X86625546Y-102277396D01*
X86589000Y-102093667D01*
X86589000Y-101906333D01*
X86625546Y-101722604D01*
X86697234Y-101549534D01*
X86801312Y-101393770D01*
X86933770Y-101261312D01*
X87089534Y-101157234D01*
X87262604Y-101085546D01*
X87446333Y-101049000D01*
X87633667Y-101049000D01*
X87817396Y-101085546D01*
X87817396Y-101085546D01*
G37*
G36*
X85951000Y-102951000D02*
X84049000Y-102951000D01*
X84049000Y-101049000D01*
X85951000Y-101049000D01*
X85951000Y-102951000D01*
X85951000Y-102951000D01*
G37*
G36*
X64432078Y-99147703D02*
X64554501Y-99172054D01*
X64697802Y-99231411D01*
X64900460Y-99315355D01*
X65211820Y-99523399D01*
X65476601Y-99788180D01*
X65684645Y-100099540D01*
X65827946Y-100445500D01*
X65901000Y-100812766D01*
X65901000Y-101187234D01*
X65875570Y-101315078D01*
X65827946Y-101554501D01*
X65785268Y-101657534D01*
X65684645Y-101900460D01*
X65476601Y-102211820D01*
X65211820Y-102476601D01*
X64900460Y-102684645D01*
X64697802Y-102768589D01*
X64554501Y-102827946D01*
X64479995Y-102842766D01*
X64187234Y-102901000D01*
X63812766Y-102901000D01*
X63520005Y-102842766D01*
X63445499Y-102827946D01*
X63302198Y-102768589D01*
X63099540Y-102684645D01*
X62788180Y-102476601D01*
X62523399Y-102211820D01*
X62315355Y-101900460D01*
X62214732Y-101657534D01*
X62172054Y-101554501D01*
X62124430Y-101315078D01*
X62099000Y-101187234D01*
X62099000Y-100812766D01*
X62172054Y-100445500D01*
X62315355Y-100099540D01*
X62523399Y-99788180D01*
X62788180Y-99523399D01*
X63099540Y-99315355D01*
X63302198Y-99231411D01*
X63445499Y-99172054D01*
X63567922Y-99147703D01*
X63812766Y-99099000D01*
X64187234Y-99099000D01*
X64432078Y-99147703D01*
X64432078Y-99147703D01*
G37*
G36*
X132432078Y-99147703D02*
X132554501Y-99172054D01*
X132697802Y-99231411D01*
X132900460Y-99315355D01*
X133211820Y-99523399D01*
X133476601Y-99788180D01*
X133684645Y-100099540D01*
X133827946Y-100445500D01*
X133901000Y-100812766D01*
X133901000Y-101187234D01*
X133875570Y-101315078D01*
X133827946Y-101554501D01*
X133785268Y-101657534D01*
X133684645Y-101900460D01*
X133476601Y-102211820D01*
X133211820Y-102476601D01*
X132900460Y-102684645D01*
X132697802Y-102768589D01*
X132554501Y-102827946D01*
X132479995Y-102842766D01*
X132187234Y-102901000D01*
X131812766Y-102901000D01*
X131520005Y-102842766D01*
X131445499Y-102827946D01*
X131302198Y-102768589D01*
X131099540Y-102684645D01*
X130788180Y-102476601D01*
X130523399Y-102211820D01*
X130315355Y-101900460D01*
X130214732Y-101657534D01*
X130172054Y-101554501D01*
X130124430Y-101315078D01*
X130099000Y-101187234D01*
X130099000Y-100812766D01*
X130172054Y-100445500D01*
X130315355Y-100099540D01*
X130523399Y-99788180D01*
X130788180Y-99523399D01*
X131099540Y-99315355D01*
X131302198Y-99231411D01*
X131445499Y-99172054D01*
X131567922Y-99147703D01*
X131812766Y-99099000D01*
X132187234Y-99099000D01*
X132432078Y-99147703D01*
X132432078Y-99147703D01*
G37*
G36*
X95432078Y-99147703D02*
X95554501Y-99172054D01*
X95697802Y-99231411D01*
X95900460Y-99315355D01*
X96211820Y-99523399D01*
X96476601Y-99788180D01*
X96684645Y-100099540D01*
X96827946Y-100445500D01*
X96901000Y-100812766D01*
X96901000Y-101187234D01*
X96875570Y-101315078D01*
X96827946Y-101554501D01*
X96785268Y-101657534D01*
X96684645Y-101900460D01*
X96476601Y-102211820D01*
X96211820Y-102476601D01*
X95900460Y-102684645D01*
X95697802Y-102768589D01*
X95554501Y-102827946D01*
X95479995Y-102842766D01*
X95187234Y-102901000D01*
X94812766Y-102901000D01*
X94520005Y-102842766D01*
X94445499Y-102827946D01*
X94302198Y-102768589D01*
X94099540Y-102684645D01*
X93788180Y-102476601D01*
X93523399Y-102211820D01*
X93315355Y-101900460D01*
X93214732Y-101657534D01*
X93172054Y-101554501D01*
X93124430Y-101315078D01*
X93099000Y-101187234D01*
X93099000Y-100812766D01*
X93172054Y-100445500D01*
X93315355Y-100099540D01*
X93523399Y-99788180D01*
X93788180Y-99523399D01*
X94099540Y-99315355D01*
X94302198Y-99231411D01*
X94445499Y-99172054D01*
X94567922Y-99147703D01*
X94812766Y-99099000D01*
X95187234Y-99099000D01*
X95432078Y-99147703D01*
X95432078Y-99147703D01*
G37*
G36*
X78248228Y-100181703D02*
X78403100Y-100245853D01*
X78542481Y-100338985D01*
X78661015Y-100457519D01*
X78754147Y-100596900D01*
X78818297Y-100751772D01*
X78851000Y-100916184D01*
X78851000Y-101083816D01*
X78818297Y-101248228D01*
X78754147Y-101403100D01*
X78661015Y-101542481D01*
X78542481Y-101661015D01*
X78403100Y-101754147D01*
X78248228Y-101818297D01*
X78083816Y-101851000D01*
X77916184Y-101851000D01*
X77751772Y-101818297D01*
X77596900Y-101754147D01*
X77457519Y-101661015D01*
X77338985Y-101542481D01*
X77245853Y-101403100D01*
X77181703Y-101248228D01*
X77149000Y-101083816D01*
X77149000Y-100916184D01*
X77181703Y-100751772D01*
X77245853Y-100596900D01*
X77338985Y-100457519D01*
X77457519Y-100338985D01*
X77596900Y-100245853D01*
X77751772Y-100181703D01*
X77916184Y-100149000D01*
X78083816Y-100149000D01*
X78248228Y-100181703D01*
X78248228Y-100181703D01*
G37*
G36*
X81166821Y-100001313D02*
X81166824Y-100001314D01*
X81166825Y-100001314D01*
X81327239Y-100049975D01*
X81327241Y-100049976D01*
X81327244Y-100049977D01*
X81475078Y-100128995D01*
X81604659Y-100235341D01*
X81711005Y-100364922D01*
X81790023Y-100512756D01*
X81838687Y-100673179D01*
X81855117Y-100840000D01*
X81838687Y-101006821D01*
X81838686Y-101006824D01*
X81838686Y-101006825D01*
X81793060Y-101157235D01*
X81790023Y-101167244D01*
X81711005Y-101315078D01*
X81604659Y-101444659D01*
X81475078Y-101551005D01*
X81327244Y-101630023D01*
X81327241Y-101630024D01*
X81327239Y-101630025D01*
X81166825Y-101678686D01*
X81166824Y-101678686D01*
X81166821Y-101678687D01*
X81041804Y-101691000D01*
X80958196Y-101691000D01*
X80833179Y-101678687D01*
X80833176Y-101678686D01*
X80833175Y-101678686D01*
X80672761Y-101630025D01*
X80672759Y-101630024D01*
X80672756Y-101630023D01*
X80524922Y-101551005D01*
X80395341Y-101444659D01*
X80288995Y-101315078D01*
X80209977Y-101167244D01*
X80206941Y-101157235D01*
X80161314Y-101006825D01*
X80161314Y-101006824D01*
X80161313Y-101006821D01*
X80144883Y-100840000D01*
X80161313Y-100673179D01*
X80209977Y-100512756D01*
X80288995Y-100364922D01*
X80395341Y-100235341D01*
X80524922Y-100128995D01*
X80672756Y-100049977D01*
X80672759Y-100049976D01*
X80672761Y-100049975D01*
X80833175Y-100001314D01*
X80833176Y-100001314D01*
X80833179Y-100001313D01*
X80958196Y-99989000D01*
X81041804Y-99989000D01*
X81166821Y-100001313D01*
X81166821Y-100001313D01*
G37*
G36*
X56811000Y-99811000D02*
X55189000Y-99811000D01*
X55189000Y-98189000D01*
X56811000Y-98189000D01*
X56811000Y-99811000D01*
X56811000Y-99811000D01*
G37*
G36*
X123027396Y-97085546D02*
X123200466Y-97157234D01*
X123356230Y-97261312D01*
X123488688Y-97393770D01*
X123592766Y-97549534D01*
X123664454Y-97722604D01*
X123701000Y-97906333D01*
X123701000Y-98093667D01*
X123664454Y-98277396D01*
X123592766Y-98450466D01*
X123488688Y-98606230D01*
X123356230Y-98738688D01*
X123200466Y-98842766D01*
X123027396Y-98914454D01*
X122843667Y-98951000D01*
X122656333Y-98951000D01*
X122472604Y-98914454D01*
X122299534Y-98842766D01*
X122143770Y-98738688D01*
X122011312Y-98606230D01*
X121907234Y-98450466D01*
X121835546Y-98277396D01*
X121799000Y-98093667D01*
X121799000Y-97906333D01*
X121835546Y-97722604D01*
X121907234Y-97549534D01*
X122011312Y-97393770D01*
X122143770Y-97261312D01*
X122299534Y-97157234D01*
X122472604Y-97085546D01*
X122656333Y-97049000D01*
X122843667Y-97049000D01*
X123027396Y-97085546D01*
X123027396Y-97085546D01*
G37*
G36*
X139901000Y-98901000D02*
X138099000Y-98901000D01*
X138099000Y-97099000D01*
X139901000Y-97099000D01*
X139901000Y-98901000D01*
X139901000Y-98901000D01*
G37*
G36*
X51110442Y-96345518D02*
X51176627Y-96352037D01*
X51269211Y-96380122D01*
X51346467Y-96403557D01*
X51485087Y-96477652D01*
X51502991Y-96487222D01*
X51538729Y-96516552D01*
X51640186Y-96599814D01*
X51719582Y-96696560D01*
X51752778Y-96737009D01*
X51752779Y-96737011D01*
X51836443Y-96893533D01*
X51836443Y-96893534D01*
X51887963Y-97063373D01*
X51905359Y-97240000D01*
X51887963Y-97416627D01*
X51853616Y-97529853D01*
X51836443Y-97586467D01*
X51763675Y-97722604D01*
X51752778Y-97742991D01*
X51723448Y-97778729D01*
X51640186Y-97880186D01*
X51538729Y-97963448D01*
X51502991Y-97992778D01*
X51502989Y-97992779D01*
X51346467Y-98076443D01*
X51289853Y-98093616D01*
X51176627Y-98127963D01*
X51110443Y-98134481D01*
X51044260Y-98141000D01*
X50955740Y-98141000D01*
X50889557Y-98134481D01*
X50823373Y-98127963D01*
X50710147Y-98093616D01*
X50653533Y-98076443D01*
X50497011Y-97992779D01*
X50497009Y-97992778D01*
X50461271Y-97963448D01*
X50359814Y-97880186D01*
X50276552Y-97778729D01*
X50247222Y-97742991D01*
X50236325Y-97722604D01*
X50163557Y-97586467D01*
X50146384Y-97529853D01*
X50112037Y-97416627D01*
X50094641Y-97240000D01*
X50112037Y-97063373D01*
X50163557Y-96893534D01*
X50163557Y-96893533D01*
X50247221Y-96737011D01*
X50247222Y-96737009D01*
X50280418Y-96696560D01*
X50359814Y-96599814D01*
X50461271Y-96516552D01*
X50497009Y-96487222D01*
X50514913Y-96477652D01*
X50653533Y-96403557D01*
X50730789Y-96380122D01*
X50823373Y-96352037D01*
X50889558Y-96345518D01*
X50955740Y-96339000D01*
X51044260Y-96339000D01*
X51110442Y-96345518D01*
X51110442Y-96345518D01*
G37*
G36*
X56236560Y-95680166D02*
X56377850Y-95738690D01*
X56384153Y-95741301D01*
X56435835Y-95775834D01*
X56516985Y-95830057D01*
X56629943Y-95943015D01*
X56718700Y-96075849D01*
X56779834Y-96223440D01*
X56811000Y-96380122D01*
X56811000Y-96539878D01*
X56779834Y-96696560D01*
X56718700Y-96844151D01*
X56629943Y-96976985D01*
X56516985Y-97089943D01*
X56516982Y-97089945D01*
X56384153Y-97178699D01*
X56384152Y-97178700D01*
X56384151Y-97178700D01*
X56236560Y-97239834D01*
X56079878Y-97271000D01*
X55920122Y-97271000D01*
X55763440Y-97239834D01*
X55615849Y-97178700D01*
X55615848Y-97178700D01*
X55615847Y-97178699D01*
X55483018Y-97089945D01*
X55483015Y-97089943D01*
X55370057Y-96976985D01*
X55281300Y-96844151D01*
X55220166Y-96696560D01*
X55189000Y-96539878D01*
X55189000Y-96380122D01*
X55220166Y-96223440D01*
X55281300Y-96075849D01*
X55370057Y-95943015D01*
X55483015Y-95830057D01*
X55564165Y-95775834D01*
X55615847Y-95741301D01*
X55622151Y-95738690D01*
X55763440Y-95680166D01*
X55920122Y-95649000D01*
X56079878Y-95649000D01*
X56236560Y-95680166D01*
X56236560Y-95680166D01*
G37*
G36*
X64187135Y-94480778D02*
X64287866Y-94511335D01*
X64338233Y-94526613D01*
X64381883Y-94549945D01*
X64477483Y-94601044D01*
X64599538Y-94701212D01*
X64699706Y-94823267D01*
X64744107Y-94906335D01*
X64774137Y-94962517D01*
X64774137Y-94962518D01*
X64819972Y-95113615D01*
X64831570Y-95231375D01*
X64831570Y-96008625D01*
X64819972Y-96126385D01*
X64790531Y-96223440D01*
X64774137Y-96277483D01*
X64764002Y-96296443D01*
X64699706Y-96416733D01*
X64599538Y-96538788D01*
X64477482Y-96638956D01*
X64384648Y-96688577D01*
X64338232Y-96713387D01*
X64287865Y-96728665D01*
X64187134Y-96759222D01*
X64030000Y-96774698D01*
X63872865Y-96759222D01*
X63772134Y-96728665D01*
X63721767Y-96713387D01*
X63675351Y-96688577D01*
X63582517Y-96638956D01*
X63460462Y-96538788D01*
X63360294Y-96416732D01*
X63285864Y-96277483D01*
X63285863Y-96277482D01*
X63266236Y-96212779D01*
X63240028Y-96126384D01*
X63228430Y-96008624D01*
X63228430Y-95231375D01*
X63240028Y-95113615D01*
X63240028Y-95113614D01*
X63285863Y-94962520D01*
X63310663Y-94916123D01*
X63360295Y-94823267D01*
X63460463Y-94701212D01*
X63582518Y-94601044D01*
X63678118Y-94549945D01*
X63721768Y-94526613D01*
X63772135Y-94511335D01*
X63872866Y-94480778D01*
X64030000Y-94465302D01*
X64187135Y-94480778D01*
X64187135Y-94480778D01*
G37*
G36*
X69267135Y-94480778D02*
X69367866Y-94511335D01*
X69418233Y-94526613D01*
X69461883Y-94549945D01*
X69557483Y-94601044D01*
X69679538Y-94701212D01*
X69779706Y-94823267D01*
X69824107Y-94906335D01*
X69854137Y-94962517D01*
X69854137Y-94962518D01*
X69899972Y-95113615D01*
X69911570Y-95231375D01*
X69911570Y-96008625D01*
X69899972Y-96126385D01*
X69870531Y-96223440D01*
X69854137Y-96277483D01*
X69844002Y-96296443D01*
X69779706Y-96416733D01*
X69679538Y-96538788D01*
X69557482Y-96638956D01*
X69464648Y-96688577D01*
X69418232Y-96713387D01*
X69367865Y-96728665D01*
X69267134Y-96759222D01*
X69110000Y-96774698D01*
X68952865Y-96759222D01*
X68852134Y-96728665D01*
X68801767Y-96713387D01*
X68755351Y-96688577D01*
X68662517Y-96638956D01*
X68540462Y-96538788D01*
X68440294Y-96416732D01*
X68365864Y-96277483D01*
X68365863Y-96277482D01*
X68346236Y-96212779D01*
X68320028Y-96126384D01*
X68308430Y-96008624D01*
X68308430Y-95231375D01*
X68320028Y-95113615D01*
X68320028Y-95113614D01*
X68365863Y-94962520D01*
X68390663Y-94916123D01*
X68440295Y-94823267D01*
X68540463Y-94701212D01*
X68662518Y-94601044D01*
X68758118Y-94549945D01*
X68801768Y-94526613D01*
X68852135Y-94511335D01*
X68952866Y-94480778D01*
X69110000Y-94465302D01*
X69267135Y-94480778D01*
X69267135Y-94480778D01*
G37*
G36*
X71807135Y-94480778D02*
X71907866Y-94511335D01*
X71958233Y-94526613D01*
X72001883Y-94549945D01*
X72097483Y-94601044D01*
X72219538Y-94701212D01*
X72319706Y-94823267D01*
X72364107Y-94906335D01*
X72394137Y-94962517D01*
X72394137Y-94962518D01*
X72439972Y-95113615D01*
X72451570Y-95231375D01*
X72451570Y-96008625D01*
X72439972Y-96126385D01*
X72410531Y-96223440D01*
X72394137Y-96277483D01*
X72384002Y-96296443D01*
X72319706Y-96416733D01*
X72219538Y-96538788D01*
X72097482Y-96638956D01*
X72004648Y-96688577D01*
X71958232Y-96713387D01*
X71907865Y-96728665D01*
X71807134Y-96759222D01*
X71650000Y-96774698D01*
X71492865Y-96759222D01*
X71392134Y-96728665D01*
X71341767Y-96713387D01*
X71295351Y-96688577D01*
X71202517Y-96638956D01*
X71080462Y-96538788D01*
X70980294Y-96416732D01*
X70905864Y-96277483D01*
X70905863Y-96277482D01*
X70886236Y-96212779D01*
X70860028Y-96126384D01*
X70848430Y-96008624D01*
X70848430Y-95231375D01*
X70860028Y-95113615D01*
X70860028Y-95113614D01*
X70905863Y-94962520D01*
X70930663Y-94916123D01*
X70980295Y-94823267D01*
X71080463Y-94701212D01*
X71202518Y-94601044D01*
X71298118Y-94549945D01*
X71341768Y-94526613D01*
X71392135Y-94511335D01*
X71492866Y-94480778D01*
X71650000Y-94465302D01*
X71807135Y-94480778D01*
X71807135Y-94480778D01*
G37*
G36*
X74347135Y-94480778D02*
X74447866Y-94511335D01*
X74498233Y-94526613D01*
X74541883Y-94549945D01*
X74637483Y-94601044D01*
X74759538Y-94701212D01*
X74859706Y-94823267D01*
X74904107Y-94906335D01*
X74934137Y-94962517D01*
X74934137Y-94962518D01*
X74979972Y-95113615D01*
X74991570Y-95231375D01*
X74991570Y-96008625D01*
X74979972Y-96126385D01*
X74950531Y-96223440D01*
X74934137Y-96277483D01*
X74924002Y-96296443D01*
X74859706Y-96416733D01*
X74759538Y-96538788D01*
X74637482Y-96638956D01*
X74544648Y-96688577D01*
X74498232Y-96713387D01*
X74447865Y-96728665D01*
X74347134Y-96759222D01*
X74190000Y-96774698D01*
X74032865Y-96759222D01*
X73932134Y-96728665D01*
X73881767Y-96713387D01*
X73835351Y-96688577D01*
X73742517Y-96638956D01*
X73620462Y-96538788D01*
X73520294Y-96416732D01*
X73445864Y-96277483D01*
X73445863Y-96277482D01*
X73426236Y-96212779D01*
X73400028Y-96126384D01*
X73388430Y-96008624D01*
X73388430Y-95231375D01*
X73400028Y-95113615D01*
X73400028Y-95113614D01*
X73445863Y-94962520D01*
X73470663Y-94916123D01*
X73520295Y-94823267D01*
X73620463Y-94701212D01*
X73742518Y-94601044D01*
X73838118Y-94549945D01*
X73881768Y-94526613D01*
X73932135Y-94511335D01*
X74032866Y-94480778D01*
X74190000Y-94465302D01*
X74347135Y-94480778D01*
X74347135Y-94480778D01*
G37*
G36*
X92127135Y-94480778D02*
X92227866Y-94511335D01*
X92278233Y-94526613D01*
X92321883Y-94549945D01*
X92417483Y-94601044D01*
X92539538Y-94701212D01*
X92639706Y-94823267D01*
X92684107Y-94906335D01*
X92714137Y-94962517D01*
X92714137Y-94962518D01*
X92759972Y-95113615D01*
X92771570Y-95231375D01*
X92771570Y-96008625D01*
X92759972Y-96126385D01*
X92730531Y-96223440D01*
X92714137Y-96277483D01*
X92704002Y-96296443D01*
X92639706Y-96416733D01*
X92539538Y-96538788D01*
X92417482Y-96638956D01*
X92324648Y-96688577D01*
X92278232Y-96713387D01*
X92227865Y-96728665D01*
X92127134Y-96759222D01*
X91970000Y-96774698D01*
X91812865Y-96759222D01*
X91712134Y-96728665D01*
X91661767Y-96713387D01*
X91615351Y-96688577D01*
X91522517Y-96638956D01*
X91400462Y-96538788D01*
X91300294Y-96416732D01*
X91225864Y-96277483D01*
X91225863Y-96277482D01*
X91206236Y-96212779D01*
X91180028Y-96126384D01*
X91168430Y-96008624D01*
X91168430Y-95231375D01*
X91180028Y-95113615D01*
X91180028Y-95113614D01*
X91225863Y-94962520D01*
X91250663Y-94916123D01*
X91300295Y-94823267D01*
X91400463Y-94701212D01*
X91522518Y-94601044D01*
X91618118Y-94549945D01*
X91661768Y-94526613D01*
X91712135Y-94511335D01*
X91812866Y-94480778D01*
X91970000Y-94465302D01*
X92127135Y-94480778D01*
X92127135Y-94480778D01*
G37*
G36*
X89587135Y-94480778D02*
X89687866Y-94511335D01*
X89738233Y-94526613D01*
X89781883Y-94549945D01*
X89877483Y-94601044D01*
X89999538Y-94701212D01*
X90099706Y-94823267D01*
X90144107Y-94906335D01*
X90174137Y-94962517D01*
X90174137Y-94962518D01*
X90219972Y-95113615D01*
X90231570Y-95231375D01*
X90231570Y-96008625D01*
X90219972Y-96126385D01*
X90190531Y-96223440D01*
X90174137Y-96277483D01*
X90164002Y-96296443D01*
X90099706Y-96416733D01*
X89999538Y-96538788D01*
X89877482Y-96638956D01*
X89784648Y-96688577D01*
X89738232Y-96713387D01*
X89687865Y-96728665D01*
X89587134Y-96759222D01*
X89430000Y-96774698D01*
X89272865Y-96759222D01*
X89172134Y-96728665D01*
X89121767Y-96713387D01*
X89075351Y-96688577D01*
X88982517Y-96638956D01*
X88860462Y-96538788D01*
X88760294Y-96416732D01*
X88685864Y-96277483D01*
X88685863Y-96277482D01*
X88666236Y-96212779D01*
X88640028Y-96126384D01*
X88628430Y-96008624D01*
X88628430Y-95231375D01*
X88640028Y-95113615D01*
X88640028Y-95113614D01*
X88685863Y-94962520D01*
X88710663Y-94916123D01*
X88760295Y-94823267D01*
X88860463Y-94701212D01*
X88982518Y-94601044D01*
X89078118Y-94549945D01*
X89121768Y-94526613D01*
X89172135Y-94511335D01*
X89272866Y-94480778D01*
X89430000Y-94465302D01*
X89587135Y-94480778D01*
X89587135Y-94480778D01*
G37*
G36*
X84507135Y-94480778D02*
X84607866Y-94511335D01*
X84658233Y-94526613D01*
X84701883Y-94549945D01*
X84797483Y-94601044D01*
X84919538Y-94701212D01*
X85019706Y-94823267D01*
X85064107Y-94906335D01*
X85094137Y-94962517D01*
X85094137Y-94962518D01*
X85139972Y-95113615D01*
X85151570Y-95231375D01*
X85151570Y-96008625D01*
X85139972Y-96126385D01*
X85110531Y-96223440D01*
X85094137Y-96277483D01*
X85084002Y-96296443D01*
X85019706Y-96416733D01*
X84919538Y-96538788D01*
X84797482Y-96638956D01*
X84704648Y-96688577D01*
X84658232Y-96713387D01*
X84607865Y-96728665D01*
X84507134Y-96759222D01*
X84350000Y-96774698D01*
X84192865Y-96759222D01*
X84092134Y-96728665D01*
X84041767Y-96713387D01*
X83995351Y-96688577D01*
X83902517Y-96638956D01*
X83780462Y-96538788D01*
X83680294Y-96416732D01*
X83605864Y-96277483D01*
X83605863Y-96277482D01*
X83586236Y-96212779D01*
X83560028Y-96126384D01*
X83548430Y-96008624D01*
X83548430Y-95231375D01*
X83560028Y-95113615D01*
X83560028Y-95113614D01*
X83605863Y-94962520D01*
X83630663Y-94916123D01*
X83680295Y-94823267D01*
X83780463Y-94701212D01*
X83902518Y-94601044D01*
X83998118Y-94549945D01*
X84041768Y-94526613D01*
X84092135Y-94511335D01*
X84192866Y-94480778D01*
X84350000Y-94465302D01*
X84507135Y-94480778D01*
X84507135Y-94480778D01*
G37*
G36*
X66727135Y-94480778D02*
X66827866Y-94511335D01*
X66878233Y-94526613D01*
X66921883Y-94549945D01*
X67017483Y-94601044D01*
X67139538Y-94701212D01*
X67239706Y-94823267D01*
X67284107Y-94906335D01*
X67314137Y-94962517D01*
X67314137Y-94962518D01*
X67359972Y-95113615D01*
X67371570Y-95231375D01*
X67371570Y-96008625D01*
X67359972Y-96126385D01*
X67330531Y-96223440D01*
X67314137Y-96277483D01*
X67304002Y-96296443D01*
X67239706Y-96416733D01*
X67139538Y-96538788D01*
X67017482Y-96638956D01*
X66924648Y-96688577D01*
X66878232Y-96713387D01*
X66827865Y-96728665D01*
X66727134Y-96759222D01*
X66570000Y-96774698D01*
X66412865Y-96759222D01*
X66312134Y-96728665D01*
X66261767Y-96713387D01*
X66215351Y-96688577D01*
X66122517Y-96638956D01*
X66000462Y-96538788D01*
X65900294Y-96416732D01*
X65825864Y-96277483D01*
X65825863Y-96277482D01*
X65806236Y-96212779D01*
X65780028Y-96126384D01*
X65768430Y-96008624D01*
X65768430Y-95231375D01*
X65780028Y-95113615D01*
X65780028Y-95113614D01*
X65825863Y-94962520D01*
X65850663Y-94916123D01*
X65900295Y-94823267D01*
X66000463Y-94701212D01*
X66122518Y-94601044D01*
X66218118Y-94549945D01*
X66261768Y-94526613D01*
X66312135Y-94511335D01*
X66412866Y-94480778D01*
X66570000Y-94465302D01*
X66727135Y-94480778D01*
X66727135Y-94480778D01*
G37*
G36*
X81967135Y-94480778D02*
X82067866Y-94511335D01*
X82118233Y-94526613D01*
X82161883Y-94549945D01*
X82257483Y-94601044D01*
X82379538Y-94701212D01*
X82479706Y-94823267D01*
X82524107Y-94906335D01*
X82554137Y-94962517D01*
X82554137Y-94962518D01*
X82599972Y-95113615D01*
X82611570Y-95231375D01*
X82611570Y-96008625D01*
X82599972Y-96126385D01*
X82570531Y-96223440D01*
X82554137Y-96277483D01*
X82544002Y-96296443D01*
X82479706Y-96416733D01*
X82379538Y-96538788D01*
X82257482Y-96638956D01*
X82164648Y-96688577D01*
X82118232Y-96713387D01*
X82067865Y-96728665D01*
X81967134Y-96759222D01*
X81810000Y-96774698D01*
X81652865Y-96759222D01*
X81552134Y-96728665D01*
X81501767Y-96713387D01*
X81455351Y-96688577D01*
X81362517Y-96638956D01*
X81240462Y-96538788D01*
X81140294Y-96416732D01*
X81065864Y-96277483D01*
X81065863Y-96277482D01*
X81046236Y-96212779D01*
X81020028Y-96126384D01*
X81008430Y-96008624D01*
X81008430Y-95231375D01*
X81020028Y-95113615D01*
X81020028Y-95113614D01*
X81065863Y-94962520D01*
X81090663Y-94916123D01*
X81140295Y-94823267D01*
X81240463Y-94701212D01*
X81362518Y-94601044D01*
X81458118Y-94549945D01*
X81501768Y-94526613D01*
X81552135Y-94511335D01*
X81652866Y-94480778D01*
X81810000Y-94465302D01*
X81967135Y-94480778D01*
X81967135Y-94480778D01*
G37*
G36*
X79427135Y-94480778D02*
X79527866Y-94511335D01*
X79578233Y-94526613D01*
X79621883Y-94549945D01*
X79717483Y-94601044D01*
X79839538Y-94701212D01*
X79939706Y-94823267D01*
X79984107Y-94906335D01*
X80014137Y-94962517D01*
X80014137Y-94962518D01*
X80059972Y-95113615D01*
X80071570Y-95231375D01*
X80071570Y-96008625D01*
X80059972Y-96126385D01*
X80030531Y-96223440D01*
X80014137Y-96277483D01*
X80004002Y-96296443D01*
X79939706Y-96416733D01*
X79839538Y-96538788D01*
X79717482Y-96638956D01*
X79624648Y-96688577D01*
X79578232Y-96713387D01*
X79527865Y-96728665D01*
X79427134Y-96759222D01*
X79270000Y-96774698D01*
X79112865Y-96759222D01*
X79012134Y-96728665D01*
X78961767Y-96713387D01*
X78915351Y-96688577D01*
X78822517Y-96638956D01*
X78700462Y-96538788D01*
X78600294Y-96416732D01*
X78525864Y-96277483D01*
X78525863Y-96277482D01*
X78506236Y-96212779D01*
X78480028Y-96126384D01*
X78468430Y-96008624D01*
X78468430Y-95231375D01*
X78480028Y-95113615D01*
X78480028Y-95113614D01*
X78525863Y-94962520D01*
X78550663Y-94916123D01*
X78600295Y-94823267D01*
X78700463Y-94701212D01*
X78822518Y-94601044D01*
X78918118Y-94549945D01*
X78961768Y-94526613D01*
X79012135Y-94511335D01*
X79112866Y-94480778D01*
X79270000Y-94465302D01*
X79427135Y-94480778D01*
X79427135Y-94480778D01*
G37*
G36*
X76887135Y-94480778D02*
X76987866Y-94511335D01*
X77038233Y-94526613D01*
X77081883Y-94549945D01*
X77177483Y-94601044D01*
X77299538Y-94701212D01*
X77399706Y-94823267D01*
X77444107Y-94906335D01*
X77474137Y-94962517D01*
X77474137Y-94962518D01*
X77519972Y-95113615D01*
X77531570Y-95231375D01*
X77531570Y-96008625D01*
X77519972Y-96126385D01*
X77490531Y-96223440D01*
X77474137Y-96277483D01*
X77464002Y-96296443D01*
X77399706Y-96416733D01*
X77299538Y-96538788D01*
X77177482Y-96638956D01*
X77084648Y-96688577D01*
X77038232Y-96713387D01*
X76987865Y-96728665D01*
X76887134Y-96759222D01*
X76730000Y-96774698D01*
X76572865Y-96759222D01*
X76472134Y-96728665D01*
X76421767Y-96713387D01*
X76375351Y-96688577D01*
X76282517Y-96638956D01*
X76160462Y-96538788D01*
X76060294Y-96416732D01*
X75985864Y-96277483D01*
X75985863Y-96277482D01*
X75966236Y-96212779D01*
X75940028Y-96126384D01*
X75928430Y-96008624D01*
X75928430Y-95231375D01*
X75940028Y-95113615D01*
X75940028Y-95113614D01*
X75985863Y-94962520D01*
X76010663Y-94916123D01*
X76060295Y-94823267D01*
X76160463Y-94701212D01*
X76282518Y-94601044D01*
X76378118Y-94549945D01*
X76421768Y-94526613D01*
X76472135Y-94511335D01*
X76572866Y-94480778D01*
X76730000Y-94465302D01*
X76887135Y-94480778D01*
X76887135Y-94480778D01*
G37*
G36*
X87047135Y-94480778D02*
X87147866Y-94511335D01*
X87198233Y-94526613D01*
X87241883Y-94549945D01*
X87337483Y-94601044D01*
X87459538Y-94701212D01*
X87559706Y-94823267D01*
X87604107Y-94906335D01*
X87634137Y-94962517D01*
X87634137Y-94962518D01*
X87679972Y-95113615D01*
X87691570Y-95231375D01*
X87691570Y-96008625D01*
X87679972Y-96126385D01*
X87650531Y-96223440D01*
X87634137Y-96277483D01*
X87624002Y-96296443D01*
X87559706Y-96416733D01*
X87459538Y-96538788D01*
X87337482Y-96638956D01*
X87244648Y-96688577D01*
X87198232Y-96713387D01*
X87147865Y-96728665D01*
X87047134Y-96759222D01*
X86890000Y-96774698D01*
X86732865Y-96759222D01*
X86632134Y-96728665D01*
X86581767Y-96713387D01*
X86535351Y-96688577D01*
X86442517Y-96638956D01*
X86320462Y-96538788D01*
X86220294Y-96416732D01*
X86145864Y-96277483D01*
X86145863Y-96277482D01*
X86126236Y-96212779D01*
X86100028Y-96126384D01*
X86088430Y-96008624D01*
X86088430Y-95231375D01*
X86100028Y-95113615D01*
X86100028Y-95113614D01*
X86145863Y-94962520D01*
X86170663Y-94916123D01*
X86220295Y-94823267D01*
X86320463Y-94701212D01*
X86442518Y-94601044D01*
X86538118Y-94549945D01*
X86581768Y-94526613D01*
X86632135Y-94511335D01*
X86732866Y-94480778D01*
X86890000Y-94465302D01*
X87047135Y-94480778D01*
X87047135Y-94480778D01*
G37*
G36*
X139110443Y-94565519D02*
X139176627Y-94572037D01*
X139272250Y-94601044D01*
X139346467Y-94623557D01*
X139485087Y-94697652D01*
X139502991Y-94707222D01*
X139521734Y-94722604D01*
X139640186Y-94819814D01*
X139723448Y-94921271D01*
X139752778Y-94957009D01*
X139752779Y-94957011D01*
X139836443Y-95113533D01*
X139836468Y-95113615D01*
X139887963Y-95283373D01*
X139905359Y-95460000D01*
X139887963Y-95636627D01*
X139864280Y-95714699D01*
X139836443Y-95806467D01*
X139817041Y-95842765D01*
X139752778Y-95962991D01*
X139723448Y-95998729D01*
X139640186Y-96100186D01*
X139538729Y-96183448D01*
X139502991Y-96212778D01*
X139502989Y-96212779D01*
X139346467Y-96296443D01*
X139289853Y-96313616D01*
X139176627Y-96347963D01*
X139135262Y-96352037D01*
X139044260Y-96361000D01*
X138955740Y-96361000D01*
X138864738Y-96352037D01*
X138823373Y-96347963D01*
X138710147Y-96313616D01*
X138653533Y-96296443D01*
X138497011Y-96212779D01*
X138497009Y-96212778D01*
X138461271Y-96183448D01*
X138359814Y-96100186D01*
X138276552Y-95998729D01*
X138247222Y-95962991D01*
X138182959Y-95842765D01*
X138163557Y-95806467D01*
X138135720Y-95714699D01*
X138112037Y-95636627D01*
X138094641Y-95460000D01*
X138112037Y-95283373D01*
X138163532Y-95113615D01*
X138163557Y-95113533D01*
X138247221Y-94957011D01*
X138247222Y-94957009D01*
X138276552Y-94921271D01*
X138359814Y-94819814D01*
X138478266Y-94722604D01*
X138497009Y-94707222D01*
X138514913Y-94697652D01*
X138653533Y-94623557D01*
X138727750Y-94601044D01*
X138823373Y-94572037D01*
X138889557Y-94565519D01*
X138955740Y-94559000D01*
X139044260Y-94559000D01*
X139110443Y-94565519D01*
X139110443Y-94565519D01*
G37*
G36*
X123027396Y-94085546D02*
X123200466Y-94157234D01*
X123356230Y-94261312D01*
X123488688Y-94393770D01*
X123592766Y-94549534D01*
X123664454Y-94722604D01*
X123701000Y-94906333D01*
X123701000Y-95093667D01*
X123664454Y-95277396D01*
X123592766Y-95450466D01*
X123488688Y-95606230D01*
X123356230Y-95738688D01*
X123200466Y-95842766D01*
X123027396Y-95914454D01*
X122843667Y-95951000D01*
X122656333Y-95951000D01*
X122472604Y-95914454D01*
X122299534Y-95842766D01*
X122143770Y-95738688D01*
X122011312Y-95606230D01*
X121907234Y-95450466D01*
X121835546Y-95277396D01*
X121799000Y-95093667D01*
X121799000Y-94906333D01*
X121835546Y-94722604D01*
X121907234Y-94549534D01*
X122011312Y-94393770D01*
X122143770Y-94261312D01*
X122299534Y-94157234D01*
X122472604Y-94085546D01*
X122656333Y-94049000D01*
X122843667Y-94049000D01*
X123027396Y-94085546D01*
X123027396Y-94085546D01*
G37*
G36*
X131300560Y-94216166D02*
X131409548Y-94261310D01*
X131448153Y-94277301D01*
X131562242Y-94353533D01*
X131580985Y-94366057D01*
X131693943Y-94479015D01*
X131693945Y-94479018D01*
X131775481Y-94601044D01*
X131782700Y-94611849D01*
X131843834Y-94759440D01*
X131875000Y-94916122D01*
X131875000Y-95075878D01*
X131867493Y-95113617D01*
X131843834Y-95232560D01*
X131782699Y-95380153D01*
X131729347Y-95460000D01*
X131693943Y-95512985D01*
X131580985Y-95625943D01*
X131580982Y-95625945D01*
X131448153Y-95714699D01*
X131448152Y-95714700D01*
X131448151Y-95714700D01*
X131300560Y-95775834D01*
X131143878Y-95807000D01*
X130984122Y-95807000D01*
X130827440Y-95775834D01*
X130679849Y-95714700D01*
X130679848Y-95714700D01*
X130679847Y-95714699D01*
X130547018Y-95625945D01*
X130547015Y-95625943D01*
X130434057Y-95512985D01*
X130398653Y-95460000D01*
X130345301Y-95380153D01*
X130284166Y-95232560D01*
X130260507Y-95113617D01*
X130253000Y-95075878D01*
X130253000Y-94916122D01*
X130284166Y-94759440D01*
X130345300Y-94611849D01*
X130352520Y-94601044D01*
X130434055Y-94479018D01*
X130434057Y-94479015D01*
X130547015Y-94366057D01*
X130565758Y-94353533D01*
X130679847Y-94277301D01*
X130718453Y-94261310D01*
X130827440Y-94216166D01*
X130984122Y-94185000D01*
X131143878Y-94185000D01*
X131300560Y-94216166D01*
X131300560Y-94216166D01*
G37*
G36*
X51110443Y-93805519D02*
X51176627Y-93812037D01*
X51269211Y-93840122D01*
X51346467Y-93863557D01*
X51380166Y-93881570D01*
X51502991Y-93947222D01*
X51538729Y-93976552D01*
X51640186Y-94059814D01*
X51719582Y-94156560D01*
X51752778Y-94197009D01*
X51752779Y-94197011D01*
X51836443Y-94353533D01*
X51848649Y-94393773D01*
X51887963Y-94523373D01*
X51905359Y-94700000D01*
X51887963Y-94876627D01*
X51861908Y-94962518D01*
X51836443Y-95046467D01*
X51800551Y-95113615D01*
X51752778Y-95202991D01*
X51729484Y-95231375D01*
X51640186Y-95340186D01*
X51538729Y-95423448D01*
X51502991Y-95452778D01*
X51502989Y-95452779D01*
X51346467Y-95536443D01*
X51289853Y-95553616D01*
X51176627Y-95587963D01*
X51110442Y-95594482D01*
X51044260Y-95601000D01*
X50955740Y-95601000D01*
X50889558Y-95594482D01*
X50823373Y-95587963D01*
X50710147Y-95553616D01*
X50653533Y-95536443D01*
X50497011Y-95452779D01*
X50497009Y-95452778D01*
X50461271Y-95423448D01*
X50359814Y-95340186D01*
X50270516Y-95231375D01*
X50247222Y-95202991D01*
X50199449Y-95113615D01*
X50163557Y-95046467D01*
X50138092Y-94962518D01*
X50112037Y-94876627D01*
X50094641Y-94700000D01*
X50112037Y-94523373D01*
X50151351Y-94393773D01*
X50163557Y-94353533D01*
X50247221Y-94197011D01*
X50247222Y-94197009D01*
X50280418Y-94156560D01*
X50359814Y-94059814D01*
X50461271Y-93976552D01*
X50497009Y-93947222D01*
X50619834Y-93881570D01*
X50653533Y-93863557D01*
X50730789Y-93840122D01*
X50823373Y-93812037D01*
X50889557Y-93805519D01*
X50955740Y-93799000D01*
X51044260Y-93799000D01*
X51110443Y-93805519D01*
X51110443Y-93805519D01*
G37*
G36*
X56236560Y-93140166D02*
X56319933Y-93174700D01*
X56384153Y-93201301D01*
X56435835Y-93235834D01*
X56516985Y-93290057D01*
X56629943Y-93403015D01*
X56718700Y-93535849D01*
X56779834Y-93683440D01*
X56811000Y-93840122D01*
X56811000Y-93999878D01*
X56779834Y-94156560D01*
X56718700Y-94304151D01*
X56629943Y-94436985D01*
X56516985Y-94549943D01*
X56516982Y-94549945D01*
X56384153Y-94638699D01*
X56384152Y-94638700D01*
X56384151Y-94638700D01*
X56236560Y-94699834D01*
X56079878Y-94731000D01*
X55920122Y-94731000D01*
X55763440Y-94699834D01*
X55615849Y-94638700D01*
X55615848Y-94638700D01*
X55615847Y-94638699D01*
X55483018Y-94549945D01*
X55483015Y-94549943D01*
X55370057Y-94436985D01*
X55281300Y-94304151D01*
X55220166Y-94156560D01*
X55189000Y-93999878D01*
X55189000Y-93840122D01*
X55220166Y-93683440D01*
X55281300Y-93535849D01*
X55370057Y-93403015D01*
X55483015Y-93290057D01*
X55564165Y-93235834D01*
X55615847Y-93201301D01*
X55680068Y-93174700D01*
X55763440Y-93140166D01*
X55920122Y-93109000D01*
X56079878Y-93109000D01*
X56236560Y-93140166D01*
X56236560Y-93140166D01*
G37*
G36*
X73077135Y-91940778D02*
X73177866Y-91971335D01*
X73228233Y-91986613D01*
X73274649Y-92011423D01*
X73367483Y-92061044D01*
X73489538Y-92161212D01*
X73589706Y-92283267D01*
X73617819Y-92335863D01*
X73664137Y-92422517D01*
X73664137Y-92422518D01*
X73709972Y-92573615D01*
X73721570Y-92691375D01*
X73721570Y-93468625D01*
X73709972Y-93586385D01*
X73680531Y-93683440D01*
X73664137Y-93737483D01*
X73654002Y-93756443D01*
X73589706Y-93876733D01*
X73489538Y-93998788D01*
X73367482Y-94098956D01*
X73274648Y-94148577D01*
X73228232Y-94173387D01*
X73189948Y-94185000D01*
X73077134Y-94219222D01*
X72920000Y-94234698D01*
X72762865Y-94219222D01*
X72650051Y-94185000D01*
X72611767Y-94173387D01*
X72565351Y-94148577D01*
X72472517Y-94098956D01*
X72350462Y-93998788D01*
X72250294Y-93876732D01*
X72175864Y-93737483D01*
X72175863Y-93737482D01*
X72156236Y-93672779D01*
X72130028Y-93586384D01*
X72118430Y-93468624D01*
X72118430Y-92691375D01*
X72130028Y-92573615D01*
X72130028Y-92573614D01*
X72175863Y-92422520D01*
X72200663Y-92376123D01*
X72250295Y-92283267D01*
X72350463Y-92161212D01*
X72472518Y-92061044D01*
X72565352Y-92011423D01*
X72611768Y-91986613D01*
X72662135Y-91971335D01*
X72762866Y-91940778D01*
X72920000Y-91925302D01*
X73077135Y-91940778D01*
X73077135Y-91940778D01*
G37*
G36*
X83237135Y-91940778D02*
X83337866Y-91971335D01*
X83388233Y-91986613D01*
X83434649Y-92011423D01*
X83527483Y-92061044D01*
X83649538Y-92161212D01*
X83749706Y-92283267D01*
X83777819Y-92335863D01*
X83824137Y-92422517D01*
X83824137Y-92422518D01*
X83869972Y-92573615D01*
X83881570Y-92691375D01*
X83881570Y-93468625D01*
X83869972Y-93586385D01*
X83840531Y-93683440D01*
X83824137Y-93737483D01*
X83814002Y-93756443D01*
X83749706Y-93876733D01*
X83649538Y-93998788D01*
X83527482Y-94098956D01*
X83434648Y-94148577D01*
X83388232Y-94173387D01*
X83349948Y-94185000D01*
X83237134Y-94219222D01*
X83080000Y-94234698D01*
X82922865Y-94219222D01*
X82810051Y-94185000D01*
X82771767Y-94173387D01*
X82725351Y-94148577D01*
X82632517Y-94098956D01*
X82510462Y-93998788D01*
X82410294Y-93876732D01*
X82335864Y-93737483D01*
X82335863Y-93737482D01*
X82316236Y-93672779D01*
X82290028Y-93586384D01*
X82278430Y-93468624D01*
X82278430Y-92691375D01*
X82290028Y-92573615D01*
X82290028Y-92573614D01*
X82335863Y-92422520D01*
X82360663Y-92376123D01*
X82410295Y-92283267D01*
X82510463Y-92161212D01*
X82632518Y-92061044D01*
X82725352Y-92011423D01*
X82771768Y-91986613D01*
X82822135Y-91971335D01*
X82922866Y-91940778D01*
X83080000Y-91925302D01*
X83237135Y-91940778D01*
X83237135Y-91940778D01*
G37*
G36*
X80697135Y-91940778D02*
X80797866Y-91971335D01*
X80848233Y-91986613D01*
X80894649Y-92011423D01*
X80987483Y-92061044D01*
X81109538Y-92161212D01*
X81209706Y-92283267D01*
X81237819Y-92335863D01*
X81284137Y-92422517D01*
X81284137Y-92422518D01*
X81329972Y-92573615D01*
X81341570Y-92691375D01*
X81341570Y-93468625D01*
X81329972Y-93586385D01*
X81300531Y-93683440D01*
X81284137Y-93737483D01*
X81274002Y-93756443D01*
X81209706Y-93876733D01*
X81109538Y-93998788D01*
X80987482Y-94098956D01*
X80894648Y-94148577D01*
X80848232Y-94173387D01*
X80809948Y-94185000D01*
X80697134Y-94219222D01*
X80540000Y-94234698D01*
X80382865Y-94219222D01*
X80270051Y-94185000D01*
X80231767Y-94173387D01*
X80185351Y-94148577D01*
X80092517Y-94098956D01*
X79970462Y-93998788D01*
X79870294Y-93876732D01*
X79795864Y-93737483D01*
X79795863Y-93737482D01*
X79776236Y-93672779D01*
X79750028Y-93586384D01*
X79738430Y-93468624D01*
X79738430Y-92691375D01*
X79750028Y-92573615D01*
X79750028Y-92573614D01*
X79795863Y-92422520D01*
X79820663Y-92376123D01*
X79870295Y-92283267D01*
X79970463Y-92161212D01*
X80092518Y-92061044D01*
X80185352Y-92011423D01*
X80231768Y-91986613D01*
X80282135Y-91971335D01*
X80382866Y-91940778D01*
X80540000Y-91925302D01*
X80697135Y-91940778D01*
X80697135Y-91940778D01*
G37*
G36*
X70537135Y-91940778D02*
X70637866Y-91971335D01*
X70688233Y-91986613D01*
X70734649Y-92011423D01*
X70827483Y-92061044D01*
X70949538Y-92161212D01*
X71049706Y-92283267D01*
X71077819Y-92335863D01*
X71124137Y-92422517D01*
X71124137Y-92422518D01*
X71169972Y-92573615D01*
X71181570Y-92691375D01*
X71181570Y-93468625D01*
X71169972Y-93586385D01*
X71140531Y-93683440D01*
X71124137Y-93737483D01*
X71114002Y-93756443D01*
X71049706Y-93876733D01*
X70949538Y-93998788D01*
X70827482Y-94098956D01*
X70734648Y-94148577D01*
X70688232Y-94173387D01*
X70649948Y-94185000D01*
X70537134Y-94219222D01*
X70380000Y-94234698D01*
X70222865Y-94219222D01*
X70110051Y-94185000D01*
X70071767Y-94173387D01*
X70025351Y-94148577D01*
X69932517Y-94098956D01*
X69810462Y-93998788D01*
X69710294Y-93876732D01*
X69635864Y-93737483D01*
X69635863Y-93737482D01*
X69616236Y-93672779D01*
X69590028Y-93586384D01*
X69578430Y-93468624D01*
X69578430Y-92691375D01*
X69590028Y-92573615D01*
X69590028Y-92573614D01*
X69635863Y-92422520D01*
X69660663Y-92376123D01*
X69710295Y-92283267D01*
X69810463Y-92161212D01*
X69932518Y-92061044D01*
X70025352Y-92011423D01*
X70071768Y-91986613D01*
X70122135Y-91971335D01*
X70222866Y-91940778D01*
X70380000Y-91925302D01*
X70537135Y-91940778D01*
X70537135Y-91940778D01*
G37*
G36*
X64432688Y-92279815D02*
X64536385Y-92290028D01*
X64637116Y-92320585D01*
X64687483Y-92335863D01*
X64733899Y-92360673D01*
X64826733Y-92410294D01*
X64948788Y-92510462D01*
X65048956Y-92632517D01*
X65098577Y-92725351D01*
X65123387Y-92771767D01*
X65123387Y-92771768D01*
X65169222Y-92922865D01*
X65184698Y-93080000D01*
X65169222Y-93237135D01*
X65153169Y-93290055D01*
X65123387Y-93388233D01*
X65115484Y-93403018D01*
X65048956Y-93527483D01*
X64948788Y-93649538D01*
X64826733Y-93749706D01*
X64734510Y-93799000D01*
X64687483Y-93824137D01*
X64637116Y-93839415D01*
X64536385Y-93869972D01*
X64467737Y-93876733D01*
X64418626Y-93881570D01*
X63641374Y-93881570D01*
X63592263Y-93876733D01*
X63523615Y-93869972D01*
X63422884Y-93839415D01*
X63372517Y-93824137D01*
X63325490Y-93799000D01*
X63233267Y-93749706D01*
X63111212Y-93649538D01*
X63011044Y-93527483D01*
X62944516Y-93403018D01*
X62936613Y-93388233D01*
X62906831Y-93290055D01*
X62890778Y-93237135D01*
X62875302Y-93080000D01*
X62890778Y-92922865D01*
X62936613Y-92771768D01*
X62936613Y-92771767D01*
X62961423Y-92725351D01*
X63011044Y-92632517D01*
X63111212Y-92510462D01*
X63233267Y-92410294D01*
X63326101Y-92360673D01*
X63372517Y-92335863D01*
X63422884Y-92320585D01*
X63523615Y-92290028D01*
X63627312Y-92279815D01*
X63641374Y-92278430D01*
X64418626Y-92278430D01*
X64432688Y-92279815D01*
X64432688Y-92279815D01*
G37*
G36*
X139110443Y-92025519D02*
X139176627Y-92032037D01*
X139272250Y-92061044D01*
X139346467Y-92083557D01*
X139485087Y-92157652D01*
X139502991Y-92167222D01*
X139538729Y-92196552D01*
X139640186Y-92279814D01*
X139723448Y-92381271D01*
X139752778Y-92417009D01*
X139752779Y-92417011D01*
X139836443Y-92573533D01*
X139836468Y-92573615D01*
X139887963Y-92743373D01*
X139905359Y-92920000D01*
X139887963Y-93096627D01*
X139864280Y-93174699D01*
X139836443Y-93266467D01*
X139771357Y-93388232D01*
X139752778Y-93422991D01*
X139723448Y-93458729D01*
X139640186Y-93560186D01*
X139538729Y-93643448D01*
X139502991Y-93672778D01*
X139502989Y-93672779D01*
X139346467Y-93756443D01*
X139289853Y-93773616D01*
X139176627Y-93807963D01*
X139135262Y-93812037D01*
X139044260Y-93821000D01*
X138955740Y-93821000D01*
X138864738Y-93812037D01*
X138823373Y-93807963D01*
X138710147Y-93773616D01*
X138653533Y-93756443D01*
X138497011Y-93672779D01*
X138497009Y-93672778D01*
X138461271Y-93643448D01*
X138359814Y-93560186D01*
X138276552Y-93458729D01*
X138247222Y-93422991D01*
X138228643Y-93388232D01*
X138163557Y-93266467D01*
X138135720Y-93174699D01*
X138112037Y-93096627D01*
X138094641Y-92920000D01*
X138112037Y-92743373D01*
X138163532Y-92573615D01*
X138163557Y-92573533D01*
X138247221Y-92417011D01*
X138247222Y-92417009D01*
X138276552Y-92381271D01*
X138359814Y-92279814D01*
X138461271Y-92196552D01*
X138497009Y-92167222D01*
X138514913Y-92157652D01*
X138653533Y-92083557D01*
X138727750Y-92061044D01*
X138823373Y-92032037D01*
X138889557Y-92025519D01*
X138955740Y-92019000D01*
X139044260Y-92019000D01*
X139110443Y-92025519D01*
X139110443Y-92025519D01*
G37*
G36*
X131300560Y-91676166D02*
X131448153Y-91737301D01*
X131562242Y-91813533D01*
X131580985Y-91826057D01*
X131693943Y-91939015D01*
X131693945Y-91939018D01*
X131775481Y-92061044D01*
X131782700Y-92071849D01*
X131843834Y-92219440D01*
X131875000Y-92376122D01*
X131875000Y-92535878D01*
X131867493Y-92573617D01*
X131843834Y-92692560D01*
X131782699Y-92840153D01*
X131729347Y-92920000D01*
X131693943Y-92972985D01*
X131580985Y-93085943D01*
X131580982Y-93085945D01*
X131448153Y-93174699D01*
X131448152Y-93174700D01*
X131448151Y-93174700D01*
X131300560Y-93235834D01*
X131143878Y-93267000D01*
X130984122Y-93267000D01*
X130827440Y-93235834D01*
X130679849Y-93174700D01*
X130679848Y-93174700D01*
X130679847Y-93174699D01*
X130547018Y-93085945D01*
X130547015Y-93085943D01*
X130434057Y-92972985D01*
X130398653Y-92920000D01*
X130345301Y-92840153D01*
X130284166Y-92692560D01*
X130260507Y-92573617D01*
X130253000Y-92535878D01*
X130253000Y-92376122D01*
X130284166Y-92219440D01*
X130345300Y-92071849D01*
X130352520Y-92061044D01*
X130434055Y-91939018D01*
X130434057Y-91939015D01*
X130547015Y-91826057D01*
X130565758Y-91813533D01*
X130679847Y-91737301D01*
X130827440Y-91676166D01*
X130984122Y-91645000D01*
X131143878Y-91645000D01*
X131300560Y-91676166D01*
X131300560Y-91676166D01*
G37*
G36*
X51110442Y-91265518D02*
X51176627Y-91272037D01*
X51289853Y-91306384D01*
X51346467Y-91323557D01*
X51358468Y-91329972D01*
X51502991Y-91407222D01*
X51538729Y-91436552D01*
X51640186Y-91519814D01*
X51723448Y-91621271D01*
X51752778Y-91657009D01*
X51752779Y-91657011D01*
X51836443Y-91813533D01*
X51836443Y-91813534D01*
X51887963Y-91983373D01*
X51905359Y-92160000D01*
X51887963Y-92336627D01*
X51861908Y-92422518D01*
X51836443Y-92506467D01*
X51800551Y-92573615D01*
X51752778Y-92662991D01*
X51729484Y-92691375D01*
X51640186Y-92800186D01*
X51538729Y-92883448D01*
X51502991Y-92912778D01*
X51502989Y-92912779D01*
X51346467Y-92996443D01*
X51289853Y-93013616D01*
X51176627Y-93047963D01*
X51110442Y-93054482D01*
X51044260Y-93061000D01*
X50955740Y-93061000D01*
X50889558Y-93054482D01*
X50823373Y-93047963D01*
X50710147Y-93013616D01*
X50653533Y-92996443D01*
X50497011Y-92912779D01*
X50497009Y-92912778D01*
X50461271Y-92883448D01*
X50359814Y-92800186D01*
X50270516Y-92691375D01*
X50247222Y-92662991D01*
X50199449Y-92573615D01*
X50163557Y-92506467D01*
X50138092Y-92422518D01*
X50112037Y-92336627D01*
X50094641Y-92160000D01*
X50112037Y-91983373D01*
X50163557Y-91813534D01*
X50163557Y-91813533D01*
X50247221Y-91657011D01*
X50247222Y-91657009D01*
X50276552Y-91621271D01*
X50359814Y-91519814D01*
X50461271Y-91436552D01*
X50497009Y-91407222D01*
X50641532Y-91329972D01*
X50653533Y-91323557D01*
X50710147Y-91306384D01*
X50823373Y-91272037D01*
X50889558Y-91265518D01*
X50955740Y-91259000D01*
X51044260Y-91259000D01*
X51110442Y-91265518D01*
X51110442Y-91265518D01*
G37*
G36*
X56248228Y-90181703D02*
X56403100Y-90245853D01*
X56542481Y-90338985D01*
X56661015Y-90457519D01*
X56754147Y-90596900D01*
X56818297Y-90751772D01*
X56851000Y-90916184D01*
X56851000Y-91083816D01*
X56818297Y-91248228D01*
X56754147Y-91403100D01*
X56661015Y-91542481D01*
X56542481Y-91661015D01*
X56403100Y-91754147D01*
X56248228Y-91818297D01*
X56083816Y-91851000D01*
X55916184Y-91851000D01*
X55751772Y-91818297D01*
X55596900Y-91754147D01*
X55457519Y-91661015D01*
X55338985Y-91542481D01*
X55245853Y-91403100D01*
X55181703Y-91248228D01*
X55149000Y-91083816D01*
X55149000Y-90916184D01*
X55181703Y-90751772D01*
X55245853Y-90596900D01*
X55338985Y-90457519D01*
X55457519Y-90338985D01*
X55596900Y-90245853D01*
X55751772Y-90181703D01*
X55916184Y-90149000D01*
X56083816Y-90149000D01*
X56248228Y-90181703D01*
X56248228Y-90181703D01*
G37*
G36*
X60248228Y-90181703D02*
X60403100Y-90245853D01*
X60542481Y-90338985D01*
X60661015Y-90457519D01*
X60754147Y-90596900D01*
X60818297Y-90751772D01*
X60851000Y-90916184D01*
X60851000Y-91083816D01*
X60818297Y-91248228D01*
X60754147Y-91403100D01*
X60661015Y-91542481D01*
X60542481Y-91661015D01*
X60403100Y-91754147D01*
X60248228Y-91818297D01*
X60083816Y-91851000D01*
X59916184Y-91851000D01*
X59751772Y-91818297D01*
X59596900Y-91754147D01*
X59457519Y-91661015D01*
X59338985Y-91542481D01*
X59245853Y-91403100D01*
X59181703Y-91248228D01*
X59149000Y-91083816D01*
X59149000Y-90916184D01*
X59181703Y-90751772D01*
X59245853Y-90596900D01*
X59338985Y-90457519D01*
X59457519Y-90338985D01*
X59596900Y-90245853D01*
X59751772Y-90181703D01*
X59916184Y-90149000D01*
X60083816Y-90149000D01*
X60248228Y-90181703D01*
X60248228Y-90181703D01*
G37*
G36*
X64432688Y-89739815D02*
X64536385Y-89750028D01*
X64637116Y-89780585D01*
X64687483Y-89795863D01*
X64733899Y-89820673D01*
X64826733Y-89870294D01*
X64948788Y-89970462D01*
X65048956Y-90092517D01*
X65096627Y-90181703D01*
X65123387Y-90231767D01*
X65123387Y-90231768D01*
X65169222Y-90382865D01*
X65184698Y-90540000D01*
X65169222Y-90697135D01*
X65156617Y-90738688D01*
X65123387Y-90848233D01*
X65104809Y-90882989D01*
X65048956Y-90987483D01*
X64948788Y-91109538D01*
X64826733Y-91209706D01*
X64754663Y-91248228D01*
X64687483Y-91284137D01*
X64637116Y-91299415D01*
X64536385Y-91329972D01*
X64457878Y-91337704D01*
X64418626Y-91341570D01*
X63641374Y-91341570D01*
X63602122Y-91337704D01*
X63523615Y-91329972D01*
X63422884Y-91299415D01*
X63372517Y-91284137D01*
X63305337Y-91248228D01*
X63233267Y-91209706D01*
X63111212Y-91109538D01*
X63011044Y-90987483D01*
X62955191Y-90882989D01*
X62936613Y-90848233D01*
X62903383Y-90738688D01*
X62890778Y-90697135D01*
X62875302Y-90540000D01*
X62890778Y-90382865D01*
X62936613Y-90231768D01*
X62936613Y-90231767D01*
X62963373Y-90181703D01*
X63011044Y-90092517D01*
X63111212Y-89970462D01*
X63233267Y-89870294D01*
X63326101Y-89820673D01*
X63372517Y-89795863D01*
X63422884Y-89780585D01*
X63523615Y-89750028D01*
X63627312Y-89739815D01*
X63641374Y-89738430D01*
X64418626Y-89738430D01*
X64432688Y-89739815D01*
X64432688Y-89739815D01*
G37*
G36*
X139110442Y-89485518D02*
X139176627Y-89492037D01*
X139289853Y-89526384D01*
X139346467Y-89543557D01*
X139485087Y-89617652D01*
X139502991Y-89627222D01*
X139538729Y-89656552D01*
X139640186Y-89739814D01*
X139723448Y-89841271D01*
X139752778Y-89877009D01*
X139752779Y-89877011D01*
X139836443Y-90033533D01*
X139836443Y-90033534D01*
X139887963Y-90203373D01*
X139905359Y-90380000D01*
X139887963Y-90556627D01*
X139875746Y-90596900D01*
X139836443Y-90726467D01*
X139822917Y-90751772D01*
X139752778Y-90882991D01*
X139726958Y-90914453D01*
X139640186Y-91020186D01*
X139562651Y-91083816D01*
X139502991Y-91132778D01*
X139502989Y-91132779D01*
X139346467Y-91216443D01*
X139289853Y-91233616D01*
X139176627Y-91267963D01*
X139135262Y-91272037D01*
X139044260Y-91281000D01*
X138955740Y-91281000D01*
X138864738Y-91272037D01*
X138823373Y-91267963D01*
X138710147Y-91233616D01*
X138653533Y-91216443D01*
X138497011Y-91132779D01*
X138497009Y-91132778D01*
X138437349Y-91083816D01*
X138359814Y-91020186D01*
X138273042Y-90914453D01*
X138247222Y-90882991D01*
X138177083Y-90751772D01*
X138163557Y-90726467D01*
X138124254Y-90596900D01*
X138112037Y-90556627D01*
X138094641Y-90380000D01*
X138112037Y-90203373D01*
X138163557Y-90033534D01*
X138163557Y-90033533D01*
X138247221Y-89877011D01*
X138247222Y-89877009D01*
X138276552Y-89841271D01*
X138359814Y-89739814D01*
X138461271Y-89656552D01*
X138497009Y-89627222D01*
X138514913Y-89617652D01*
X138653533Y-89543557D01*
X138710147Y-89526384D01*
X138823373Y-89492037D01*
X138889558Y-89485518D01*
X138955740Y-89479000D01*
X139044260Y-89479000D01*
X139110442Y-89485518D01*
X139110442Y-89485518D01*
G37*
G36*
X119527396Y-89085546D02*
X119700466Y-89157234D01*
X119856230Y-89261312D01*
X119988688Y-89393770D01*
X120092766Y-89549534D01*
X120164454Y-89722604D01*
X120201000Y-89906333D01*
X120201000Y-90093667D01*
X120164454Y-90277396D01*
X120092766Y-90450466D01*
X119988688Y-90606230D01*
X119856230Y-90738688D01*
X119700466Y-90842766D01*
X119527396Y-90914454D01*
X119343667Y-90951000D01*
X119156333Y-90951000D01*
X118972604Y-90914454D01*
X118799534Y-90842766D01*
X118643770Y-90738688D01*
X118511312Y-90606230D01*
X118407234Y-90450466D01*
X118335546Y-90277396D01*
X118299000Y-90093667D01*
X118299000Y-89906333D01*
X118335546Y-89722604D01*
X118407234Y-89549534D01*
X118511312Y-89393770D01*
X118643770Y-89261312D01*
X118799534Y-89157234D01*
X118972604Y-89085546D01*
X119156333Y-89049000D01*
X119343667Y-89049000D01*
X119527396Y-89085546D01*
X119527396Y-89085546D01*
G37*
G36*
X105027396Y-89085546D02*
X105200466Y-89157234D01*
X105356230Y-89261312D01*
X105488688Y-89393770D01*
X105592766Y-89549534D01*
X105664454Y-89722604D01*
X105701000Y-89906333D01*
X105701000Y-90093667D01*
X105664454Y-90277396D01*
X105592766Y-90450466D01*
X105488688Y-90606230D01*
X105356230Y-90738688D01*
X105200466Y-90842766D01*
X105027396Y-90914454D01*
X104843667Y-90951000D01*
X104656333Y-90951000D01*
X104472604Y-90914454D01*
X104299534Y-90842766D01*
X104143770Y-90738688D01*
X104011312Y-90606230D01*
X103907234Y-90450466D01*
X103835546Y-90277396D01*
X103799000Y-90093667D01*
X103799000Y-89906333D01*
X103835546Y-89722604D01*
X103907234Y-89549534D01*
X104011312Y-89393770D01*
X104143770Y-89261312D01*
X104299534Y-89157234D01*
X104472604Y-89085546D01*
X104656333Y-89049000D01*
X104843667Y-89049000D01*
X105027396Y-89085546D01*
X105027396Y-89085546D01*
G37*
G36*
X131875000Y-90727000D02*
X130253000Y-90727000D01*
X130253000Y-89105000D01*
X131875000Y-89105000D01*
X131875000Y-90727000D01*
X131875000Y-90727000D01*
G37*
G36*
X51110442Y-88725518D02*
X51176627Y-88732037D01*
X51289853Y-88766384D01*
X51346467Y-88783557D01*
X51449606Y-88838687D01*
X51502991Y-88867222D01*
X51538729Y-88896552D01*
X51640186Y-88979814D01*
X51723448Y-89081271D01*
X51752778Y-89117009D01*
X51752779Y-89117011D01*
X51836443Y-89273533D01*
X51836443Y-89273534D01*
X51887963Y-89443373D01*
X51905359Y-89620000D01*
X51887963Y-89796627D01*
X51853616Y-89909853D01*
X51836443Y-89966467D01*
X51800595Y-90033533D01*
X51752778Y-90122991D01*
X51731433Y-90149000D01*
X51640186Y-90260186D01*
X51544168Y-90338985D01*
X51502991Y-90372778D01*
X51502989Y-90372779D01*
X51346467Y-90456443D01*
X51289853Y-90473616D01*
X51176627Y-90507963D01*
X51110443Y-90514481D01*
X51044260Y-90521000D01*
X50955740Y-90521000D01*
X50889557Y-90514481D01*
X50823373Y-90507963D01*
X50710147Y-90473616D01*
X50653533Y-90456443D01*
X50497011Y-90372779D01*
X50497009Y-90372778D01*
X50455832Y-90338985D01*
X50359814Y-90260186D01*
X50268567Y-90149000D01*
X50247222Y-90122991D01*
X50199405Y-90033533D01*
X50163557Y-89966467D01*
X50146384Y-89909853D01*
X50112037Y-89796627D01*
X50094641Y-89620000D01*
X50112037Y-89443373D01*
X50163557Y-89273534D01*
X50163557Y-89273533D01*
X50247221Y-89117011D01*
X50247222Y-89117009D01*
X50276552Y-89081271D01*
X50359814Y-88979814D01*
X50461271Y-88896552D01*
X50497009Y-88867222D01*
X50550394Y-88838687D01*
X50653533Y-88783557D01*
X50710147Y-88766384D01*
X50823373Y-88732037D01*
X50889558Y-88725518D01*
X50955740Y-88719000D01*
X51044260Y-88719000D01*
X51110442Y-88725518D01*
X51110442Y-88725518D01*
G37*
G36*
X67812228Y-87573703D02*
X67967100Y-87637853D01*
X68106481Y-87730985D01*
X68225015Y-87849519D01*
X68318147Y-87988900D01*
X68382297Y-88143772D01*
X68415000Y-88308184D01*
X68415000Y-88475816D01*
X68382297Y-88640228D01*
X68318147Y-88795100D01*
X68225015Y-88934481D01*
X68106481Y-89053015D01*
X67967100Y-89146147D01*
X67812228Y-89210297D01*
X67647816Y-89243000D01*
X67480184Y-89243000D01*
X67315772Y-89210297D01*
X67160900Y-89146147D01*
X67021519Y-89053015D01*
X66902985Y-88934481D01*
X66809853Y-88795100D01*
X66745703Y-88640228D01*
X66713000Y-88475816D01*
X66713000Y-88308184D01*
X66745703Y-88143772D01*
X66809853Y-87988900D01*
X66902985Y-87849519D01*
X67021519Y-87730985D01*
X67160900Y-87637853D01*
X67315772Y-87573703D01*
X67480184Y-87541000D01*
X67647816Y-87541000D01*
X67812228Y-87573703D01*
X67812228Y-87573703D01*
G37*
G36*
X77890821Y-87553313D02*
X77890824Y-87553314D01*
X77890825Y-87553314D01*
X78051239Y-87601975D01*
X78051241Y-87601976D01*
X78051244Y-87601977D01*
X78199078Y-87680995D01*
X78328659Y-87787341D01*
X78435005Y-87916922D01*
X78514023Y-88064756D01*
X78514024Y-88064759D01*
X78514025Y-88064761D01*
X78550944Y-88186467D01*
X78562687Y-88225179D01*
X78579117Y-88392000D01*
X78562687Y-88558821D01*
X78562686Y-88558824D01*
X78562686Y-88558825D01*
X78516523Y-88711005D01*
X78514023Y-88719244D01*
X78435005Y-88867078D01*
X78328659Y-88996659D01*
X78199078Y-89103005D01*
X78051244Y-89182023D01*
X78051241Y-89182024D01*
X78051239Y-89182025D01*
X77890825Y-89230686D01*
X77890824Y-89230686D01*
X77890821Y-89230687D01*
X77765804Y-89243000D01*
X77682196Y-89243000D01*
X77557179Y-89230687D01*
X77557176Y-89230686D01*
X77557175Y-89230686D01*
X77396761Y-89182025D01*
X77396759Y-89182024D01*
X77396756Y-89182023D01*
X77248922Y-89103005D01*
X77119341Y-88996659D01*
X77012995Y-88867078D01*
X76933977Y-88719244D01*
X76931478Y-88711005D01*
X76885314Y-88558825D01*
X76885314Y-88558824D01*
X76885313Y-88558821D01*
X76868883Y-88392000D01*
X76885313Y-88225179D01*
X76897056Y-88186467D01*
X76933975Y-88064761D01*
X76933976Y-88064759D01*
X76933977Y-88064756D01*
X77012995Y-87916922D01*
X77119341Y-87787341D01*
X77248922Y-87680995D01*
X77396756Y-87601977D01*
X77396759Y-87601976D01*
X77396761Y-87601975D01*
X77557175Y-87553314D01*
X77557176Y-87553314D01*
X77557179Y-87553313D01*
X77682196Y-87541000D01*
X77765804Y-87541000D01*
X77890821Y-87553313D01*
X77890821Y-87553313D01*
G37*
G36*
X93248228Y-87181703D02*
X93403100Y-87245853D01*
X93542481Y-87338985D01*
X93661015Y-87457519D01*
X93754147Y-87596900D01*
X93818297Y-87751772D01*
X93851000Y-87916184D01*
X93851000Y-88083816D01*
X93818297Y-88248228D01*
X93754147Y-88403100D01*
X93661015Y-88542481D01*
X93542481Y-88661015D01*
X93403100Y-88754147D01*
X93248228Y-88818297D01*
X93083816Y-88851000D01*
X92916184Y-88851000D01*
X92751772Y-88818297D01*
X92596900Y-88754147D01*
X92457519Y-88661015D01*
X92338985Y-88542481D01*
X92245853Y-88403100D01*
X92181703Y-88248228D01*
X92149000Y-88083816D01*
X92149000Y-87916184D01*
X92181703Y-87751772D01*
X92245853Y-87596900D01*
X92338985Y-87457519D01*
X92457519Y-87338985D01*
X92596900Y-87245853D01*
X92751772Y-87181703D01*
X92916184Y-87149000D01*
X93083816Y-87149000D01*
X93248228Y-87181703D01*
X93248228Y-87181703D01*
G37*
G36*
X83006821Y-87161313D02*
X83006824Y-87161314D01*
X83006825Y-87161314D01*
X83167239Y-87209975D01*
X83167241Y-87209976D01*
X83167244Y-87209977D01*
X83315078Y-87288995D01*
X83444659Y-87395341D01*
X83551005Y-87524922D01*
X83630023Y-87672756D01*
X83630024Y-87672759D01*
X83630025Y-87672761D01*
X83678566Y-87832779D01*
X83678687Y-87833179D01*
X83695117Y-88000000D01*
X83678687Y-88166821D01*
X83678686Y-88166824D01*
X83678686Y-88166825D01*
X83635791Y-88308232D01*
X83630023Y-88327244D01*
X83551005Y-88475078D01*
X83444659Y-88604659D01*
X83315078Y-88711005D01*
X83167244Y-88790023D01*
X83167241Y-88790024D01*
X83167239Y-88790025D01*
X83006825Y-88838686D01*
X83006824Y-88838686D01*
X83006821Y-88838687D01*
X82881804Y-88851000D01*
X82798196Y-88851000D01*
X82673179Y-88838687D01*
X82673176Y-88838686D01*
X82673175Y-88838686D01*
X82512761Y-88790025D01*
X82512759Y-88790024D01*
X82512756Y-88790023D01*
X82364922Y-88711005D01*
X82235341Y-88604659D01*
X82128995Y-88475078D01*
X82049977Y-88327244D01*
X82044210Y-88308232D01*
X82001314Y-88166825D01*
X82001314Y-88166824D01*
X82001313Y-88166821D01*
X81984883Y-88000000D01*
X82001313Y-87833179D01*
X82001434Y-87832779D01*
X82049975Y-87672761D01*
X82049976Y-87672759D01*
X82049977Y-87672756D01*
X82128995Y-87524922D01*
X82235341Y-87395341D01*
X82364922Y-87288995D01*
X82512756Y-87209977D01*
X82512759Y-87209976D01*
X82512761Y-87209975D01*
X82673175Y-87161314D01*
X82673176Y-87161314D01*
X82673179Y-87161313D01*
X82798196Y-87149000D01*
X82881804Y-87149000D01*
X83006821Y-87161313D01*
X83006821Y-87161313D01*
G37*
G36*
X64432688Y-87199815D02*
X64536385Y-87210028D01*
X64637116Y-87240585D01*
X64687483Y-87255863D01*
X64727768Y-87277396D01*
X64826733Y-87330294D01*
X64948788Y-87430462D01*
X65048956Y-87552517D01*
X65077666Y-87606230D01*
X65123387Y-87691767D01*
X65123387Y-87691768D01*
X65169222Y-87842865D01*
X65184698Y-88000000D01*
X65169222Y-88157135D01*
X65160324Y-88186466D01*
X65123387Y-88308233D01*
X65113228Y-88327239D01*
X65048956Y-88447483D01*
X64948788Y-88569538D01*
X64826733Y-88669706D01*
X64734510Y-88719000D01*
X64687483Y-88744137D01*
X64654487Y-88754146D01*
X64536385Y-88789972D01*
X64457878Y-88797704D01*
X64418626Y-88801570D01*
X63641374Y-88801570D01*
X63602122Y-88797704D01*
X63523615Y-88789972D01*
X63405513Y-88754146D01*
X63372517Y-88744137D01*
X63325490Y-88719000D01*
X63233267Y-88669706D01*
X63111212Y-88569538D01*
X63011044Y-88447483D01*
X62946772Y-88327239D01*
X62936613Y-88308233D01*
X62899676Y-88186466D01*
X62890778Y-88157135D01*
X62875302Y-88000000D01*
X62890778Y-87842865D01*
X62936613Y-87691768D01*
X62936613Y-87691767D01*
X62982334Y-87606230D01*
X63011044Y-87552517D01*
X63111212Y-87430462D01*
X63233267Y-87330294D01*
X63332232Y-87277396D01*
X63372517Y-87255863D01*
X63422884Y-87240585D01*
X63523615Y-87210028D01*
X63627312Y-87199815D01*
X63641374Y-87198430D01*
X64418626Y-87198430D01*
X64432688Y-87199815D01*
X64432688Y-87199815D01*
G37*
G36*
X139110443Y-86945519D02*
X139176627Y-86952037D01*
X139289853Y-86986384D01*
X139346467Y-87003557D01*
X139485087Y-87077652D01*
X139502991Y-87087222D01*
X139510844Y-87093667D01*
X139640186Y-87199814D01*
X139723448Y-87301271D01*
X139752778Y-87337009D01*
X139752779Y-87337011D01*
X139836443Y-87493533D01*
X139850842Y-87541000D01*
X139887963Y-87663373D01*
X139905359Y-87840000D01*
X139887963Y-88016627D01*
X139867581Y-88083816D01*
X139836443Y-88186467D01*
X139771383Y-88308184D01*
X139752778Y-88342991D01*
X139723448Y-88378729D01*
X139640186Y-88480186D01*
X139544363Y-88558825D01*
X139502991Y-88592778D01*
X139502989Y-88592779D01*
X139346467Y-88676443D01*
X139289853Y-88693616D01*
X139176627Y-88727963D01*
X139135262Y-88732037D01*
X139044260Y-88741000D01*
X138955740Y-88741000D01*
X138864738Y-88732037D01*
X138823373Y-88727963D01*
X138710147Y-88693616D01*
X138653533Y-88676443D01*
X138497011Y-88592779D01*
X138497009Y-88592778D01*
X138455637Y-88558825D01*
X138359814Y-88480186D01*
X138276552Y-88378729D01*
X138247222Y-88342991D01*
X138228617Y-88308184D01*
X138163557Y-88186467D01*
X138132419Y-88083816D01*
X138112037Y-88016627D01*
X138094641Y-87840000D01*
X138112037Y-87663373D01*
X138149158Y-87541000D01*
X138163557Y-87493533D01*
X138247221Y-87337011D01*
X138247222Y-87337009D01*
X138276552Y-87301271D01*
X138359814Y-87199814D01*
X138489156Y-87093667D01*
X138497009Y-87087222D01*
X138514913Y-87077652D01*
X138653533Y-87003557D01*
X138710147Y-86986384D01*
X138823373Y-86952037D01*
X138889557Y-86945519D01*
X138955740Y-86939000D01*
X139044260Y-86939000D01*
X139110443Y-86945519D01*
X139110443Y-86945519D01*
G37*
G36*
X51110442Y-86185518D02*
X51176627Y-86192037D01*
X51289853Y-86226384D01*
X51346467Y-86243557D01*
X51406590Y-86275694D01*
X51502991Y-86327222D01*
X51531964Y-86351000D01*
X51640186Y-86439814D01*
X51723448Y-86541271D01*
X51752778Y-86577009D01*
X51752779Y-86577011D01*
X51836443Y-86733533D01*
X51836443Y-86733534D01*
X51887963Y-86903373D01*
X51905359Y-87080000D01*
X51887963Y-87256627D01*
X51878144Y-87288995D01*
X51836443Y-87426467D01*
X51819845Y-87457519D01*
X51752778Y-87582991D01*
X51733706Y-87606230D01*
X51640186Y-87720186D01*
X51558356Y-87787341D01*
X51502991Y-87832778D01*
X51502989Y-87832779D01*
X51346467Y-87916443D01*
X51289853Y-87933616D01*
X51176627Y-87967963D01*
X51110443Y-87974481D01*
X51044260Y-87981000D01*
X50955740Y-87981000D01*
X50889557Y-87974481D01*
X50823373Y-87967963D01*
X50710147Y-87933616D01*
X50653533Y-87916443D01*
X50497011Y-87832779D01*
X50497009Y-87832778D01*
X50441644Y-87787341D01*
X50359814Y-87720186D01*
X50266294Y-87606230D01*
X50247222Y-87582991D01*
X50180155Y-87457519D01*
X50163557Y-87426467D01*
X50121856Y-87288995D01*
X50112037Y-87256627D01*
X50094641Y-87080000D01*
X50112037Y-86903373D01*
X50163557Y-86733534D01*
X50163557Y-86733533D01*
X50247221Y-86577011D01*
X50247222Y-86577009D01*
X50276552Y-86541271D01*
X50359814Y-86439814D01*
X50468036Y-86351000D01*
X50497009Y-86327222D01*
X50593410Y-86275694D01*
X50653533Y-86243557D01*
X50710147Y-86226384D01*
X50823373Y-86192037D01*
X50889558Y-86185518D01*
X50955740Y-86179000D01*
X51044260Y-86179000D01*
X51110442Y-86185518D01*
X51110442Y-86185518D01*
G37*
G36*
X119527396Y-86085546D02*
X119700466Y-86157234D01*
X119856230Y-86261312D01*
X119988688Y-86393770D01*
X120092766Y-86549534D01*
X120164454Y-86722604D01*
X120201000Y-86906333D01*
X120201000Y-87093667D01*
X120164454Y-87277396D01*
X120092766Y-87450466D01*
X119988688Y-87606230D01*
X119856230Y-87738688D01*
X119700466Y-87842766D01*
X119527396Y-87914454D01*
X119343667Y-87951000D01*
X119156333Y-87951000D01*
X118972604Y-87914454D01*
X118799534Y-87842766D01*
X118643770Y-87738688D01*
X118511312Y-87606230D01*
X118407234Y-87450466D01*
X118335546Y-87277396D01*
X118299000Y-87093667D01*
X118299000Y-86906333D01*
X118335546Y-86722604D01*
X118407234Y-86549534D01*
X118511312Y-86393770D01*
X118643770Y-86261312D01*
X118799534Y-86157234D01*
X118972604Y-86085546D01*
X119156333Y-86049000D01*
X119343667Y-86049000D01*
X119527396Y-86085546D01*
X119527396Y-86085546D01*
G37*
G36*
X105027396Y-86085546D02*
X105200466Y-86157234D01*
X105356230Y-86261312D01*
X105488688Y-86393770D01*
X105592766Y-86549534D01*
X105664454Y-86722604D01*
X105701000Y-86906333D01*
X105701000Y-87093667D01*
X105664454Y-87277396D01*
X105592766Y-87450466D01*
X105488688Y-87606230D01*
X105356230Y-87738688D01*
X105200466Y-87842766D01*
X105027396Y-87914454D01*
X104843667Y-87951000D01*
X104656333Y-87951000D01*
X104472604Y-87914454D01*
X104299534Y-87842766D01*
X104143770Y-87738688D01*
X104011312Y-87606230D01*
X103907234Y-87450466D01*
X103835546Y-87277396D01*
X103799000Y-87093667D01*
X103799000Y-86906333D01*
X103835546Y-86722604D01*
X103907234Y-86549534D01*
X104011312Y-86393770D01*
X104143770Y-86261312D01*
X104299534Y-86157234D01*
X104472604Y-86085546D01*
X104656333Y-86049000D01*
X104843667Y-86049000D01*
X105027396Y-86085546D01*
X105027396Y-86085546D01*
G37*
G36*
X132746031Y-83664207D02*
X132944145Y-83724305D01*
X133126729Y-83821897D01*
X133286765Y-83953235D01*
X133286766Y-83953237D01*
X133286768Y-83953238D01*
X133355518Y-84037011D01*
X133418103Y-84113271D01*
X133515695Y-84295854D01*
X133575793Y-84493968D01*
X133591000Y-84648370D01*
X133591000Y-85351629D01*
X133575793Y-85506031D01*
X133545874Y-85604659D01*
X133515695Y-85704147D01*
X133488969Y-85754147D01*
X133418103Y-85886729D01*
X133286765Y-86046765D01*
X133126729Y-86178103D01*
X132944146Y-86275695D01*
X132746032Y-86335793D01*
X132540000Y-86356085D01*
X132333969Y-86335793D01*
X132135855Y-86275695D01*
X131953272Y-86178103D01*
X131793236Y-86046765D01*
X131705768Y-85940185D01*
X131661899Y-85886731D01*
X131564306Y-85704148D01*
X131534126Y-85604659D01*
X131504207Y-85506032D01*
X131489000Y-85351630D01*
X131489000Y-84648371D01*
X131504207Y-84493969D01*
X131564305Y-84295855D01*
X131661897Y-84113271D01*
X131793235Y-83953235D01*
X131793237Y-83953234D01*
X131793238Y-83953232D01*
X131953269Y-83821899D01*
X131953271Y-83821897D01*
X132135854Y-83724305D01*
X132333968Y-83664207D01*
X132540000Y-83643915D01*
X132746031Y-83664207D01*
X132746031Y-83664207D01*
G37*
G36*
X131051000Y-86351000D02*
X128949000Y-86351000D01*
X128949000Y-83649000D01*
X131051000Y-83649000D01*
X131051000Y-86351000D01*
X131051000Y-86351000D01*
G37*
G36*
X139110442Y-84405518D02*
X139176627Y-84412037D01*
X139289853Y-84446384D01*
X139346467Y-84463557D01*
X139403370Y-84493973D01*
X139502991Y-84547222D01*
X139538729Y-84576552D01*
X139640186Y-84659814D01*
X139715653Y-84751772D01*
X139752778Y-84797009D01*
X139752779Y-84797011D01*
X139836443Y-84953533D01*
X139836443Y-84953534D01*
X139887963Y-85123373D01*
X139905359Y-85300000D01*
X139887963Y-85476627D01*
X139879044Y-85506028D01*
X139836443Y-85646467D01*
X139778886Y-85754147D01*
X139752778Y-85802991D01*
X139723484Y-85838686D01*
X139640186Y-85940186D01*
X139538729Y-86023448D01*
X139502991Y-86052778D01*
X139502989Y-86052779D01*
X139346467Y-86136443D01*
X139289853Y-86153616D01*
X139176627Y-86187963D01*
X139135262Y-86192037D01*
X139044260Y-86201000D01*
X138955740Y-86201000D01*
X138864738Y-86192037D01*
X138823373Y-86187963D01*
X138710147Y-86153616D01*
X138653533Y-86136443D01*
X138497011Y-86052779D01*
X138497009Y-86052778D01*
X138461271Y-86023448D01*
X138359814Y-85940186D01*
X138276516Y-85838686D01*
X138247222Y-85802991D01*
X138221114Y-85754147D01*
X138163557Y-85646467D01*
X138120956Y-85506028D01*
X138112037Y-85476627D01*
X138094641Y-85300000D01*
X138112037Y-85123373D01*
X138163557Y-84953534D01*
X138163557Y-84953533D01*
X138247221Y-84797011D01*
X138247222Y-84797009D01*
X138284347Y-84751772D01*
X138359814Y-84659814D01*
X138461271Y-84576552D01*
X138497009Y-84547222D01*
X138596630Y-84493973D01*
X138653533Y-84463557D01*
X138710147Y-84446384D01*
X138823373Y-84412037D01*
X138889558Y-84405518D01*
X138955740Y-84399000D01*
X139044260Y-84399000D01*
X139110442Y-84405518D01*
X139110442Y-84405518D01*
G37*
G36*
X91248228Y-84181703D02*
X91403100Y-84245853D01*
X91542481Y-84338985D01*
X91661015Y-84457519D01*
X91754147Y-84596900D01*
X91818297Y-84751772D01*
X91851000Y-84916184D01*
X91851000Y-85083816D01*
X91818297Y-85248228D01*
X91754147Y-85403100D01*
X91661015Y-85542481D01*
X91542481Y-85661015D01*
X91403100Y-85754147D01*
X91248228Y-85818297D01*
X91083816Y-85851000D01*
X90916184Y-85851000D01*
X90751772Y-85818297D01*
X90596900Y-85754147D01*
X90457519Y-85661015D01*
X90338985Y-85542481D01*
X90245853Y-85403100D01*
X90181703Y-85248228D01*
X90149000Y-85083816D01*
X90149000Y-84916184D01*
X90181703Y-84751772D01*
X90245853Y-84596900D01*
X90338985Y-84457519D01*
X90457519Y-84338985D01*
X90596900Y-84245853D01*
X90751772Y-84181703D01*
X90916184Y-84149000D01*
X91083816Y-84149000D01*
X91248228Y-84181703D01*
X91248228Y-84181703D01*
G37*
G36*
X81006821Y-84161313D02*
X81006824Y-84161314D01*
X81006825Y-84161314D01*
X81167239Y-84209975D01*
X81167241Y-84209976D01*
X81167244Y-84209977D01*
X81315078Y-84288995D01*
X81444659Y-84395341D01*
X81551005Y-84524922D01*
X81630023Y-84672756D01*
X81630024Y-84672759D01*
X81630025Y-84672761D01*
X81667715Y-84797009D01*
X81678687Y-84833179D01*
X81695117Y-85000000D01*
X81678687Y-85166821D01*
X81678686Y-85166824D01*
X81678686Y-85166825D01*
X81638288Y-85300000D01*
X81630023Y-85327244D01*
X81551005Y-85475078D01*
X81444659Y-85604659D01*
X81315078Y-85711005D01*
X81167244Y-85790023D01*
X81167241Y-85790024D01*
X81167239Y-85790025D01*
X81006825Y-85838686D01*
X81006824Y-85838686D01*
X81006821Y-85838687D01*
X80881804Y-85851000D01*
X80798196Y-85851000D01*
X80673179Y-85838687D01*
X80673176Y-85838686D01*
X80673175Y-85838686D01*
X80512761Y-85790025D01*
X80512759Y-85790024D01*
X80512756Y-85790023D01*
X80364922Y-85711005D01*
X80235341Y-85604659D01*
X80128995Y-85475078D01*
X80049977Y-85327244D01*
X80041713Y-85300000D01*
X80001314Y-85166825D01*
X80001314Y-85166824D01*
X80001313Y-85166821D01*
X79984883Y-85000000D01*
X80001313Y-84833179D01*
X80012285Y-84797009D01*
X80049975Y-84672761D01*
X80049976Y-84672759D01*
X80049977Y-84672756D01*
X80128995Y-84524922D01*
X80235341Y-84395341D01*
X80364922Y-84288995D01*
X80512756Y-84209977D01*
X80512759Y-84209976D01*
X80512761Y-84209975D01*
X80673175Y-84161314D01*
X80673176Y-84161314D01*
X80673179Y-84161313D01*
X80798196Y-84149000D01*
X80881804Y-84149000D01*
X81006821Y-84161313D01*
X81006821Y-84161313D01*
G37*
G36*
X74326821Y-84161313D02*
X74326824Y-84161314D01*
X74326825Y-84161314D01*
X74487239Y-84209975D01*
X74487241Y-84209976D01*
X74487244Y-84209977D01*
X74635078Y-84288995D01*
X74764659Y-84395341D01*
X74871005Y-84524922D01*
X74950023Y-84672756D01*
X74950024Y-84672759D01*
X74950025Y-84672761D01*
X74987715Y-84797009D01*
X74998687Y-84833179D01*
X75015117Y-85000000D01*
X74998687Y-85166821D01*
X74998686Y-85166824D01*
X74998686Y-85166825D01*
X74958288Y-85300000D01*
X74950023Y-85327244D01*
X74871005Y-85475078D01*
X74764659Y-85604659D01*
X74635078Y-85711005D01*
X74487244Y-85790023D01*
X74487241Y-85790024D01*
X74487239Y-85790025D01*
X74326825Y-85838686D01*
X74326824Y-85838686D01*
X74326821Y-85838687D01*
X74201804Y-85851000D01*
X74118196Y-85851000D01*
X73993179Y-85838687D01*
X73993176Y-85838686D01*
X73993175Y-85838686D01*
X73832761Y-85790025D01*
X73832759Y-85790024D01*
X73832756Y-85790023D01*
X73684922Y-85711005D01*
X73555341Y-85604659D01*
X73448995Y-85475078D01*
X73369977Y-85327244D01*
X73361713Y-85300000D01*
X73321314Y-85166825D01*
X73321314Y-85166824D01*
X73321313Y-85166821D01*
X73304883Y-85000000D01*
X73321313Y-84833179D01*
X73332285Y-84797009D01*
X73369975Y-84672761D01*
X73369976Y-84672759D01*
X73369977Y-84672756D01*
X73448995Y-84524922D01*
X73555341Y-84395341D01*
X73684922Y-84288995D01*
X73832756Y-84209977D01*
X73832759Y-84209976D01*
X73832761Y-84209975D01*
X73993175Y-84161314D01*
X73993176Y-84161314D01*
X73993179Y-84161313D01*
X74118196Y-84149000D01*
X74201804Y-84149000D01*
X74326821Y-84161313D01*
X74326821Y-84161313D01*
G37*
G36*
X64248228Y-84181703D02*
X64403100Y-84245853D01*
X64542481Y-84338985D01*
X64661015Y-84457519D01*
X64754147Y-84596900D01*
X64818297Y-84751772D01*
X64851000Y-84916184D01*
X64851000Y-85083816D01*
X64818297Y-85248228D01*
X64754147Y-85403100D01*
X64661015Y-85542481D01*
X64542481Y-85661015D01*
X64403100Y-85754147D01*
X64248228Y-85818297D01*
X64083816Y-85851000D01*
X63916184Y-85851000D01*
X63751772Y-85818297D01*
X63596900Y-85754147D01*
X63457519Y-85661015D01*
X63338985Y-85542481D01*
X63245853Y-85403100D01*
X63181703Y-85248228D01*
X63149000Y-85083816D01*
X63149000Y-84916184D01*
X63181703Y-84751772D01*
X63245853Y-84596900D01*
X63338985Y-84457519D01*
X63457519Y-84338985D01*
X63596900Y-84245853D01*
X63751772Y-84181703D01*
X63916184Y-84149000D01*
X64083816Y-84149000D01*
X64248228Y-84181703D01*
X64248228Y-84181703D01*
G37*
G36*
X51094162Y-83643915D02*
X51176627Y-83652037D01*
X51289853Y-83686384D01*
X51346467Y-83703557D01*
X51485087Y-83777652D01*
X51502991Y-83787222D01*
X51538729Y-83816552D01*
X51640186Y-83899814D01*
X51723448Y-84001271D01*
X51752778Y-84037009D01*
X51752779Y-84037011D01*
X51836443Y-84193533D01*
X51841431Y-84209977D01*
X51887963Y-84363373D01*
X51905359Y-84540000D01*
X51887963Y-84716627D01*
X51863579Y-84797009D01*
X51836443Y-84886467D01*
X51800595Y-84953533D01*
X51752778Y-85042991D01*
X51723448Y-85078729D01*
X51640186Y-85180186D01*
X51557275Y-85248228D01*
X51502991Y-85292778D01*
X51502989Y-85292779D01*
X51346467Y-85376443D01*
X51289853Y-85393616D01*
X51176627Y-85427963D01*
X51110442Y-85434482D01*
X51044260Y-85441000D01*
X50955740Y-85441000D01*
X50889558Y-85434482D01*
X50823373Y-85427963D01*
X50710147Y-85393616D01*
X50653533Y-85376443D01*
X50497011Y-85292779D01*
X50497009Y-85292778D01*
X50442725Y-85248228D01*
X50359814Y-85180186D01*
X50276552Y-85078729D01*
X50247222Y-85042991D01*
X50199405Y-84953533D01*
X50163557Y-84886467D01*
X50136421Y-84797009D01*
X50112037Y-84716627D01*
X50094641Y-84540000D01*
X50112037Y-84363373D01*
X50158569Y-84209977D01*
X50163557Y-84193533D01*
X50247221Y-84037011D01*
X50247222Y-84037009D01*
X50276552Y-84001271D01*
X50359814Y-83899814D01*
X50461271Y-83816552D01*
X50497009Y-83787222D01*
X50514913Y-83777652D01*
X50653533Y-83703557D01*
X50710147Y-83686384D01*
X50823373Y-83652037D01*
X50905838Y-83643915D01*
X50955740Y-83639000D01*
X51044260Y-83639000D01*
X51094162Y-83643915D01*
X51094162Y-83643915D01*
G37*
G36*
X119527396Y-82835546D02*
X119700466Y-82907234D01*
X119856230Y-83011312D01*
X119988688Y-83143770D01*
X120092766Y-83299534D01*
X120164454Y-83472604D01*
X120201000Y-83656333D01*
X120201000Y-83843667D01*
X120164454Y-84027396D01*
X120092766Y-84200466D01*
X119988688Y-84356230D01*
X119856230Y-84488688D01*
X119700466Y-84592766D01*
X119527396Y-84664454D01*
X119343667Y-84701000D01*
X119156333Y-84701000D01*
X118972604Y-84664454D01*
X118799534Y-84592766D01*
X118643770Y-84488688D01*
X118511312Y-84356230D01*
X118407234Y-84200466D01*
X118335546Y-84027396D01*
X118299000Y-83843667D01*
X118299000Y-83656333D01*
X118335546Y-83472604D01*
X118407234Y-83299534D01*
X118511312Y-83143770D01*
X118643770Y-83011312D01*
X118799534Y-82907234D01*
X118972604Y-82835546D01*
X119156333Y-82799000D01*
X119343667Y-82799000D01*
X119527396Y-82835546D01*
X119527396Y-82835546D01*
G37*
G36*
X105027396Y-82835546D02*
X105200466Y-82907234D01*
X105356230Y-83011312D01*
X105488688Y-83143770D01*
X105592766Y-83299534D01*
X105664454Y-83472604D01*
X105701000Y-83656333D01*
X105701000Y-83843667D01*
X105664454Y-84027396D01*
X105592766Y-84200466D01*
X105488688Y-84356230D01*
X105356230Y-84488688D01*
X105200466Y-84592766D01*
X105027396Y-84664454D01*
X104843667Y-84701000D01*
X104656333Y-84701000D01*
X104472604Y-84664454D01*
X104299534Y-84592766D01*
X104143770Y-84488688D01*
X104011312Y-84356230D01*
X103907234Y-84200466D01*
X103835546Y-84027396D01*
X103799000Y-83843667D01*
X103799000Y-83656333D01*
X103835546Y-83472604D01*
X103907234Y-83299534D01*
X104011312Y-83143770D01*
X104143770Y-83011312D01*
X104299534Y-82907234D01*
X104472604Y-82835546D01*
X104656333Y-82799000D01*
X104843667Y-82799000D01*
X105027396Y-82835546D01*
X105027396Y-82835546D01*
G37*
G36*
X139110443Y-81865519D02*
X139176627Y-81872037D01*
X139289853Y-81906384D01*
X139346467Y-81923557D01*
X139485087Y-81997652D01*
X139502991Y-82007222D01*
X139538729Y-82036552D01*
X139640186Y-82119814D01*
X139723448Y-82221271D01*
X139752778Y-82257009D01*
X139752779Y-82257011D01*
X139836443Y-82413533D01*
X139836443Y-82413534D01*
X139887963Y-82583373D01*
X139905359Y-82760000D01*
X139887963Y-82936627D01*
X139853616Y-83049853D01*
X139836443Y-83106467D01*
X139816502Y-83143773D01*
X139752778Y-83262991D01*
X139723448Y-83298729D01*
X139640186Y-83400186D01*
X139551943Y-83472604D01*
X139502991Y-83512778D01*
X139502989Y-83512779D01*
X139346467Y-83596443D01*
X139289853Y-83613616D01*
X139176627Y-83647963D01*
X139135262Y-83652037D01*
X139044260Y-83661000D01*
X138955740Y-83661000D01*
X138864738Y-83652037D01*
X138823373Y-83647963D01*
X138710147Y-83613616D01*
X138653533Y-83596443D01*
X138497011Y-83512779D01*
X138497009Y-83512778D01*
X138448057Y-83472604D01*
X138359814Y-83400186D01*
X138276552Y-83298729D01*
X138247222Y-83262991D01*
X138183498Y-83143773D01*
X138163557Y-83106467D01*
X138146384Y-83049853D01*
X138112037Y-82936627D01*
X138094641Y-82760000D01*
X138112037Y-82583373D01*
X138163557Y-82413534D01*
X138163557Y-82413533D01*
X138247221Y-82257011D01*
X138247222Y-82257009D01*
X138276552Y-82221271D01*
X138359814Y-82119814D01*
X138461271Y-82036552D01*
X138497009Y-82007222D01*
X138514913Y-81997652D01*
X138653533Y-81923557D01*
X138710147Y-81906384D01*
X138823373Y-81872037D01*
X138889557Y-81865519D01*
X138955740Y-81859000D01*
X139044260Y-81859000D01*
X139110443Y-81865519D01*
X139110443Y-81865519D01*
G37*
G36*
X51901000Y-82901000D02*
X50099000Y-82901000D01*
X50099000Y-81099000D01*
X51901000Y-81099000D01*
X51901000Y-82901000D01*
X51901000Y-82901000D01*
G37*
G36*
X105027396Y-79835546D02*
X105200466Y-79907234D01*
X105356230Y-80011312D01*
X105488688Y-80143770D01*
X105592766Y-80299534D01*
X105664454Y-80472604D01*
X105701000Y-80656333D01*
X105701000Y-80843667D01*
X105664454Y-81027396D01*
X105592766Y-81200466D01*
X105488688Y-81356230D01*
X105356230Y-81488688D01*
X105200466Y-81592766D01*
X105027396Y-81664454D01*
X104843667Y-81701000D01*
X104656333Y-81701000D01*
X104472604Y-81664454D01*
X104299534Y-81592766D01*
X104143770Y-81488688D01*
X104011312Y-81356230D01*
X103907234Y-81200466D01*
X103835546Y-81027396D01*
X103799000Y-80843667D01*
X103799000Y-80656333D01*
X103835546Y-80472604D01*
X103907234Y-80299534D01*
X104011312Y-80143770D01*
X104143770Y-80011312D01*
X104299534Y-79907234D01*
X104472604Y-79835546D01*
X104656333Y-79799000D01*
X104843667Y-79799000D01*
X105027396Y-79835546D01*
X105027396Y-79835546D01*
G37*
G36*
X119527396Y-79835546D02*
X119700466Y-79907234D01*
X119856230Y-80011312D01*
X119988688Y-80143770D01*
X120092766Y-80299534D01*
X120164454Y-80472604D01*
X120201000Y-80656333D01*
X120201000Y-80843667D01*
X120164454Y-81027396D01*
X120092766Y-81200466D01*
X119988688Y-81356230D01*
X119856230Y-81488688D01*
X119700466Y-81592766D01*
X119527396Y-81664454D01*
X119343667Y-81701000D01*
X119156333Y-81701000D01*
X118972604Y-81664454D01*
X118799534Y-81592766D01*
X118643770Y-81488688D01*
X118511312Y-81356230D01*
X118407234Y-81200466D01*
X118335546Y-81027396D01*
X118299000Y-80843667D01*
X118299000Y-80656333D01*
X118335546Y-80472604D01*
X118407234Y-80299534D01*
X118511312Y-80143770D01*
X118643770Y-80011312D01*
X118799534Y-79907234D01*
X118972604Y-79835546D01*
X119156333Y-79799000D01*
X119343667Y-79799000D01*
X119527396Y-79835546D01*
X119527396Y-79835546D01*
G37*
G36*
X60166821Y-80001313D02*
X60166824Y-80001314D01*
X60166825Y-80001314D01*
X60327239Y-80049975D01*
X60327241Y-80049976D01*
X60327244Y-80049977D01*
X60475078Y-80128995D01*
X60604659Y-80235341D01*
X60711005Y-80364922D01*
X60790023Y-80512756D01*
X60790024Y-80512759D01*
X60790025Y-80512761D01*
X60838686Y-80673175D01*
X60838687Y-80673179D01*
X60855117Y-80840000D01*
X60838687Y-81006821D01*
X60838686Y-81006824D01*
X60838686Y-81006825D01*
X60829387Y-81037481D01*
X60790023Y-81167244D01*
X60711005Y-81315078D01*
X60604659Y-81444659D01*
X60475078Y-81551005D01*
X60327244Y-81630023D01*
X60327241Y-81630024D01*
X60327239Y-81630025D01*
X60166825Y-81678686D01*
X60166824Y-81678686D01*
X60166821Y-81678687D01*
X60041804Y-81691000D01*
X59958196Y-81691000D01*
X59833179Y-81678687D01*
X59833176Y-81678686D01*
X59833175Y-81678686D01*
X59672761Y-81630025D01*
X59672759Y-81630024D01*
X59672756Y-81630023D01*
X59524922Y-81551005D01*
X59395341Y-81444659D01*
X59288995Y-81315078D01*
X59209977Y-81167244D01*
X59170614Y-81037481D01*
X59161314Y-81006825D01*
X59161314Y-81006824D01*
X59161313Y-81006821D01*
X59144883Y-80840000D01*
X59161313Y-80673179D01*
X59161314Y-80673175D01*
X59209975Y-80512761D01*
X59209976Y-80512759D01*
X59209977Y-80512756D01*
X59288995Y-80364922D01*
X59395341Y-80235341D01*
X59524922Y-80128995D01*
X59672756Y-80049977D01*
X59672759Y-80049976D01*
X59672761Y-80049975D01*
X59833175Y-80001314D01*
X59833176Y-80001314D01*
X59833179Y-80001313D01*
X59958196Y-79989000D01*
X60041804Y-79989000D01*
X60166821Y-80001313D01*
X60166821Y-80001313D01*
G37*
G36*
X56166821Y-80001313D02*
X56166824Y-80001314D01*
X56166825Y-80001314D01*
X56327239Y-80049975D01*
X56327241Y-80049976D01*
X56327244Y-80049977D01*
X56475078Y-80128995D01*
X56604659Y-80235341D01*
X56711005Y-80364922D01*
X56790023Y-80512756D01*
X56790024Y-80512759D01*
X56790025Y-80512761D01*
X56838686Y-80673175D01*
X56838687Y-80673179D01*
X56855117Y-80840000D01*
X56838687Y-81006821D01*
X56838686Y-81006824D01*
X56838686Y-81006825D01*
X56829387Y-81037481D01*
X56790023Y-81167244D01*
X56711005Y-81315078D01*
X56604659Y-81444659D01*
X56475078Y-81551005D01*
X56327244Y-81630023D01*
X56327241Y-81630024D01*
X56327239Y-81630025D01*
X56166825Y-81678686D01*
X56166824Y-81678686D01*
X56166821Y-81678687D01*
X56041804Y-81691000D01*
X55958196Y-81691000D01*
X55833179Y-81678687D01*
X55833176Y-81678686D01*
X55833175Y-81678686D01*
X55672761Y-81630025D01*
X55672759Y-81630024D01*
X55672756Y-81630023D01*
X55524922Y-81551005D01*
X55395341Y-81444659D01*
X55288995Y-81315078D01*
X55209977Y-81167244D01*
X55170614Y-81037481D01*
X55161314Y-81006825D01*
X55161314Y-81006824D01*
X55161313Y-81006821D01*
X55144883Y-80840000D01*
X55161313Y-80673179D01*
X55161314Y-80673175D01*
X55209975Y-80512761D01*
X55209976Y-80512759D01*
X55209977Y-80512756D01*
X55288995Y-80364922D01*
X55395341Y-80235341D01*
X55524922Y-80128995D01*
X55672756Y-80049977D01*
X55672759Y-80049976D01*
X55672761Y-80049975D01*
X55833175Y-80001314D01*
X55833176Y-80001314D01*
X55833179Y-80001313D01*
X55958196Y-79989000D01*
X56041804Y-79989000D01*
X56166821Y-80001313D01*
X56166821Y-80001313D01*
G37*
G36*
X76887135Y-79240778D02*
X76987866Y-79271335D01*
X77038233Y-79286613D01*
X77084649Y-79311423D01*
X77177483Y-79361044D01*
X77299538Y-79461212D01*
X77399706Y-79583267D01*
X77449327Y-79676101D01*
X77474137Y-79722517D01*
X77474137Y-79722518D01*
X77519972Y-79873615D01*
X77531570Y-79991375D01*
X77531570Y-80768625D01*
X77519972Y-80886385D01*
X77489415Y-80987116D01*
X77474137Y-81037483D01*
X77449327Y-81083899D01*
X77399706Y-81176733D01*
X77299538Y-81298788D01*
X77177482Y-81398956D01*
X77091977Y-81444659D01*
X77038232Y-81473387D01*
X76987865Y-81488665D01*
X76887134Y-81519222D01*
X76730000Y-81534698D01*
X76572865Y-81519222D01*
X76472134Y-81488665D01*
X76421767Y-81473387D01*
X76368022Y-81444659D01*
X76282517Y-81398956D01*
X76160462Y-81298788D01*
X76060294Y-81176732D01*
X75985864Y-81037483D01*
X75985863Y-81037482D01*
X75970585Y-80987115D01*
X75940028Y-80886384D01*
X75928430Y-80768624D01*
X75928430Y-79991375D01*
X75940028Y-79873615D01*
X75951576Y-79835546D01*
X75985863Y-79722520D01*
X75985865Y-79722517D01*
X76060295Y-79583267D01*
X76160463Y-79461212D01*
X76282518Y-79361044D01*
X76375352Y-79311423D01*
X76421768Y-79286613D01*
X76472135Y-79271335D01*
X76572866Y-79240778D01*
X76730000Y-79225302D01*
X76887135Y-79240778D01*
X76887135Y-79240778D01*
G37*
G36*
X71807135Y-79240778D02*
X71907866Y-79271335D01*
X71958233Y-79286613D01*
X72004649Y-79311423D01*
X72097483Y-79361044D01*
X72219538Y-79461212D01*
X72319706Y-79583267D01*
X72369327Y-79676101D01*
X72394137Y-79722517D01*
X72394137Y-79722518D01*
X72439972Y-79873615D01*
X72451570Y-79991375D01*
X72451570Y-80768625D01*
X72439972Y-80886385D01*
X72409415Y-80987116D01*
X72394137Y-81037483D01*
X72369327Y-81083899D01*
X72319706Y-81176733D01*
X72219538Y-81298788D01*
X72097482Y-81398956D01*
X72011977Y-81444659D01*
X71958232Y-81473387D01*
X71907865Y-81488665D01*
X71807134Y-81519222D01*
X71650000Y-81534698D01*
X71492865Y-81519222D01*
X71392134Y-81488665D01*
X71341767Y-81473387D01*
X71288022Y-81444659D01*
X71202517Y-81398956D01*
X71080462Y-81298788D01*
X70980294Y-81176732D01*
X70905864Y-81037483D01*
X70905863Y-81037482D01*
X70890585Y-80987115D01*
X70860028Y-80886384D01*
X70848430Y-80768624D01*
X70848430Y-79991375D01*
X70860028Y-79873615D01*
X70871576Y-79835546D01*
X70905863Y-79722520D01*
X70905865Y-79722517D01*
X70980295Y-79583267D01*
X71080463Y-79461212D01*
X71202518Y-79361044D01*
X71295352Y-79311423D01*
X71341768Y-79286613D01*
X71392135Y-79271335D01*
X71492866Y-79240778D01*
X71650000Y-79225302D01*
X71807135Y-79240778D01*
X71807135Y-79240778D01*
G37*
G36*
X92127135Y-79240778D02*
X92227866Y-79271335D01*
X92278233Y-79286613D01*
X92324649Y-79311423D01*
X92417483Y-79361044D01*
X92539538Y-79461212D01*
X92639706Y-79583267D01*
X92689327Y-79676101D01*
X92714137Y-79722517D01*
X92714137Y-79722518D01*
X92759972Y-79873615D01*
X92771570Y-79991375D01*
X92771570Y-80768625D01*
X92759972Y-80886385D01*
X92729415Y-80987116D01*
X92714137Y-81037483D01*
X92689327Y-81083899D01*
X92639706Y-81176733D01*
X92539538Y-81298788D01*
X92417482Y-81398956D01*
X92331977Y-81444659D01*
X92278232Y-81473387D01*
X92227865Y-81488665D01*
X92127134Y-81519222D01*
X91970000Y-81534698D01*
X91812865Y-81519222D01*
X91712134Y-81488665D01*
X91661767Y-81473387D01*
X91608022Y-81444659D01*
X91522517Y-81398956D01*
X91400462Y-81298788D01*
X91300294Y-81176732D01*
X91225864Y-81037483D01*
X91225863Y-81037482D01*
X91210585Y-80987115D01*
X91180028Y-80886384D01*
X91168430Y-80768624D01*
X91168430Y-79991375D01*
X91180028Y-79873615D01*
X91191576Y-79835546D01*
X91225863Y-79722520D01*
X91225865Y-79722517D01*
X91300295Y-79583267D01*
X91400463Y-79461212D01*
X91522518Y-79361044D01*
X91615352Y-79311423D01*
X91661768Y-79286613D01*
X91712135Y-79271335D01*
X91812866Y-79240778D01*
X91970000Y-79225302D01*
X92127135Y-79240778D01*
X92127135Y-79240778D01*
G37*
G36*
X89587135Y-79240778D02*
X89687866Y-79271335D01*
X89738233Y-79286613D01*
X89784649Y-79311423D01*
X89877483Y-79361044D01*
X89999538Y-79461212D01*
X90099706Y-79583267D01*
X90149327Y-79676101D01*
X90174137Y-79722517D01*
X90174137Y-79722518D01*
X90219972Y-79873615D01*
X90231570Y-79991375D01*
X90231570Y-80768625D01*
X90219972Y-80886385D01*
X90189415Y-80987116D01*
X90174137Y-81037483D01*
X90149327Y-81083899D01*
X90099706Y-81176733D01*
X89999538Y-81298788D01*
X89877482Y-81398956D01*
X89791977Y-81444659D01*
X89738232Y-81473387D01*
X89687865Y-81488665D01*
X89587134Y-81519222D01*
X89430000Y-81534698D01*
X89272865Y-81519222D01*
X89172134Y-81488665D01*
X89121767Y-81473387D01*
X89068022Y-81444659D01*
X88982517Y-81398956D01*
X88860462Y-81298788D01*
X88760294Y-81176732D01*
X88685864Y-81037483D01*
X88685863Y-81037482D01*
X88670585Y-80987115D01*
X88640028Y-80886384D01*
X88628430Y-80768624D01*
X88628430Y-79991375D01*
X88640028Y-79873615D01*
X88651576Y-79835546D01*
X88685863Y-79722520D01*
X88685865Y-79722517D01*
X88760295Y-79583267D01*
X88860463Y-79461212D01*
X88982518Y-79361044D01*
X89075352Y-79311423D01*
X89121768Y-79286613D01*
X89172135Y-79271335D01*
X89272866Y-79240778D01*
X89430000Y-79225302D01*
X89587135Y-79240778D01*
X89587135Y-79240778D01*
G37*
G36*
X87047135Y-79240778D02*
X87147866Y-79271335D01*
X87198233Y-79286613D01*
X87244649Y-79311423D01*
X87337483Y-79361044D01*
X87459538Y-79461212D01*
X87559706Y-79583267D01*
X87609327Y-79676101D01*
X87634137Y-79722517D01*
X87634137Y-79722518D01*
X87679972Y-79873615D01*
X87691570Y-79991375D01*
X87691570Y-80768625D01*
X87679972Y-80886385D01*
X87649415Y-80987116D01*
X87634137Y-81037483D01*
X87609327Y-81083899D01*
X87559706Y-81176733D01*
X87459538Y-81298788D01*
X87337482Y-81398956D01*
X87251977Y-81444659D01*
X87198232Y-81473387D01*
X87147865Y-81488665D01*
X87047134Y-81519222D01*
X86890000Y-81534698D01*
X86732865Y-81519222D01*
X86632134Y-81488665D01*
X86581767Y-81473387D01*
X86528022Y-81444659D01*
X86442517Y-81398956D01*
X86320462Y-81298788D01*
X86220294Y-81176732D01*
X86145864Y-81037483D01*
X86145863Y-81037482D01*
X86130585Y-80987115D01*
X86100028Y-80886384D01*
X86088430Y-80768624D01*
X86088430Y-79991375D01*
X86100028Y-79873615D01*
X86111576Y-79835546D01*
X86145863Y-79722520D01*
X86145865Y-79722517D01*
X86220295Y-79583267D01*
X86320463Y-79461212D01*
X86442518Y-79361044D01*
X86535352Y-79311423D01*
X86581768Y-79286613D01*
X86632135Y-79271335D01*
X86732866Y-79240778D01*
X86890000Y-79225302D01*
X87047135Y-79240778D01*
X87047135Y-79240778D01*
G37*
G36*
X84507135Y-79240778D02*
X84607866Y-79271335D01*
X84658233Y-79286613D01*
X84704649Y-79311423D01*
X84797483Y-79361044D01*
X84919538Y-79461212D01*
X85019706Y-79583267D01*
X85069327Y-79676101D01*
X85094137Y-79722517D01*
X85094137Y-79722518D01*
X85139972Y-79873615D01*
X85151570Y-79991375D01*
X85151570Y-80768625D01*
X85139972Y-80886385D01*
X85109415Y-80987116D01*
X85094137Y-81037483D01*
X85069327Y-81083899D01*
X85019706Y-81176733D01*
X84919538Y-81298788D01*
X84797482Y-81398956D01*
X84711977Y-81444659D01*
X84658232Y-81473387D01*
X84607865Y-81488665D01*
X84507134Y-81519222D01*
X84350000Y-81534698D01*
X84192865Y-81519222D01*
X84092134Y-81488665D01*
X84041767Y-81473387D01*
X83988022Y-81444659D01*
X83902517Y-81398956D01*
X83780462Y-81298788D01*
X83680294Y-81176732D01*
X83605864Y-81037483D01*
X83605863Y-81037482D01*
X83590585Y-80987115D01*
X83560028Y-80886384D01*
X83548430Y-80768624D01*
X83548430Y-79991375D01*
X83560028Y-79873615D01*
X83571576Y-79835546D01*
X83605863Y-79722520D01*
X83605865Y-79722517D01*
X83680295Y-79583267D01*
X83780463Y-79461212D01*
X83902518Y-79361044D01*
X83995352Y-79311423D01*
X84041768Y-79286613D01*
X84092135Y-79271335D01*
X84192866Y-79240778D01*
X84350000Y-79225302D01*
X84507135Y-79240778D01*
X84507135Y-79240778D01*
G37*
G36*
X81967135Y-79240778D02*
X82067866Y-79271335D01*
X82118233Y-79286613D01*
X82164649Y-79311423D01*
X82257483Y-79361044D01*
X82379538Y-79461212D01*
X82479706Y-79583267D01*
X82529327Y-79676101D01*
X82554137Y-79722517D01*
X82554137Y-79722518D01*
X82599972Y-79873615D01*
X82611570Y-79991375D01*
X82611570Y-80768625D01*
X82599972Y-80886385D01*
X82569415Y-80987116D01*
X82554137Y-81037483D01*
X82529327Y-81083899D01*
X82479706Y-81176733D01*
X82379538Y-81298788D01*
X82257482Y-81398956D01*
X82171977Y-81444659D01*
X82118232Y-81473387D01*
X82067865Y-81488665D01*
X81967134Y-81519222D01*
X81810000Y-81534698D01*
X81652865Y-81519222D01*
X81552134Y-81488665D01*
X81501767Y-81473387D01*
X81448022Y-81444659D01*
X81362517Y-81398956D01*
X81240462Y-81298788D01*
X81140294Y-81176732D01*
X81065864Y-81037483D01*
X81065863Y-81037482D01*
X81050585Y-80987115D01*
X81020028Y-80886384D01*
X81008430Y-80768624D01*
X81008430Y-79991375D01*
X81020028Y-79873615D01*
X81031576Y-79835546D01*
X81065863Y-79722520D01*
X81065865Y-79722517D01*
X81140295Y-79583267D01*
X81240463Y-79461212D01*
X81362518Y-79361044D01*
X81455352Y-79311423D01*
X81501768Y-79286613D01*
X81552135Y-79271335D01*
X81652866Y-79240778D01*
X81810000Y-79225302D01*
X81967135Y-79240778D01*
X81967135Y-79240778D01*
G37*
G36*
X79427135Y-79240778D02*
X79527866Y-79271335D01*
X79578233Y-79286613D01*
X79624649Y-79311423D01*
X79717483Y-79361044D01*
X79839538Y-79461212D01*
X79939706Y-79583267D01*
X79989327Y-79676101D01*
X80014137Y-79722517D01*
X80014137Y-79722518D01*
X80059972Y-79873615D01*
X80071570Y-79991375D01*
X80071570Y-80768625D01*
X80059972Y-80886385D01*
X80029415Y-80987116D01*
X80014137Y-81037483D01*
X79989327Y-81083899D01*
X79939706Y-81176733D01*
X79839538Y-81298788D01*
X79717482Y-81398956D01*
X79631977Y-81444659D01*
X79578232Y-81473387D01*
X79527865Y-81488665D01*
X79427134Y-81519222D01*
X79270000Y-81534698D01*
X79112865Y-81519222D01*
X79012134Y-81488665D01*
X78961767Y-81473387D01*
X78908022Y-81444659D01*
X78822517Y-81398956D01*
X78700462Y-81298788D01*
X78600294Y-81176732D01*
X78525864Y-81037483D01*
X78525863Y-81037482D01*
X78510585Y-80987115D01*
X78480028Y-80886384D01*
X78468430Y-80768624D01*
X78468430Y-79991375D01*
X78480028Y-79873615D01*
X78491576Y-79835546D01*
X78525863Y-79722520D01*
X78525865Y-79722517D01*
X78600295Y-79583267D01*
X78700463Y-79461212D01*
X78822518Y-79361044D01*
X78915352Y-79311423D01*
X78961768Y-79286613D01*
X79012135Y-79271335D01*
X79112866Y-79240778D01*
X79270000Y-79225302D01*
X79427135Y-79240778D01*
X79427135Y-79240778D01*
G37*
G36*
X74347135Y-79240778D02*
X74447866Y-79271335D01*
X74498233Y-79286613D01*
X74544649Y-79311423D01*
X74637483Y-79361044D01*
X74759538Y-79461212D01*
X74859706Y-79583267D01*
X74909327Y-79676101D01*
X74934137Y-79722517D01*
X74934137Y-79722518D01*
X74979972Y-79873615D01*
X74991570Y-79991375D01*
X74991570Y-80768625D01*
X74979972Y-80886385D01*
X74949415Y-80987116D01*
X74934137Y-81037483D01*
X74909327Y-81083899D01*
X74859706Y-81176733D01*
X74759538Y-81298788D01*
X74637482Y-81398956D01*
X74551977Y-81444659D01*
X74498232Y-81473387D01*
X74447865Y-81488665D01*
X74347134Y-81519222D01*
X74190000Y-81534698D01*
X74032865Y-81519222D01*
X73932134Y-81488665D01*
X73881767Y-81473387D01*
X73828022Y-81444659D01*
X73742517Y-81398956D01*
X73620462Y-81298788D01*
X73520294Y-81176732D01*
X73445864Y-81037483D01*
X73445863Y-81037482D01*
X73430585Y-80987115D01*
X73400028Y-80886384D01*
X73388430Y-80768624D01*
X73388430Y-79991375D01*
X73400028Y-79873615D01*
X73411576Y-79835546D01*
X73445863Y-79722520D01*
X73445865Y-79722517D01*
X73520295Y-79583267D01*
X73620463Y-79461212D01*
X73742518Y-79361044D01*
X73835352Y-79311423D01*
X73881768Y-79286613D01*
X73932135Y-79271335D01*
X74032866Y-79240778D01*
X74190000Y-79225302D01*
X74347135Y-79240778D01*
X74347135Y-79240778D01*
G37*
G36*
X69267135Y-79240778D02*
X69367866Y-79271335D01*
X69418233Y-79286613D01*
X69464649Y-79311423D01*
X69557483Y-79361044D01*
X69679538Y-79461212D01*
X69779706Y-79583267D01*
X69829327Y-79676101D01*
X69854137Y-79722517D01*
X69854137Y-79722518D01*
X69899972Y-79873615D01*
X69911570Y-79991375D01*
X69911570Y-80768625D01*
X69899972Y-80886385D01*
X69869415Y-80987116D01*
X69854137Y-81037483D01*
X69829327Y-81083899D01*
X69779706Y-81176733D01*
X69679538Y-81298788D01*
X69557482Y-81398956D01*
X69471977Y-81444659D01*
X69418232Y-81473387D01*
X69367865Y-81488665D01*
X69267134Y-81519222D01*
X69110000Y-81534698D01*
X68952865Y-81519222D01*
X68852134Y-81488665D01*
X68801767Y-81473387D01*
X68748022Y-81444659D01*
X68662517Y-81398956D01*
X68540462Y-81298788D01*
X68440294Y-81176732D01*
X68365864Y-81037483D01*
X68365863Y-81037482D01*
X68350585Y-80987115D01*
X68320028Y-80886384D01*
X68308430Y-80768624D01*
X68308430Y-79991375D01*
X68320028Y-79873615D01*
X68331576Y-79835546D01*
X68365863Y-79722520D01*
X68365865Y-79722517D01*
X68440295Y-79583267D01*
X68540463Y-79461212D01*
X68662518Y-79361044D01*
X68755352Y-79311423D01*
X68801768Y-79286613D01*
X68852135Y-79271335D01*
X68952866Y-79240778D01*
X69110000Y-79225302D01*
X69267135Y-79240778D01*
X69267135Y-79240778D01*
G37*
G36*
X64187135Y-79240778D02*
X64287866Y-79271335D01*
X64338233Y-79286613D01*
X64384649Y-79311423D01*
X64477483Y-79361044D01*
X64599538Y-79461212D01*
X64699706Y-79583267D01*
X64749327Y-79676101D01*
X64774137Y-79722517D01*
X64774137Y-79722518D01*
X64819972Y-79873615D01*
X64831570Y-79991375D01*
X64831570Y-80768625D01*
X64819972Y-80886385D01*
X64789415Y-80987116D01*
X64774137Y-81037483D01*
X64749327Y-81083899D01*
X64699706Y-81176733D01*
X64599538Y-81298788D01*
X64477482Y-81398956D01*
X64391977Y-81444659D01*
X64338232Y-81473387D01*
X64287865Y-81488665D01*
X64187134Y-81519222D01*
X64030000Y-81534698D01*
X63872865Y-81519222D01*
X63772134Y-81488665D01*
X63721767Y-81473387D01*
X63668022Y-81444659D01*
X63582517Y-81398956D01*
X63460462Y-81298788D01*
X63360294Y-81176732D01*
X63285864Y-81037483D01*
X63285863Y-81037482D01*
X63270585Y-80987115D01*
X63240028Y-80886384D01*
X63228430Y-80768624D01*
X63228430Y-79991375D01*
X63240028Y-79873615D01*
X63251576Y-79835546D01*
X63285863Y-79722520D01*
X63285865Y-79722517D01*
X63360295Y-79583267D01*
X63460463Y-79461212D01*
X63582518Y-79361044D01*
X63675352Y-79311423D01*
X63721768Y-79286613D01*
X63772135Y-79271335D01*
X63872866Y-79240778D01*
X64030000Y-79225302D01*
X64187135Y-79240778D01*
X64187135Y-79240778D01*
G37*
G36*
X66727135Y-79240778D02*
X66827866Y-79271335D01*
X66878233Y-79286613D01*
X66924649Y-79311423D01*
X67017483Y-79361044D01*
X67139538Y-79461212D01*
X67239706Y-79583267D01*
X67289327Y-79676101D01*
X67314137Y-79722517D01*
X67314137Y-79722518D01*
X67359972Y-79873615D01*
X67371570Y-79991375D01*
X67371570Y-80768625D01*
X67359972Y-80886385D01*
X67329415Y-80987116D01*
X67314137Y-81037483D01*
X67289327Y-81083899D01*
X67239706Y-81176733D01*
X67139538Y-81298788D01*
X67017482Y-81398956D01*
X66931977Y-81444659D01*
X66878232Y-81473387D01*
X66827865Y-81488665D01*
X66727134Y-81519222D01*
X66570000Y-81534698D01*
X66412865Y-81519222D01*
X66312134Y-81488665D01*
X66261767Y-81473387D01*
X66208022Y-81444659D01*
X66122517Y-81398956D01*
X66000462Y-81298788D01*
X65900294Y-81176732D01*
X65825864Y-81037483D01*
X65825863Y-81037482D01*
X65810585Y-80987115D01*
X65780028Y-80886384D01*
X65768430Y-80768624D01*
X65768430Y-79991375D01*
X65780028Y-79873615D01*
X65791576Y-79835546D01*
X65825863Y-79722520D01*
X65825865Y-79722517D01*
X65900295Y-79583267D01*
X66000463Y-79461212D01*
X66122518Y-79361044D01*
X66215352Y-79311423D01*
X66261768Y-79286613D01*
X66312135Y-79271335D01*
X66412866Y-79240778D01*
X66570000Y-79225302D01*
X66727135Y-79240778D01*
X66727135Y-79240778D01*
G37*
G36*
X74306565Y-75989389D02*
X74497834Y-76068615D01*
X74669976Y-76183637D01*
X74816363Y-76330024D01*
X74931385Y-76502166D01*
X75010611Y-76693435D01*
X75051000Y-76896484D01*
X75051000Y-77103516D01*
X75010611Y-77306565D01*
X74931385Y-77497834D01*
X74816363Y-77669976D01*
X74669976Y-77816363D01*
X74497834Y-77931385D01*
X74306565Y-78010611D01*
X74103516Y-78051000D01*
X73896484Y-78051000D01*
X73693435Y-78010611D01*
X73502166Y-77931385D01*
X73330024Y-77816363D01*
X73183637Y-77669976D01*
X73068615Y-77497834D01*
X72989389Y-77306565D01*
X72949000Y-77103516D01*
X72949000Y-76896484D01*
X72989389Y-76693435D01*
X73068615Y-76502166D01*
X73183637Y-76330024D01*
X73330024Y-76183637D01*
X73502166Y-76068615D01*
X73693435Y-75989389D01*
X73896484Y-75949000D01*
X74103516Y-75949000D01*
X74306565Y-75989389D01*
X74306565Y-75989389D01*
G37*
G36*
X48806565Y-75989389D02*
X48997834Y-76068615D01*
X49169976Y-76183637D01*
X49316363Y-76330024D01*
X49431385Y-76502166D01*
X49510611Y-76693435D01*
X49551000Y-76896484D01*
X49551000Y-77103516D01*
X49510611Y-77306565D01*
X49431385Y-77497834D01*
X49316363Y-77669976D01*
X49169976Y-77816363D01*
X48997834Y-77931385D01*
X48806565Y-78010611D01*
X48603516Y-78051000D01*
X48396484Y-78051000D01*
X48193435Y-78010611D01*
X48002166Y-77931385D01*
X47830024Y-77816363D01*
X47683637Y-77669976D01*
X47568615Y-77497834D01*
X47489389Y-77306565D01*
X47449000Y-77103516D01*
X47449000Y-76896484D01*
X47489389Y-76693435D01*
X47568615Y-76502166D01*
X47683637Y-76330024D01*
X47830024Y-76183637D01*
X48002166Y-76068615D01*
X48193435Y-75989389D01*
X48396484Y-75949000D01*
X48603516Y-75949000D01*
X48806565Y-75989389D01*
X48806565Y-75989389D01*
G37*
G36*
X55306565Y-75989389D02*
X55497834Y-76068615D01*
X55669976Y-76183637D01*
X55816363Y-76330024D01*
X55931385Y-76502166D01*
X56010611Y-76693435D01*
X56051000Y-76896484D01*
X56051000Y-77103516D01*
X56010611Y-77306565D01*
X55931385Y-77497834D01*
X55816363Y-77669976D01*
X55669976Y-77816363D01*
X55497834Y-77931385D01*
X55306565Y-78010611D01*
X55103516Y-78051000D01*
X54896484Y-78051000D01*
X54693435Y-78010611D01*
X54502166Y-77931385D01*
X54330024Y-77816363D01*
X54183637Y-77669976D01*
X54068615Y-77497834D01*
X53989389Y-77306565D01*
X53949000Y-77103516D01*
X53949000Y-76896484D01*
X53989389Y-76693435D01*
X54068615Y-76502166D01*
X54183637Y-76330024D01*
X54330024Y-76183637D01*
X54502166Y-76068615D01*
X54693435Y-75989389D01*
X54896484Y-75949000D01*
X55103516Y-75949000D01*
X55306565Y-75989389D01*
X55306565Y-75989389D01*
G37*
G36*
X58306565Y-75989389D02*
X58497834Y-76068615D01*
X58669976Y-76183637D01*
X58816363Y-76330024D01*
X58931385Y-76502166D01*
X59010611Y-76693435D01*
X59051000Y-76896484D01*
X59051000Y-77103516D01*
X59010611Y-77306565D01*
X58931385Y-77497834D01*
X58816363Y-77669976D01*
X58669976Y-77816363D01*
X58497834Y-77931385D01*
X58306565Y-78010611D01*
X58103516Y-78051000D01*
X57896484Y-78051000D01*
X57693435Y-78010611D01*
X57502166Y-77931385D01*
X57330024Y-77816363D01*
X57183637Y-77669976D01*
X57068615Y-77497834D01*
X56989389Y-77306565D01*
X56949000Y-77103516D01*
X56949000Y-76896484D01*
X56989389Y-76693435D01*
X57068615Y-76502166D01*
X57183637Y-76330024D01*
X57330024Y-76183637D01*
X57502166Y-76068615D01*
X57693435Y-75989389D01*
X57896484Y-75949000D01*
X58103516Y-75949000D01*
X58306565Y-75989389D01*
X58306565Y-75989389D01*
G37*
G36*
X64806565Y-75989389D02*
X64997834Y-76068615D01*
X65169976Y-76183637D01*
X65316363Y-76330024D01*
X65431385Y-76502166D01*
X65510611Y-76693435D01*
X65551000Y-76896484D01*
X65551000Y-77103516D01*
X65510611Y-77306565D01*
X65431385Y-77497834D01*
X65316363Y-77669976D01*
X65169976Y-77816363D01*
X64997834Y-77931385D01*
X64806565Y-78010611D01*
X64603516Y-78051000D01*
X64396484Y-78051000D01*
X64193435Y-78010611D01*
X64002166Y-77931385D01*
X63830024Y-77816363D01*
X63683637Y-77669976D01*
X63568615Y-77497834D01*
X63489389Y-77306565D01*
X63449000Y-77103516D01*
X63449000Y-76896484D01*
X63489389Y-76693435D01*
X63568615Y-76502166D01*
X63683637Y-76330024D01*
X63830024Y-76183637D01*
X64002166Y-76068615D01*
X64193435Y-75989389D01*
X64396484Y-75949000D01*
X64603516Y-75949000D01*
X64806565Y-75989389D01*
X64806565Y-75989389D01*
G37*
G36*
X67806565Y-75989389D02*
X67997834Y-76068615D01*
X68169976Y-76183637D01*
X68316363Y-76330024D01*
X68431385Y-76502166D01*
X68510611Y-76693435D01*
X68551000Y-76896484D01*
X68551000Y-77103516D01*
X68510611Y-77306565D01*
X68431385Y-77497834D01*
X68316363Y-77669976D01*
X68169976Y-77816363D01*
X67997834Y-77931385D01*
X67806565Y-78010611D01*
X67603516Y-78051000D01*
X67396484Y-78051000D01*
X67193435Y-78010611D01*
X67002166Y-77931385D01*
X66830024Y-77816363D01*
X66683637Y-77669976D01*
X66568615Y-77497834D01*
X66489389Y-77306565D01*
X66449000Y-77103516D01*
X66449000Y-76896484D01*
X66489389Y-76693435D01*
X66568615Y-76502166D01*
X66683637Y-76330024D01*
X66830024Y-76183637D01*
X67002166Y-76068615D01*
X67193435Y-75989389D01*
X67396484Y-75949000D01*
X67603516Y-75949000D01*
X67806565Y-75989389D01*
X67806565Y-75989389D01*
G37*
G36*
X124091000Y-76847000D02*
X122289000Y-76847000D01*
X122289000Y-75045000D01*
X124091000Y-75045000D01*
X124091000Y-76847000D01*
X124091000Y-76847000D01*
G37*
G36*
X119477147Y-75050209D02*
X119556627Y-75058037D01*
X119632820Y-75081150D01*
X119726467Y-75109557D01*
X119838109Y-75169232D01*
X119882991Y-75193222D01*
X119918729Y-75222552D01*
X120020186Y-75305814D01*
X120103448Y-75407271D01*
X120132778Y-75443009D01*
X120132779Y-75443011D01*
X120216443Y-75599533D01*
X120216443Y-75599534D01*
X120267963Y-75769373D01*
X120285359Y-75946000D01*
X120267963Y-76122627D01*
X120249456Y-76183635D01*
X120216443Y-76292467D01*
X120196368Y-76330024D01*
X120132778Y-76448991D01*
X120103448Y-76484729D01*
X120020186Y-76586186D01*
X119918729Y-76669448D01*
X119882991Y-76698778D01*
X119882989Y-76698779D01*
X119726467Y-76782443D01*
X119669853Y-76799616D01*
X119556627Y-76833963D01*
X119490442Y-76840482D01*
X119424260Y-76847000D01*
X119335740Y-76847000D01*
X119269558Y-76840482D01*
X119203373Y-76833963D01*
X119090147Y-76799616D01*
X119033533Y-76782443D01*
X118877011Y-76698779D01*
X118877009Y-76698778D01*
X118841271Y-76669448D01*
X118739814Y-76586186D01*
X118656552Y-76484729D01*
X118627222Y-76448991D01*
X118563632Y-76330024D01*
X118543557Y-76292467D01*
X118510544Y-76183635D01*
X118492037Y-76122627D01*
X118474641Y-75946000D01*
X118492037Y-75769373D01*
X118543557Y-75599534D01*
X118543557Y-75599533D01*
X118627221Y-75443011D01*
X118627222Y-75443009D01*
X118656552Y-75407271D01*
X118739814Y-75305814D01*
X118841271Y-75222552D01*
X118877009Y-75193222D01*
X118921891Y-75169232D01*
X119033533Y-75109557D01*
X119127180Y-75081150D01*
X119203373Y-75058037D01*
X119282853Y-75050209D01*
X119335740Y-75045000D01*
X119424260Y-75045000D01*
X119477147Y-75050209D01*
X119477147Y-75050209D01*
G37*
G36*
X116937147Y-75050209D02*
X117016627Y-75058037D01*
X117092820Y-75081150D01*
X117186467Y-75109557D01*
X117298109Y-75169232D01*
X117342991Y-75193222D01*
X117378729Y-75222552D01*
X117480186Y-75305814D01*
X117563448Y-75407271D01*
X117592778Y-75443009D01*
X117592779Y-75443011D01*
X117676443Y-75599533D01*
X117676443Y-75599534D01*
X117727963Y-75769373D01*
X117745359Y-75946000D01*
X117727963Y-76122627D01*
X117709456Y-76183635D01*
X117676443Y-76292467D01*
X117656368Y-76330024D01*
X117592778Y-76448991D01*
X117563448Y-76484729D01*
X117480186Y-76586186D01*
X117378729Y-76669448D01*
X117342991Y-76698778D01*
X117342989Y-76698779D01*
X117186467Y-76782443D01*
X117129853Y-76799616D01*
X117016627Y-76833963D01*
X116950442Y-76840482D01*
X116884260Y-76847000D01*
X116795740Y-76847000D01*
X116729558Y-76840482D01*
X116663373Y-76833963D01*
X116550147Y-76799616D01*
X116493533Y-76782443D01*
X116337011Y-76698779D01*
X116337009Y-76698778D01*
X116301271Y-76669448D01*
X116199814Y-76586186D01*
X116116552Y-76484729D01*
X116087222Y-76448991D01*
X116023632Y-76330024D01*
X116003557Y-76292467D01*
X115970544Y-76183635D01*
X115952037Y-76122627D01*
X115934641Y-75946000D01*
X115952037Y-75769373D01*
X116003557Y-75599534D01*
X116003557Y-75599533D01*
X116087221Y-75443011D01*
X116087222Y-75443009D01*
X116116552Y-75407271D01*
X116199814Y-75305814D01*
X116301271Y-75222552D01*
X116337009Y-75193222D01*
X116381891Y-75169232D01*
X116493533Y-75109557D01*
X116587180Y-75081150D01*
X116663373Y-75058037D01*
X116742853Y-75050209D01*
X116795740Y-75045000D01*
X116884260Y-75045000D01*
X116937147Y-75050209D01*
X116937147Y-75050209D01*
G37*
G36*
X115201000Y-76847000D02*
X113399000Y-76847000D01*
X113399000Y-75045000D01*
X115201000Y-75045000D01*
X115201000Y-76847000D01*
X115201000Y-76847000D01*
G37*
G36*
X125827147Y-75050209D02*
X125906627Y-75058037D01*
X125982820Y-75081150D01*
X126076467Y-75109557D01*
X126188109Y-75169232D01*
X126232991Y-75193222D01*
X126268729Y-75222552D01*
X126370186Y-75305814D01*
X126453448Y-75407271D01*
X126482778Y-75443009D01*
X126482779Y-75443011D01*
X126566443Y-75599533D01*
X126566443Y-75599534D01*
X126617963Y-75769373D01*
X126635359Y-75946000D01*
X126617963Y-76122627D01*
X126599456Y-76183635D01*
X126566443Y-76292467D01*
X126546368Y-76330024D01*
X126482778Y-76448991D01*
X126453448Y-76484729D01*
X126370186Y-76586186D01*
X126268729Y-76669448D01*
X126232991Y-76698778D01*
X126232989Y-76698779D01*
X126076467Y-76782443D01*
X126019853Y-76799616D01*
X125906627Y-76833963D01*
X125840442Y-76840482D01*
X125774260Y-76847000D01*
X125685740Y-76847000D01*
X125619558Y-76840482D01*
X125553373Y-76833963D01*
X125440147Y-76799616D01*
X125383533Y-76782443D01*
X125227011Y-76698779D01*
X125227009Y-76698778D01*
X125191271Y-76669448D01*
X125089814Y-76586186D01*
X125006552Y-76484729D01*
X124977222Y-76448991D01*
X124913632Y-76330024D01*
X124893557Y-76292467D01*
X124860544Y-76183635D01*
X124842037Y-76122627D01*
X124824641Y-75946000D01*
X124842037Y-75769373D01*
X124893557Y-75599534D01*
X124893557Y-75599533D01*
X124977221Y-75443011D01*
X124977222Y-75443009D01*
X125006552Y-75407271D01*
X125089814Y-75305814D01*
X125191271Y-75222552D01*
X125227009Y-75193222D01*
X125271891Y-75169232D01*
X125383533Y-75109557D01*
X125477180Y-75081150D01*
X125553373Y-75058037D01*
X125632853Y-75050209D01*
X125685740Y-75045000D01*
X125774260Y-75045000D01*
X125827147Y-75050209D01*
X125827147Y-75050209D01*
G37*
G36*
X128367147Y-75050209D02*
X128446627Y-75058037D01*
X128522820Y-75081150D01*
X128616467Y-75109557D01*
X128728109Y-75169232D01*
X128772991Y-75193222D01*
X128808729Y-75222552D01*
X128910186Y-75305814D01*
X128993448Y-75407271D01*
X129022778Y-75443009D01*
X129022779Y-75443011D01*
X129106443Y-75599533D01*
X129106443Y-75599534D01*
X129157963Y-75769373D01*
X129175359Y-75946000D01*
X129157963Y-76122627D01*
X129139456Y-76183635D01*
X129106443Y-76292467D01*
X129086368Y-76330024D01*
X129022778Y-76448991D01*
X128993448Y-76484729D01*
X128910186Y-76586186D01*
X128808729Y-76669448D01*
X128772991Y-76698778D01*
X128772989Y-76698779D01*
X128616467Y-76782443D01*
X128559853Y-76799616D01*
X128446627Y-76833963D01*
X128380442Y-76840482D01*
X128314260Y-76847000D01*
X128225740Y-76847000D01*
X128159558Y-76840482D01*
X128093373Y-76833963D01*
X127980147Y-76799616D01*
X127923533Y-76782443D01*
X127767011Y-76698779D01*
X127767009Y-76698778D01*
X127731271Y-76669448D01*
X127629814Y-76586186D01*
X127546552Y-76484729D01*
X127517222Y-76448991D01*
X127453632Y-76330024D01*
X127433557Y-76292467D01*
X127400544Y-76183635D01*
X127382037Y-76122627D01*
X127364641Y-75946000D01*
X127382037Y-75769373D01*
X127433557Y-75599534D01*
X127433557Y-75599533D01*
X127517221Y-75443011D01*
X127517222Y-75443009D01*
X127546552Y-75407271D01*
X127629814Y-75305814D01*
X127731271Y-75222552D01*
X127767009Y-75193222D01*
X127811891Y-75169232D01*
X127923533Y-75109557D01*
X128017180Y-75081150D01*
X128093373Y-75058037D01*
X128172853Y-75050209D01*
X128225740Y-75045000D01*
X128314260Y-75045000D01*
X128367147Y-75050209D01*
X128367147Y-75050209D01*
G37*
G36*
X132625635Y-72215654D02*
X132842600Y-72281470D01*
X132842602Y-72281471D01*
X132842605Y-72281472D01*
X133042556Y-72388347D01*
X133217818Y-72532182D01*
X133361653Y-72707444D01*
X133468528Y-72907395D01*
X133468529Y-72907398D01*
X133468530Y-72907400D01*
X133534346Y-73124365D01*
X133534346Y-73124368D01*
X133534989Y-73126487D01*
X133538909Y-73146197D01*
X133548285Y-73168836D01*
X133561899Y-73189211D01*
X133579226Y-73206538D01*
X133599600Y-73220153D01*
X133622239Y-73229531D01*
X133646272Y-73234312D01*
X133670776Y-73234312D01*
X133694810Y-73229532D01*
X133717449Y-73220156D01*
X133737824Y-73206542D01*
X133755151Y-73189215D01*
X133768767Y-73168838D01*
X133830771Y-73052835D01*
X133930868Y-72930867D01*
X134052836Y-72830770D01*
X134191989Y-72756392D01*
X134342976Y-72710590D01*
X134500000Y-72695125D01*
X134657025Y-72710590D01*
X134808012Y-72756392D01*
X134947165Y-72830770D01*
X135069133Y-72930867D01*
X135169230Y-73052835D01*
X135243608Y-73191988D01*
X135289410Y-73342975D01*
X135301000Y-73460654D01*
X135301000Y-74539346D01*
X135289410Y-74657025D01*
X135243608Y-74808012D01*
X135169230Y-74947165D01*
X135069136Y-75069130D01*
X135069134Y-75069131D01*
X135069133Y-75069133D01*
X135008148Y-75119181D01*
X134947161Y-75169232D01*
X134808011Y-75243608D01*
X134657024Y-75289410D01*
X134500000Y-75304875D01*
X134342975Y-75289410D01*
X134191988Y-75243608D01*
X134052835Y-75169230D01*
X133930870Y-75069136D01*
X133930869Y-75069134D01*
X133930867Y-75069133D01*
X133880819Y-75008148D01*
X133830768Y-74947161D01*
X133768767Y-74831163D01*
X133755154Y-74810788D01*
X133737826Y-74793461D01*
X133717452Y-74779847D01*
X133694813Y-74770470D01*
X133670780Y-74765689D01*
X133646275Y-74765689D01*
X133622242Y-74770469D01*
X133599603Y-74779847D01*
X133579228Y-74793460D01*
X133561901Y-74810788D01*
X133548287Y-74831162D01*
X133538910Y-74853801D01*
X133534989Y-74873512D01*
X133534346Y-74875630D01*
X133534346Y-74875635D01*
X133472003Y-75081150D01*
X133468528Y-75092605D01*
X133361653Y-75292556D01*
X133217818Y-75467818D01*
X133042555Y-75611653D01*
X132842604Y-75718528D01*
X132842601Y-75718529D01*
X132842599Y-75718530D01*
X132625634Y-75784346D01*
X132400000Y-75806569D01*
X132174365Y-75784346D01*
X131957400Y-75718530D01*
X131957398Y-75718529D01*
X131957395Y-75718528D01*
X131757444Y-75611653D01*
X131582182Y-75467818D01*
X131438347Y-75292555D01*
X131331472Y-75092604D01*
X131320986Y-75058037D01*
X131265654Y-74875634D01*
X131249000Y-74706542D01*
X131249000Y-73293457D01*
X131265654Y-73124365D01*
X131331470Y-72907400D01*
X131342168Y-72887386D01*
X131438349Y-72707443D01*
X131582183Y-72532182D01*
X131757445Y-72388347D01*
X131957396Y-72281472D01*
X131957399Y-72281471D01*
X131957401Y-72281470D01*
X132174366Y-72215654D01*
X132400000Y-72193431D01*
X132625635Y-72215654D01*
X132625635Y-72215654D01*
G37*
G36*
X140825635Y-72215654D02*
X141042600Y-72281470D01*
X141042602Y-72281471D01*
X141042605Y-72281472D01*
X141242556Y-72388347D01*
X141417818Y-72532182D01*
X141561653Y-72707444D01*
X141668528Y-72907395D01*
X141668529Y-72907398D01*
X141668530Y-72907400D01*
X141734346Y-73124365D01*
X141751000Y-73293457D01*
X141751000Y-74706543D01*
X141734346Y-74875635D01*
X141672003Y-75081150D01*
X141668528Y-75092605D01*
X141561653Y-75292556D01*
X141417818Y-75467818D01*
X141242555Y-75611653D01*
X141042604Y-75718528D01*
X141042601Y-75718529D01*
X141042599Y-75718530D01*
X140825634Y-75784346D01*
X140600000Y-75806569D01*
X140374365Y-75784346D01*
X140157400Y-75718530D01*
X140157398Y-75718529D01*
X140157395Y-75718528D01*
X139957444Y-75611653D01*
X139782182Y-75467818D01*
X139638347Y-75292555D01*
X139536240Y-75101525D01*
X139522626Y-75081150D01*
X139505299Y-75063823D01*
X139484925Y-75050209D01*
X139462286Y-75040832D01*
X139438252Y-75036051D01*
X139413748Y-75036051D01*
X139389715Y-75040831D01*
X139367076Y-75050209D01*
X139346701Y-75063823D01*
X139329374Y-75081150D01*
X139315760Y-75101524D01*
X139306383Y-75124163D01*
X139301602Y-75148197D01*
X139301000Y-75160449D01*
X139301000Y-75301000D01*
X137699000Y-75301000D01*
X137699000Y-72699000D01*
X139301000Y-72699000D01*
X139301000Y-72839551D01*
X139303402Y-72863937D01*
X139310515Y-72887386D01*
X139322066Y-72908997D01*
X139337612Y-72927939D01*
X139356554Y-72943485D01*
X139378165Y-72955036D01*
X139401614Y-72962149D01*
X139426000Y-72964551D01*
X139450386Y-72962149D01*
X139473835Y-72955036D01*
X139495446Y-72943485D01*
X139514388Y-72927939D01*
X139536240Y-72898476D01*
X139638350Y-72707443D01*
X139782183Y-72532182D01*
X139957445Y-72388347D01*
X140157396Y-72281472D01*
X140157399Y-72281471D01*
X140157401Y-72281470D01*
X140374366Y-72215654D01*
X140600000Y-72193431D01*
X140825635Y-72215654D01*
X140825635Y-72215654D01*
G37*
G36*
X90666031Y-72664207D02*
X90864145Y-72724305D01*
X91046729Y-72821897D01*
X91206765Y-72953235D01*
X91206766Y-72953237D01*
X91206768Y-72953238D01*
X91285568Y-73049257D01*
X91338103Y-73113271D01*
X91435695Y-73295854D01*
X91495793Y-73493968D01*
X91511000Y-73648370D01*
X91511000Y-74351629D01*
X91495793Y-74506031D01*
X91465744Y-74605088D01*
X91435695Y-74704147D01*
X91400245Y-74770469D01*
X91338103Y-74886729D01*
X91206765Y-75046765D01*
X91046729Y-75178103D01*
X90864146Y-75275695D01*
X90666032Y-75335793D01*
X90460000Y-75356085D01*
X90253969Y-75335793D01*
X90055855Y-75275695D01*
X89873272Y-75178103D01*
X89713236Y-75046765D01*
X89581899Y-74886731D01*
X89484306Y-74704148D01*
X89464273Y-74638108D01*
X89424207Y-74506032D01*
X89409000Y-74351630D01*
X89409000Y-73648371D01*
X89424207Y-73493969D01*
X89484305Y-73295855D01*
X89581897Y-73113271D01*
X89713235Y-72953235D01*
X89713237Y-72953234D01*
X89713238Y-72953232D01*
X89862458Y-72830771D01*
X89873271Y-72821897D01*
X90055854Y-72724305D01*
X90253968Y-72664207D01*
X90460000Y-72643915D01*
X90666031Y-72664207D01*
X90666031Y-72664207D01*
G37*
G36*
X93206031Y-72664207D02*
X93404145Y-72724305D01*
X93586729Y-72821897D01*
X93746765Y-72953235D01*
X93746766Y-72953237D01*
X93746768Y-72953238D01*
X93825568Y-73049257D01*
X93878103Y-73113271D01*
X93975695Y-73295854D01*
X94035793Y-73493968D01*
X94051000Y-73648370D01*
X94051000Y-74351629D01*
X94035793Y-74506031D01*
X94005744Y-74605088D01*
X93975695Y-74704147D01*
X93940245Y-74770469D01*
X93878103Y-74886729D01*
X93746765Y-75046765D01*
X93586729Y-75178103D01*
X93404146Y-75275695D01*
X93206032Y-75335793D01*
X93000000Y-75356085D01*
X92793969Y-75335793D01*
X92595855Y-75275695D01*
X92413272Y-75178103D01*
X92253236Y-75046765D01*
X92121899Y-74886731D01*
X92024306Y-74704148D01*
X92004273Y-74638108D01*
X91964207Y-74506032D01*
X91949000Y-74351630D01*
X91949000Y-73648371D01*
X91964207Y-73493969D01*
X92024305Y-73295855D01*
X92121897Y-73113271D01*
X92253235Y-72953235D01*
X92253237Y-72953234D01*
X92253238Y-72953232D01*
X92402458Y-72830771D01*
X92413271Y-72821897D01*
X92595854Y-72724305D01*
X92793968Y-72664207D01*
X93000000Y-72643915D01*
X93206031Y-72664207D01*
X93206031Y-72664207D01*
G37*
G36*
X99746031Y-72664207D02*
X99944145Y-72724305D01*
X100126729Y-72821897D01*
X100286765Y-72953235D01*
X100286766Y-72953237D01*
X100286768Y-72953238D01*
X100365568Y-73049257D01*
X100418103Y-73113271D01*
X100515695Y-73295854D01*
X100575793Y-73493968D01*
X100591000Y-73648370D01*
X100591000Y-74351629D01*
X100575793Y-74506031D01*
X100545744Y-74605088D01*
X100515695Y-74704147D01*
X100480245Y-74770469D01*
X100418103Y-74886729D01*
X100286765Y-75046765D01*
X100126729Y-75178103D01*
X99944146Y-75275695D01*
X99746032Y-75335793D01*
X99540000Y-75356085D01*
X99333969Y-75335793D01*
X99135855Y-75275695D01*
X98953272Y-75178103D01*
X98793236Y-75046765D01*
X98661899Y-74886731D01*
X98564306Y-74704148D01*
X98544273Y-74638108D01*
X98504207Y-74506032D01*
X98489000Y-74351630D01*
X98489000Y-73648371D01*
X98504207Y-73493969D01*
X98564305Y-73295855D01*
X98661897Y-73113271D01*
X98793235Y-72953235D01*
X98793237Y-72953234D01*
X98793238Y-72953232D01*
X98942458Y-72830771D01*
X98953271Y-72821897D01*
X99135854Y-72724305D01*
X99333968Y-72664207D01*
X99540000Y-72643915D01*
X99746031Y-72664207D01*
X99746031Y-72664207D01*
G37*
G36*
X102286031Y-72664207D02*
X102484145Y-72724305D01*
X102666729Y-72821897D01*
X102826765Y-72953235D01*
X102826766Y-72953237D01*
X102826768Y-72953238D01*
X102905568Y-73049257D01*
X102958103Y-73113271D01*
X103055695Y-73295854D01*
X103115793Y-73493968D01*
X103131000Y-73648370D01*
X103131000Y-74351629D01*
X103115793Y-74506031D01*
X103085744Y-74605088D01*
X103055695Y-74704147D01*
X103020245Y-74770469D01*
X102958103Y-74886729D01*
X102826765Y-75046765D01*
X102666729Y-75178103D01*
X102484146Y-75275695D01*
X102286032Y-75335793D01*
X102080000Y-75356085D01*
X101873969Y-75335793D01*
X101675855Y-75275695D01*
X101493272Y-75178103D01*
X101333236Y-75046765D01*
X101201899Y-74886731D01*
X101104306Y-74704148D01*
X101084273Y-74638108D01*
X101044207Y-74506032D01*
X101029000Y-74351630D01*
X101029000Y-73648371D01*
X101044207Y-73493969D01*
X101104305Y-73295855D01*
X101201897Y-73113271D01*
X101333235Y-72953235D01*
X101333237Y-72953234D01*
X101333238Y-72953232D01*
X101482458Y-72830771D01*
X101493271Y-72821897D01*
X101675854Y-72724305D01*
X101873968Y-72664207D01*
X102080000Y-72643915D01*
X102286031Y-72664207D01*
X102286031Y-72664207D01*
G37*
G36*
X104826031Y-72664207D02*
X105024145Y-72724305D01*
X105206729Y-72821897D01*
X105366765Y-72953235D01*
X105366766Y-72953237D01*
X105366768Y-72953238D01*
X105445568Y-73049257D01*
X105498103Y-73113271D01*
X105595695Y-73295854D01*
X105655793Y-73493968D01*
X105671000Y-73648370D01*
X105671000Y-74351629D01*
X105655793Y-74506031D01*
X105625744Y-74605088D01*
X105595695Y-74704147D01*
X105560245Y-74770469D01*
X105498103Y-74886729D01*
X105366765Y-75046765D01*
X105206729Y-75178103D01*
X105024146Y-75275695D01*
X104826032Y-75335793D01*
X104620000Y-75356085D01*
X104413969Y-75335793D01*
X104215855Y-75275695D01*
X104033272Y-75178103D01*
X103873236Y-75046765D01*
X103741899Y-74886731D01*
X103644306Y-74704148D01*
X103624273Y-74638108D01*
X103584207Y-74506032D01*
X103569000Y-74351630D01*
X103569000Y-73648371D01*
X103584207Y-73493969D01*
X103644305Y-73295855D01*
X103741897Y-73113271D01*
X103873235Y-72953235D01*
X103873237Y-72953234D01*
X103873238Y-72953232D01*
X104022458Y-72830771D01*
X104033271Y-72821897D01*
X104215854Y-72724305D01*
X104413968Y-72664207D01*
X104620000Y-72643915D01*
X104826031Y-72664207D01*
X104826031Y-72664207D01*
G37*
G36*
X83046031Y-72664207D02*
X83244145Y-72724305D01*
X83426729Y-72821897D01*
X83586765Y-72953235D01*
X83586766Y-72953237D01*
X83586768Y-72953238D01*
X83665568Y-73049257D01*
X83718103Y-73113271D01*
X83815695Y-73295854D01*
X83875793Y-73493968D01*
X83891000Y-73648370D01*
X83891000Y-74351629D01*
X83875793Y-74506031D01*
X83845744Y-74605088D01*
X83815695Y-74704147D01*
X83780245Y-74770469D01*
X83718103Y-74886729D01*
X83586765Y-75046765D01*
X83426729Y-75178103D01*
X83244146Y-75275695D01*
X83046032Y-75335793D01*
X82840000Y-75356085D01*
X82633969Y-75335793D01*
X82435855Y-75275695D01*
X82253272Y-75178103D01*
X82093236Y-75046765D01*
X81961899Y-74886731D01*
X81864306Y-74704148D01*
X81844273Y-74638108D01*
X81804207Y-74506032D01*
X81789000Y-74351630D01*
X81789000Y-73648371D01*
X81804207Y-73493969D01*
X81864305Y-73295855D01*
X81961897Y-73113271D01*
X82093235Y-72953235D01*
X82093237Y-72953234D01*
X82093238Y-72953232D01*
X82242458Y-72830771D01*
X82253271Y-72821897D01*
X82435854Y-72724305D01*
X82633968Y-72664207D01*
X82840000Y-72643915D01*
X83046031Y-72664207D01*
X83046031Y-72664207D01*
G37*
G36*
X85586031Y-72664207D02*
X85784145Y-72724305D01*
X85966729Y-72821897D01*
X86126765Y-72953235D01*
X86126766Y-72953237D01*
X86126768Y-72953238D01*
X86205568Y-73049257D01*
X86258103Y-73113271D01*
X86355695Y-73295854D01*
X86415793Y-73493968D01*
X86431000Y-73648370D01*
X86431000Y-74351629D01*
X86415793Y-74506031D01*
X86385744Y-74605088D01*
X86355695Y-74704147D01*
X86320245Y-74770469D01*
X86258103Y-74886729D01*
X86126765Y-75046765D01*
X85966729Y-75178103D01*
X85784146Y-75275695D01*
X85586032Y-75335793D01*
X85380000Y-75356085D01*
X85173969Y-75335793D01*
X84975855Y-75275695D01*
X84793272Y-75178103D01*
X84633236Y-75046765D01*
X84501899Y-74886731D01*
X84404306Y-74704148D01*
X84384273Y-74638108D01*
X84344207Y-74506032D01*
X84329000Y-74351630D01*
X84329000Y-73648371D01*
X84344207Y-73493969D01*
X84404305Y-73295855D01*
X84501897Y-73113271D01*
X84633235Y-72953235D01*
X84633237Y-72953234D01*
X84633238Y-72953232D01*
X84782458Y-72830771D01*
X84793271Y-72821897D01*
X84975854Y-72724305D01*
X85173968Y-72664207D01*
X85380000Y-72643915D01*
X85586031Y-72664207D01*
X85586031Y-72664207D01*
G37*
G36*
X109906031Y-72664207D02*
X110104145Y-72724305D01*
X110286729Y-72821897D01*
X110446765Y-72953235D01*
X110446766Y-72953237D01*
X110446768Y-72953238D01*
X110525568Y-73049257D01*
X110578103Y-73113271D01*
X110675695Y-73295854D01*
X110735793Y-73493968D01*
X110751000Y-73648370D01*
X110751000Y-74351629D01*
X110735793Y-74506031D01*
X110705744Y-74605088D01*
X110675695Y-74704147D01*
X110640245Y-74770469D01*
X110578103Y-74886729D01*
X110446765Y-75046765D01*
X110286729Y-75178103D01*
X110104146Y-75275695D01*
X109906032Y-75335793D01*
X109700000Y-75356085D01*
X109493969Y-75335793D01*
X109295855Y-75275695D01*
X109113272Y-75178103D01*
X108953236Y-75046765D01*
X108821899Y-74886731D01*
X108724306Y-74704148D01*
X108704273Y-74638108D01*
X108664207Y-74506032D01*
X108649000Y-74351630D01*
X108649000Y-73648371D01*
X108664207Y-73493969D01*
X108724305Y-73295855D01*
X108821897Y-73113271D01*
X108953235Y-72953235D01*
X108953237Y-72953234D01*
X108953238Y-72953232D01*
X109102458Y-72830771D01*
X109113271Y-72821897D01*
X109295854Y-72724305D01*
X109493968Y-72664207D01*
X109700000Y-72643915D01*
X109906031Y-72664207D01*
X109906031Y-72664207D01*
G37*
G36*
X107366031Y-72664207D02*
X107564145Y-72724305D01*
X107746729Y-72821897D01*
X107906765Y-72953235D01*
X107906766Y-72953237D01*
X107906768Y-72953238D01*
X107985568Y-73049257D01*
X108038103Y-73113271D01*
X108135695Y-73295854D01*
X108195793Y-73493968D01*
X108211000Y-73648370D01*
X108211000Y-74351629D01*
X108195793Y-74506031D01*
X108165744Y-74605088D01*
X108135695Y-74704147D01*
X108100245Y-74770469D01*
X108038103Y-74886729D01*
X107906765Y-75046765D01*
X107746729Y-75178103D01*
X107564146Y-75275695D01*
X107366032Y-75335793D01*
X107160000Y-75356085D01*
X106953969Y-75335793D01*
X106755855Y-75275695D01*
X106573272Y-75178103D01*
X106413236Y-75046765D01*
X106281899Y-74886731D01*
X106184306Y-74704148D01*
X106164273Y-74638108D01*
X106124207Y-74506032D01*
X106109000Y-74351630D01*
X106109000Y-73648371D01*
X106124207Y-73493969D01*
X106184305Y-73295855D01*
X106281897Y-73113271D01*
X106413235Y-72953235D01*
X106413237Y-72953234D01*
X106413238Y-72953232D01*
X106562458Y-72830771D01*
X106573271Y-72821897D01*
X106755854Y-72724305D01*
X106953968Y-72664207D01*
X107160000Y-72643915D01*
X107366031Y-72664207D01*
X107366031Y-72664207D01*
G37*
G36*
X88126031Y-72664207D02*
X88324145Y-72724305D01*
X88506729Y-72821897D01*
X88666765Y-72953235D01*
X88666766Y-72953237D01*
X88666768Y-72953238D01*
X88745568Y-73049257D01*
X88798103Y-73113271D01*
X88895695Y-73295854D01*
X88955793Y-73493968D01*
X88971000Y-73648370D01*
X88971000Y-74351629D01*
X88955793Y-74506031D01*
X88925744Y-74605088D01*
X88895695Y-74704147D01*
X88860245Y-74770469D01*
X88798103Y-74886729D01*
X88666765Y-75046765D01*
X88506729Y-75178103D01*
X88324146Y-75275695D01*
X88126032Y-75335793D01*
X87920000Y-75356085D01*
X87713969Y-75335793D01*
X87515855Y-75275695D01*
X87333272Y-75178103D01*
X87173236Y-75046765D01*
X87041899Y-74886731D01*
X86944306Y-74704148D01*
X86924273Y-74638108D01*
X86884207Y-74506032D01*
X86869000Y-74351630D01*
X86869000Y-73648371D01*
X86884207Y-73493969D01*
X86944305Y-73295855D01*
X87041897Y-73113271D01*
X87173235Y-72953235D01*
X87173237Y-72953234D01*
X87173238Y-72953232D01*
X87322458Y-72830771D01*
X87333271Y-72821897D01*
X87515854Y-72724305D01*
X87713968Y-72664207D01*
X87920000Y-72643915D01*
X88126031Y-72664207D01*
X88126031Y-72664207D01*
G37*
G36*
X81351000Y-75351000D02*
X79249000Y-75351000D01*
X79249000Y-72649000D01*
X81351000Y-72649000D01*
X81351000Y-75351000D01*
X81351000Y-75351000D01*
G37*
G36*
X98051000Y-75351000D02*
X95949000Y-75351000D01*
X95949000Y-72649000D01*
X98051000Y-72649000D01*
X98051000Y-75351000D01*
X98051000Y-75351000D01*
G37*
G36*
X136657025Y-72710590D02*
X136808012Y-72756392D01*
X136947165Y-72830770D01*
X137069133Y-72930867D01*
X137169230Y-73052835D01*
X137243608Y-73191988D01*
X137289410Y-73342975D01*
X137301000Y-73460654D01*
X137301000Y-74539346D01*
X137289410Y-74657025D01*
X137243608Y-74808012D01*
X137169230Y-74947165D01*
X137069136Y-75069130D01*
X137069134Y-75069131D01*
X137069133Y-75069133D01*
X137008148Y-75119181D01*
X136947161Y-75169232D01*
X136808011Y-75243608D01*
X136657024Y-75289410D01*
X136500000Y-75304875D01*
X136342975Y-75289410D01*
X136191988Y-75243608D01*
X136052835Y-75169230D01*
X135930870Y-75069136D01*
X135930869Y-75069134D01*
X135930867Y-75069133D01*
X135880819Y-75008148D01*
X135830768Y-74947161D01*
X135756392Y-74808011D01*
X135710590Y-74657024D01*
X135699000Y-74539345D01*
X135699001Y-73460654D01*
X135710591Y-73342975D01*
X135756393Y-73191988D01*
X135830771Y-73052835D01*
X135930868Y-72930867D01*
X136052836Y-72830770D01*
X136191989Y-72756392D01*
X136342976Y-72710590D01*
X136500000Y-72695125D01*
X136657025Y-72710590D01*
X136657025Y-72710590D01*
G37*
G36*
X114410442Y-72511518D02*
X114476627Y-72518037D01*
X114589853Y-72552384D01*
X114646467Y-72569557D01*
X114785087Y-72643652D01*
X114802991Y-72653222D01*
X114816376Y-72664207D01*
X114940186Y-72765814D01*
X115000699Y-72839551D01*
X115052778Y-72903009D01*
X115052779Y-72903011D01*
X115136443Y-73059533D01*
X115136443Y-73059534D01*
X115187963Y-73229373D01*
X115205359Y-73406000D01*
X115187963Y-73582627D01*
X115168020Y-73648369D01*
X115136443Y-73752467D01*
X115062348Y-73891087D01*
X115052778Y-73908991D01*
X115023448Y-73944729D01*
X114940186Y-74046186D01*
X114838729Y-74129448D01*
X114802991Y-74158778D01*
X114802989Y-74158779D01*
X114646467Y-74242443D01*
X114589853Y-74259616D01*
X114476627Y-74293963D01*
X114410443Y-74300481D01*
X114344260Y-74307000D01*
X114255740Y-74307000D01*
X114189557Y-74300481D01*
X114123373Y-74293963D01*
X114010147Y-74259616D01*
X113953533Y-74242443D01*
X113797011Y-74158779D01*
X113797009Y-74158778D01*
X113761271Y-74129448D01*
X113659814Y-74046186D01*
X113576552Y-73944729D01*
X113547222Y-73908991D01*
X113537652Y-73891087D01*
X113463557Y-73752467D01*
X113431980Y-73648369D01*
X113412037Y-73582627D01*
X113394641Y-73406000D01*
X113412037Y-73229373D01*
X113463557Y-73059534D01*
X113463557Y-73059533D01*
X113547221Y-72903011D01*
X113547222Y-72903009D01*
X113599301Y-72839551D01*
X113659814Y-72765814D01*
X113783624Y-72664207D01*
X113797009Y-72653222D01*
X113814913Y-72643652D01*
X113953533Y-72569557D01*
X114010147Y-72552384D01*
X114123373Y-72518037D01*
X114189558Y-72511518D01*
X114255740Y-72505000D01*
X114344260Y-72505000D01*
X114410442Y-72511518D01*
X114410442Y-72511518D01*
G37*
G36*
X116950442Y-72511518D02*
X117016627Y-72518037D01*
X117129853Y-72552384D01*
X117186467Y-72569557D01*
X117325087Y-72643652D01*
X117342991Y-72653222D01*
X117356376Y-72664207D01*
X117480186Y-72765814D01*
X117540699Y-72839551D01*
X117592778Y-72903009D01*
X117592779Y-72903011D01*
X117676443Y-73059533D01*
X117676443Y-73059534D01*
X117727963Y-73229373D01*
X117745359Y-73406000D01*
X117727963Y-73582627D01*
X117708020Y-73648369D01*
X117676443Y-73752467D01*
X117602348Y-73891087D01*
X117592778Y-73908991D01*
X117563448Y-73944729D01*
X117480186Y-74046186D01*
X117378729Y-74129448D01*
X117342991Y-74158778D01*
X117342989Y-74158779D01*
X117186467Y-74242443D01*
X117129853Y-74259616D01*
X117016627Y-74293963D01*
X116950443Y-74300481D01*
X116884260Y-74307000D01*
X116795740Y-74307000D01*
X116729557Y-74300481D01*
X116663373Y-74293963D01*
X116550147Y-74259616D01*
X116493533Y-74242443D01*
X116337011Y-74158779D01*
X116337009Y-74158778D01*
X116301271Y-74129448D01*
X116199814Y-74046186D01*
X116116552Y-73944729D01*
X116087222Y-73908991D01*
X116077652Y-73891087D01*
X116003557Y-73752467D01*
X115971980Y-73648369D01*
X115952037Y-73582627D01*
X115934641Y-73406000D01*
X115952037Y-73229373D01*
X116003557Y-73059534D01*
X116003557Y-73059533D01*
X116087221Y-72903011D01*
X116087222Y-72903009D01*
X116139301Y-72839551D01*
X116199814Y-72765814D01*
X116323624Y-72664207D01*
X116337009Y-72653222D01*
X116354913Y-72643652D01*
X116493533Y-72569557D01*
X116550147Y-72552384D01*
X116663373Y-72518037D01*
X116729558Y-72511518D01*
X116795740Y-72505000D01*
X116884260Y-72505000D01*
X116950442Y-72511518D01*
X116950442Y-72511518D01*
G37*
G36*
X119490442Y-72511518D02*
X119556627Y-72518037D01*
X119669853Y-72552384D01*
X119726467Y-72569557D01*
X119865087Y-72643652D01*
X119882991Y-72653222D01*
X119896376Y-72664207D01*
X120020186Y-72765814D01*
X120080699Y-72839551D01*
X120132778Y-72903009D01*
X120132779Y-72903011D01*
X120216443Y-73059533D01*
X120216443Y-73059534D01*
X120267963Y-73229373D01*
X120285359Y-73406000D01*
X120267963Y-73582627D01*
X120248020Y-73648369D01*
X120216443Y-73752467D01*
X120142348Y-73891087D01*
X120132778Y-73908991D01*
X120103448Y-73944729D01*
X120020186Y-74046186D01*
X119918729Y-74129448D01*
X119882991Y-74158778D01*
X119882989Y-74158779D01*
X119726467Y-74242443D01*
X119669853Y-74259616D01*
X119556627Y-74293963D01*
X119490443Y-74300481D01*
X119424260Y-74307000D01*
X119335740Y-74307000D01*
X119269557Y-74300481D01*
X119203373Y-74293963D01*
X119090147Y-74259616D01*
X119033533Y-74242443D01*
X118877011Y-74158779D01*
X118877009Y-74158778D01*
X118841271Y-74129448D01*
X118739814Y-74046186D01*
X118656552Y-73944729D01*
X118627222Y-73908991D01*
X118617652Y-73891087D01*
X118543557Y-73752467D01*
X118511980Y-73648369D01*
X118492037Y-73582627D01*
X118474641Y-73406000D01*
X118492037Y-73229373D01*
X118543557Y-73059534D01*
X118543557Y-73059533D01*
X118627221Y-72903011D01*
X118627222Y-72903009D01*
X118679301Y-72839551D01*
X118739814Y-72765814D01*
X118863624Y-72664207D01*
X118877009Y-72653222D01*
X118894913Y-72643652D01*
X119033533Y-72569557D01*
X119090147Y-72552384D01*
X119203373Y-72518037D01*
X119269558Y-72511518D01*
X119335740Y-72505000D01*
X119424260Y-72505000D01*
X119490442Y-72511518D01*
X119490442Y-72511518D01*
G37*
G36*
X125840442Y-72511518D02*
X125906627Y-72518037D01*
X126019853Y-72552384D01*
X126076467Y-72569557D01*
X126215087Y-72643652D01*
X126232991Y-72653222D01*
X126246376Y-72664207D01*
X126370186Y-72765814D01*
X126430699Y-72839551D01*
X126482778Y-72903009D01*
X126482779Y-72903011D01*
X126566443Y-73059533D01*
X126566443Y-73059534D01*
X126617963Y-73229373D01*
X126635359Y-73406000D01*
X126617963Y-73582627D01*
X126598020Y-73648369D01*
X126566443Y-73752467D01*
X126492348Y-73891087D01*
X126482778Y-73908991D01*
X126453448Y-73944729D01*
X126370186Y-74046186D01*
X126268729Y-74129448D01*
X126232991Y-74158778D01*
X126232989Y-74158779D01*
X126076467Y-74242443D01*
X126019853Y-74259616D01*
X125906627Y-74293963D01*
X125840443Y-74300481D01*
X125774260Y-74307000D01*
X125685740Y-74307000D01*
X125619557Y-74300481D01*
X125553373Y-74293963D01*
X125440147Y-74259616D01*
X125383533Y-74242443D01*
X125227011Y-74158779D01*
X125227009Y-74158778D01*
X125191271Y-74129448D01*
X125089814Y-74046186D01*
X125006552Y-73944729D01*
X124977222Y-73908991D01*
X124967652Y-73891087D01*
X124893557Y-73752467D01*
X124861980Y-73648369D01*
X124842037Y-73582627D01*
X124824641Y-73406000D01*
X124842037Y-73229373D01*
X124893557Y-73059534D01*
X124893557Y-73059533D01*
X124977221Y-72903011D01*
X124977222Y-72903009D01*
X125029301Y-72839551D01*
X125089814Y-72765814D01*
X125213624Y-72664207D01*
X125227009Y-72653222D01*
X125244913Y-72643652D01*
X125383533Y-72569557D01*
X125440147Y-72552384D01*
X125553373Y-72518037D01*
X125619558Y-72511518D01*
X125685740Y-72505000D01*
X125774260Y-72505000D01*
X125840442Y-72511518D01*
X125840442Y-72511518D01*
G37*
G36*
X124091000Y-74307000D02*
X122289000Y-74307000D01*
X122289000Y-72505000D01*
X124091000Y-72505000D01*
X124091000Y-74307000D01*
X124091000Y-74307000D01*
G37*
G36*
X128380442Y-72511518D02*
X128446627Y-72518037D01*
X128559853Y-72552384D01*
X128616467Y-72569557D01*
X128755087Y-72643652D01*
X128772991Y-72653222D01*
X128786376Y-72664207D01*
X128910186Y-72765814D01*
X128970699Y-72839551D01*
X129022778Y-72903009D01*
X129022779Y-72903011D01*
X129106443Y-73059533D01*
X129106443Y-73059534D01*
X129157963Y-73229373D01*
X129175359Y-73406000D01*
X129157963Y-73582627D01*
X129138020Y-73648369D01*
X129106443Y-73752467D01*
X129032348Y-73891087D01*
X129022778Y-73908991D01*
X128993448Y-73944729D01*
X128910186Y-74046186D01*
X128808729Y-74129448D01*
X128772991Y-74158778D01*
X128772989Y-74158779D01*
X128616467Y-74242443D01*
X128559853Y-74259616D01*
X128446627Y-74293963D01*
X128380443Y-74300481D01*
X128314260Y-74307000D01*
X128225740Y-74307000D01*
X128159557Y-74300481D01*
X128093373Y-74293963D01*
X127980147Y-74259616D01*
X127923533Y-74242443D01*
X127767011Y-74158779D01*
X127767009Y-74158778D01*
X127731271Y-74129448D01*
X127629814Y-74046186D01*
X127546552Y-73944729D01*
X127517222Y-73908991D01*
X127507652Y-73891087D01*
X127433557Y-73752467D01*
X127401980Y-73648369D01*
X127382037Y-73582627D01*
X127364641Y-73406000D01*
X127382037Y-73229373D01*
X127433557Y-73059534D01*
X127433557Y-73059533D01*
X127517221Y-72903011D01*
X127517222Y-72903009D01*
X127569301Y-72839551D01*
X127629814Y-72765814D01*
X127753624Y-72664207D01*
X127767009Y-72653222D01*
X127784913Y-72643652D01*
X127923533Y-72569557D01*
X127980147Y-72552384D01*
X128093373Y-72518037D01*
X128159558Y-72511518D01*
X128225740Y-72505000D01*
X128314260Y-72505000D01*
X128380442Y-72511518D01*
X128380442Y-72511518D01*
G37*
G36*
X55306565Y-71489389D02*
X55497834Y-71568615D01*
X55669976Y-71683637D01*
X55816363Y-71830024D01*
X55931385Y-72002166D01*
X56010611Y-72193435D01*
X56051000Y-72396484D01*
X56051000Y-72603516D01*
X56010611Y-72806565D01*
X55931385Y-72997834D01*
X55816363Y-73169976D01*
X55669976Y-73316363D01*
X55497834Y-73431385D01*
X55306565Y-73510611D01*
X55103516Y-73551000D01*
X54896484Y-73551000D01*
X54693435Y-73510611D01*
X54502166Y-73431385D01*
X54330024Y-73316363D01*
X54183637Y-73169976D01*
X54068615Y-72997834D01*
X53989389Y-72806565D01*
X53949000Y-72603516D01*
X53949000Y-72396484D01*
X53989389Y-72193435D01*
X54068615Y-72002166D01*
X54183637Y-71830024D01*
X54330024Y-71683637D01*
X54502166Y-71568615D01*
X54693435Y-71489389D01*
X54896484Y-71449000D01*
X55103516Y-71449000D01*
X55306565Y-71489389D01*
X55306565Y-71489389D01*
G37*
G36*
X48806565Y-71489389D02*
X48997834Y-71568615D01*
X49169976Y-71683637D01*
X49316363Y-71830024D01*
X49431385Y-72002166D01*
X49510611Y-72193435D01*
X49551000Y-72396484D01*
X49551000Y-72603516D01*
X49510611Y-72806565D01*
X49431385Y-72997834D01*
X49316363Y-73169976D01*
X49169976Y-73316363D01*
X48997834Y-73431385D01*
X48806565Y-73510611D01*
X48603516Y-73551000D01*
X48396484Y-73551000D01*
X48193435Y-73510611D01*
X48002166Y-73431385D01*
X47830024Y-73316363D01*
X47683637Y-73169976D01*
X47568615Y-72997834D01*
X47489389Y-72806565D01*
X47449000Y-72603516D01*
X47449000Y-72396484D01*
X47489389Y-72193435D01*
X47568615Y-72002166D01*
X47683637Y-71830024D01*
X47830024Y-71683637D01*
X48002166Y-71568615D01*
X48193435Y-71489389D01*
X48396484Y-71449000D01*
X48603516Y-71449000D01*
X48806565Y-71489389D01*
X48806565Y-71489389D01*
G37*
G36*
X58306565Y-71489389D02*
X58497834Y-71568615D01*
X58669976Y-71683637D01*
X58816363Y-71830024D01*
X58931385Y-72002166D01*
X59010611Y-72193435D01*
X59051000Y-72396484D01*
X59051000Y-72603516D01*
X59010611Y-72806565D01*
X58931385Y-72997834D01*
X58816363Y-73169976D01*
X58669976Y-73316363D01*
X58497834Y-73431385D01*
X58306565Y-73510611D01*
X58103516Y-73551000D01*
X57896484Y-73551000D01*
X57693435Y-73510611D01*
X57502166Y-73431385D01*
X57330024Y-73316363D01*
X57183637Y-73169976D01*
X57068615Y-72997834D01*
X56989389Y-72806565D01*
X56949000Y-72603516D01*
X56949000Y-72396484D01*
X56989389Y-72193435D01*
X57068615Y-72002166D01*
X57183637Y-71830024D01*
X57330024Y-71683637D01*
X57502166Y-71568615D01*
X57693435Y-71489389D01*
X57896484Y-71449000D01*
X58103516Y-71449000D01*
X58306565Y-71489389D01*
X58306565Y-71489389D01*
G37*
G36*
X74306565Y-71489389D02*
X74497834Y-71568615D01*
X74669976Y-71683637D01*
X74816363Y-71830024D01*
X74931385Y-72002166D01*
X75010611Y-72193435D01*
X75051000Y-72396484D01*
X75051000Y-72603516D01*
X75010611Y-72806565D01*
X74931385Y-72997834D01*
X74816363Y-73169976D01*
X74669976Y-73316363D01*
X74497834Y-73431385D01*
X74306565Y-73510611D01*
X74103516Y-73551000D01*
X73896484Y-73551000D01*
X73693435Y-73510611D01*
X73502166Y-73431385D01*
X73330024Y-73316363D01*
X73183637Y-73169976D01*
X73068615Y-72997834D01*
X72989389Y-72806565D01*
X72949000Y-72603516D01*
X72949000Y-72396484D01*
X72989389Y-72193435D01*
X73068615Y-72002166D01*
X73183637Y-71830024D01*
X73330024Y-71683637D01*
X73502166Y-71568615D01*
X73693435Y-71489389D01*
X73896484Y-71449000D01*
X74103516Y-71449000D01*
X74306565Y-71489389D01*
X74306565Y-71489389D01*
G37*
G36*
X67806565Y-71489389D02*
X67997834Y-71568615D01*
X68169976Y-71683637D01*
X68316363Y-71830024D01*
X68431385Y-72002166D01*
X68510611Y-72193435D01*
X68551000Y-72396484D01*
X68551000Y-72603516D01*
X68510611Y-72806565D01*
X68431385Y-72997834D01*
X68316363Y-73169976D01*
X68169976Y-73316363D01*
X67997834Y-73431385D01*
X67806565Y-73510611D01*
X67603516Y-73551000D01*
X67396484Y-73551000D01*
X67193435Y-73510611D01*
X67002166Y-73431385D01*
X66830024Y-73316363D01*
X66683637Y-73169976D01*
X66568615Y-72997834D01*
X66489389Y-72806565D01*
X66449000Y-72603516D01*
X66449000Y-72396484D01*
X66489389Y-72193435D01*
X66568615Y-72002166D01*
X66683637Y-71830024D01*
X66830024Y-71683637D01*
X67002166Y-71568615D01*
X67193435Y-71489389D01*
X67396484Y-71449000D01*
X67603516Y-71449000D01*
X67806565Y-71489389D01*
X67806565Y-71489389D01*
G37*
G36*
X64806565Y-71489389D02*
X64997834Y-71568615D01*
X65169976Y-71683637D01*
X65316363Y-71830024D01*
X65431385Y-72002166D01*
X65510611Y-72193435D01*
X65551000Y-72396484D01*
X65551000Y-72603516D01*
X65510611Y-72806565D01*
X65431385Y-72997834D01*
X65316363Y-73169976D01*
X65169976Y-73316363D01*
X64997834Y-73431385D01*
X64806565Y-73510611D01*
X64603516Y-73551000D01*
X64396484Y-73551000D01*
X64193435Y-73510611D01*
X64002166Y-73431385D01*
X63830024Y-73316363D01*
X63683637Y-73169976D01*
X63568615Y-72997834D01*
X63489389Y-72806565D01*
X63449000Y-72603516D01*
X63449000Y-72396484D01*
X63489389Y-72193435D01*
X63568615Y-72002166D01*
X63683637Y-71830024D01*
X63830024Y-71683637D01*
X64002166Y-71568615D01*
X64193435Y-71489389D01*
X64396484Y-71449000D01*
X64603516Y-71449000D01*
X64806565Y-71489389D01*
X64806565Y-71489389D01*
G37*
G36*
X90432078Y-62147703D02*
X90554501Y-62172054D01*
X90697802Y-62231411D01*
X90900460Y-62315355D01*
X91211820Y-62523399D01*
X91476601Y-62788180D01*
X91684645Y-63099540D01*
X91827946Y-63445500D01*
X91901000Y-63812766D01*
X91901000Y-64187234D01*
X91827946Y-64554500D01*
X91684645Y-64900460D01*
X91476601Y-65211820D01*
X91211820Y-65476601D01*
X90900460Y-65684645D01*
X90697802Y-65768589D01*
X90554501Y-65827946D01*
X90432078Y-65852297D01*
X90187234Y-65901000D01*
X89812766Y-65901000D01*
X89567922Y-65852297D01*
X89445499Y-65827946D01*
X89302198Y-65768589D01*
X89099540Y-65684645D01*
X88788180Y-65476601D01*
X88523399Y-65211820D01*
X88315355Y-64900460D01*
X88172054Y-64554500D01*
X88099000Y-64187234D01*
X88099000Y-63812766D01*
X88172054Y-63445500D01*
X88315355Y-63099540D01*
X88523399Y-62788180D01*
X88788180Y-62523399D01*
X89099540Y-62315355D01*
X89302198Y-62231411D01*
X89445499Y-62172054D01*
X89567922Y-62147703D01*
X89812766Y-62099000D01*
X90187234Y-62099000D01*
X90432078Y-62147703D01*
X90432078Y-62147703D01*
G37*
G36*
X100432078Y-62147703D02*
X100554501Y-62172054D01*
X100697802Y-62231411D01*
X100900460Y-62315355D01*
X101211820Y-62523399D01*
X101476601Y-62788180D01*
X101684645Y-63099540D01*
X101827946Y-63445500D01*
X101901000Y-63812766D01*
X101901000Y-64187234D01*
X101827946Y-64554500D01*
X101684645Y-64900460D01*
X101476601Y-65211820D01*
X101211820Y-65476601D01*
X100900460Y-65684645D01*
X100697802Y-65768589D01*
X100554501Y-65827946D01*
X100432078Y-65852297D01*
X100187234Y-65901000D01*
X99812766Y-65901000D01*
X99567922Y-65852297D01*
X99445499Y-65827946D01*
X99302198Y-65768589D01*
X99099540Y-65684645D01*
X98788180Y-65476601D01*
X98523399Y-65211820D01*
X98315355Y-64900460D01*
X98172054Y-64554500D01*
X98099000Y-64187234D01*
X98099000Y-63812766D01*
X98172054Y-63445500D01*
X98315355Y-63099540D01*
X98523399Y-62788180D01*
X98788180Y-62523399D01*
X99099540Y-62315355D01*
X99302198Y-62231411D01*
X99445499Y-62172054D01*
X99567922Y-62147703D01*
X99812766Y-62099000D01*
X100187234Y-62099000D01*
X100432078Y-62147703D01*
X100432078Y-62147703D01*
G37*
G36*
X71432078Y-61147703D02*
X71554501Y-61172054D01*
X71697802Y-61231411D01*
X71900460Y-61315355D01*
X72211820Y-61523399D01*
X72476601Y-61788180D01*
X72684645Y-62099540D01*
X72827946Y-62445500D01*
X72901000Y-62812766D01*
X72901000Y-63187234D01*
X72827946Y-63554500D01*
X72684645Y-63900460D01*
X72476601Y-64211820D01*
X72211820Y-64476601D01*
X71900460Y-64684645D01*
X71697802Y-64768589D01*
X71554501Y-64827946D01*
X71432078Y-64852297D01*
X71187234Y-64901000D01*
X70812766Y-64901000D01*
X70567922Y-64852297D01*
X70445499Y-64827946D01*
X70302198Y-64768589D01*
X70099540Y-64684645D01*
X69788180Y-64476601D01*
X69523399Y-64211820D01*
X69315355Y-63900460D01*
X69172054Y-63554500D01*
X69099000Y-63187234D01*
X69099000Y-62812766D01*
X69172054Y-62445500D01*
X69315355Y-62099540D01*
X69523399Y-61788180D01*
X69788180Y-61523399D01*
X70099540Y-61315355D01*
X70302198Y-61231411D01*
X70445499Y-61172054D01*
X70567922Y-61147703D01*
X70812766Y-61099000D01*
X71187234Y-61099000D01*
X71432078Y-61147703D01*
X71432078Y-61147703D01*
G37*
G36*
X119432078Y-61147703D02*
X119554501Y-61172054D01*
X119697802Y-61231411D01*
X119900460Y-61315355D01*
X120211820Y-61523399D01*
X120476601Y-61788180D01*
X120684645Y-62099540D01*
X120827946Y-62445500D01*
X120901000Y-62812766D01*
X120901000Y-63187234D01*
X120827946Y-63554500D01*
X120684645Y-63900460D01*
X120476601Y-64211820D01*
X120211820Y-64476601D01*
X119900460Y-64684645D01*
X119697802Y-64768589D01*
X119554501Y-64827946D01*
X119432078Y-64852297D01*
X119187234Y-64901000D01*
X118812766Y-64901000D01*
X118567922Y-64852297D01*
X118445499Y-64827946D01*
X118302198Y-64768589D01*
X118099540Y-64684645D01*
X117788180Y-64476601D01*
X117523399Y-64211820D01*
X117315355Y-63900460D01*
X117172054Y-63554500D01*
X117099000Y-63187234D01*
X117099000Y-62812766D01*
X117172054Y-62445500D01*
X117315355Y-62099540D01*
X117523399Y-61788180D01*
X117788180Y-61523399D01*
X118099540Y-61315355D01*
X118302198Y-61231411D01*
X118445499Y-61172054D01*
X118567922Y-61147703D01*
X118812766Y-61099000D01*
X119187234Y-61099000D01*
X119432078Y-61147703D01*
X119432078Y-61147703D01*
G37*
G36*
X71432078Y-39147703D02*
X71554501Y-39172054D01*
X71697802Y-39231411D01*
X71900460Y-39315355D01*
X72211820Y-39523399D01*
X72476601Y-39788180D01*
X72684645Y-40099540D01*
X72731153Y-40211820D01*
X72827946Y-40445499D01*
X72834133Y-40476603D01*
X72901000Y-40812766D01*
X72901000Y-41187234D01*
X72827946Y-41554500D01*
X72684645Y-41900460D01*
X72476601Y-42211820D01*
X72211820Y-42476601D01*
X71900460Y-42684645D01*
X71697802Y-42768589D01*
X71554501Y-42827946D01*
X71432078Y-42852297D01*
X71187234Y-42901000D01*
X70812766Y-42901000D01*
X70567922Y-42852297D01*
X70445499Y-42827946D01*
X70302198Y-42768589D01*
X70099540Y-42684645D01*
X69788180Y-42476601D01*
X69523399Y-42211820D01*
X69315355Y-41900460D01*
X69172054Y-41554500D01*
X69099000Y-41187234D01*
X69099000Y-40812766D01*
X69165867Y-40476603D01*
X69172054Y-40445499D01*
X69268847Y-40211820D01*
X69315355Y-40099540D01*
X69523399Y-39788180D01*
X69788180Y-39523399D01*
X70099540Y-39315355D01*
X70302198Y-39231411D01*
X70445499Y-39172054D01*
X70567922Y-39147703D01*
X70812766Y-39099000D01*
X71187234Y-39099000D01*
X71432078Y-39147703D01*
X71432078Y-39147703D01*
G37*
G36*
X119432078Y-39147703D02*
X119554501Y-39172054D01*
X119697802Y-39231411D01*
X119900460Y-39315355D01*
X120211820Y-39523399D01*
X120476601Y-39788180D01*
X120684645Y-40099540D01*
X120731153Y-40211820D01*
X120827946Y-40445499D01*
X120834133Y-40476603D01*
X120901000Y-40812766D01*
X120901000Y-41187234D01*
X120827946Y-41554500D01*
X120684645Y-41900460D01*
X120476601Y-42211820D01*
X120211820Y-42476601D01*
X119900460Y-42684645D01*
X119697802Y-42768589D01*
X119554501Y-42827946D01*
X119432078Y-42852297D01*
X119187234Y-42901000D01*
X118812766Y-42901000D01*
X118567922Y-42852297D01*
X118445499Y-42827946D01*
X118302198Y-42768589D01*
X118099540Y-42684645D01*
X117788180Y-42476601D01*
X117523399Y-42211820D01*
X117315355Y-41900460D01*
X117172054Y-41554500D01*
X117099000Y-41187234D01*
X117099000Y-40812766D01*
X117165867Y-40476603D01*
X117172054Y-40445499D01*
X117268847Y-40211820D01*
X117315355Y-40099540D01*
X117523399Y-39788180D01*
X117788180Y-39523399D01*
X118099540Y-39315355D01*
X118302198Y-39231411D01*
X118445499Y-39172054D01*
X118567922Y-39147703D01*
X118812766Y-39099000D01*
X119187234Y-39099000D01*
X119432078Y-39147703D01*
X119432078Y-39147703D01*
G37*
G36*
X90432078Y-37147703D02*
X90554501Y-37172054D01*
X90697802Y-37231411D01*
X90900460Y-37315355D01*
X91211820Y-37523399D01*
X91476601Y-37788180D01*
X91684645Y-38099540D01*
X91768589Y-38302198D01*
X91827946Y-38445499D01*
X91901000Y-38812768D01*
X91901000Y-39187232D01*
X91834133Y-39523399D01*
X91827946Y-39554500D01*
X91684645Y-39900460D01*
X91476601Y-40211820D01*
X91211820Y-40476601D01*
X90900460Y-40684645D01*
X90697802Y-40768589D01*
X90554501Y-40827946D01*
X90432078Y-40852297D01*
X90187234Y-40901000D01*
X89812766Y-40901000D01*
X89567922Y-40852297D01*
X89445499Y-40827946D01*
X89302198Y-40768589D01*
X89099540Y-40684645D01*
X88788180Y-40476601D01*
X88523399Y-40211820D01*
X88315355Y-39900460D01*
X88172054Y-39554500D01*
X88165868Y-39523399D01*
X88099000Y-39187232D01*
X88099000Y-38812768D01*
X88172054Y-38445499D01*
X88231411Y-38302198D01*
X88315355Y-38099540D01*
X88523399Y-37788180D01*
X88788180Y-37523399D01*
X89099540Y-37315355D01*
X89302198Y-37231411D01*
X89445499Y-37172054D01*
X89567922Y-37147703D01*
X89812766Y-37099000D01*
X90187234Y-37099000D01*
X90432078Y-37147703D01*
X90432078Y-37147703D01*
G37*
G36*
X100432078Y-37147703D02*
X100554501Y-37172054D01*
X100697802Y-37231411D01*
X100900460Y-37315355D01*
X101211820Y-37523399D01*
X101476601Y-37788180D01*
X101684645Y-38099540D01*
X101768589Y-38302198D01*
X101827946Y-38445499D01*
X101901000Y-38812768D01*
X101901000Y-39187232D01*
X101834133Y-39523399D01*
X101827946Y-39554500D01*
X101684645Y-39900460D01*
X101476601Y-40211820D01*
X101211820Y-40476601D01*
X100900460Y-40684645D01*
X100697802Y-40768589D01*
X100554501Y-40827946D01*
X100432078Y-40852297D01*
X100187234Y-40901000D01*
X99812766Y-40901000D01*
X99567922Y-40852297D01*
X99445499Y-40827946D01*
X99302198Y-40768589D01*
X99099540Y-40684645D01*
X98788180Y-40476601D01*
X98523399Y-40211820D01*
X98315355Y-39900460D01*
X98172054Y-39554500D01*
X98165868Y-39523399D01*
X98099000Y-39187232D01*
X98099000Y-38812768D01*
X98172054Y-38445499D01*
X98231411Y-38302198D01*
X98315355Y-38099540D01*
X98523399Y-37788180D01*
X98788180Y-37523399D01*
X99099540Y-37315355D01*
X99302198Y-37231411D01*
X99445499Y-37172054D01*
X99567922Y-37147703D01*
X99812766Y-37099000D01*
X100187234Y-37099000D01*
X100432078Y-37147703D01*
X100432078Y-37147703D01*
G37*
M02*
