M48
;DRILL file {KiCad (5.0.2)-1} date 31/01/2019 22:51:23
;FORMAT={-:-/ absolute / metric / decimal}
FMAT,2
METRIC,TZ
T1C0.400
T2C0.800
T3C0.800
T4C0.900
T5C1.000
T6C1.100
T7C1.200
T8C1.500
T9C3.700
%
G90
G05
T1
X57.404Y-87.884
X59.219Y-103.124
X60.705Y-106.924
X61.468Y-96.774
X61.473Y-94.493
X64.008Y-108.204
X67.564Y-106.172
X68.072Y-98.044
X74.168Y-91.948
X76.2Y-89.133
X77.216Y-75.692
X79.756Y-87.884
X83.312Y-98.044
X86.36Y-88.392
X89.154Y-88.392
X94.996Y-92.964
X97.028Y-84.836
X100.076Y-109.22
X101.092Y-82.296
X111.76Y-116.84
X117.348Y-91.44
X128.016Y-103.632
T2
X131.064Y-89.916
X131.064Y-92.456
X131.064Y-94.996
X95.Y-109.
X105.16Y-109.
X80.84Y-85.
X91.Y-85.
X56.Y-93.92
X56.Y-96.46
X56.Y-99.
X64.Y-85.
X74.16Y-85.
X67.564Y-88.392
X77.724Y-88.392
X78.Y-101.
X78.Y-111.16
X71.628Y-114.808
X81.788Y-114.808
X125.Y-102.84
X125.Y-113.
X116.Y-104.
X118.5Y-104.
X81.Y-100.84
X81.Y-111.
X82.84Y-88.
X93.Y-88.
X110.Y-104.
X112.5Y-104.
X60.Y-80.84
X60.Y-91.
X56.Y-80.84
X56.Y-91.
T3
X64.03Y-80.38
X64.03Y-88.
X64.03Y-90.54
X64.03Y-93.08
X64.03Y-95.62
X66.57Y-80.38
X66.57Y-95.62
X69.11Y-80.38
X69.11Y-95.62
X70.38Y-93.08
X71.65Y-80.38
X71.65Y-95.62
X72.92Y-93.08
X74.19Y-80.38
X74.19Y-95.62
X76.73Y-80.38
X76.73Y-95.62
X79.27Y-80.38
X79.27Y-95.62
X80.54Y-93.08
X81.81Y-80.38
X81.81Y-95.62
X83.08Y-93.08
X84.35Y-80.38
X84.35Y-95.62
X86.89Y-80.38
X86.89Y-95.62
X89.43Y-80.38
X89.43Y-95.62
X91.97Y-80.38
X91.97Y-95.62
T4
X85.Y-102.
X87.54Y-102.
X85.Y-109.
X87.54Y-109.
X134.5Y-74.
X136.5Y-74.
X138.5Y-74.
X72.136Y-102.108
X74.676Y-102.108
X72.136Y-108.712
X74.676Y-108.712
T5
X123.19Y-75.946
X125.73Y-75.946
X128.27Y-75.946
X50.92Y-107.
X53.46Y-107.
X56.Y-107.
X123.19Y-73.406
X125.73Y-73.406
X128.27Y-73.406
X112.92Y-111.
X115.46Y-111.
X118.Y-111.
X51.Y-82.
X51.Y-84.54
X51.Y-87.08
X51.Y-89.62
X51.Y-92.16
X51.Y-94.7
X51.Y-97.24
X90.84Y-113.
X93.38Y-113.
X95.92Y-113.
X98.46Y-113.
X101.Y-113.
X103.54Y-113.
X106.08Y-113.
X114.3Y-73.406
X114.3Y-75.946
X116.84Y-73.406
X116.84Y-75.946
X119.38Y-73.406
X119.38Y-75.946
X51.Y-103.
X53.54Y-103.
X56.08Y-103.
X62.484Y-117.
X65.024Y-117.
X67.564Y-117.
X133.92Y-107.
X136.46Y-107.
X139.Y-107.
X121.92Y-117.
X124.46Y-117.
X127.Y-117.
X104.75Y-80.75
X104.75Y-83.75
X104.75Y-87.
X104.75Y-90.
X119.25Y-80.75
X119.25Y-83.75
X119.25Y-87.
X119.25Y-90.
X122.75Y-95.
X122.75Y-98.
X85.92Y-117.
X88.46Y-117.
X91.Y-117.
X139.Y-82.76
X139.Y-85.3
X139.Y-87.84
X139.Y-90.38
X139.Y-92.92
X139.Y-95.46
X139.Y-98.
X62.484Y-109.728
X62.484Y-112.268
X65.024Y-109.728
X65.024Y-112.268
T6
X58.Y-72.5
X58.Y-77.
X64.5Y-72.5
X64.5Y-77.
X48.5Y-72.5
X48.5Y-77.
X55.Y-72.5
X55.Y-77.
X67.5Y-72.5
X67.5Y-77.
X74.Y-72.5
X74.Y-77.
T7
X130.Y-85.
X132.54Y-85.
X80.3Y-74.
X82.84Y-74.
X85.38Y-74.
X87.92Y-74.
X90.46Y-74.
X93.Y-74.
X97.Y-74.
X99.54Y-74.
X102.08Y-74.
X104.62Y-74.
X107.16Y-74.
X109.7Y-74.
T8
X132.4Y-74.
X140.6Y-74.
T9
X95.Y-101.
X119.Y-41.
X119.Y-63.
X64.Y-101.
X132.Y-101.
X100.Y-39.
X90.Y-39.
X71.Y-41.
X71.Y-63.
X100.Y-64.
X90.Y-64.
T0
M30
